G04*
G04 #@! TF.GenerationSoftware,Altium Limited,Altium Designer,19.0.15 (446)*
G04*
G04 Layer_Color=16711935*
%FSLAX25Y25*%
%MOIN*%
G70*
G01*
G75*
G04:AMPARAMS|DCode=24|XSize=62.99mil|YSize=74.8mil|CornerRadius=9.35mil|HoleSize=0mil|Usage=FLASHONLY|Rotation=270.000|XOffset=0mil|YOffset=0mil|HoleType=Round|Shape=RoundedRectangle|*
%AMROUNDEDRECTD24*
21,1,0.06299,0.05610,0,0,270.0*
21,1,0.04429,0.07480,0,0,270.0*
1,1,0.01870,-0.02805,-0.02215*
1,1,0.01870,-0.02805,0.02215*
1,1,0.01870,0.02805,0.02215*
1,1,0.01870,0.02805,-0.02215*
%
%ADD24ROUNDEDRECTD24*%
%ADD25O,0.07480X0.06299*%
%ADD26O,0.07087X0.05512*%
G04:AMPARAMS|DCode=27|XSize=55.12mil|YSize=66.93mil|CornerRadius=8.37mil|HoleSize=0mil|Usage=FLASHONLY|Rotation=90.000|XOffset=0mil|YOffset=0mil|HoleType=Round|Shape=RoundedRectangle|*
%AMROUNDEDRECTD27*
21,1,0.05512,0.05020,0,0,90.0*
21,1,0.03839,0.06693,0,0,90.0*
1,1,0.01673,0.02510,0.01919*
1,1,0.01673,0.02510,-0.01919*
1,1,0.01673,-0.02510,-0.01919*
1,1,0.01673,-0.02510,0.01919*
%
%ADD27ROUNDEDRECTD27*%
%ADD28C,0.06693*%
%ADD29O,0.08465X0.09055*%
G04:AMPARAMS|DCode=30|XSize=84.65mil|YSize=90.55mil|CornerRadius=10.04mil|HoleSize=0mil|Usage=FLASHONLY|Rotation=0.000|XOffset=0mil|YOffset=0mil|HoleType=Round|Shape=RoundedRectangle|*
%AMROUNDEDRECTD30*
21,1,0.08465,0.07047,0,0,0.0*
21,1,0.06457,0.09055,0,0,0.0*
1,1,0.02008,0.03228,-0.03524*
1,1,0.02008,-0.03228,-0.03524*
1,1,0.02008,-0.03228,0.03524*
1,1,0.02008,0.03228,0.03524*
%
%ADD30ROUNDEDRECTD30*%
%ADD31O,0.05512X0.07087*%
G04:AMPARAMS|DCode=32|XSize=55.12mil|YSize=66.93mil|CornerRadius=8.37mil|HoleSize=0mil|Usage=FLASHONLY|Rotation=180.000|XOffset=0mil|YOffset=0mil|HoleType=Round|Shape=RoundedRectangle|*
%AMROUNDEDRECTD32*
21,1,0.05512,0.05020,0,0,180.0*
21,1,0.03839,0.06693,0,0,180.0*
1,1,0.01673,-0.01919,0.02510*
1,1,0.01673,0.01919,0.02510*
1,1,0.01673,0.01919,-0.02510*
1,1,0.01673,-0.01919,-0.02510*
%
%ADD32ROUNDEDRECTD32*%
G04:AMPARAMS|DCode=33|XSize=66.93mil|YSize=66.93mil|CornerRadius=8.27mil|HoleSize=0mil|Usage=FLASHONLY|Rotation=90.000|XOffset=0mil|YOffset=0mil|HoleType=Round|Shape=RoundedRectangle|*
%AMROUNDEDRECTD33*
21,1,0.06693,0.05039,0,0,90.0*
21,1,0.05039,0.06693,0,0,90.0*
1,1,0.01654,0.02520,0.02520*
1,1,0.01654,0.02520,-0.02520*
1,1,0.01654,-0.02520,-0.02520*
1,1,0.01654,-0.02520,0.02520*
%
%ADD33ROUNDEDRECTD33*%
G04:AMPARAMS|DCode=34|XSize=66.93mil|YSize=66.93mil|CornerRadius=9.84mil|HoleSize=0mil|Usage=FLASHONLY|Rotation=270.000|XOffset=0mil|YOffset=0mil|HoleType=Round|Shape=RoundedRectangle|*
%AMROUNDEDRECTD34*
21,1,0.06693,0.04724,0,0,270.0*
21,1,0.04724,0.06693,0,0,270.0*
1,1,0.01968,-0.02362,-0.02362*
1,1,0.01968,-0.02362,0.02362*
1,1,0.01968,0.02362,0.02362*
1,1,0.01968,0.02362,-0.02362*
%
%ADD34ROUNDEDRECTD34*%
%ADD35C,0.08268*%
G04:AMPARAMS|DCode=36|XSize=82.68mil|YSize=82.68mil|CornerRadius=11.81mil|HoleSize=0mil|Usage=FLASHONLY|Rotation=90.000|XOffset=0mil|YOffset=0mil|HoleType=Round|Shape=RoundedRectangle|*
%AMROUNDEDRECTD36*
21,1,0.08268,0.05906,0,0,90.0*
21,1,0.05906,0.08268,0,0,90.0*
1,1,0.02362,0.02953,0.02953*
1,1,0.02362,0.02953,-0.02953*
1,1,0.02362,-0.02953,-0.02953*
1,1,0.02362,-0.02953,0.02953*
%
%ADD36ROUNDEDRECTD36*%
%ADD37O,0.08268X0.07087*%
G04:AMPARAMS|DCode=38|XSize=70.87mil|YSize=82.68mil|CornerRadius=10.34mil|HoleSize=0mil|Usage=FLASHONLY|Rotation=270.000|XOffset=0mil|YOffset=0mil|HoleType=Round|Shape=RoundedRectangle|*
%AMROUNDEDRECTD38*
21,1,0.07087,0.06201,0,0,270.0*
21,1,0.05020,0.08268,0,0,270.0*
1,1,0.02067,-0.03100,-0.02510*
1,1,0.02067,-0.03100,0.02510*
1,1,0.02067,0.03100,0.02510*
1,1,0.02067,0.03100,-0.02510*
%
%ADD38ROUNDEDRECTD38*%
D24*
X235000Y105000D02*
D03*
X10000Y95000D02*
D03*
D25*
X235000D02*
D03*
Y85000D02*
D03*
Y75000D02*
D03*
Y65000D02*
D03*
Y55000D02*
D03*
Y45000D02*
D03*
Y35000D02*
D03*
X10000Y85000D02*
D03*
Y75000D02*
D03*
Y65000D02*
D03*
Y55000D02*
D03*
Y45000D02*
D03*
D26*
X230276Y169094D02*
D03*
X175276D02*
D03*
X100140Y7126D02*
D03*
X135000Y70000D02*
D03*
X134936Y92126D02*
D03*
X165000Y127205D02*
D03*
D27*
X230276Y176969D02*
D03*
X175276D02*
D03*
X100140Y15000D02*
D03*
X135000Y62126D02*
D03*
X134936Y100000D02*
D03*
X165000Y135079D02*
D03*
D28*
X210276Y165000D02*
D03*
Y175000D02*
D03*
X195276Y165000D02*
D03*
Y175000D02*
D03*
X155276Y165000D02*
D03*
Y175000D02*
D03*
X140276Y165000D02*
D03*
Y175000D02*
D03*
X144095Y135000D02*
D03*
X134095D02*
D03*
X144095Y120000D02*
D03*
X134095D02*
D03*
X169979Y60000D02*
D03*
Y70000D02*
D03*
X155000Y60000D02*
D03*
Y70000D02*
D03*
X170000Y90000D02*
D03*
Y100000D02*
D03*
X155000Y90000D02*
D03*
Y100000D02*
D03*
X80000Y17126D02*
D03*
Y7126D02*
D03*
X65000Y17126D02*
D03*
Y7126D02*
D03*
X85000Y85630D02*
D03*
X95000D02*
D03*
X105000D02*
D03*
X115000D02*
D03*
Y54370D02*
D03*
X105000D02*
D03*
X95000D02*
D03*
X40000Y85630D02*
D03*
X50000D02*
D03*
X60000D02*
D03*
X70000D02*
D03*
Y54370D02*
D03*
X60000D02*
D03*
X50000D02*
D03*
X75000Y100000D02*
D03*
X85000D02*
D03*
X105000Y167061D02*
D03*
X90000Y185000D02*
D03*
X100000D02*
D03*
X90000Y200000D02*
D03*
X100000D02*
D03*
X110140Y100000D02*
D03*
X100140D02*
D03*
X200079Y135000D02*
D03*
Y125000D02*
D03*
X185079Y135000D02*
D03*
Y125000D02*
D03*
D29*
X224291Y195000D02*
D03*
X214252D02*
D03*
X165276D02*
D03*
X154646D02*
D03*
X19370Y15000D02*
D03*
X30000D02*
D03*
D30*
X204213Y195000D02*
D03*
X144016D02*
D03*
X40630Y15000D02*
D03*
D31*
X105906Y35000D02*
D03*
X60906D02*
D03*
X48814Y100000D02*
D03*
X116457Y185000D02*
D03*
D32*
X98031Y35000D02*
D03*
X53031D02*
D03*
X56688Y100000D02*
D03*
X124331Y185000D02*
D03*
D33*
X85000Y54370D02*
D03*
X40000D02*
D03*
D34*
X105000Y157061D02*
D03*
D35*
X75000Y200000D02*
D03*
X15000D02*
D03*
X75000Y165000D02*
D03*
D36*
X15000D02*
D03*
D37*
X20000Y125079D02*
D03*
D38*
Y135079D02*
D03*
M02*
