G04*
G04 #@! TF.GenerationSoftware,Altium Limited,Altium Designer,19.0.15 (446)*
G04*
G04 Layer_Physical_Order=2*
G04 Layer_Color=16716563*
%FSLAX25Y25*%
%MOIN*%
G70*
G01*
G75*
%ADD39C,0.01968*%
G04:AMPARAMS|DCode=40|XSize=59.06mil|YSize=70.87mil|CornerRadius=7.38mil|HoleSize=0mil|Usage=FLASHONLY|Rotation=270.000|XOffset=0mil|YOffset=0mil|HoleType=Round|Shape=RoundedRectangle|*
%AMROUNDEDRECTD40*
21,1,0.05906,0.05610,0,0,270.0*
21,1,0.04429,0.07087,0,0,270.0*
1,1,0.01476,-0.02805,-0.02215*
1,1,0.01476,-0.02805,0.02215*
1,1,0.01476,0.02805,0.02215*
1,1,0.01476,0.02805,-0.02215*
%
%ADD40ROUNDEDRECTD40*%
%ADD41O,0.07087X0.05906*%
%ADD42O,0.06693X0.05118*%
G04:AMPARAMS|DCode=43|XSize=51.18mil|YSize=62.99mil|CornerRadius=6.4mil|HoleSize=0mil|Usage=FLASHONLY|Rotation=90.000|XOffset=0mil|YOffset=0mil|HoleType=Round|Shape=RoundedRectangle|*
%AMROUNDEDRECTD43*
21,1,0.05118,0.05020,0,0,90.0*
21,1,0.03839,0.06299,0,0,90.0*
1,1,0.01280,0.02510,0.01919*
1,1,0.01280,0.02510,-0.01919*
1,1,0.01280,-0.02510,-0.01919*
1,1,0.01280,-0.02510,0.01919*
%
%ADD43ROUNDEDRECTD43*%
%ADD44C,0.06299*%
%ADD45O,0.08071X0.08661*%
G04:AMPARAMS|DCode=46|XSize=80.71mil|YSize=86.61mil|CornerRadius=8.07mil|HoleSize=0mil|Usage=FLASHONLY|Rotation=0.000|XOffset=0mil|YOffset=0mil|HoleType=Round|Shape=RoundedRectangle|*
%AMROUNDEDRECTD46*
21,1,0.08071,0.07047,0,0,0.0*
21,1,0.06457,0.08661,0,0,0.0*
1,1,0.01614,0.03228,-0.03524*
1,1,0.01614,-0.03228,-0.03524*
1,1,0.01614,-0.03228,0.03524*
1,1,0.01614,0.03228,0.03524*
%
%ADD46ROUNDEDRECTD46*%
%ADD47O,0.05118X0.06693*%
G04:AMPARAMS|DCode=48|XSize=51.18mil|YSize=62.99mil|CornerRadius=6.4mil|HoleSize=0mil|Usage=FLASHONLY|Rotation=180.000|XOffset=0mil|YOffset=0mil|HoleType=Round|Shape=RoundedRectangle|*
%AMROUNDEDRECTD48*
21,1,0.05118,0.05020,0,0,180.0*
21,1,0.03839,0.06299,0,0,180.0*
1,1,0.01280,-0.01919,0.02510*
1,1,0.01280,0.01919,0.02510*
1,1,0.01280,0.01919,-0.02510*
1,1,0.01280,-0.01919,-0.02510*
%
%ADD48ROUNDEDRECTD48*%
G04:AMPARAMS|DCode=49|XSize=62.99mil|YSize=62.99mil|CornerRadius=6.3mil|HoleSize=0mil|Usage=FLASHONLY|Rotation=90.000|XOffset=0mil|YOffset=0mil|HoleType=Round|Shape=RoundedRectangle|*
%AMROUNDEDRECTD49*
21,1,0.06299,0.05039,0,0,90.0*
21,1,0.05039,0.06299,0,0,90.0*
1,1,0.01260,0.02520,0.02520*
1,1,0.01260,0.02520,-0.02520*
1,1,0.01260,-0.02520,-0.02520*
1,1,0.01260,-0.02520,0.02520*
%
%ADD49ROUNDEDRECTD49*%
G04:AMPARAMS|DCode=50|XSize=62.99mil|YSize=62.99mil|CornerRadius=7.87mil|HoleSize=0mil|Usage=FLASHONLY|Rotation=270.000|XOffset=0mil|YOffset=0mil|HoleType=Round|Shape=RoundedRectangle|*
%AMROUNDEDRECTD50*
21,1,0.06299,0.04724,0,0,270.0*
21,1,0.04724,0.06299,0,0,270.0*
1,1,0.01575,-0.02362,-0.02362*
1,1,0.01575,-0.02362,0.02362*
1,1,0.01575,0.02362,0.02362*
1,1,0.01575,0.02362,-0.02362*
%
%ADD50ROUNDEDRECTD50*%
%ADD51C,0.07874*%
G04:AMPARAMS|DCode=52|XSize=78.74mil|YSize=78.74mil|CornerRadius=9.84mil|HoleSize=0mil|Usage=FLASHONLY|Rotation=90.000|XOffset=0mil|YOffset=0mil|HoleType=Round|Shape=RoundedRectangle|*
%AMROUNDEDRECTD52*
21,1,0.07874,0.05906,0,0,90.0*
21,1,0.05906,0.07874,0,0,90.0*
1,1,0.01968,0.02953,0.02953*
1,1,0.01968,0.02953,-0.02953*
1,1,0.01968,-0.02953,-0.02953*
1,1,0.01968,-0.02953,0.02953*
%
%ADD52ROUNDEDRECTD52*%
%ADD53O,0.07874X0.06693*%
G04:AMPARAMS|DCode=54|XSize=66.93mil|YSize=78.74mil|CornerRadius=8.37mil|HoleSize=0mil|Usage=FLASHONLY|Rotation=270.000|XOffset=0mil|YOffset=0mil|HoleType=Round|Shape=RoundedRectangle|*
%AMROUNDEDRECTD54*
21,1,0.06693,0.06201,0,0,270.0*
21,1,0.05020,0.07874,0,0,270.0*
1,1,0.01673,-0.03100,-0.02510*
1,1,0.01673,-0.03100,0.02510*
1,1,0.01673,0.03100,0.02510*
1,1,0.01673,0.03100,-0.02510*
%
%ADD54ROUNDEDRECTD54*%
%ADD55C,0.05000*%
G36*
X244197Y204667D02*
Y5333D01*
X239668Y803D01*
X5333D01*
X803Y5333D01*
Y204667D01*
X5333Y209197D01*
X239668D01*
X244197Y204667D01*
D02*
G37*
%LPC*%
G36*
X90750Y203681D02*
Y200750D01*
X93681D01*
X93472Y201438D01*
X93125Y202088D01*
X92658Y202658D01*
X92088Y203125D01*
X91438Y203472D01*
X90750Y203681D01*
D02*
G37*
G36*
X14250Y204476D02*
X13597Y204319D01*
X12938Y204047D01*
X12331Y203674D01*
X11789Y203211D01*
X11326Y202670D01*
X10953Y202062D01*
X10681Y201403D01*
X10524Y200750D01*
X14250D01*
Y204476D01*
D02*
G37*
G36*
X147244Y200346D02*
X140787D01*
X140316Y200284D01*
X139876Y200102D01*
X139499Y199812D01*
X139209Y199435D01*
X139027Y198995D01*
X138965Y198524D01*
Y196787D01*
X134764D01*
X134764Y196787D01*
X134301Y196726D01*
X134049Y196622D01*
X133870Y196547D01*
X133500Y196264D01*
X131020Y193783D01*
X130736Y193413D01*
X130557Y192982D01*
X130497Y192520D01*
Y160137D01*
X129207Y158848D01*
X109165D01*
Y159423D01*
X109104Y159890D01*
X108923Y160324D01*
X108637Y160698D01*
X108264Y160984D01*
X107829Y161164D01*
X107362Y161226D01*
X102638D01*
X102171Y161164D01*
X101736Y160984D01*
X101363Y160698D01*
X101076Y160324D01*
X100896Y159890D01*
X100835Y159423D01*
Y158848D01*
X17301D01*
X16787Y159362D01*
Y160046D01*
X17953D01*
X18471Y160114D01*
X18953Y160314D01*
X19368Y160632D01*
X19686Y161047D01*
X19886Y161529D01*
X19954Y162047D01*
Y167953D01*
X19886Y168471D01*
X19686Y168953D01*
X19368Y169368D01*
X18953Y169686D01*
X18471Y169886D01*
X17953Y169954D01*
X12047D01*
X11529Y169886D01*
X11047Y169686D01*
X10632Y169368D01*
X10314Y168953D01*
X10114Y168471D01*
X10046Y167953D01*
Y162573D01*
X8736Y161264D01*
X8452Y160893D01*
X8274Y160462D01*
X8213Y160000D01*
Y98968D01*
X7195D01*
X6741Y98908D01*
X6318Y98733D01*
X5955Y98454D01*
X5677Y98091D01*
X5501Y97668D01*
X5442Y97215D01*
Y92785D01*
X5501Y92332D01*
X5677Y91909D01*
X5955Y91546D01*
X6318Y91267D01*
X6741Y91092D01*
X7195Y91032D01*
X12805D01*
X13259Y91092D01*
X13682Y91267D01*
X14045Y91546D01*
X14323Y91909D01*
X14499Y92332D01*
X14558Y92785D01*
Y93213D01*
X36386D01*
X38213Y91386D01*
Y89381D01*
X38110Y89339D01*
X37553Y88998D01*
X37057Y88573D01*
X36632Y88077D01*
X36291Y87520D01*
X36041Y86916D01*
X35889Y86281D01*
X35838Y85630D01*
X35889Y84979D01*
X36041Y84344D01*
X36291Y83740D01*
X36632Y83183D01*
X37057Y82687D01*
X37553Y82262D01*
X38110Y81921D01*
X38714Y81671D01*
X39349Y81519D01*
X40000Y81468D01*
X40651Y81519D01*
X41286Y81671D01*
X41890Y81921D01*
X42447Y82262D01*
X42943Y82687D01*
X43367Y83183D01*
X43709Y83740D01*
X43959Y84344D01*
X44111Y84979D01*
X44162Y85630D01*
X44111Y86281D01*
X43959Y86916D01*
X43709Y87520D01*
X43367Y88077D01*
X42943Y88573D01*
X42543Y88915D01*
X42415Y89494D01*
X43260Y90339D01*
X81937D01*
X82718Y89559D01*
X82659Y89062D01*
X82553Y88998D01*
X82057Y88573D01*
X81633Y88077D01*
X81291Y87520D01*
X81041Y86916D01*
X80889Y86281D01*
X80838Y85630D01*
X80889Y84979D01*
X81041Y84344D01*
X81291Y83740D01*
X81633Y83183D01*
X82057Y82687D01*
X82553Y82262D01*
X83110Y81921D01*
X83714Y81671D01*
X84349Y81519D01*
X85000Y81468D01*
X85651Y81519D01*
X86286Y81671D01*
X86890Y81921D01*
X87447Y82262D01*
X87943Y82687D01*
X88367Y83183D01*
X88709Y83740D01*
X88959Y84344D01*
X89111Y84979D01*
X89162Y85630D01*
X89111Y86281D01*
X88959Y86916D01*
X88709Y87520D01*
X88367Y88077D01*
X87943Y88573D01*
X87447Y88998D01*
X86890Y89339D01*
X86787Y89381D01*
Y89803D01*
X86787Y89803D01*
X86726Y90266D01*
X86621Y90518D01*
X86547Y90697D01*
X86264Y91067D01*
X83941Y93389D01*
X83571Y93673D01*
X83140Y93852D01*
X82677Y93913D01*
X42520D01*
X42520Y93913D01*
X42057Y93852D01*
X41626Y93673D01*
X41260Y93393D01*
X38390Y96264D01*
X38019Y96548D01*
X37589Y96726D01*
X37126Y96787D01*
X14558D01*
Y97215D01*
X14499Y97668D01*
X14323Y98091D01*
X14045Y98454D01*
X13682Y98733D01*
X13259Y98908D01*
X12805Y98968D01*
X11787D01*
Y159260D01*
X12573Y160046D01*
X13213D01*
Y158622D01*
X13274Y158159D01*
X13453Y157729D01*
X13736Y157359D01*
X15076Y156019D01*
X15246Y155797D01*
X15246Y155797D01*
X15246Y155797D01*
X15397Y155682D01*
X15616Y155513D01*
X15616Y155513D01*
X15617Y155513D01*
X15803Y155436D01*
X16047Y155335D01*
X16047Y155335D01*
X16048Y155335D01*
X16280Y155304D01*
X16510Y155274D01*
X100835D01*
Y154699D01*
X100896Y154232D01*
X101076Y153797D01*
X101363Y153424D01*
X101736Y153137D01*
X102171Y152957D01*
X102638Y152896D01*
X107362D01*
X107829Y152957D01*
X108264Y153137D01*
X108637Y153424D01*
X108923Y153797D01*
X109104Y154232D01*
X109165Y154699D01*
Y155274D01*
X129207D01*
X132308Y152173D01*
Y138751D01*
X132205Y138709D01*
X131648Y138367D01*
X131151Y137943D01*
X130727Y137447D01*
X130386Y136890D01*
X130136Y136286D01*
X129983Y135651D01*
X129932Y135000D01*
X129983Y134349D01*
X130136Y133714D01*
X130386Y133110D01*
X130727Y132553D01*
X131151Y132057D01*
X131648Y131632D01*
X132205Y131291D01*
X132308Y131249D01*
Y123751D01*
X132205Y123709D01*
X131648Y123368D01*
X131151Y122943D01*
X130727Y122447D01*
X130386Y121890D01*
X130136Y121286D01*
X129983Y120651D01*
X129932Y120000D01*
X129983Y119349D01*
X130136Y118714D01*
X130386Y118110D01*
X130727Y117553D01*
X131151Y117057D01*
X131648Y116632D01*
X132205Y116291D01*
X132808Y116041D01*
X133443Y115889D01*
X134095Y115838D01*
X134746Y115889D01*
X135381Y116041D01*
X135984Y116291D01*
X136541Y116632D01*
X137038Y117057D01*
X137462Y117553D01*
X137803Y118110D01*
X138053Y118714D01*
X138206Y119349D01*
X138257Y120000D01*
X138206Y120651D01*
X138053Y121286D01*
X137803Y121890D01*
X137462Y122447D01*
X137038Y122943D01*
X136541Y123368D01*
X135984Y123709D01*
X135881Y123751D01*
Y131249D01*
X135984Y131291D01*
X136541Y131632D01*
X137038Y132057D01*
X137462Y132553D01*
X137803Y133110D01*
X138053Y133714D01*
X138206Y134349D01*
X138257Y135000D01*
X138206Y135651D01*
X138053Y136286D01*
X137803Y136890D01*
X137462Y137447D01*
X137038Y137943D01*
X136541Y138367D01*
X135984Y138709D01*
X135881Y138751D01*
Y152913D01*
X135820Y153376D01*
X135642Y153807D01*
X135358Y154177D01*
X135358Y154177D01*
X132474Y157061D01*
X133547Y158134D01*
X133831Y158504D01*
X134010Y158935D01*
X134070Y159397D01*
Y191779D01*
X135504Y193213D01*
X138965D01*
Y191476D01*
X139027Y191005D01*
X139209Y190565D01*
X139499Y190188D01*
X139876Y189898D01*
X140316Y189716D01*
X140787Y189654D01*
X147244D01*
X147716Y189716D01*
X148155Y189898D01*
X148533Y190188D01*
X148823Y190565D01*
X149005Y191005D01*
X149067Y191476D01*
Y198524D01*
X149005Y198995D01*
X148823Y199435D01*
X148533Y199812D01*
X148155Y200102D01*
X147716Y200284D01*
X147244Y200346D01*
D02*
G37*
G36*
X211417Y204937D02*
X157087D01*
X156624Y204876D01*
X156372Y204771D01*
X156193Y204697D01*
X155823Y204413D01*
X153382Y201972D01*
X153098Y201602D01*
X152920Y201171D01*
X152859Y200709D01*
Y199562D01*
X152539Y199430D01*
X151918Y199049D01*
X151364Y198576D01*
X150891Y198023D01*
X150511Y197402D01*
X150232Y196729D01*
X150062Y196021D01*
X150041Y195750D01*
X159250D01*
X159229Y196021D01*
X159059Y196729D01*
X158780Y197402D01*
X158400Y198023D01*
X157927Y198576D01*
X157373Y199049D01*
X156752Y199430D01*
X156546Y199515D01*
X156488Y200024D01*
X157827Y201363D01*
X210677D01*
X212091Y199949D01*
X212110Y199772D01*
X211995Y199338D01*
X211525Y199049D01*
X210971Y198576D01*
X210498Y198023D01*
X210118Y197402D01*
X209839Y196729D01*
X209764Y196416D01*
X209264Y196475D01*
Y198524D01*
X209202Y198995D01*
X209019Y199435D01*
X208730Y199812D01*
X208352Y200102D01*
X207913Y200284D01*
X207441Y200346D01*
X200984D01*
X200513Y200284D01*
X200073Y200102D01*
X199695Y199812D01*
X199406Y199435D01*
X199224Y198995D01*
X199162Y198524D01*
Y196787D01*
X179370D01*
X179370Y196787D01*
X179370Y196787D01*
X170096D01*
X170079Y196856D01*
X169776Y197588D01*
X169362Y198264D01*
X168847Y198867D01*
X168245Y199382D01*
X167569Y199796D01*
X166836Y200099D01*
X166066Y200284D01*
X165276Y200346D01*
X164485Y200284D01*
X163715Y200099D01*
X162982Y199796D01*
X162307Y199382D01*
X161704Y198867D01*
X161189Y198264D01*
X160775Y197588D01*
X160472Y196856D01*
X160287Y196085D01*
X160225Y195295D01*
Y194705D01*
X160287Y193915D01*
X160472Y193144D01*
X160775Y192412D01*
X161189Y191736D01*
X161704Y191133D01*
X162307Y190618D01*
X162982Y190204D01*
X163715Y189901D01*
X164485Y189716D01*
X165276Y189654D01*
X166066Y189716D01*
X166836Y189901D01*
X167569Y190204D01*
X168245Y190618D01*
X168847Y191133D01*
X169362Y191736D01*
X169776Y192412D01*
X170079Y193144D01*
X170096Y193213D01*
X174403D01*
X174594Y192751D01*
X174012Y192169D01*
X173728Y191799D01*
X173549Y191368D01*
X173489Y190906D01*
Y180542D01*
X172766D01*
X172338Y180485D01*
X171939Y180320D01*
X171596Y180057D01*
X171333Y179715D01*
X171168Y179316D01*
X171112Y178888D01*
Y178755D01*
X157244D01*
X157099Y178736D01*
X156562Y178959D01*
X155927Y179111D01*
X155276Y179162D01*
X154624Y179111D01*
X153989Y178959D01*
X153386Y178709D01*
X152829Y178367D01*
X152332Y177943D01*
X151908Y177447D01*
X151567Y176890D01*
X151524Y176787D01*
X144027D01*
X143984Y176890D01*
X143643Y177447D01*
X143219Y177943D01*
X142722Y178367D01*
X142165Y178709D01*
X141562Y178959D01*
X140927Y179111D01*
X140276Y179162D01*
X139625Y179111D01*
X138989Y178959D01*
X138386Y178709D01*
X137829Y178367D01*
X137332Y177943D01*
X136908Y177447D01*
X136567Y176890D01*
X136317Y176286D01*
X136164Y175651D01*
X136113Y175000D01*
X136164Y174349D01*
X136317Y173714D01*
X136567Y173110D01*
X136908Y172553D01*
X137332Y172057D01*
X137829Y171633D01*
X138386Y171291D01*
X138989Y171041D01*
X139625Y170889D01*
X140276Y170838D01*
X140927Y170889D01*
X141562Y171041D01*
X142165Y171291D01*
X142722Y171633D01*
X143219Y172057D01*
X143643Y172553D01*
X143984Y173110D01*
X144027Y173213D01*
X151524D01*
X151567Y173110D01*
X151908Y172553D01*
X152332Y172057D01*
X152829Y171633D01*
X153386Y171291D01*
X153989Y171041D01*
X154624Y170889D01*
X155276Y170838D01*
X155927Y170889D01*
X156562Y171041D01*
X157165Y171291D01*
X157722Y171633D01*
X158219Y172057D01*
X158643Y172553D01*
X158984Y173110D01*
X159234Y173714D01*
X159387Y174349D01*
X159438Y175000D01*
X159606Y175182D01*
X171112D01*
Y175049D01*
X171168Y174621D01*
X171333Y174222D01*
X171596Y173880D01*
X171939Y173617D01*
X172338Y173452D01*
X172766Y173395D01*
X177785D01*
X178214Y173452D01*
X178612Y173617D01*
X178955Y173880D01*
X179218Y174222D01*
X179383Y174621D01*
X179439Y175049D01*
Y178888D01*
X179383Y179316D01*
X179218Y179715D01*
X178955Y180057D01*
X178612Y180320D01*
X178214Y180485D01*
X177785Y180542D01*
X177062D01*
Y190165D01*
X180110Y193213D01*
X199162D01*
Y191476D01*
X199224Y191005D01*
X199406Y190565D01*
X199695Y190188D01*
X200073Y189898D01*
X200513Y189716D01*
X200984Y189654D01*
X207441D01*
X207913Y189716D01*
X208352Y189898D01*
X208730Y190188D01*
X209019Y190565D01*
X209202Y191005D01*
X209264Y191476D01*
Y193525D01*
X209764Y193584D01*
X209839Y193271D01*
X210118Y192598D01*
X210498Y191977D01*
X210971Y191424D01*
X211525Y190951D01*
X212145Y190570D01*
X212818Y190292D01*
X213502Y190127D01*
Y195000D01*
X215002D01*
Y190127D01*
X215686Y190292D01*
X216359Y190570D01*
X216980Y190951D01*
X217533Y191424D01*
X218006Y191977D01*
X218387Y192598D01*
X218665Y193271D01*
X218808Y193867D01*
X219303Y193915D01*
X219488Y193144D01*
X219791Y192412D01*
X220205Y191736D01*
X220720Y191133D01*
X221322Y190618D01*
X221998Y190204D01*
X222731Y189901D01*
X223501Y189716D01*
X224291Y189654D01*
X225082Y189716D01*
X225852Y189901D01*
X226585Y190204D01*
X227260Y190618D01*
X227863Y191133D01*
X227989Y191280D01*
X228489Y191096D01*
Y180542D01*
X227766D01*
X227338Y180485D01*
X226939Y180320D01*
X226596Y180057D01*
X226333Y179715D01*
X226168Y179316D01*
X226112Y178888D01*
Y178755D01*
X212244D01*
X212099Y178736D01*
X211562Y178959D01*
X210927Y179111D01*
X210276Y179162D01*
X209624Y179111D01*
X208989Y178959D01*
X208386Y178709D01*
X207829Y178367D01*
X207332Y177943D01*
X206908Y177447D01*
X206567Y176890D01*
X206524Y176787D01*
X199027D01*
X198984Y176890D01*
X198643Y177447D01*
X198219Y177943D01*
X197722Y178367D01*
X197165Y178709D01*
X196562Y178959D01*
X195927Y179111D01*
X195276Y179162D01*
X194624Y179111D01*
X193989Y178959D01*
X193386Y178709D01*
X192829Y178367D01*
X192332Y177943D01*
X191908Y177447D01*
X191567Y176890D01*
X191317Y176286D01*
X191164Y175651D01*
X191113Y175000D01*
X191164Y174349D01*
X191317Y173714D01*
X191567Y173110D01*
X191908Y172553D01*
X192332Y172057D01*
X192829Y171633D01*
X193386Y171291D01*
X193989Y171041D01*
X194624Y170889D01*
X195276Y170838D01*
X195927Y170889D01*
X196562Y171041D01*
X197165Y171291D01*
X197722Y171633D01*
X198219Y172057D01*
X198643Y172553D01*
X198984Y173110D01*
X199027Y173213D01*
X206524D01*
X206567Y173110D01*
X206908Y172553D01*
X207332Y172057D01*
X207829Y171633D01*
X208386Y171291D01*
X208989Y171041D01*
X209624Y170889D01*
X210276Y170838D01*
X210927Y170889D01*
X211562Y171041D01*
X212165Y171291D01*
X212722Y171633D01*
X213219Y172057D01*
X213643Y172553D01*
X213984Y173110D01*
X214234Y173714D01*
X214387Y174349D01*
X214438Y175000D01*
X214606Y175182D01*
X226112D01*
Y175049D01*
X226168Y174621D01*
X226333Y174222D01*
X226596Y173880D01*
X226939Y173617D01*
X227338Y173452D01*
X227766Y173395D01*
X232785D01*
X233213Y173452D01*
X233612Y173617D01*
X233955Y173880D01*
X234218Y174222D01*
X234383Y174621D01*
X234439Y175049D01*
Y178888D01*
X234383Y179316D01*
X234218Y179715D01*
X233955Y180057D01*
X233612Y180320D01*
X233213Y180485D01*
X232785Y180542D01*
X232063D01*
Y193740D01*
X232063Y193740D01*
X232002Y194203D01*
X231897Y194455D01*
X231823Y194634D01*
X231539Y195004D01*
X230279Y196264D01*
X229909Y196547D01*
X229478Y196726D01*
X229115Y196774D01*
X229095Y196856D01*
X228792Y197588D01*
X228378Y198264D01*
X227863Y198867D01*
X227260Y199382D01*
X226585Y199796D01*
X225852Y200099D01*
X225082Y200284D01*
X224291Y200346D01*
X223501Y200284D01*
X222731Y200099D01*
X221998Y199796D01*
X221322Y199382D01*
X220720Y198867D01*
X220205Y198264D01*
X219791Y197588D01*
X219488Y196856D01*
X219303Y196085D01*
X218808Y196133D01*
X218665Y196729D01*
X218387Y197402D01*
X218006Y198023D01*
X217533Y198576D01*
X216980Y199049D01*
X216359Y199430D01*
X216039Y199562D01*
Y200315D01*
X215978Y200777D01*
X215799Y201208D01*
X215516Y201578D01*
X212681Y204413D01*
X212311Y204697D01*
X211880Y204876D01*
X211417Y204937D01*
D02*
G37*
G36*
X14250Y199250D02*
X10524D01*
X10681Y198597D01*
X10953Y197938D01*
X11326Y197330D01*
X11789Y196789D01*
X12331Y196326D01*
X12938Y195953D01*
X13597Y195681D01*
X14250Y195524D01*
Y199250D01*
D02*
G37*
G36*
X15750Y204476D02*
Y200000D01*
Y195524D01*
X16403Y195681D01*
X17062Y195953D01*
X17670Y196326D01*
X18211Y196789D01*
X18674Y197330D01*
X19047Y197938D01*
X19160Y198213D01*
X70840D01*
X70953Y197938D01*
X71326Y197330D01*
X71789Y196789D01*
X72330Y196326D01*
X72938Y195953D01*
X73597Y195681D01*
X74250Y195524D01*
Y200000D01*
Y204476D01*
X73597Y204319D01*
X72938Y204047D01*
X72330Y203674D01*
X71789Y203211D01*
X71326Y202670D01*
X70953Y202062D01*
X70840Y201787D01*
X19160D01*
X19047Y202062D01*
X18674Y202670D01*
X18211Y203211D01*
X17670Y203674D01*
X17062Y204047D01*
X16403Y204319D01*
X15750Y204476D01*
D02*
G37*
G36*
X159250Y194250D02*
X155396D01*
Y190127D01*
X156079Y190292D01*
X156752Y190570D01*
X157373Y190951D01*
X157927Y191424D01*
X158400Y191977D01*
X158780Y192598D01*
X159059Y193271D01*
X159229Y193979D01*
X159250Y194250D01*
D02*
G37*
G36*
X153896D02*
X150041D01*
X150062Y193979D01*
X150232Y193271D01*
X150511Y192598D01*
X150891Y191977D01*
X151364Y191424D01*
X151918Y190951D01*
X152539Y190570D01*
X153212Y190292D01*
X153896Y190127D01*
Y194250D01*
D02*
G37*
G36*
X117207Y188851D02*
Y185750D01*
X119621D01*
Y185787D01*
X119561Y186405D01*
X119380Y186998D01*
X119088Y187546D01*
X118694Y188025D01*
X118215Y188419D01*
X117668Y188711D01*
X117207Y188851D01*
D02*
G37*
G36*
X115707D02*
X115245Y188711D01*
X114698Y188419D01*
X114219Y188025D01*
X113825Y187546D01*
X113533Y186998D01*
X113353Y186405D01*
X113292Y185787D01*
Y185750D01*
X115707D01*
Y188851D01*
D02*
G37*
G36*
X75750Y204476D02*
Y200000D01*
Y195524D01*
X76403Y195681D01*
X77062Y195953D01*
X77670Y196326D01*
X78211Y196789D01*
X78674Y197330D01*
X79047Y197938D01*
X79160Y198213D01*
X86714D01*
X86875Y197912D01*
X87343Y197343D01*
X87912Y196875D01*
X88213Y196714D01*
Y188286D01*
X87912Y188125D01*
X87343Y187657D01*
X86875Y187088D01*
X86528Y186438D01*
X86319Y185750D01*
X90000D01*
X93681D01*
X93472Y186438D01*
X93125Y187088D01*
X92658Y187657D01*
X92088Y188125D01*
X91787Y188286D01*
Y196714D01*
X92088Y196875D01*
X92658Y197343D01*
X93125Y197912D01*
X93472Y198562D01*
X93681Y199250D01*
X90000D01*
Y200000D01*
X89250D01*
Y203681D01*
X88562Y203472D01*
X87912Y203125D01*
X87343Y202658D01*
X86875Y202088D01*
X86714Y201787D01*
X79160D01*
X79047Y202062D01*
X78674Y202670D01*
X78211Y203211D01*
X77670Y203674D01*
X77062Y204047D01*
X76403Y204319D01*
X75750Y204476D01*
D02*
G37*
G36*
X93681Y184250D02*
X90750D01*
Y181319D01*
X91438Y181528D01*
X92088Y181875D01*
X92658Y182343D01*
X93125Y182912D01*
X93472Y183562D01*
X93681Y184250D01*
D02*
G37*
G36*
X89250D02*
X86319D01*
X86528Y183562D01*
X86875Y182912D01*
X87343Y182343D01*
X87912Y181875D01*
X88562Y181528D01*
X89250Y181319D01*
Y184250D01*
D02*
G37*
G36*
X100000Y204162D02*
X99349Y204111D01*
X98714Y203959D01*
X98110Y203709D01*
X97553Y203367D01*
X97057Y202943D01*
X96632Y202447D01*
X96291Y201890D01*
X96041Y201286D01*
X95889Y200651D01*
X95838Y200000D01*
X95889Y199349D01*
X96041Y198714D01*
X96291Y198110D01*
X96632Y197553D01*
X97057Y197057D01*
X97553Y196633D01*
X98110Y196291D01*
X98213Y196249D01*
Y188751D01*
X98110Y188709D01*
X97553Y188367D01*
X97057Y187943D01*
X96632Y187447D01*
X96291Y186890D01*
X96041Y186286D01*
X95889Y185651D01*
X95838Y185000D01*
X95889Y184349D01*
X96041Y183714D01*
X96291Y183110D01*
X96632Y182553D01*
X97057Y182057D01*
X97553Y181632D01*
X98110Y181291D01*
X98213Y181249D01*
Y179087D01*
X98079Y178952D01*
X93307D01*
X93307Y178952D01*
X92845Y178891D01*
X92414Y178713D01*
X92044Y178429D01*
X92044Y178429D01*
X89681Y176067D01*
X89397Y175697D01*
X89219Y175266D01*
X89158Y174803D01*
Y167276D01*
X88669Y166787D01*
X79604D01*
X79413Y167248D01*
X79006Y167911D01*
X78502Y168502D01*
X77911Y169007D01*
X77248Y169413D01*
X76530Y169710D01*
X75775Y169891D01*
X75000Y169952D01*
X74225Y169891D01*
X73470Y169710D01*
X72752Y169413D01*
X72089Y169007D01*
X71498Y168502D01*
X70994Y167911D01*
X70587Y167248D01*
X70290Y166530D01*
X70109Y165775D01*
X70048Y165000D01*
X70109Y164225D01*
X70290Y163470D01*
X70587Y162752D01*
X70994Y162089D01*
X71498Y161498D01*
X72089Y160994D01*
X72752Y160588D01*
X73470Y160290D01*
X74225Y160109D01*
X75000Y160048D01*
X75775Y160109D01*
X76530Y160290D01*
X77248Y160588D01*
X77911Y160994D01*
X78502Y161498D01*
X79006Y162089D01*
X79413Y162752D01*
X79604Y163213D01*
X89410D01*
X89872Y163274D01*
X90303Y163452D01*
X90673Y163736D01*
X92208Y165272D01*
X92208Y165272D01*
X92492Y165642D01*
X92671Y166073D01*
X92732Y166535D01*
X92732Y166535D01*
Y174063D01*
X94047Y175378D01*
X98819D01*
X99281Y175439D01*
X99712Y175618D01*
X100082Y175902D01*
X101264Y177083D01*
X101548Y177453D01*
X101726Y177884D01*
X101787Y178347D01*
Y181249D01*
X101890Y181291D01*
X102447Y181632D01*
X102943Y182057D01*
X103367Y182553D01*
X103709Y183110D01*
X103959Y183714D01*
X104111Y184349D01*
X104162Y185000D01*
X104111Y185651D01*
X103959Y186286D01*
X103709Y186890D01*
X103367Y187447D01*
X102943Y187943D01*
X102447Y188367D01*
X101890Y188709D01*
X101787Y188751D01*
Y196249D01*
X101890Y196291D01*
X102447Y196633D01*
X102943Y197057D01*
X103367Y197553D01*
X103709Y198110D01*
X103751Y198213D01*
X120835D01*
X122544Y196504D01*
Y189164D01*
X122411D01*
X121983Y189107D01*
X121584Y188942D01*
X121242Y188679D01*
X120979Y188337D01*
X120814Y187938D01*
X120757Y187510D01*
Y182490D01*
X120814Y182062D01*
X120979Y181663D01*
X121242Y181321D01*
X121584Y181058D01*
X121983Y180893D01*
X122411Y180836D01*
X126250D01*
X126678Y180893D01*
X127077Y181058D01*
X127419Y181321D01*
X127682Y181663D01*
X127847Y182062D01*
X127904Y182490D01*
Y187510D01*
X127847Y187938D01*
X127682Y188337D01*
X127419Y188679D01*
X127077Y188942D01*
X126678Y189107D01*
X126250Y189164D01*
X126118D01*
Y197244D01*
X126118Y197244D01*
X126057Y197707D01*
X125878Y198138D01*
X125594Y198508D01*
X125594Y198508D01*
X122838Y201264D01*
X122468Y201548D01*
X122037Y201726D01*
X121575Y201787D01*
X103751D01*
X103709Y201890D01*
X103367Y202447D01*
X102943Y202943D01*
X102447Y203367D01*
X101890Y203709D01*
X101286Y203959D01*
X100651Y204111D01*
X100000Y204162D01*
D02*
G37*
G36*
X231063Y172259D02*
X231026D01*
Y169844D01*
X234127D01*
X233987Y170306D01*
X233695Y170853D01*
X233301Y171332D01*
X232821Y171726D01*
X232274Y172018D01*
X231680Y172198D01*
X231063Y172259D01*
D02*
G37*
G36*
X176063D02*
X176026D01*
Y169844D01*
X179127D01*
X178987Y170306D01*
X178694Y170853D01*
X178301Y171332D01*
X177821Y171726D01*
X177274Y172018D01*
X176680Y172198D01*
X176063Y172259D01*
D02*
G37*
G36*
X229526D02*
X229488D01*
X228871Y172198D01*
X228277Y172018D01*
X227730Y171726D01*
X227250Y171332D01*
X226857Y170853D01*
X226564Y170306D01*
X226424Y169844D01*
X229526D01*
Y172259D01*
D02*
G37*
G36*
X174526D02*
X174488D01*
X173871Y172198D01*
X173277Y172018D01*
X172730Y171726D01*
X172250Y171332D01*
X171857Y170853D01*
X171564Y170306D01*
X171424Y169844D01*
X174526D01*
Y172259D01*
D02*
G37*
G36*
X119621Y184250D02*
X113292D01*
Y184213D01*
X113353Y183595D01*
X113533Y183001D01*
X113825Y182454D01*
X114219Y181975D01*
X114670Y181605D01*
Y169165D01*
X114316Y168812D01*
X114042Y168848D01*
X108286D01*
X108125Y169149D01*
X107658Y169718D01*
X107088Y170186D01*
X106438Y170533D01*
X105750Y170742D01*
Y167061D01*
X105000D01*
D01*
X105750D01*
Y163380D01*
X106438Y163589D01*
X107088Y163936D01*
X107658Y164403D01*
X108125Y164973D01*
X108286Y165274D01*
X113301D01*
X113303Y165272D01*
X113303Y165272D01*
X113673Y164988D01*
X114104Y164809D01*
X114567Y164749D01*
X115029Y164809D01*
X115460Y164988D01*
X115831Y165272D01*
X117720Y167162D01*
X118004Y167532D01*
X118078Y167710D01*
X118183Y167963D01*
X118244Y168425D01*
X118244Y168425D01*
Y181605D01*
X118694Y181975D01*
X119088Y182454D01*
X119380Y183001D01*
X119561Y183595D01*
X119621Y184213D01*
Y184250D01*
D02*
G37*
G36*
X104250Y170742D02*
X103562Y170533D01*
X102912Y170186D01*
X102342Y169718D01*
X101875Y169149D01*
X101528Y168499D01*
X101319Y167811D01*
X104250D01*
Y170742D01*
D02*
G37*
G36*
X194526Y168681D02*
X193837Y168472D01*
X193188Y168125D01*
X192618Y167657D01*
X192151Y167088D01*
X191990Y166787D01*
X180110D01*
X178993Y167904D01*
X179127Y168344D01*
X176026D01*
Y165817D01*
X178106Y163736D01*
X178106Y163736D01*
X178477Y163452D01*
X178908Y163274D01*
X179370Y163213D01*
X179370Y163213D01*
X191990D01*
X192151Y162912D01*
X192618Y162343D01*
X193188Y161875D01*
X193837Y161528D01*
X194526Y161319D01*
Y165000D01*
Y168681D01*
D02*
G37*
G36*
X234127Y168344D02*
X231026D01*
Y165930D01*
X231063D01*
X231680Y165990D01*
X232274Y166171D01*
X232821Y166463D01*
X233301Y166857D01*
X233695Y167336D01*
X233987Y167883D01*
X234127Y168344D01*
D02*
G37*
G36*
X139526Y168681D02*
X138837Y168472D01*
X138188Y168125D01*
X137618Y167657D01*
X137151Y167088D01*
X136803Y166438D01*
X136595Y165750D01*
X139526D01*
Y168681D01*
D02*
G37*
G36*
X104250Y166311D02*
X101319D01*
X101528Y165623D01*
X101875Y164973D01*
X102342Y164403D01*
X102912Y163936D01*
X103562Y163589D01*
X104250Y163380D01*
Y166311D01*
D02*
G37*
G36*
X211026Y168681D02*
Y165000D01*
Y161319D01*
X211714Y161528D01*
X212364Y161875D01*
X212933Y162343D01*
X213401Y162912D01*
X213561Y163213D01*
X226181D01*
X226644Y163274D01*
X227075Y163452D01*
X227445Y163736D01*
X229526Y165817D01*
Y168344D01*
X226424D01*
X226558Y167904D01*
X225441Y166787D01*
X213561D01*
X213401Y167088D01*
X212933Y167657D01*
X212364Y168125D01*
X211714Y168472D01*
X211026Y168681D01*
D02*
G37*
G36*
X156026D02*
Y165000D01*
Y161319D01*
X156714Y161528D01*
X157364Y161875D01*
X157933Y162343D01*
X158400Y162912D01*
X158561Y163213D01*
X171181D01*
X171644Y163274D01*
X172075Y163452D01*
X172445Y163736D01*
X174526Y165817D01*
Y168344D01*
X171424D01*
X171558Y167904D01*
X170441Y166787D01*
X158561D01*
X158400Y167088D01*
X157933Y167657D01*
X157364Y168125D01*
X156714Y168472D01*
X156026Y168681D01*
D02*
G37*
G36*
X196026D02*
Y165000D01*
Y161319D01*
X196714Y161528D01*
X197364Y161875D01*
X197933Y162343D01*
X198400Y162912D01*
X198561Y163213D01*
X206990D01*
X207151Y162912D01*
X207618Y162343D01*
X208188Y161875D01*
X208837Y161528D01*
X209526Y161319D01*
Y165000D01*
Y168681D01*
X208837Y168472D01*
X208188Y168125D01*
X207618Y167657D01*
X207151Y167088D01*
X206990Y166787D01*
X198561D01*
X198400Y167088D01*
X197933Y167657D01*
X197364Y168125D01*
X196714Y168472D01*
X196026Y168681D01*
D02*
G37*
G36*
X141026D02*
Y165000D01*
Y161319D01*
X141335Y161413D01*
X142307Y160441D01*
Y138286D01*
X142007Y138125D01*
X141437Y137657D01*
X140970Y137088D01*
X140622Y136438D01*
X140414Y135750D01*
X147775D01*
X147567Y136438D01*
X147219Y137088D01*
X146752Y137657D01*
X146183Y138125D01*
X145881Y138286D01*
Y161181D01*
X145881Y161181D01*
X145821Y161644D01*
X145642Y162075D01*
X145358Y162445D01*
X145358Y162445D01*
X145052Y162751D01*
X145243Y163213D01*
X151990D01*
X152151Y162912D01*
X152618Y162343D01*
X153188Y161875D01*
X153837Y161528D01*
X154526Y161319D01*
Y165000D01*
Y168681D01*
X153837Y168472D01*
X153188Y168125D01*
X152618Y167657D01*
X152151Y167088D01*
X151990Y166787D01*
X143561D01*
X143401Y167088D01*
X142933Y167657D01*
X142364Y168125D01*
X141714Y168472D01*
X141026Y168681D01*
D02*
G37*
G36*
X139526Y164250D02*
X136595D01*
X136803Y163562D01*
X137151Y162912D01*
X137618Y162343D01*
X138188Y161875D01*
X138837Y161528D01*
X139526Y161319D01*
Y164250D01*
D02*
G37*
G36*
X200079Y139162D02*
X199427Y139111D01*
X198792Y138959D01*
X198189Y138709D01*
X197632Y138367D01*
X197135Y137943D01*
X196711Y137447D01*
X196370Y136890D01*
X196360Y136866D01*
X188797D01*
X188787Y136890D01*
X188446Y137447D01*
X188022Y137943D01*
X187525Y138367D01*
X186968Y138709D01*
X186365Y138959D01*
X185730Y139111D01*
X185079Y139162D01*
X184427Y139111D01*
X183792Y138959D01*
X183189Y138709D01*
X182632Y138367D01*
X182135Y137943D01*
X181711Y137447D01*
X181370Y136890D01*
X181360Y136866D01*
X169164D01*
Y136998D01*
X169107Y137426D01*
X168942Y137825D01*
X168679Y138168D01*
X168337Y138430D01*
X167938Y138596D01*
X167510Y138652D01*
X162490D01*
X162062Y138596D01*
X161663Y138430D01*
X161321Y138168D01*
X161058Y137825D01*
X160893Y137426D01*
X160836Y136998D01*
Y133159D01*
X160893Y132731D01*
X161058Y132333D01*
X161321Y131990D01*
X161663Y131727D01*
X162062Y131562D01*
X162490Y131506D01*
X167510D01*
X167938Y131562D01*
X168337Y131727D01*
X168679Y131990D01*
X168942Y132333D01*
X169107Y132731D01*
X169164Y133159D01*
Y133292D01*
X181295D01*
X181370Y133110D01*
X181711Y132553D01*
X182135Y132057D01*
X182632Y131632D01*
X183189Y131291D01*
X183792Y131041D01*
X184427Y130889D01*
X185079Y130838D01*
X185730Y130889D01*
X186365Y131041D01*
X186968Y131291D01*
X187525Y131632D01*
X188022Y132057D01*
X188446Y132553D01*
X188787Y133110D01*
X188863Y133292D01*
X196295D01*
X196370Y133110D01*
X196711Y132553D01*
X197135Y132057D01*
X197632Y131632D01*
X198189Y131291D01*
X198792Y131041D01*
X199427Y130889D01*
X200079Y130838D01*
X200730Y130889D01*
X201365Y131041D01*
X201968Y131291D01*
X202525Y131632D01*
X203022Y132057D01*
X203446Y132553D01*
X203787Y133110D01*
X203830Y133213D01*
X205598D01*
X207268Y131543D01*
Y77953D01*
X207329Y77490D01*
X207508Y77059D01*
X207792Y76689D01*
X210744Y73736D01*
X211114Y73453D01*
X211545Y73274D01*
X212008Y73213D01*
X230883D01*
X231107Y72793D01*
X231601Y72192D01*
X232203Y71697D01*
X232890Y71330D01*
X233635Y71104D01*
X234409Y71028D01*
X235591D01*
X236365Y71104D01*
X237110Y71330D01*
X237797Y71697D01*
X238399Y72192D01*
X238893Y72793D01*
X239260Y73480D01*
X239486Y74225D01*
X239562Y75000D01*
X239486Y75775D01*
X239260Y76520D01*
X238893Y77207D01*
X238399Y77808D01*
X237797Y78303D01*
X237110Y78670D01*
X236365Y78896D01*
X235591Y78972D01*
X234409D01*
X233635Y78896D01*
X232890Y78670D01*
X232203Y78303D01*
X231601Y77808D01*
X231107Y77207D01*
X230883Y76787D01*
X212748D01*
X210842Y78693D01*
Y132283D01*
X210781Y132746D01*
X210603Y133177D01*
X210319Y133547D01*
X210319Y133547D01*
X207602Y136264D01*
X207232Y136548D01*
X206801Y136726D01*
X206339Y136787D01*
X203830D01*
X203787Y136890D01*
X203446Y137447D01*
X203022Y137943D01*
X202525Y138367D01*
X201968Y138709D01*
X201365Y138959D01*
X200730Y139111D01*
X200079Y139162D01*
D02*
G37*
G36*
X23100Y139441D02*
X16900D01*
X16420Y139378D01*
X15973Y139193D01*
X15590Y138899D01*
X15295Y138515D01*
X15110Y138068D01*
X15047Y137589D01*
Y132569D01*
X15110Y132089D01*
X15295Y131643D01*
X15590Y131259D01*
X15973Y130965D01*
X16420Y130780D01*
X16900Y130717D01*
X23100D01*
X23580Y130780D01*
X24027Y130965D01*
X24410Y131259D01*
X24705Y131643D01*
X24890Y132089D01*
X24953Y132569D01*
Y137589D01*
X24890Y138068D01*
X24705Y138515D01*
X24410Y138899D01*
X24027Y139193D01*
X23580Y139378D01*
X23100Y139441D01*
D02*
G37*
G36*
X200829Y128681D02*
Y125750D01*
X203760D01*
X203551Y126438D01*
X203204Y127088D01*
X202736Y127657D01*
X202167Y128125D01*
X201517Y128472D01*
X200829Y128681D01*
D02*
G37*
G36*
X147775Y134250D02*
X140414D01*
X140622Y133562D01*
X140970Y132912D01*
X141437Y132343D01*
X142007Y131875D01*
X142307Y131714D01*
Y125197D01*
Y123286D01*
X142007Y123125D01*
X141437Y122658D01*
X140970Y122088D01*
X140622Y121438D01*
X140414Y120750D01*
X147775D01*
X147567Y121438D01*
X147219Y122088D01*
X146752Y122658D01*
X146183Y123125D01*
X145881Y123286D01*
Y124457D01*
X146842Y125418D01*
X161605D01*
X161975Y124967D01*
X162454Y124573D01*
X163002Y124281D01*
X163595Y124101D01*
X164213Y124040D01*
X164250D01*
Y127205D01*
Y130369D01*
X164213D01*
X163595Y130309D01*
X163002Y130129D01*
X162454Y129836D01*
X161975Y129443D01*
X161605Y128991D01*
X146102D01*
X146102Y128992D01*
X145881Y129185D01*
Y131714D01*
X146183Y131875D01*
X146752Y132343D01*
X147219Y132912D01*
X147567Y133562D01*
X147775Y134250D01*
D02*
G37*
G36*
X185829Y128681D02*
Y125000D01*
Y121319D01*
X186517Y121528D01*
X187167Y121875D01*
X187736Y122343D01*
X188204Y122912D01*
X188365Y123213D01*
X196793D01*
X196954Y122912D01*
X197421Y122343D01*
X197991Y121875D01*
X198641Y121528D01*
X199329Y121319D01*
Y125000D01*
Y128681D01*
X198641Y128472D01*
X197991Y128125D01*
X197421Y127657D01*
X196954Y127088D01*
X196793Y126787D01*
X188365D01*
X188204Y127088D01*
X187736Y127657D01*
X187167Y128125D01*
X186517Y128472D01*
X185829Y128681D01*
D02*
G37*
G36*
X165787Y130369D02*
X165750D01*
Y127205D01*
Y123927D01*
X165941Y123737D01*
X165941Y123736D01*
X166311Y123452D01*
X166742Y123274D01*
X167205Y123213D01*
X167205Y123213D01*
X181793D01*
X181954Y122912D01*
X182421Y122343D01*
X182991Y121875D01*
X183641Y121528D01*
X184329Y121319D01*
Y125000D01*
Y128681D01*
X183641Y128472D01*
X182991Y128125D01*
X182421Y127657D01*
X181954Y127088D01*
X181793Y126787D01*
X169283D01*
X168948Y127157D01*
X168952Y127205D01*
X168891Y127822D01*
X168711Y128416D01*
X168419Y128963D01*
X168025Y129443D01*
X167546Y129836D01*
X166999Y130129D01*
X166405Y130309D01*
X165787Y130369D01*
D02*
G37*
G36*
X203760Y124250D02*
X200829D01*
Y121319D01*
X201517Y121528D01*
X202167Y121875D01*
X202736Y122343D01*
X203204Y122912D01*
X203551Y123562D01*
X203760Y124250D01*
D02*
G37*
G36*
X20591Y129439D02*
X19409D01*
X18727Y129385D01*
X18062Y129225D01*
X17430Y128963D01*
X16847Y128606D01*
X16327Y128162D01*
X15882Y127641D01*
X15525Y127058D01*
X15263Y126426D01*
X15103Y125761D01*
X15049Y125079D01*
X15103Y124397D01*
X15263Y123732D01*
X15525Y123100D01*
X15882Y122516D01*
X16327Y121996D01*
X16847Y121552D01*
X17430Y121194D01*
X18062Y120932D01*
X18727Y120773D01*
X19409Y120719D01*
X20591D01*
X21273Y120773D01*
X21938Y120932D01*
X22570Y121194D01*
X23153Y121552D01*
X23674Y121996D01*
X24118Y122516D01*
X24475Y123100D01*
X24737Y123732D01*
X24897Y124397D01*
X24950Y125079D01*
X24897Y125761D01*
X24737Y126426D01*
X24475Y127058D01*
X24118Y127641D01*
X23674Y128162D01*
X23153Y128606D01*
X22570Y128963D01*
X21938Y129225D01*
X21273Y129385D01*
X20591Y129439D01*
D02*
G37*
G36*
X237805Y108555D02*
X235750D01*
Y105750D01*
X239145D01*
Y107215D01*
X239100Y107561D01*
X238966Y107885D01*
X238753Y108162D01*
X238475Y108375D01*
X238152Y108509D01*
X237805Y108555D01*
D02*
G37*
G36*
X234250D02*
X232195D01*
X231848Y108509D01*
X231525Y108375D01*
X231247Y108162D01*
X231034Y107885D01*
X230900Y107561D01*
X230855Y107215D01*
Y105750D01*
X234250D01*
Y108555D01*
D02*
G37*
G36*
X239145Y104250D02*
X235750D01*
Y101445D01*
X237805D01*
X238152Y101491D01*
X238475Y101625D01*
X238753Y101838D01*
X238966Y102115D01*
X239100Y102439D01*
X239145Y102785D01*
Y104250D01*
D02*
G37*
G36*
X234250D02*
X230855D01*
Y102785D01*
X230900Y102439D01*
X231034Y102115D01*
X231247Y101838D01*
X231525Y101625D01*
X231848Y101491D01*
X232195Y101445D01*
X234250D01*
Y104250D01*
D02*
G37*
G36*
X75750Y103681D02*
Y100750D01*
X78681D01*
X78472Y101438D01*
X78125Y102088D01*
X77658Y102657D01*
X77088Y103125D01*
X76438Y103472D01*
X75750Y103681D01*
D02*
G37*
G36*
X100890D02*
Y100750D01*
X103821D01*
X103612Y101438D01*
X103265Y102088D01*
X102797Y102657D01*
X102228Y103125D01*
X101578Y103472D01*
X100890Y103681D01*
D02*
G37*
G36*
X99390D02*
X98702Y103472D01*
X98052Y103125D01*
X97482Y102657D01*
X97015Y102088D01*
X96668Y101438D01*
X96459Y100750D01*
X99390D01*
Y103681D01*
D02*
G37*
G36*
X137446Y103573D02*
X132426D01*
X131998Y103517D01*
X131599Y103352D01*
X131257Y103089D01*
X130994Y102746D01*
X130829Y102347D01*
X130772Y101919D01*
Y98081D01*
X130829Y97653D01*
X130994Y97254D01*
X131257Y96911D01*
X131599Y96648D01*
X131998Y96483D01*
X132426Y96427D01*
X137446D01*
X137874Y96483D01*
X138273Y96648D01*
X138615Y96911D01*
X138878Y97254D01*
X139043Y97653D01*
X139100Y98081D01*
Y101919D01*
X139043Y102347D01*
X138878Y102746D01*
X138615Y103089D01*
X138273Y103352D01*
X137874Y103517D01*
X137446Y103573D01*
D02*
G37*
G36*
X103821Y99250D02*
X100890D01*
Y96319D01*
X101578Y96528D01*
X102228Y96875D01*
X102797Y97342D01*
X103265Y97912D01*
X103612Y98562D01*
X103821Y99250D01*
D02*
G37*
G36*
X78681D02*
X75750D01*
Y96319D01*
X76438Y96528D01*
X77088Y96875D01*
X77658Y97342D01*
X78125Y97912D01*
X78472Y98562D01*
X78681Y99250D01*
D02*
G37*
G36*
X99390D02*
X96459D01*
X96668Y98562D01*
X97015Y97912D01*
X97482Y97342D01*
X98052Y96875D01*
X98702Y96528D01*
X99390Y96319D01*
Y99250D01*
D02*
G37*
G36*
X63779Y122259D02*
X59055D01*
X58593Y122198D01*
X58162Y122020D01*
X57792Y121736D01*
X55425Y119369D01*
X55141Y118999D01*
X54962Y118568D01*
X54901Y118105D01*
Y103751D01*
X54769D01*
X54448Y103709D01*
X54148Y103585D01*
X53891Y103387D01*
X53694Y103130D01*
X53570Y102831D01*
X53528Y102510D01*
Y100750D01*
X56688D01*
Y100000D01*
X57438D01*
Y96249D01*
X58608D01*
X58929Y96292D01*
X59228Y96416D01*
X59485Y96613D01*
X59682Y96870D01*
X59806Y97169D01*
X59848Y97490D01*
Y98213D01*
X71714D01*
X71875Y97912D01*
X72342Y97342D01*
X72912Y96875D01*
X73562Y96528D01*
X74250Y96319D01*
Y100000D01*
Y103681D01*
X73562Y103472D01*
X72912Y103125D01*
X72342Y102657D01*
X71875Y102088D01*
X71714Y101787D01*
X59848D01*
Y102510D01*
X59806Y102831D01*
X59682Y103130D01*
X59485Y103387D01*
X59228Y103585D01*
X58929Y103709D01*
X58608Y103751D01*
X58475D01*
Y117365D01*
X59795Y118685D01*
X63779D01*
X64242Y118746D01*
X64673Y118925D01*
X65043Y119209D01*
X65327Y119579D01*
X65506Y120010D01*
X65566Y120472D01*
X65506Y120935D01*
X65327Y121366D01*
X65043Y121736D01*
X64673Y122020D01*
X64242Y122198D01*
X63779Y122259D01*
D02*
G37*
G36*
X55938Y99250D02*
X53528D01*
Y97490D01*
X53570Y97169D01*
X53694Y96870D01*
X53891Y96613D01*
X54148Y96416D01*
X54448Y96292D01*
X54769Y96249D01*
X55938D01*
Y99250D01*
D02*
G37*
G36*
X170000Y104162D02*
X169349Y104111D01*
X168714Y103959D01*
X168110Y103709D01*
X167553Y103367D01*
X167057Y102943D01*
X166632Y102447D01*
X166291Y101890D01*
X166041Y101286D01*
X165889Y100651D01*
X165838Y100000D01*
X165889Y99349D01*
X166041Y98714D01*
X166291Y98110D01*
X166632Y97553D01*
X167057Y97057D01*
X167553Y96632D01*
X168110Y96291D01*
X168714Y96041D01*
X169349Y95889D01*
X170000Y95838D01*
X170651Y95889D01*
X171286Y96041D01*
X171890Y96291D01*
X172447Y96632D01*
X172943Y97057D01*
X173368Y97553D01*
X173709Y98110D01*
X173959Y98714D01*
X174111Y99349D01*
X174162Y100000D01*
X174111Y100651D01*
X173959Y101286D01*
X173709Y101890D01*
X173368Y102447D01*
X172943Y102943D01*
X172447Y103367D01*
X171890Y103709D01*
X171286Y103959D01*
X170651Y104111D01*
X170000Y104162D01*
D02*
G37*
G36*
X155000D02*
X154349Y104111D01*
X153714Y103959D01*
X153110Y103709D01*
X152553Y103367D01*
X152057Y102943D01*
X151632Y102447D01*
X151291Y101890D01*
X151041Y101286D01*
X150889Y100651D01*
X150838Y100000D01*
X150889Y99349D01*
X151041Y98714D01*
X151291Y98110D01*
X151632Y97553D01*
X152057Y97057D01*
X152553Y96632D01*
X153110Y96291D01*
X153714Y96041D01*
X154349Y95889D01*
X155000Y95838D01*
X155651Y95889D01*
X156286Y96041D01*
X156890Y96291D01*
X157447Y96632D01*
X157943Y97057D01*
X158368Y97553D01*
X158709Y98110D01*
X158959Y98714D01*
X159111Y99349D01*
X159162Y100000D01*
X159111Y100651D01*
X158959Y101286D01*
X158709Y101890D01*
X158368Y102447D01*
X157943Y102943D01*
X157447Y103367D01*
X156890Y103709D01*
X156286Y103959D01*
X155651Y104111D01*
X155000Y104162D01*
D02*
G37*
G36*
X48814Y104364D02*
X48116Y104295D01*
X47445Y104091D01*
X46827Y103761D01*
X46285Y103316D01*
X45840Y102774D01*
X45510Y102156D01*
X45307Y101485D01*
X45238Y100787D01*
Y99213D01*
X45307Y98515D01*
X45510Y97844D01*
X45840Y97226D01*
X46285Y96684D01*
X46827Y96239D01*
X47445Y95909D01*
X48116Y95705D01*
X48814Y95636D01*
X49512Y95705D01*
X50183Y95909D01*
X50801Y96239D01*
X51343Y96684D01*
X51788Y97226D01*
X52118Y97844D01*
X52322Y98515D01*
X52390Y99213D01*
Y100787D01*
X52322Y101485D01*
X52118Y102156D01*
X51788Y102774D01*
X51343Y103316D01*
X50801Y103761D01*
X50183Y104091D01*
X49512Y104295D01*
X48814Y104364D01*
D02*
G37*
G36*
X147775Y119250D02*
X140414D01*
X140622Y118562D01*
X140970Y117912D01*
X141437Y117342D01*
X142007Y116875D01*
X142307Y116714D01*
Y94283D01*
X139811Y91787D01*
X139196D01*
X138888Y92126D01*
X138827Y92743D01*
X138647Y93337D01*
X138355Y93884D01*
X137961Y94364D01*
X137482Y94757D01*
X136934Y95050D01*
X136341Y95230D01*
X135723Y95291D01*
X135686D01*
Y92126D01*
Y88849D01*
X135798Y88736D01*
X136169Y88453D01*
X136347Y88379D01*
X136600Y88274D01*
X137062Y88213D01*
X137062Y88213D01*
X151714D01*
X151875Y87912D01*
X152342Y87343D01*
X152912Y86875D01*
X153562Y86528D01*
X154250Y86319D01*
Y90000D01*
Y93681D01*
X153562Y93472D01*
X152912Y93125D01*
X152342Y92658D01*
X151875Y92088D01*
X151714Y91787D01*
X145519D01*
X145387Y92104D01*
X145364Y92287D01*
X145642Y92650D01*
X145716Y92828D01*
X145821Y93081D01*
X145881Y93543D01*
X145881Y93543D01*
Y116714D01*
X146183Y116875D01*
X146752Y117342D01*
X147219Y117912D01*
X147567Y118562D01*
X147775Y119250D01*
D02*
G37*
G36*
X235591Y98972D02*
X234409D01*
X233635Y98896D01*
X232890Y98669D01*
X232203Y98303D01*
X231601Y97808D01*
X231107Y97207D01*
X230740Y96520D01*
X230514Y95775D01*
X230438Y95000D01*
X230514Y94225D01*
X230740Y93480D01*
X231107Y92793D01*
X231601Y92191D01*
X232203Y91698D01*
X232890Y91330D01*
X233635Y91104D01*
X234409Y91028D01*
X235591D01*
X236365Y91104D01*
X237110Y91330D01*
X237797Y91698D01*
X238399Y92191D01*
X238893Y92793D01*
X239260Y93480D01*
X239486Y94225D01*
X239562Y95000D01*
X239486Y95775D01*
X239260Y96520D01*
X238893Y97207D01*
X238399Y97808D01*
X237797Y98303D01*
X237110Y98669D01*
X236365Y98896D01*
X235591Y98972D01*
D02*
G37*
G36*
X170750Y93681D02*
Y90750D01*
X173681D01*
X173472Y91438D01*
X173125Y92088D01*
X172658Y92658D01*
X172088Y93125D01*
X171438Y93472D01*
X170750Y93681D01*
D02*
G37*
G36*
X134186Y95291D02*
X134149D01*
X133531Y95230D01*
X132938Y95050D01*
X132390Y94757D01*
X131911Y94364D01*
X131541Y93913D01*
X128740D01*
X128278Y93852D01*
X127847Y93673D01*
X127477Y93390D01*
X127477Y93389D01*
X125114Y91027D01*
X124830Y90657D01*
X124652Y90226D01*
X124591Y89764D01*
Y69244D01*
X122095Y66748D01*
X62598D01*
X62136Y66687D01*
X61705Y66508D01*
X61335Y66224D01*
X58736Y63626D01*
X58452Y63256D01*
X58274Y62825D01*
X58213Y62362D01*
Y57656D01*
X57912Y57495D01*
X57342Y57028D01*
X56875Y56458D01*
X56528Y55808D01*
X56319Y55120D01*
X60000D01*
X63681D01*
X63472Y55808D01*
X63125Y56458D01*
X62657Y57028D01*
X62088Y57495D01*
X61787Y57656D01*
Y61622D01*
X63339Y63174D01*
X73669D01*
X74985Y61858D01*
Y20354D01*
X75046Y19892D01*
X75224Y19461D01*
X75261Y19413D01*
X75014Y18913D01*
X68286D01*
X68125Y19214D01*
X67658Y19783D01*
X67088Y20251D01*
X66438Y20598D01*
X65750Y20807D01*
Y17126D01*
Y13445D01*
X66438Y13654D01*
X67088Y14001D01*
X67658Y14468D01*
X68125Y15038D01*
X68286Y15339D01*
X76714D01*
X76875Y15038D01*
X77342Y14468D01*
X77912Y14001D01*
X78562Y13654D01*
X79250Y13445D01*
Y17126D01*
Y20807D01*
X78940Y20713D01*
X78559Y21094D01*
Y62598D01*
X78559Y62598D01*
X78549Y62674D01*
X78966Y63174D01*
X102016D01*
X103213Y61976D01*
Y57656D01*
X102912Y57495D01*
X102342Y57028D01*
X101875Y56458D01*
X101528Y55808D01*
X101319Y55120D01*
X105000D01*
X108681D01*
X108472Y55808D01*
X108125Y56458D01*
X107658Y57028D01*
X107088Y57495D01*
X106787Y57656D01*
Y62717D01*
X106776Y62798D01*
X107106Y63174D01*
X122835D01*
X123297Y63235D01*
X123728Y63413D01*
X124098Y63697D01*
X124377Y63976D01*
X124980Y63872D01*
X125114Y63697D01*
X127949Y60862D01*
X127949Y60862D01*
X128319Y60579D01*
X128750Y60400D01*
X129213Y60339D01*
X129213Y60339D01*
X131249D01*
Y60207D01*
X131291Y59886D01*
X131415Y59586D01*
X131613Y59329D01*
X131870Y59132D01*
X132169Y59008D01*
X132490Y58966D01*
X134250D01*
Y62126D01*
Y65286D01*
X132490D01*
X132169Y65244D01*
X131870Y65120D01*
X131613Y64923D01*
X131415Y64666D01*
X131291Y64367D01*
X131249Y64045D01*
Y63913D01*
X129953D01*
X128165Y65701D01*
Y68504D01*
X128165Y68504D01*
X128165Y68504D01*
Y89024D01*
X129480Y90339D01*
X131541D01*
X131911Y89888D01*
X132390Y89495D01*
X132938Y89202D01*
X133531Y89022D01*
X134149Y88961D01*
X134186D01*
Y92126D01*
Y95291D01*
D02*
G37*
G36*
X173681Y89250D02*
X170750D01*
Y86319D01*
X171438Y86528D01*
X172088Y86875D01*
X172658Y87343D01*
X173125Y87912D01*
X173472Y88562D01*
X173681Y89250D01*
D02*
G37*
G36*
X155750Y93681D02*
Y90000D01*
Y86319D01*
X156438Y86528D01*
X157088Y86875D01*
X157658Y87343D01*
X158125Y87912D01*
X158286Y88213D01*
X166714D01*
X166875Y87912D01*
X167342Y87343D01*
X167912Y86875D01*
X168562Y86528D01*
X169250Y86319D01*
Y90000D01*
Y93681D01*
X168562Y93472D01*
X167912Y93125D01*
X167342Y92658D01*
X166875Y92088D01*
X166714Y91787D01*
X158286D01*
X158125Y92088D01*
X157658Y92658D01*
X157088Y93125D01*
X156438Y93472D01*
X155750Y93681D01*
D02*
G37*
G36*
X105000Y89792D02*
X104349Y89741D01*
X103714Y89589D01*
X103110Y89339D01*
X102553Y88998D01*
X102057Y88573D01*
X101632Y88077D01*
X101291Y87520D01*
X101041Y86916D01*
X100889Y86281D01*
X100838Y85630D01*
X100889Y84979D01*
X101041Y84344D01*
X101291Y83740D01*
X101632Y83183D01*
X102057Y82687D01*
X102553Y82262D01*
X103110Y81921D01*
X103714Y81671D01*
X104349Y81519D01*
X105000Y81468D01*
X105651Y81519D01*
X106286Y81671D01*
X106890Y81921D01*
X107447Y82262D01*
X107943Y82687D01*
X108368Y83183D01*
X108709Y83740D01*
X108959Y84344D01*
X109111Y84979D01*
X109162Y85630D01*
X109111Y86281D01*
X108959Y86916D01*
X108709Y87520D01*
X108368Y88077D01*
X107943Y88573D01*
X107447Y88998D01*
X106890Y89339D01*
X106286Y89589D01*
X105651Y89741D01*
X105000Y89792D01*
D02*
G37*
G36*
X95000D02*
X94349Y89741D01*
X93714Y89589D01*
X93110Y89339D01*
X92553Y88998D01*
X92057Y88573D01*
X91632Y88077D01*
X91291Y87520D01*
X91041Y86916D01*
X90889Y86281D01*
X90838Y85630D01*
X90889Y84979D01*
X91041Y84344D01*
X91291Y83740D01*
X91632Y83183D01*
X92057Y82687D01*
X92553Y82262D01*
X93110Y81921D01*
X93714Y81671D01*
X94349Y81519D01*
X95000Y81468D01*
X95651Y81519D01*
X96286Y81671D01*
X96890Y81921D01*
X97447Y82262D01*
X97943Y82687D01*
X98368Y83183D01*
X98709Y83740D01*
X98959Y84344D01*
X99111Y84979D01*
X99162Y85630D01*
X99111Y86281D01*
X98959Y86916D01*
X98709Y87520D01*
X98368Y88077D01*
X97943Y88573D01*
X97447Y88998D01*
X96890Y89339D01*
X96286Y89589D01*
X95651Y89741D01*
X95000Y89792D01*
D02*
G37*
G36*
X60000D02*
X59349Y89741D01*
X58714Y89589D01*
X58110Y89339D01*
X57553Y88998D01*
X57057Y88573D01*
X56633Y88077D01*
X56291Y87520D01*
X56041Y86916D01*
X55889Y86281D01*
X55838Y85630D01*
X55889Y84979D01*
X56041Y84344D01*
X56291Y83740D01*
X56633Y83183D01*
X57057Y82687D01*
X57553Y82262D01*
X58110Y81921D01*
X58714Y81671D01*
X59349Y81519D01*
X60000Y81468D01*
X60651Y81519D01*
X61286Y81671D01*
X61890Y81921D01*
X62447Y82262D01*
X62943Y82687D01*
X63367Y83183D01*
X63709Y83740D01*
X63959Y84344D01*
X64111Y84979D01*
X64162Y85630D01*
X64111Y86281D01*
X63959Y86916D01*
X63709Y87520D01*
X63367Y88077D01*
X62943Y88573D01*
X62447Y88998D01*
X61890Y89339D01*
X61286Y89589D01*
X60651Y89741D01*
X60000Y89792D01*
D02*
G37*
G36*
X50000D02*
X49349Y89741D01*
X48714Y89589D01*
X48110Y89339D01*
X47553Y88998D01*
X47057Y88573D01*
X46633Y88077D01*
X46291Y87520D01*
X46041Y86916D01*
X45889Y86281D01*
X45838Y85630D01*
X45889Y84979D01*
X46041Y84344D01*
X46291Y83740D01*
X46633Y83183D01*
X47057Y82687D01*
X47553Y82262D01*
X48110Y81921D01*
X48714Y81671D01*
X49349Y81519D01*
X50000Y81468D01*
X50651Y81519D01*
X51286Y81671D01*
X51890Y81921D01*
X52447Y82262D01*
X52943Y82687D01*
X53368Y83183D01*
X53709Y83740D01*
X53959Y84344D01*
X54111Y84979D01*
X54162Y85630D01*
X54111Y86281D01*
X53959Y86916D01*
X53709Y87520D01*
X53368Y88077D01*
X52943Y88573D01*
X52447Y88998D01*
X51890Y89339D01*
X51286Y89589D01*
X50651Y89741D01*
X50000Y89792D01*
D02*
G37*
G36*
X235591Y88972D02*
X234409D01*
X233635Y88896D01*
X232890Y88670D01*
X232203Y88302D01*
X231601Y87809D01*
X231107Y87207D01*
X230740Y86520D01*
X230514Y85775D01*
X230438Y85000D01*
X230514Y84225D01*
X230740Y83480D01*
X231107Y82793D01*
X231601Y82191D01*
X232203Y81697D01*
X232890Y81331D01*
X233635Y81104D01*
X234409Y81028D01*
X235591D01*
X236365Y81104D01*
X237110Y81331D01*
X237797Y81697D01*
X238399Y82191D01*
X238893Y82793D01*
X239260Y83480D01*
X239486Y84225D01*
X239562Y85000D01*
X239486Y85775D01*
X239260Y86520D01*
X238893Y87207D01*
X238399Y87809D01*
X237797Y88302D01*
X237110Y88670D01*
X236365Y88896D01*
X235591Y88972D01*
D02*
G37*
G36*
X107778Y110448D02*
X87402D01*
X86939Y110388D01*
X86508Y110209D01*
X86138Y109925D01*
X83736Y107523D01*
X83452Y107153D01*
X83274Y106722D01*
X83213Y106260D01*
Y103751D01*
X83110Y103709D01*
X82553Y103367D01*
X82057Y102943D01*
X81633Y102447D01*
X81291Y101890D01*
X81041Y101286D01*
X80889Y100651D01*
X80838Y100000D01*
X80889Y99349D01*
X81041Y98714D01*
X81291Y98110D01*
X81633Y97553D01*
X82057Y97057D01*
X82553Y96632D01*
X83110Y96291D01*
X83714Y96041D01*
X84349Y95889D01*
X85000Y95838D01*
X85651Y95889D01*
X86286Y96041D01*
X86890Y96291D01*
X87447Y96632D01*
X87943Y97057D01*
X88367Y97553D01*
X88709Y98110D01*
X88959Y98714D01*
X89111Y99349D01*
X89162Y100000D01*
X89111Y100651D01*
X88959Y101286D01*
X88709Y101890D01*
X88367Y102447D01*
X87943Y102943D01*
X87447Y103367D01*
X86890Y103709D01*
X86787Y103751D01*
Y105520D01*
X88142Y106875D01*
X107037D01*
X108353Y105559D01*
Y103751D01*
X108250Y103709D01*
X107693Y103367D01*
X107196Y102943D01*
X106772Y102447D01*
X106431Y101890D01*
X106181Y101286D01*
X106029Y100651D01*
X105977Y100000D01*
X106029Y99349D01*
X106181Y98714D01*
X106431Y98110D01*
X106772Y97553D01*
X107196Y97057D01*
X107693Y96632D01*
X108250Y96291D01*
X108853Y96041D01*
X109489Y95889D01*
X110140Y95838D01*
X110791Y95889D01*
X111426Y96041D01*
X112030Y96291D01*
X112586Y96632D01*
X112713Y96741D01*
X113213Y96510D01*
Y89381D01*
X113110Y89339D01*
X112553Y88998D01*
X112057Y88573D01*
X111633Y88077D01*
X111291Y87520D01*
X111041Y86916D01*
X110889Y86281D01*
X110838Y85630D01*
X110889Y84979D01*
X111041Y84344D01*
X111291Y83740D01*
X111633Y83183D01*
X112057Y82687D01*
X112553Y82262D01*
X112678Y82186D01*
X112753Y81554D01*
X112120Y80921D01*
X72078D01*
X71789Y81272D01*
X71736Y81421D01*
X71787Y81811D01*
X71787Y81811D01*
Y81879D01*
X71890Y81921D01*
X72447Y82262D01*
X72943Y82687D01*
X73368Y83183D01*
X73709Y83740D01*
X73959Y84344D01*
X74111Y84979D01*
X74162Y85630D01*
X74111Y86281D01*
X73959Y86916D01*
X73709Y87520D01*
X73368Y88077D01*
X72943Y88573D01*
X72447Y88998D01*
X71890Y89339D01*
X71286Y89589D01*
X70651Y89741D01*
X70000Y89792D01*
X69349Y89741D01*
X68714Y89589D01*
X68110Y89339D01*
X67553Y88998D01*
X67057Y88573D01*
X66632Y88077D01*
X66291Y87520D01*
X66041Y86916D01*
X65889Y86281D01*
X65838Y85630D01*
X65889Y84979D01*
X66041Y84344D01*
X66291Y83740D01*
X66632Y83183D01*
X67057Y82687D01*
X67372Y82417D01*
X67467Y81805D01*
X66583Y80921D01*
X23181D01*
X20771Y83331D01*
X17838Y86264D01*
X17468Y86547D01*
X17037Y86726D01*
X16575Y86787D01*
X14117D01*
X13893Y87207D01*
X13399Y87809D01*
X12797Y88302D01*
X12111Y88670D01*
X11365Y88896D01*
X10591Y88972D01*
X9409D01*
X8635Y88896D01*
X7890Y88670D01*
X7203Y88302D01*
X6601Y87809D01*
X6107Y87207D01*
X5740Y86520D01*
X5514Y85775D01*
X5438Y85000D01*
X5514Y84225D01*
X5740Y83480D01*
X6107Y82793D01*
X6601Y82191D01*
X7203Y81697D01*
X7890Y81331D01*
X8635Y81104D01*
X9409Y81028D01*
X10591D01*
X11365Y81104D01*
X12111Y81331D01*
X12797Y81697D01*
X13399Y82191D01*
X13893Y82793D01*
X14117Y83213D01*
X15835D01*
X17721Y81327D01*
Y26555D01*
X17782Y26093D01*
X17960Y25662D01*
X18244Y25292D01*
X19996Y23540D01*
X19996Y23540D01*
X20366Y23256D01*
X20797Y23077D01*
X21260Y23016D01*
X21260Y23016D01*
X27606D01*
X28213Y22409D01*
Y20005D01*
X27707Y19796D01*
X27031Y19382D01*
X26428Y18867D01*
X25914Y18264D01*
X25499Y17588D01*
X25196Y16856D01*
X25011Y16085D01*
X24949Y15295D01*
Y14705D01*
X25011Y13915D01*
X25196Y13144D01*
X25499Y12412D01*
X25914Y11736D01*
X26428Y11133D01*
X27031Y10618D01*
X27707Y10204D01*
X28439Y9901D01*
X29210Y9716D01*
X30000Y9654D01*
X30790Y9716D01*
X31561Y9901D01*
X32293Y10204D01*
X32969Y10618D01*
X33572Y11133D01*
X34086Y11736D01*
X34501Y12412D01*
X34804Y13144D01*
X34989Y13915D01*
X35051Y14705D01*
Y15295D01*
X34989Y16085D01*
X34804Y16856D01*
X34501Y17588D01*
X34086Y18264D01*
X33572Y18867D01*
X32969Y19382D01*
X32293Y19796D01*
X31787Y20005D01*
Y23150D01*
X31726Y23612D01*
X31622Y23865D01*
X31547Y24043D01*
X31264Y24413D01*
X29610Y26067D01*
X29240Y26351D01*
X28809Y26529D01*
X28346Y26590D01*
X22000D01*
X21295Y27295D01*
Y77186D01*
X21577Y77400D01*
X21795Y77484D01*
X21979Y77408D01*
X22441Y77347D01*
X22441Y77347D01*
X112861D01*
X113323Y77408D01*
X113754Y77586D01*
X114124Y77870D01*
X116263Y80010D01*
X116264Y80010D01*
X116548Y80380D01*
X116726Y80811D01*
X116787Y81273D01*
X116787Y81274D01*
Y81879D01*
X116890Y81921D01*
X117447Y82262D01*
X117943Y82687D01*
X118368Y83183D01*
X118709Y83740D01*
X118959Y84344D01*
X119111Y84979D01*
X119162Y85630D01*
X119111Y86281D01*
X118959Y86916D01*
X118709Y87520D01*
X118368Y88077D01*
X117943Y88573D01*
X117447Y88998D01*
X116890Y89339D01*
X116787Y89381D01*
Y97598D01*
X116726Y98061D01*
X116548Y98492D01*
X116264Y98862D01*
X114180Y100945D01*
X114099Y101286D01*
X113849Y101890D01*
X113507Y102447D01*
X113083Y102943D01*
X112586Y103367D01*
X112030Y103709D01*
X111927Y103751D01*
Y106299D01*
X111866Y106762D01*
X111761Y107014D01*
X111687Y107193D01*
X111403Y107563D01*
X109041Y109925D01*
X108671Y110209D01*
X108240Y110388D01*
X107778Y110448D01*
D02*
G37*
G36*
X10750Y78545D02*
Y75750D01*
X14066D01*
X13880Y76363D01*
X13551Y76978D01*
X13108Y77518D01*
X12569Y77960D01*
X11953Y78289D01*
X11285Y78492D01*
X10750Y78545D01*
D02*
G37*
G36*
X9250D02*
X8715Y78492D01*
X8047Y78289D01*
X7431Y77960D01*
X6892Y77518D01*
X6449Y76978D01*
X6120Y76363D01*
X5934Y75750D01*
X9250D01*
Y78545D01*
D02*
G37*
G36*
X169979Y74162D02*
X169327Y74111D01*
X168692Y73959D01*
X168089Y73709D01*
X167532Y73368D01*
X167035Y72943D01*
X166611Y72447D01*
X166270Y71890D01*
X166227Y71787D01*
X158751D01*
X158709Y71890D01*
X158368Y72447D01*
X157943Y72943D01*
X157447Y73368D01*
X156890Y73709D01*
X156286Y73959D01*
X155651Y74111D01*
X155000Y74162D01*
X154349Y74111D01*
X153714Y73959D01*
X153110Y73709D01*
X152553Y73368D01*
X152057Y72943D01*
X151632Y72447D01*
X151291Y71890D01*
X151249Y71787D01*
X138868D01*
X138761Y71987D01*
X138316Y72529D01*
X137774Y72974D01*
X137156Y73304D01*
X136485Y73508D01*
X135787Y73576D01*
X134213D01*
X133515Y73508D01*
X132844Y73304D01*
X132226Y72974D01*
X131684Y72529D01*
X131239Y71987D01*
X130909Y71369D01*
X130705Y70698D01*
X130636Y70000D01*
X130705Y69302D01*
X130909Y68631D01*
X131239Y68013D01*
X131684Y67471D01*
X132226Y67026D01*
X132844Y66696D01*
X133515Y66492D01*
X134213Y66424D01*
X135787D01*
X136485Y66492D01*
X137156Y66696D01*
X137774Y67026D01*
X138316Y67471D01*
X138761Y68013D01*
X138868Y68213D01*
X151249D01*
X151291Y68110D01*
X151632Y67553D01*
X152057Y67057D01*
X152553Y66632D01*
X153110Y66291D01*
X153714Y66041D01*
X154349Y65889D01*
X155000Y65838D01*
X155651Y65889D01*
X156286Y66041D01*
X156890Y66291D01*
X157447Y66632D01*
X157943Y67057D01*
X158368Y67553D01*
X158709Y68110D01*
X158751Y68213D01*
X166227D01*
X166270Y68110D01*
X166611Y67553D01*
X167035Y67057D01*
X167532Y66632D01*
X168089Y66291D01*
X168692Y66041D01*
X169327Y65889D01*
X169979Y65838D01*
X170630Y65889D01*
X171265Y66041D01*
X171868Y66291D01*
X172425Y66632D01*
X172922Y67057D01*
X173346Y67553D01*
X173687Y68110D01*
X173937Y68714D01*
X174090Y69349D01*
X174141Y70000D01*
X174090Y70651D01*
X173937Y71286D01*
X173687Y71890D01*
X173346Y72447D01*
X172922Y72943D01*
X172425Y73368D01*
X171868Y73709D01*
X171265Y73959D01*
X170630Y74111D01*
X169979Y74162D01*
D02*
G37*
G36*
X14066Y74250D02*
X10750D01*
Y71455D01*
X11285Y71508D01*
X11953Y71711D01*
X12569Y72040D01*
X13108Y72482D01*
X13551Y73022D01*
X13880Y73637D01*
X14066Y74250D01*
D02*
G37*
G36*
X9250D02*
X5934D01*
X6120Y73637D01*
X6449Y73022D01*
X6892Y72482D01*
X7431Y72040D01*
X8047Y71711D01*
X8715Y71508D01*
X9250Y71455D01*
Y74250D01*
D02*
G37*
G36*
X235750Y68545D02*
Y65750D01*
X239066D01*
X238880Y66363D01*
X238551Y66978D01*
X238108Y67518D01*
X237569Y67960D01*
X236953Y68289D01*
X236285Y68492D01*
X235750Y68545D01*
D02*
G37*
G36*
X239066Y64250D02*
X235750D01*
Y61455D01*
X236285Y61508D01*
X236953Y61711D01*
X237569Y62040D01*
X238108Y62482D01*
X238551Y63022D01*
X238880Y63638D01*
X239066Y64250D01*
D02*
G37*
G36*
X10591Y68972D02*
X9409D01*
X8635Y68896D01*
X7890Y68669D01*
X7203Y68303D01*
X6601Y67809D01*
X6107Y67207D01*
X5740Y66520D01*
X5514Y65775D01*
X5438Y65000D01*
X5514Y64225D01*
X5740Y63480D01*
X6107Y62793D01*
X6601Y62191D01*
X7203Y61698D01*
X7890Y61330D01*
X8635Y61104D01*
X9409Y61028D01*
X10591D01*
X11365Y61104D01*
X12111Y61330D01*
X12797Y61698D01*
X13399Y62191D01*
X13893Y62793D01*
X14260Y63480D01*
X14486Y64225D01*
X14562Y65000D01*
X14486Y65775D01*
X14260Y66520D01*
X13893Y67207D01*
X13399Y67809D01*
X12797Y68303D01*
X12111Y68669D01*
X11365Y68896D01*
X10591Y68972D01*
D02*
G37*
G36*
X170729Y63681D02*
Y60750D01*
X173660D01*
X173451Y61438D01*
X173103Y62088D01*
X172636Y62657D01*
X172067Y63125D01*
X171417Y63472D01*
X170729Y63681D01*
D02*
G37*
G36*
X10591Y58972D02*
X9409D01*
X8635Y58896D01*
X7890Y58670D01*
X7203Y58302D01*
X6601Y57809D01*
X6107Y57207D01*
X5883Y56787D01*
X5394D01*
X5394Y56787D01*
X4931Y56726D01*
X4500Y56547D01*
X4130Y56264D01*
X2280Y54413D01*
X1996Y54043D01*
X1817Y53612D01*
X1756Y53150D01*
Y17717D01*
X1817Y17254D01*
X1996Y16823D01*
X2280Y16453D01*
X4996Y13736D01*
X4996Y13736D01*
X5366Y13453D01*
X5797Y13274D01*
X6260Y13213D01*
X14550D01*
X14566Y13144D01*
X14870Y12412D01*
X15284Y11736D01*
X15798Y11133D01*
X16401Y10618D01*
X17077Y10204D01*
X17583Y9995D01*
Y8976D01*
X17644Y8514D01*
X17822Y8083D01*
X18106Y7713D01*
X19957Y5862D01*
X20327Y5578D01*
X20506Y5504D01*
X20758Y5400D01*
X21221Y5339D01*
X61249D01*
X61291Y5236D01*
X61633Y4679D01*
X62057Y4183D01*
X62553Y3758D01*
X63110Y3417D01*
X63714Y3167D01*
X64349Y3015D01*
X65000Y2963D01*
X65651Y3015D01*
X66286Y3167D01*
X66890Y3417D01*
X67447Y3758D01*
X67943Y4183D01*
X68367Y4679D01*
X68709Y5236D01*
X68751Y5339D01*
X76249D01*
X76291Y5236D01*
X76632Y4679D01*
X77057Y4183D01*
X77553Y3758D01*
X78110Y3417D01*
X78714Y3167D01*
X79349Y3015D01*
X80000Y2963D01*
X80651Y3015D01*
X81286Y3167D01*
X81890Y3417D01*
X82447Y3758D01*
X82943Y4183D01*
X83368Y4679D01*
X83709Y5236D01*
X83751Y5339D01*
X96272D01*
X96379Y5139D01*
X96824Y4597D01*
X97365Y4152D01*
X97984Y3822D01*
X98655Y3618D01*
X99352Y3550D01*
X100927D01*
X101625Y3618D01*
X102296Y3822D01*
X102914Y4152D01*
X103456Y4597D01*
X103901Y5139D01*
X104231Y5757D01*
X104435Y6428D01*
X104504Y7126D01*
X104435Y7824D01*
X104231Y8494D01*
X103901Y9113D01*
X103456Y9655D01*
X102914Y10099D01*
X102296Y10430D01*
X101625Y10633D01*
X100927Y10702D01*
X99352D01*
X98655Y10633D01*
X97984Y10430D01*
X97365Y10099D01*
X96824Y9655D01*
X96379Y9113D01*
X96272Y8913D01*
X83751D01*
X83709Y9015D01*
X83368Y9572D01*
X82943Y10069D01*
X82447Y10493D01*
X81890Y10835D01*
X81286Y11084D01*
X80651Y11237D01*
X80000Y11288D01*
X79349Y11237D01*
X78714Y11084D01*
X78110Y10835D01*
X77553Y10493D01*
X77057Y10069D01*
X76632Y9572D01*
X76291Y9015D01*
X76249Y8913D01*
X68751D01*
X68709Y9015D01*
X68367Y9572D01*
X67943Y10069D01*
X67447Y10493D01*
X66890Y10835D01*
X66286Y11084D01*
X65651Y11237D01*
X65000Y11288D01*
X64349Y11237D01*
X63714Y11084D01*
X63110Y10835D01*
X62553Y10493D01*
X62057Y10069D01*
X61633Y9572D01*
X61291Y9015D01*
X61249Y8913D01*
X21961D01*
X21341Y9533D01*
X21425Y10106D01*
X21663Y10204D01*
X22339Y10618D01*
X22942Y11133D01*
X23456Y11736D01*
X23870Y12412D01*
X24174Y13144D01*
X24359Y13915D01*
X24421Y14705D01*
Y15295D01*
X24359Y16085D01*
X24174Y16856D01*
X23870Y17588D01*
X23456Y18264D01*
X22942Y18867D01*
X22339Y19382D01*
X21663Y19796D01*
X20931Y20099D01*
X20160Y20284D01*
X19370Y20346D01*
X18580Y20284D01*
X17809Y20099D01*
X17077Y19796D01*
X16401Y19382D01*
X15798Y18867D01*
X15284Y18264D01*
X14870Y17588D01*
X14566Y16856D01*
X14550Y16787D01*
X7000D01*
X5330Y18457D01*
Y52377D01*
X5704Y52714D01*
X6249Y52621D01*
X6601Y52192D01*
X7203Y51697D01*
X7890Y51331D01*
X8635Y51104D01*
X9409Y51028D01*
X10591D01*
X11365Y51104D01*
X12111Y51331D01*
X12797Y51697D01*
X13399Y52192D01*
X13893Y52793D01*
X14260Y53480D01*
X14486Y54225D01*
X14562Y55000D01*
X14486Y55775D01*
X14260Y56520D01*
X13893Y57207D01*
X13399Y57809D01*
X12797Y58302D01*
X12111Y58670D01*
X11365Y58896D01*
X10591Y58972D01*
D02*
G37*
G36*
X137510Y65286D02*
X135750D01*
Y62126D01*
Y58849D01*
X135862Y58736D01*
X136232Y58452D01*
X136411Y58378D01*
X136663Y58274D01*
X137126Y58213D01*
X137126Y58213D01*
X151714D01*
X151875Y57912D01*
X152342Y57342D01*
X152912Y56875D01*
X153562Y56528D01*
X154250Y56319D01*
Y60000D01*
Y63681D01*
X153562Y63472D01*
X152912Y63125D01*
X152342Y62657D01*
X151875Y62088D01*
X151714Y61787D01*
X138751D01*
Y64045D01*
X138708Y64367D01*
X138584Y64666D01*
X138387Y64923D01*
X138130Y65120D01*
X137831Y65244D01*
X137510Y65286D01*
D02*
G37*
G36*
X234250Y68545D02*
X233715Y68492D01*
X233047Y68289D01*
X232431Y67960D01*
X231892Y67518D01*
X231449Y66978D01*
X231326Y66748D01*
X227953D01*
X227490Y66687D01*
X227238Y66582D01*
X227059Y66508D01*
X226689Y66224D01*
X224327Y63862D01*
X224043Y63492D01*
X223865Y63061D01*
X223804Y62598D01*
Y52709D01*
X222488Y51393D01*
X173081D01*
X171765Y52709D01*
Y56714D01*
X172067Y56875D01*
X172636Y57342D01*
X173103Y57912D01*
X173451Y58562D01*
X173660Y59250D01*
X169979D01*
Y60000D01*
X169229D01*
Y63681D01*
X168540Y63472D01*
X167891Y63125D01*
X167321Y62657D01*
X166854Y62088D01*
X166693Y61787D01*
X158286D01*
X158125Y62088D01*
X157658Y62657D01*
X157088Y63125D01*
X156438Y63472D01*
X155750Y63681D01*
Y60000D01*
Y56319D01*
X156438Y56528D01*
X157088Y56875D01*
X157658Y57342D01*
X158125Y57912D01*
X158286Y58213D01*
X166693D01*
X166854Y57912D01*
X167321Y57342D01*
X167891Y56875D01*
X168192Y56714D01*
Y51968D01*
X168253Y51506D01*
X168431Y51075D01*
X168715Y50705D01*
X171077Y48343D01*
X171077Y48343D01*
X171447Y48059D01*
X171878Y47880D01*
X172341Y47819D01*
X172341Y47819D01*
X203725D01*
Y37795D01*
X203786Y37333D01*
X203964Y36902D01*
X204248Y36532D01*
X207044Y33736D01*
X207414Y33452D01*
X207845Y33274D01*
X208307Y33213D01*
X231347D01*
X231449Y33022D01*
X231892Y32482D01*
X232431Y32040D01*
X233047Y31711D01*
X233715Y31508D01*
X234250Y31455D01*
Y35000D01*
Y38545D01*
X233715Y38492D01*
X233047Y38289D01*
X232431Y37960D01*
X231892Y37518D01*
X231449Y36978D01*
X231347Y36787D01*
X209047D01*
X207299Y38535D01*
Y47819D01*
X223228D01*
X223691Y47880D01*
X224122Y48059D01*
X224492Y48343D01*
X226854Y50705D01*
X226854Y50705D01*
X227138Y51075D01*
X227317Y51506D01*
X227378Y51968D01*
X227378Y51969D01*
Y61858D01*
X228693Y63174D01*
X231368D01*
X231449Y63022D01*
X231892Y62482D01*
X232431Y62040D01*
X233047Y61711D01*
X233715Y61508D01*
X234250Y61455D01*
Y65000D01*
Y68545D01*
D02*
G37*
G36*
X235591Y58972D02*
X234409D01*
X233635Y58896D01*
X232890Y58670D01*
X232203Y58302D01*
X231601Y57809D01*
X231107Y57207D01*
X230740Y56520D01*
X230514Y55775D01*
X230438Y55000D01*
X230514Y54225D01*
X230740Y53480D01*
X231107Y52793D01*
X231601Y52192D01*
X232203Y51697D01*
X232890Y51331D01*
X233635Y51104D01*
X234409Y51028D01*
X235591D01*
X236365Y51104D01*
X237110Y51331D01*
X237797Y51697D01*
X238399Y52192D01*
X238893Y52793D01*
X239260Y53480D01*
X239486Y54225D01*
X239562Y55000D01*
X239486Y55775D01*
X239260Y56520D01*
X238893Y57207D01*
X238399Y57809D01*
X237797Y58302D01*
X237110Y58670D01*
X236365Y58896D01*
X235591Y58972D01*
D02*
G37*
G36*
X63681Y53620D02*
X60750D01*
Y50689D01*
X61438Y50898D01*
X62088Y51245D01*
X62657Y51713D01*
X63125Y52282D01*
X63472Y52932D01*
X63681Y53620D01*
D02*
G37*
G36*
X108681D02*
X105750D01*
Y50689D01*
X106438Y50898D01*
X107088Y51245D01*
X107658Y51713D01*
X108125Y52282D01*
X108472Y52932D01*
X108681Y53620D01*
D02*
G37*
G36*
X104250D02*
X101319D01*
X101528Y52932D01*
X101875Y52282D01*
X102342Y51713D01*
X102912Y51245D01*
X103562Y50898D01*
X104250Y50689D01*
Y53620D01*
D02*
G37*
G36*
X59250D02*
X56319D01*
X56528Y52932D01*
X56875Y52282D01*
X57342Y51713D01*
X57912Y51245D01*
X58562Y50898D01*
X59250Y50689D01*
Y53620D01*
D02*
G37*
G36*
X87520Y58534D02*
X82480D01*
X82055Y58478D01*
X81658Y58313D01*
X81318Y58052D01*
X81057Y57712D01*
X80892Y57315D01*
X80836Y56890D01*
Y51850D01*
X80892Y51425D01*
X81057Y51028D01*
X81318Y50688D01*
X81658Y50427D01*
X82055Y50262D01*
X82480Y50206D01*
X87520D01*
X87945Y50262D01*
X88342Y50427D01*
X88682Y50688D01*
X88943Y51028D01*
X89108Y51425D01*
X89164Y51850D01*
Y56890D01*
X89108Y57315D01*
X88943Y57712D01*
X88682Y58052D01*
X88342Y58313D01*
X87945Y58478D01*
X87520Y58534D01*
D02*
G37*
G36*
X42520D02*
X37480D01*
X37055Y58478D01*
X36658Y58313D01*
X36318Y58052D01*
X36057Y57712D01*
X35892Y57315D01*
X35836Y56890D01*
Y51850D01*
X35892Y51425D01*
X36057Y51028D01*
X36318Y50688D01*
X36658Y50427D01*
X37055Y50262D01*
X37480Y50206D01*
X42520D01*
X42945Y50262D01*
X43342Y50427D01*
X43682Y50688D01*
X43943Y51028D01*
X44108Y51425D01*
X44164Y51850D01*
Y56890D01*
X44108Y57315D01*
X43943Y57712D01*
X43682Y58052D01*
X43342Y58313D01*
X42945Y58478D01*
X42520Y58534D01*
D02*
G37*
G36*
X10750Y48545D02*
Y45750D01*
X14066D01*
X13880Y46363D01*
X13551Y46978D01*
X13108Y47518D01*
X12569Y47960D01*
X11953Y48289D01*
X11285Y48492D01*
X10750Y48545D01*
D02*
G37*
G36*
X9250D02*
X8715Y48492D01*
X8047Y48289D01*
X7431Y47960D01*
X6892Y47518D01*
X6449Y46978D01*
X6120Y46363D01*
X5934Y45750D01*
X9250D01*
Y48545D01*
D02*
G37*
G36*
X14066Y44250D02*
X10750D01*
Y41455D01*
X11285Y41508D01*
X11953Y41711D01*
X12569Y42040D01*
X13108Y42482D01*
X13551Y43022D01*
X13880Y43637D01*
X14066Y44250D01*
D02*
G37*
G36*
X9250D02*
X5934D01*
X6120Y43637D01*
X6449Y43022D01*
X6892Y42482D01*
X7431Y42040D01*
X8047Y41711D01*
X8715Y41508D01*
X9250Y41455D01*
Y44250D01*
D02*
G37*
G36*
X235591Y48972D02*
X234409D01*
X233635Y48896D01*
X232890Y48669D01*
X232203Y48303D01*
X231601Y47809D01*
X231107Y47207D01*
X230740Y46520D01*
X230514Y45775D01*
X230438Y45000D01*
X230514Y44225D01*
X230740Y43480D01*
X231107Y42793D01*
X231601Y42191D01*
X232203Y41697D01*
X232890Y41331D01*
X233635Y41104D01*
X234409Y41028D01*
X235591D01*
X236365Y41104D01*
X237110Y41331D01*
X237797Y41697D01*
X238399Y42191D01*
X238893Y42793D01*
X239260Y43480D01*
X239486Y44225D01*
X239562Y45000D01*
X239486Y45775D01*
X239260Y46520D01*
X238893Y47207D01*
X238399Y47809D01*
X237797Y48303D01*
X237110Y48669D01*
X236365Y48896D01*
X235591Y48972D01*
D02*
G37*
G36*
X115000Y58532D02*
X114349Y58481D01*
X113714Y58329D01*
X113110Y58079D01*
X112553Y57737D01*
X112057Y57313D01*
X111633Y56817D01*
X111291Y56260D01*
X111041Y55656D01*
X110889Y55021D01*
X110838Y54370D01*
X110889Y53719D01*
X111041Y53084D01*
X111291Y52480D01*
X111633Y51923D01*
X112057Y51427D01*
X112553Y51003D01*
X113110Y50661D01*
X113213Y50619D01*
Y37354D01*
X112646Y36787D01*
X109322D01*
X109210Y37156D01*
X108879Y37774D01*
X108434Y38316D01*
X107893Y38761D01*
X107274Y39091D01*
X106603Y39295D01*
X105906Y39364D01*
X105208Y39295D01*
X104537Y39091D01*
X103919Y38761D01*
X103377Y38316D01*
X102932Y37774D01*
X102602Y37156D01*
X102398Y36485D01*
X102329Y35787D01*
Y34213D01*
X102398Y33515D01*
X102602Y32844D01*
X102932Y32226D01*
X103377Y31684D01*
X103919Y31239D01*
X104537Y30909D01*
X105208Y30705D01*
X105906Y30636D01*
X106603Y30705D01*
X107274Y30909D01*
X107893Y31239D01*
X108434Y31684D01*
X108879Y32226D01*
X109210Y32844D01*
X109322Y33213D01*
X113386D01*
X113848Y33274D01*
X114279Y33452D01*
X114649Y33736D01*
X116264Y35351D01*
X116548Y35721D01*
X116726Y36152D01*
X116787Y36614D01*
Y50619D01*
X116890Y50661D01*
X117447Y51003D01*
X117943Y51427D01*
X118368Y51923D01*
X118709Y52480D01*
X118959Y53084D01*
X119111Y53719D01*
X119162Y54370D01*
X119111Y55021D01*
X118959Y55656D01*
X118709Y56260D01*
X118368Y56817D01*
X117943Y57313D01*
X117447Y57737D01*
X116890Y58079D01*
X116286Y58329D01*
X115651Y58481D01*
X115000Y58532D01*
D02*
G37*
G36*
X70000D02*
X69349Y58481D01*
X68714Y58329D01*
X68110Y58079D01*
X67553Y57737D01*
X67057Y57313D01*
X66632Y56817D01*
X66291Y56260D01*
X66041Y55656D01*
X65889Y55021D01*
X65838Y54370D01*
X65889Y53719D01*
X66041Y53084D01*
X66291Y52480D01*
X66632Y51923D01*
X67057Y51427D01*
X67553Y51003D01*
X68110Y50661D01*
X68213Y50619D01*
Y38772D01*
X66228Y36787D01*
X64322D01*
X64210Y37156D01*
X63879Y37774D01*
X63434Y38316D01*
X62893Y38761D01*
X62274Y39091D01*
X61603Y39295D01*
X60906Y39364D01*
X60208Y39295D01*
X59537Y39091D01*
X58919Y38761D01*
X58377Y38316D01*
X57932Y37774D01*
X57602Y37156D01*
X57398Y36485D01*
X57329Y35787D01*
Y34213D01*
X57398Y33515D01*
X57602Y32844D01*
X57932Y32226D01*
X58377Y31684D01*
X58919Y31239D01*
X59537Y30909D01*
X60208Y30705D01*
X60906Y30636D01*
X61603Y30705D01*
X62274Y30909D01*
X62893Y31239D01*
X63434Y31684D01*
X63879Y32226D01*
X64210Y32844D01*
X64322Y33213D01*
X66969D01*
X67431Y33274D01*
X67862Y33452D01*
X68232Y33736D01*
X71264Y36768D01*
X71548Y37138D01*
X71622Y37316D01*
X71726Y37569D01*
X71787Y38031D01*
X71787Y38032D01*
Y50619D01*
X71890Y50661D01*
X72447Y51003D01*
X72943Y51427D01*
X73368Y51923D01*
X73709Y52480D01*
X73959Y53084D01*
X74111Y53719D01*
X74162Y54370D01*
X74111Y55021D01*
X73959Y55656D01*
X73709Y56260D01*
X73368Y56817D01*
X72943Y57313D01*
X72447Y57737D01*
X71890Y58079D01*
X71286Y58329D01*
X70651Y58481D01*
X70000Y58532D01*
D02*
G37*
G36*
X235750Y38545D02*
Y35750D01*
X239066D01*
X238880Y36362D01*
X238551Y36978D01*
X238108Y37518D01*
X237569Y37960D01*
X236953Y38289D01*
X236285Y38492D01*
X235750Y38545D01*
D02*
G37*
G36*
X239066Y34250D02*
X235750D01*
Y31455D01*
X236285Y31508D01*
X236953Y31711D01*
X237569Y32040D01*
X238108Y32482D01*
X238551Y33022D01*
X238880Y33637D01*
X239066Y34250D01*
D02*
G37*
G36*
X95000Y58532D02*
X94349Y58481D01*
X93714Y58329D01*
X93110Y58079D01*
X92553Y57737D01*
X92057Y57313D01*
X91632Y56817D01*
X91291Y56260D01*
X91041Y55656D01*
X90889Y55021D01*
X90838Y54370D01*
X90889Y53719D01*
X91041Y53084D01*
X91291Y52480D01*
X91632Y51923D01*
X92057Y51427D01*
X92553Y51003D01*
X93110Y50661D01*
X93213Y50619D01*
Y38031D01*
X93274Y37569D01*
X93453Y37138D01*
X93736Y36768D01*
X94458Y36046D01*
Y32490D01*
X94515Y32062D01*
X94680Y31663D01*
X94943Y31321D01*
X95285Y31058D01*
X95684Y30893D01*
X96112Y30836D01*
X99951D01*
X100379Y30893D01*
X100778Y31058D01*
X101120Y31321D01*
X101383Y31663D01*
X101548Y32062D01*
X101605Y32490D01*
Y37510D01*
X101548Y37938D01*
X101383Y38337D01*
X101120Y38679D01*
X100778Y38942D01*
X100379Y39107D01*
X99951Y39164D01*
X96787D01*
Y50619D01*
X96890Y50661D01*
X97447Y51003D01*
X97943Y51427D01*
X98368Y51923D01*
X98709Y52480D01*
X98959Y53084D01*
X99111Y53719D01*
X99162Y54370D01*
X99111Y55021D01*
X98959Y55656D01*
X98709Y56260D01*
X98368Y56817D01*
X97943Y57313D01*
X97447Y57737D01*
X96890Y58079D01*
X96286Y58329D01*
X95651Y58481D01*
X95000Y58532D01*
D02*
G37*
G36*
X50000D02*
X49349Y58481D01*
X48714Y58329D01*
X48110Y58079D01*
X47553Y57737D01*
X47057Y57313D01*
X46633Y56817D01*
X46291Y56260D01*
X46041Y55656D01*
X45889Y55021D01*
X45838Y54370D01*
X45889Y53719D01*
X46041Y53084D01*
X46291Y52480D01*
X46633Y51923D01*
X47057Y51427D01*
X47553Y51003D01*
X48110Y50661D01*
X48213Y50619D01*
Y38031D01*
X48274Y37569D01*
X48452Y37138D01*
X48736Y36768D01*
X49458Y36046D01*
Y32490D01*
X49515Y32062D01*
X49680Y31663D01*
X49943Y31321D01*
X50285Y31058D01*
X50684Y30893D01*
X51112Y30836D01*
X54951D01*
X55379Y30893D01*
X55778Y31058D01*
X56120Y31321D01*
X56383Y31663D01*
X56548Y32062D01*
X56605Y32490D01*
Y37510D01*
X56548Y37938D01*
X56383Y38337D01*
X56120Y38679D01*
X55778Y38942D01*
X55379Y39107D01*
X54951Y39164D01*
X51787D01*
Y50619D01*
X51890Y50661D01*
X52447Y51003D01*
X52943Y51427D01*
X53368Y51923D01*
X53709Y52480D01*
X53959Y53084D01*
X54111Y53719D01*
X54162Y54370D01*
X54111Y55021D01*
X53959Y55656D01*
X53709Y56260D01*
X53368Y56817D01*
X52943Y57313D01*
X52447Y57737D01*
X51890Y58079D01*
X51286Y58329D01*
X50651Y58481D01*
X50000Y58532D01*
D02*
G37*
G36*
X64250Y20807D02*
X63562Y20598D01*
X62912Y20251D01*
X62343Y19783D01*
X61875Y19214D01*
X61714Y18913D01*
X45210D01*
X45079Y19229D01*
X44855Y19520D01*
X44563Y19745D01*
X44223Y19885D01*
X43858Y19933D01*
X41380D01*
Y15000D01*
Y10067D01*
X43858D01*
X44223Y10115D01*
X44563Y10255D01*
X44855Y10480D01*
X45079Y10772D01*
X45220Y11112D01*
X45268Y11476D01*
Y15339D01*
X61714D01*
X61875Y15038D01*
X62343Y14468D01*
X62912Y14001D01*
X63562Y13654D01*
X64250Y13445D01*
Y17126D01*
Y20807D01*
D02*
G37*
G36*
X102650Y18160D02*
X100890D01*
Y15750D01*
X103891D01*
Y16919D01*
X103848Y17241D01*
X103724Y17540D01*
X103527Y17797D01*
X103270Y17994D01*
X102971Y18118D01*
X102650Y18160D01*
D02*
G37*
G36*
X39880Y19933D02*
X37402D01*
X37037Y19885D01*
X36697Y19745D01*
X36405Y19520D01*
X36181Y19229D01*
X36040Y18889D01*
X35992Y18524D01*
Y15750D01*
X39880D01*
Y19933D01*
D02*
G37*
G36*
X103891Y14250D02*
X100890D01*
Y11840D01*
X102650D01*
X102971Y11882D01*
X103270Y12006D01*
X103527Y12203D01*
X103724Y12460D01*
X103848Y12760D01*
X103891Y13081D01*
Y14250D01*
D02*
G37*
G36*
X80750Y20807D02*
Y17126D01*
Y13445D01*
X81103Y13552D01*
X81232Y13453D01*
X81663Y13274D01*
X82126Y13213D01*
X82126Y13213D01*
X96389D01*
Y13081D01*
X96431Y12760D01*
X96555Y12460D01*
X96753Y12203D01*
X97009Y12006D01*
X97309Y11882D01*
X97630Y11840D01*
X99390D01*
Y15000D01*
Y18160D01*
X97630D01*
X97309Y18118D01*
X97009Y17994D01*
X96753Y17797D01*
X96555Y17540D01*
X96431Y17241D01*
X96389Y16919D01*
Y16787D01*
X84065D01*
X83758Y17126D01*
X83686Y17859D01*
X83472Y18564D01*
X83125Y19214D01*
X82657Y19783D01*
X82088Y20251D01*
X81438Y20598D01*
X80750Y20807D01*
D02*
G37*
G36*
X39880Y14250D02*
X35992D01*
Y11476D01*
X36040Y11112D01*
X36181Y10772D01*
X36405Y10480D01*
X36697Y10255D01*
X37037Y10115D01*
X37402Y10067D01*
X39880D01*
Y14250D01*
D02*
G37*
%LPD*%
D39*
X40000Y89606D02*
Y92126D01*
Y85630D02*
Y89606D01*
X42520Y92126D02*
X82677D01*
X40000Y89606D02*
X42520Y92126D01*
X59055Y120472D02*
X63779D01*
X56688Y118105D02*
X59055Y120472D01*
X56688Y100000D02*
Y118105D01*
X85000Y85630D02*
Y89803D01*
X82677Y92126D02*
X85000Y89803D01*
X21221Y7126D02*
X65000D01*
X19370Y8976D02*
X21221Y7126D01*
X19370Y8976D02*
Y15000D01*
X80000Y7126D02*
X100140D01*
X65000D02*
X80000D01*
X40630Y15000D02*
X42756Y17126D01*
X65000D01*
X80000D01*
X82126Y15000D01*
X76772Y20354D02*
X80000Y17126D01*
X82126Y15000D02*
X100140D01*
X76772Y20354D02*
Y62598D01*
X205512Y37795D02*
Y49606D01*
Y37795D02*
X208307Y35000D01*
X235000D01*
X154646Y200709D02*
X157087Y203150D01*
X154646Y195000D02*
Y200709D01*
X234961Y64961D02*
X235000Y65000D01*
X227953Y64961D02*
X234961D01*
X225590Y62598D02*
X227953Y64961D01*
X225590Y51968D02*
Y62598D01*
X223228Y49606D02*
X225590Y51968D01*
X205512Y49606D02*
X223228D01*
X169979Y51968D02*
Y60000D01*
Y51968D02*
X172341Y49606D01*
X205512D01*
X62598Y64961D02*
X74410D01*
X60000Y62362D02*
X62598Y64961D01*
X60000Y54370D02*
Y62362D01*
X165000Y135079D02*
X200000D01*
X212008Y75000D02*
X235000D01*
X209055Y77953D02*
X212008Y75000D01*
X209055Y77953D02*
Y132283D01*
X206339Y135000D02*
X209055Y132283D01*
X200079Y135000D02*
X206339D01*
X155000Y70000D02*
X169979D01*
X135000D02*
X155000D01*
X115000Y36614D02*
Y54370D01*
X113386Y35000D02*
X115000Y36614D01*
X105906Y35000D02*
X113386D01*
X95000Y38031D02*
X98031Y35000D01*
X95000Y38031D02*
Y54370D01*
X70000Y38031D02*
Y54370D01*
X66969Y35000D02*
X70000Y38031D01*
X60906Y35000D02*
X66969D01*
X50000Y38031D02*
X53031Y35000D01*
X50000Y38031D02*
Y54370D01*
X6260Y15000D02*
X19370D01*
X3543Y17717D02*
X6260Y15000D01*
X3543Y17717D02*
Y53150D01*
X5394Y55000D01*
X10000D01*
X21260Y24803D02*
X28346D01*
X19508Y26555D02*
X21260Y24803D01*
X19508Y26555D02*
Y82067D01*
X30000Y15000D02*
Y23150D01*
X28346Y24803D02*
X30000Y23150D01*
X19508Y82067D02*
X22441Y79134D01*
X16575Y85000D02*
X19508Y82067D01*
X87402Y108661D02*
X107778D01*
X85000Y106260D02*
X87402Y108661D01*
X85000Y100000D02*
Y106260D01*
X110140Y100000D02*
Y106299D01*
X107778Y108661D02*
X110140Y106299D01*
X115000Y85630D02*
Y97598D01*
X112598Y100000D02*
X115000Y97598D01*
X110140Y100000D02*
X112598D01*
X67323Y79134D02*
X112861D01*
X22441D02*
X67323D01*
X70000Y81811D02*
Y85630D01*
X67323Y79134D02*
X70000Y81811D01*
X115000Y81273D02*
Y85630D01*
X112861Y79134D02*
X115000Y81273D01*
X10000Y85000D02*
X16575D01*
X37126Y95000D02*
X40000Y92126D01*
X10000Y95000D02*
X37126D01*
X10000Y160000D02*
X15000Y165000D01*
X10000Y95000D02*
Y160000D01*
X234882Y105118D02*
X235000Y105000D01*
X200000Y135079D02*
X200079Y135000D01*
X165000Y127205D02*
X167205Y125000D01*
X185079D01*
X144095Y125197D02*
Y135000D01*
Y120000D02*
Y125197D01*
X146102Y127205D01*
X165000D01*
X212244Y176969D02*
X230276D01*
X210276Y175000D02*
X212244Y176969D01*
X195276Y175000D02*
X210276D01*
X134095Y120000D02*
Y135000D01*
X157244Y176969D02*
X175276D01*
X155276Y175000D02*
X157244Y176969D01*
X140276Y175000D02*
X155276D01*
X129947Y157061D02*
X132283Y159397D01*
Y192520D01*
X134764Y195000D01*
X144016D01*
X129947Y157061D02*
X134095Y152913D01*
Y135000D02*
Y152913D01*
X105000Y157061D02*
X129947D01*
X124331Y185000D02*
Y197244D01*
X121575Y200000D02*
X124331Y197244D01*
X100000Y200000D02*
X121575D01*
X100000Y185000D02*
Y200000D01*
X90945Y166535D02*
Y174803D01*
X89410Y165000D02*
X90945Y166535D01*
X75000Y165000D02*
X89410D01*
X93307Y177165D02*
X98819D01*
X90945Y174803D02*
X93307Y177165D01*
X100000Y178347D02*
Y185000D01*
X98819Y177165D02*
X100000Y178347D01*
X16510Y157061D02*
X105000D01*
X16510D02*
X16535Y157087D01*
X15000Y158622D02*
X16535Y157087D01*
X15000Y158622D02*
Y165000D01*
X230276Y176969D02*
Y193740D01*
X229016Y195000D02*
X230276Y193740D01*
X224291Y195000D02*
X229016D01*
X179370D02*
X204213D01*
X165276D02*
X179370D01*
X175276Y190906D02*
X179370Y195000D01*
X175276Y176969D02*
Y190906D01*
X214252Y195000D02*
Y200315D01*
X211417Y203150D02*
X214252Y200315D01*
X157087Y203150D02*
X211417D01*
X210276Y165000D02*
X226181D01*
X230276Y169094D01*
X126378Y68504D02*
Y89764D01*
Y64961D02*
Y68504D01*
X122835Y64961D02*
X126378Y68504D01*
X102756Y64961D02*
X122835D01*
X129213Y62126D02*
X135000D01*
X126378Y64961D02*
X129213Y62126D01*
X126378Y89764D02*
X128740Y92126D01*
X134936D01*
X140551Y90000D02*
X155000D01*
X137062D02*
X140551D01*
X144095Y93543D01*
Y120000D01*
X140276Y165000D02*
X144095Y161181D01*
Y135000D02*
Y161181D01*
X179370Y165000D02*
X195276D01*
X175276Y169094D02*
X179370Y165000D01*
X155276D02*
X171181D01*
X175276Y169094D01*
X195276Y165000D02*
X210276D01*
X140276D02*
X155276D01*
X185079Y125000D02*
X200079D01*
X155000Y60000D02*
X169979D01*
X137126D02*
X155000D01*
X135000Y62126D02*
X137126Y60000D01*
X155000Y90000D02*
X170000D01*
X134936Y92126D02*
X137062Y90000D01*
X74410Y64961D02*
X102756D01*
X74410D02*
X76772Y62598D01*
X102756Y64961D02*
X105000Y62717D01*
Y54370D02*
Y62717D01*
X56688Y100000D02*
X75000D01*
X15000Y200000D02*
X75000D01*
X116457Y168425D02*
Y185000D01*
X114567Y166535D02*
X116457Y168425D01*
X114042Y167061D02*
X114567Y166535D01*
X105000Y167061D02*
X114042D01*
X104344Y167717D02*
X105000Y167061D01*
X90000Y185000D02*
Y200000D01*
X75000D02*
X90000D01*
D40*
X235000Y105000D02*
D03*
X10000Y95000D02*
D03*
D41*
X235000D02*
D03*
Y85000D02*
D03*
Y75000D02*
D03*
Y65000D02*
D03*
Y55000D02*
D03*
Y45000D02*
D03*
Y35000D02*
D03*
X10000Y85000D02*
D03*
Y75000D02*
D03*
Y65000D02*
D03*
Y55000D02*
D03*
Y45000D02*
D03*
D42*
X230276Y169094D02*
D03*
X175276D02*
D03*
X100140Y7126D02*
D03*
X135000Y70000D02*
D03*
X134936Y92126D02*
D03*
X165000Y127205D02*
D03*
D43*
X230276Y176969D02*
D03*
X175276D02*
D03*
X100140Y15000D02*
D03*
X135000Y62126D02*
D03*
X134936Y100000D02*
D03*
X165000Y135079D02*
D03*
D44*
X210276Y165000D02*
D03*
Y175000D02*
D03*
X195276Y165000D02*
D03*
Y175000D02*
D03*
X155276Y165000D02*
D03*
Y175000D02*
D03*
X140276Y165000D02*
D03*
Y175000D02*
D03*
X144095Y135000D02*
D03*
X134095D02*
D03*
X144095Y120000D02*
D03*
X134095D02*
D03*
X169979Y60000D02*
D03*
Y70000D02*
D03*
X155000Y60000D02*
D03*
Y70000D02*
D03*
X170000Y90000D02*
D03*
Y100000D02*
D03*
X155000Y90000D02*
D03*
Y100000D02*
D03*
X80000Y17126D02*
D03*
Y7126D02*
D03*
X65000Y17126D02*
D03*
Y7126D02*
D03*
X85000Y85630D02*
D03*
X95000D02*
D03*
X105000D02*
D03*
X115000D02*
D03*
Y54370D02*
D03*
X105000D02*
D03*
X95000D02*
D03*
X40000Y85630D02*
D03*
X50000D02*
D03*
X60000D02*
D03*
X70000D02*
D03*
Y54370D02*
D03*
X60000D02*
D03*
X50000D02*
D03*
X75000Y100000D02*
D03*
X85000D02*
D03*
X105000Y167061D02*
D03*
X90000Y185000D02*
D03*
X100000D02*
D03*
X90000Y200000D02*
D03*
X100000D02*
D03*
X110140Y100000D02*
D03*
X100140D02*
D03*
X200079Y135000D02*
D03*
Y125000D02*
D03*
X185079Y135000D02*
D03*
Y125000D02*
D03*
D45*
X224291Y195000D02*
D03*
X214252D02*
D03*
X165276D02*
D03*
X154646D02*
D03*
X19370Y15000D02*
D03*
X30000D02*
D03*
D46*
X204213Y195000D02*
D03*
X144016D02*
D03*
X40630Y15000D02*
D03*
D47*
X105906Y35000D02*
D03*
X60906D02*
D03*
X48814Y100000D02*
D03*
X116457Y185000D02*
D03*
D48*
X98031Y35000D02*
D03*
X53031D02*
D03*
X56688Y100000D02*
D03*
X124331Y185000D02*
D03*
D49*
X85000Y54370D02*
D03*
X40000D02*
D03*
D50*
X105000Y157061D02*
D03*
D51*
X75000Y200000D02*
D03*
X15000D02*
D03*
X75000Y165000D02*
D03*
D52*
X15000D02*
D03*
D53*
X20000Y125079D02*
D03*
D54*
Y135079D02*
D03*
D55*
X82126Y37774D02*
D03*
X145276Y54331D02*
D03*
X160630Y80315D02*
D03*
X95000Y129921D02*
D03*
X40000Y31890D02*
D03*
X125197Y20079D02*
D03*
X138189Y109843D02*
D03*
X192151Y190157D02*
D03*
X239668Y187795D02*
D03*
X239771Y201969D02*
D03*
X235039Y158268D02*
D03*
X221102D02*
D03*
X206164Y152158D02*
D03*
X195984D02*
D03*
X185730Y152362D02*
D03*
X164173Y151955D02*
D03*
X148533Y152362D02*
D03*
X155927Y116929D02*
D03*
X168025D02*
D03*
X119291Y109489D02*
D03*
X125197Y54370D02*
D03*
X125608Y85000D02*
D03*
X143219Y80315D02*
D03*
X218093Y24803D02*
D03*
X230276Y21260D02*
D03*
X206887D02*
D03*
X201969Y33637D02*
D03*
X125197Y34252D02*
D03*
X112205Y20284D02*
D03*
X27707Y31890D02*
D03*
X102797Y69685D02*
D03*
X53959Y72047D02*
D03*
X28346Y102447D02*
D03*
X50801Y141732D02*
D03*
X63129Y183001D02*
D03*
X43367D02*
D03*
X22441D02*
D03*
X205512Y49606D02*
D03*
X63779Y120472D02*
D03*
M02*
