G04*
G04 #@! TF.GenerationSoftware,Altium Limited,Altium Designer,19.0.15 (446)*
G04*
G04 Layer_Color=32768*
%FSLAX25Y25*%
%MOIN*%
G70*
G01*
G75*
%ADD12C,0.00394*%
%ADD39C,0.01968*%
%ADD56C,0.00197*%
D12*
X236968Y70000D02*
X236705Y70984D01*
X235984Y71705D01*
X235000Y71969D01*
X234016Y71705D01*
X233295Y70984D01*
X233032Y70000D01*
X233295Y69016D01*
X234016Y68295D01*
X235000Y68032D01*
X235984Y68295D01*
X236705Y69016D01*
X236968Y70000D01*
X231667Y173031D02*
X231342Y173926D01*
X230517Y174402D01*
X229580Y174237D01*
X228968Y173508D01*
Y172555D01*
X229580Y171826D01*
X230517Y171661D01*
X231342Y172137D01*
X231667Y173031D01*
X212244Y170000D02*
X211980Y170984D01*
X211260Y171705D01*
X210276Y171968D01*
X209291Y171705D01*
X208571Y170984D01*
X208307Y170000D01*
X208571Y169016D01*
X209291Y168295D01*
X210276Y168032D01*
X211260Y168295D01*
X211980Y169016D01*
X212244Y170000D01*
X197244D02*
X196980Y170984D01*
X196260Y171705D01*
X195276Y171968D01*
X194291Y171705D01*
X193571Y170984D01*
X193307Y170000D01*
X193571Y169016D01*
X194291Y168295D01*
X195276Y168032D01*
X196260Y168295D01*
X196980Y169016D01*
X197244Y170000D01*
X176667Y173031D02*
X176342Y173926D01*
X175517Y174402D01*
X174580Y174237D01*
X173968Y173508D01*
Y172555D01*
X174580Y171826D01*
X175517Y171661D01*
X176342Y172137D01*
X176667Y173031D01*
X157244Y170000D02*
X156980Y170984D01*
X156260Y171705D01*
X155276Y171968D01*
X154291Y171705D01*
X153571Y170984D01*
X153307Y170000D01*
X153571Y169016D01*
X154291Y168295D01*
X155276Y168032D01*
X156260Y168295D01*
X156980Y169016D01*
X157244Y170000D01*
X142244D02*
X141980Y170984D01*
X141260Y171705D01*
X140276Y171968D01*
X139291Y171705D01*
X138571Y170984D01*
X138307Y170000D01*
X138571Y169016D01*
X139291Y168295D01*
X140276Y168032D01*
X141260Y168295D01*
X141980Y169016D01*
X142244Y170000D01*
X141063Y135000D02*
X140799Y135984D01*
X140079Y136705D01*
X139094Y136969D01*
X138110Y136705D01*
X137390Y135984D01*
X137126Y135000D01*
X137390Y134016D01*
X138110Y133295D01*
X139094Y133031D01*
X140079Y133295D01*
X140799Y134016D01*
X141063Y135000D01*
Y120000D02*
X140799Y120984D01*
X140079Y121705D01*
X139094Y121968D01*
X138110Y121705D01*
X137390Y120984D01*
X137126Y120000D01*
X137390Y119016D01*
X138110Y118295D01*
X139094Y118032D01*
X140079Y118295D01*
X140799Y119016D01*
X141063Y120000D01*
X171947Y65000D02*
X171683Y65984D01*
X170963Y66705D01*
X169978Y66969D01*
X168994Y66705D01*
X168274Y65984D01*
X168010Y65000D01*
X168274Y64016D01*
X168994Y63295D01*
X169978Y63032D01*
X170963Y63295D01*
X171683Y64016D01*
X171947Y65000D01*
X156968D02*
X156705Y65984D01*
X155984Y66705D01*
X155000Y66969D01*
X154016Y66705D01*
X153295Y65984D01*
X153032Y65000D01*
X153295Y64016D01*
X154016Y63295D01*
X155000Y63032D01*
X155984Y63295D01*
X156705Y64016D01*
X156968Y65000D01*
X171968Y95000D02*
X171705Y95984D01*
X170984Y96705D01*
X170000Y96969D01*
X169016Y96705D01*
X168295Y95984D01*
X168032Y95000D01*
X168295Y94016D01*
X169016Y93295D01*
X170000Y93032D01*
X170984Y93295D01*
X171705Y94016D01*
X171968Y95000D01*
X156968D02*
X156705Y95984D01*
X155984Y96705D01*
X155000Y96969D01*
X154016Y96705D01*
X153295Y95984D01*
X153032Y95000D01*
X153295Y94016D01*
X154016Y93295D01*
X155000Y93032D01*
X155984Y93295D01*
X156705Y94016D01*
X156968Y95000D01*
X101532Y11063D02*
X101206Y11958D01*
X100382Y12434D01*
X99444Y12268D01*
X98832Y11539D01*
Y10587D01*
X99444Y9858D01*
X100382Y9692D01*
X101206Y10168D01*
X101532Y11063D01*
X103360Y35000D02*
X103035Y35895D01*
X102210Y36371D01*
X101272Y36206D01*
X100661Y35476D01*
Y34524D01*
X101272Y33795D01*
X102210Y33629D01*
X103035Y34105D01*
X103360Y35000D01*
X58360D02*
X58035Y35895D01*
X57210Y36371D01*
X56273Y36206D01*
X55660Y35476D01*
Y34524D01*
X56273Y33795D01*
X57210Y33629D01*
X58035Y34105D01*
X58360Y35000D01*
X81968Y12126D02*
X81705Y13110D01*
X80984Y13831D01*
X80000Y14094D01*
X79016Y13831D01*
X78295Y13110D01*
X78031Y12126D01*
X78295Y11141D01*
X79016Y10421D01*
X80000Y10157D01*
X80984Y10421D01*
X81705Y11141D01*
X81968Y12126D01*
X66969D02*
X66705Y13110D01*
X65984Y13831D01*
X65000Y14094D01*
X64016Y13831D01*
X63295Y13110D01*
X63032Y12126D01*
X63295Y11141D01*
X64016Y10421D01*
X65000Y10157D01*
X65984Y10421D01*
X66705Y11141D01*
X66969Y12126D01*
X11969Y70000D02*
X11705Y70984D01*
X10984Y71705D01*
X10000Y71969D01*
X9016Y71705D01*
X8295Y70984D01*
X8032Y70000D01*
X8295Y69016D01*
X9016Y68295D01*
X10000Y68032D01*
X10984Y68295D01*
X11705Y69016D01*
X11969Y70000D01*
X81968Y100000D02*
X81705Y100984D01*
X80984Y101705D01*
X80000Y101969D01*
X79016Y101705D01*
X78295Y100984D01*
X78031Y100000D01*
X78295Y99016D01*
X79016Y98295D01*
X80000Y98032D01*
X80984Y98295D01*
X81705Y99016D01*
X81968Y100000D01*
X54143D02*
X53817Y100895D01*
X52993Y101371D01*
X52055Y101206D01*
X51443Y100476D01*
Y99524D01*
X52055Y98795D01*
X52993Y98629D01*
X53817Y99105D01*
X54143Y100000D01*
X106968Y162061D02*
X106705Y163045D01*
X105984Y163766D01*
X105000Y164029D01*
X104016Y163766D01*
X103295Y163045D01*
X103032Y162061D01*
X103295Y161076D01*
X104016Y160356D01*
X105000Y160092D01*
X105984Y160356D01*
X106705Y161076D01*
X106968Y162061D01*
X121785Y185000D02*
X121460Y185895D01*
X120635Y186371D01*
X119698Y186205D01*
X119086Y185476D01*
Y184524D01*
X119698Y183795D01*
X120635Y183629D01*
X121460Y184105D01*
X121785Y185000D01*
X96969Y185000D02*
X96705Y185984D01*
X95984Y186705D01*
X95000Y186969D01*
X94016Y186705D01*
X93295Y185984D01*
X93032Y185000D01*
X93295Y184016D01*
X94016Y183295D01*
X95000Y183031D01*
X95984Y183295D01*
X96705Y184016D01*
X96969Y185000D01*
Y200000D02*
X96705Y200984D01*
X95984Y201705D01*
X95000Y201969D01*
X94016Y201705D01*
X93295Y200984D01*
X93032Y200000D01*
X93295Y199016D01*
X94016Y198295D01*
X95000Y198031D01*
X95984Y198295D01*
X96705Y199016D01*
X96969Y200000D01*
X46968Y182500D02*
X46705Y183484D01*
X45984Y184205D01*
X45000Y184468D01*
X44016Y184205D01*
X43295Y183484D01*
X43031Y182500D01*
X43295Y181516D01*
X44016Y180795D01*
X45000Y180532D01*
X45984Y180795D01*
X46705Y181516D01*
X46968Y182500D01*
X136392Y66063D02*
X136066Y66958D01*
X135242Y67434D01*
X134304Y67269D01*
X133692Y66539D01*
Y65587D01*
X134304Y64858D01*
X135242Y64692D01*
X136066Y65168D01*
X136392Y66063D01*
X136328Y96063D02*
X136002Y96958D01*
X135178Y97434D01*
X134240Y97268D01*
X133628Y96539D01*
Y95587D01*
X134240Y94858D01*
X135178Y94692D01*
X136002Y95168D01*
X136328Y96063D01*
X166392Y131142D02*
X166066Y132036D01*
X165242Y132512D01*
X164304Y132347D01*
X163692Y131618D01*
Y130666D01*
X164304Y129936D01*
X165242Y129771D01*
X166066Y130247D01*
X166392Y131142D01*
X21969Y130079D02*
X21705Y131063D01*
X20984Y131784D01*
X20000Y132047D01*
X19016Y131784D01*
X18295Y131063D01*
X18032Y130079D01*
X18295Y129095D01*
X19016Y128374D01*
X20000Y128110D01*
X20984Y128374D01*
X21705Y129095D01*
X21969Y130079D01*
X107108Y100000D02*
X106844Y100984D01*
X106124Y101705D01*
X105140Y101969D01*
X104156Y101705D01*
X103435Y100984D01*
X103171Y100000D01*
X103435Y99016D01*
X104156Y98295D01*
X105140Y98032D01*
X106124Y98295D01*
X106844Y99016D01*
X107108Y100000D01*
X202047Y130000D02*
X201783Y130984D01*
X201063Y131705D01*
X200079Y131968D01*
X199094Y131705D01*
X198374Y130984D01*
X198110Y130000D01*
X198374Y129016D01*
X199094Y128295D01*
X200079Y128032D01*
X201063Y128295D01*
X201783Y129016D01*
X202047Y130000D01*
X187047D02*
X186784Y130984D01*
X186063Y131705D01*
X185079Y131968D01*
X184095Y131705D01*
X183374Y130984D01*
X183110Y130000D01*
X183374Y129016D01*
X184095Y128295D01*
X185079Y128032D01*
X186063Y128295D01*
X186784Y129016D01*
X187047Y130000D01*
X235000Y66063D02*
Y73937D01*
X231063Y70000D02*
X238937D01*
X228701Y111339D02*
X241299D01*
X228701Y28661D02*
Y111339D01*
Y28661D02*
X241299D01*
Y111339D01*
X221776Y164532D02*
Y181532D01*
X238776D01*
Y164532D02*
Y181532D01*
X221776Y164532D02*
X238776D01*
X230276Y171063D02*
Y175000D01*
X228307Y173032D02*
X232244D01*
X206339Y170000D02*
X214213D01*
X210276Y166063D02*
Y173937D01*
X215776Y159500D02*
Y180500D01*
X204776Y159500D02*
X215776D01*
X204776D02*
Y180500D01*
X215776D01*
X191339Y170000D02*
X199213D01*
X195276Y166063D02*
Y173937D01*
X200776Y159500D02*
Y180500D01*
X189776Y159500D02*
X200776D01*
X189776D02*
Y180500D01*
X200776D01*
X166776Y164532D02*
Y181532D01*
X183776D01*
Y164532D02*
Y181532D01*
X166776Y164532D02*
X183776D01*
X175276Y171063D02*
Y175000D01*
X173307Y173032D02*
X177244D01*
X151339Y170000D02*
X159213D01*
X155276Y166063D02*
Y173937D01*
X160776Y159500D02*
Y180500D01*
X149776Y159500D02*
X160776D01*
X149776D02*
Y180500D01*
X160776D01*
X136339Y170000D02*
X144213D01*
X140276Y166063D02*
Y173937D01*
X145776Y159500D02*
Y180500D01*
X134776Y159500D02*
X145776D01*
X134776D02*
Y180500D01*
X145776D01*
X139094Y131063D02*
Y138937D01*
X135158Y135000D02*
X143032D01*
X128595Y140500D02*
X149594D01*
Y129500D02*
Y140500D01*
X128595Y129500D02*
X149594D01*
X128595D02*
Y140500D01*
X139094Y116063D02*
Y123937D01*
X135158Y120000D02*
X143032D01*
X128595Y125500D02*
X149594D01*
Y114500D02*
Y125500D01*
X128595Y114500D02*
X149594D01*
X128595D02*
Y125500D01*
X166042Y65000D02*
X173916D01*
X169979Y61063D02*
Y68937D01*
X175479Y54500D02*
Y75500D01*
X164479Y54500D02*
X175479D01*
X164479D02*
Y75500D01*
X175479D01*
X151063Y65000D02*
X158937D01*
X155000Y61063D02*
Y68937D01*
X160500Y54500D02*
Y75500D01*
X149500Y54500D02*
X160500D01*
X149500D02*
Y75500D01*
X160500D01*
X166063Y95000D02*
X173937D01*
X170000Y91063D02*
Y98937D01*
X175500Y84500D02*
Y105500D01*
X164500Y84500D02*
X175500D01*
X164500D02*
Y105500D01*
X175500D01*
X151063Y95000D02*
X158937D01*
X155000Y91063D02*
Y98937D01*
X160500Y84500D02*
Y105500D01*
X149500Y84500D02*
X160500D01*
X149500D02*
Y105500D01*
X160500D01*
X91640Y2563D02*
Y19563D01*
X108640D01*
Y2563D02*
Y19563D01*
X91640Y2563D02*
X108640D01*
X100140Y9094D02*
Y13031D01*
X98171Y11063D02*
X102108D01*
X93469Y26500D02*
X110469D01*
X93469D02*
Y43500D01*
X110469D01*
Y26500D02*
Y43500D01*
X100000Y35000D02*
X103937D01*
X101969Y33032D02*
Y36969D01*
X48469Y26500D02*
X65469D01*
X48469D02*
Y43500D01*
X65469D01*
Y26500D02*
Y43500D01*
X55000Y35000D02*
X58937D01*
X56969Y33032D02*
Y36969D01*
X76063Y12126D02*
X83937D01*
X80000Y8189D02*
Y16063D01*
X74500Y1626D02*
Y22626D01*
X85500D01*
Y1626D02*
Y22626D01*
X74500Y1626D02*
X85500D01*
X61063Y12126D02*
X68937D01*
X65000Y8189D02*
Y16063D01*
X59500Y1626D02*
Y22626D01*
X70500D01*
Y1626D02*
Y22626D01*
X59500Y1626D02*
X70500D01*
X6063Y70000D02*
X13937D01*
X10000Y66063D02*
Y73937D01*
X16299Y38701D02*
Y101299D01*
X3701Y38701D02*
X16299D01*
X3701Y101299D02*
X16299D01*
X3701Y38701D02*
Y101299D01*
X80000Y96063D02*
Y103937D01*
X76063Y100000D02*
X83937D01*
X69500Y94500D02*
X90500D01*
X69500D02*
Y105500D01*
X90500D01*
Y94500D02*
Y105500D01*
X44251Y108500D02*
X61251D01*
Y91500D02*
Y108500D01*
X44251Y91500D02*
X61251D01*
X44251D02*
Y108500D01*
X50783Y100000D02*
X54720D01*
X52751Y98031D02*
Y101969D01*
X118000Y149061D02*
Y175061D01*
X92000Y149061D02*
X118000D01*
X92000D02*
Y175061D01*
X118000D01*
X105000Y158124D02*
Y165998D01*
X101063Y162061D02*
X108937D01*
X111894Y193500D02*
X128894D01*
Y176500D02*
Y193500D01*
X111894Y176500D02*
X128894D01*
X111894D02*
Y193500D01*
X118425Y185000D02*
X122362D01*
X120394Y183032D02*
Y186969D01*
X95000Y181063D02*
Y188937D01*
X91063Y185000D02*
X98937D01*
X84500Y179500D02*
X105500D01*
X84500D02*
Y190500D01*
X105500D01*
Y179500D02*
Y190500D01*
X95000Y196063D02*
Y203937D01*
X91063Y200000D02*
X98937D01*
X84500Y194500D02*
X105500D01*
X84500D02*
Y205500D01*
X105500D01*
Y194500D02*
Y205500D01*
X45000Y178563D02*
Y186437D01*
X41063Y182500D02*
X48937D01*
X9500Y159500D02*
Y205500D01*
X80500D01*
Y159500D02*
Y205500D01*
X9500Y159500D02*
X80500D01*
X143500Y57563D02*
Y74563D01*
X126500Y57563D02*
X143500D01*
X126500D02*
Y74563D01*
X143500D01*
X135000Y64094D02*
Y68032D01*
X133032Y66063D02*
X136969D01*
X126436Y87563D02*
Y104563D01*
X143436D01*
Y87563D02*
Y104563D01*
X126436Y87563D02*
X143436D01*
X134936Y94094D02*
Y98032D01*
X132967Y96063D02*
X136904D01*
X156500Y122642D02*
Y139642D01*
X173500D01*
Y122642D02*
Y139642D01*
X156500Y122642D02*
X173500D01*
X165000Y129173D02*
Y133110D01*
X163032Y131142D02*
X166969D01*
X5827Y145039D02*
X38110D01*
X5827Y115118D02*
Y145039D01*
Y115118D02*
X38110D01*
Y145039D01*
X20000Y126142D02*
Y134016D01*
X16063Y130079D02*
X23937D01*
X115640Y94500D02*
Y105500D01*
X94640D02*
X115640D01*
X94640Y94500D02*
Y105500D01*
Y94500D02*
X115640D01*
X101203Y100000D02*
X109077D01*
X105140Y96063D02*
Y103937D01*
X194579Y140500D02*
X205579D01*
X194579Y119500D02*
Y140500D01*
Y119500D02*
X205579D01*
Y140500D01*
X200079Y126063D02*
Y133937D01*
X196142Y130000D02*
X204016D01*
X179579Y140500D02*
X190579D01*
X179579Y119500D02*
Y140500D01*
Y119500D02*
X190579D01*
Y140500D01*
X185079Y126063D02*
Y133937D01*
X181142Y130000D02*
X189016D01*
D39*
X5000Y0D02*
X240000D01*
X245000Y5000D01*
Y205000D01*
X240000Y210000D02*
X245000Y205000D01*
X5000Y210000D02*
X240000D01*
X0Y205000D02*
X5000Y210000D01*
X0Y5000D02*
Y205000D01*
Y5000D02*
X5000Y0D01*
D56*
X211079Y117500D02*
X239079D01*
Y152500D01*
X211079D02*
X239079D01*
X211079Y117500D02*
Y152500D01*
X192795Y187992D02*
Y208071D01*
Y187992D02*
X235709D01*
Y208071D01*
X192795D02*
X235709D01*
X133189Y187992D02*
Y208071D01*
Y187992D02*
X176102D01*
Y208071D01*
X133189D02*
X176102D01*
X177516Y77500D02*
X205516D01*
Y112500D01*
X177516D02*
X205516D01*
X177516Y77500D02*
Y112500D01*
X188898Y51732D02*
X203071D01*
Y68268D01*
X188898D02*
X203071D01*
X188898Y51732D02*
Y68268D01*
X51457Y1929D02*
Y22008D01*
X8543D02*
X51457D01*
X8543Y1929D02*
Y22008D01*
Y1929D02*
X51457D01*
X79508Y50472D02*
X120492D01*
Y89528D01*
X79508D02*
X120492D01*
X79508Y50472D02*
Y89528D01*
X34508Y50472D02*
X75492D01*
Y89528D01*
X34508D02*
X75492D01*
X34508Y50472D02*
Y89528D01*
X91220Y134094D02*
Y145906D01*
X68780D02*
X91220D01*
X68780Y134094D02*
Y145906D01*
Y134094D02*
X91220D01*
X121360D02*
Y145906D01*
X98919D02*
X121360D01*
X98919Y134094D02*
Y145906D01*
Y134094D02*
X121360D01*
X121220Y114094D02*
Y125906D01*
X98780D02*
X121220D01*
X98780Y114094D02*
Y125906D01*
Y114094D02*
X121220D01*
X91220D02*
Y125906D01*
X68780D02*
X91220D01*
X68780Y114094D02*
Y125906D01*
Y114094D02*
X91220D01*
M02*
