%FSTAX25Y25*%
%MOIN*%
%SFA1B1*%

%IPPOS*%
%AMD15*
4,1,8,0.014800,-0.006600,0.014800,0.006600,0.012500,0.008900,-0.012500,0.008900,-0.014800,0.006600,-0.014800,-0.006600,-0.012500,-0.008900,0.012500,-0.008900,0.014800,-0.006600,0.0*
1,1,0.004440,0.012500,-0.006600*
1,1,0.004440,0.012500,0.006600*
1,1,0.004440,-0.012500,0.006600*
1,1,0.004440,-0.012500,-0.006600*
%
%ADD10R,0.051180X0.035430*%
%ADD11R,0.019680X0.015750*%
%ADD12R,0.035430X0.051180*%
%ADD13R,0.047240X0.027560*%
%ADD14R,0.015750X0.019680*%
G04~CAMADD=15~8~0.0~0.0~177.2~295.3~22.2~0.0~15~0.0~0.0~0.0~0.0~0~0.0~0.0~0.0~0.0~0~0.0~0.0~0.0~270.0~296.0~178.0*
%ADD15D15*%
%LNdigitalizador_rpi-1*%
%LPD*%
G54D10*
X0240571Y0213819D03*
Y0221693D03*
Y0198819D03*
Y0206693D03*
X0285571Y0198819D03*
Y0206693D03*
Y0221693D03*
Y0213819D03*
X0163071Y0198819D03*
Y0206693D03*
Y0213819D03*
Y0221693D03*
X0208071Y0198819D03*
Y0206693D03*
Y0221693D03*
Y0213819D03*
X0130571Y0198819D03*
Y0206693D03*
Y0221693D03*
Y0213819D03*
X0085571Y0198819D03*
Y0206693D03*
Y0213819D03*
Y0221693D03*
X0478819Y0069941D03*
Y0077815D03*
X0480571Y0113819D03*
Y0121693D03*
X0361319Y0134941D03*
Y0142815D03*
X0338819Y0179252D03*
Y0171378D03*
X0371319Y0177441D03*
Y0185315D03*
X0438819Y0237776D03*
Y0229902D03*
X0471319Y0192441D03*
Y0200315D03*
X0481319Y0201004D03*
Y0208878D03*
Y0187441D03*
Y0195315D03*
X0506319Y0192441D03*
Y0200315D03*
X0541319Y0211752D03*
Y0203878D03*
Y0231752D03*
Y0223878D03*
X0498819Y0252815D03*
Y0244941D03*
X0488819Y0252815D03*
Y0244941D03*
X0313819Y0295315D03*
Y0287441D03*
X0438819Y0244941D03*
Y0252815D03*
G54D11*
X0566319Y0038878D03*
X0563563D03*
X0566319Y0043878D03*
X0563563D03*
X0553563Y0038878D03*
X0556319D03*
X0553563Y0043878D03*
X0556319D03*
X0461949Y0130256D03*
X0459193D03*
X0446693D03*
X0449449D03*
X0333071Y0232756D03*
X0330315D03*
X0333071Y0227756D03*
X0330315D03*
X0414449Y0210256D03*
X0411693D03*
X0250571Y0315256D03*
X0253327D03*
X0435571Y0167756D03*
X0432815D03*
G54D12*
X0528386Y0130571D03*
X053626D03*
X0463445Y0083878D03*
X0471319D03*
X0344882Y0128878D03*
X0352756D03*
X0457382Y0206378D03*
X0465256D03*
X0492382D03*
X0500256D03*
X0327848Y0341378D03*
X0319974D03*
X0388819Y0231378D03*
X0396693D03*
X0365256Y0171378D03*
X0357382D03*
X0192756Y0113878D03*
X0184882D03*
Y0123878D03*
X0192756D03*
Y0133878D03*
X0184882D03*
Y0143878D03*
X0192756D03*
X0145256Y0113878D03*
X0137382D03*
Y0123878D03*
X0145256D03*
Y0133878D03*
X0137382D03*
Y0143878D03*
X0145256D03*
X0097756Y0113878D03*
X0089882D03*
Y0123878D03*
X0097756D03*
Y0133878D03*
X0089882D03*
Y0143878D03*
X0097756D03*
G54D13*
X0535295Y0122854D03*
Y0115374D03*
X0528208Y0119114D03*
G54D14*
X0483819Y0100256D03*
Y00975D03*
X0518819Y0246378D03*
Y0249134D03*
X0336319Y0286634D03*
Y0283878D03*
X0170571Y0285D03*
Y0287756D03*
Y0297756D03*
Y0295D03*
X0336319Y0322756D03*
Y032D03*
X0063819Y0295256D03*
Y02925D03*
X0263071Y0235256D03*
Y02325D03*
Y0185256D03*
Y0188012D03*
X0185571Y0235256D03*
Y02325D03*
Y0185256D03*
Y0188012D03*
X0108071Y0235256D03*
Y02325D03*
Y0185256D03*
Y0188012D03*
X0259823Y0141042D03*
Y0138286D03*
X0229823D03*
Y0141042D03*
X0011319Y0196122D03*
Y0198878D03*
Y0216122D03*
Y0218878D03*
G54D15*
X034561Y0139409D03*
X0351319Y0137441D03*
Y0141378D03*
X035811Y0180847D03*
X0363819Y0178878D03*
Y0182815D03*
X045811Y0196909D03*
X0463819Y0194941D03*
Y0198878D03*
X049311Y0196909D03*
X0498819Y0194941D03*
Y0198878D03*
X0469173Y0075846D03*
Y0071909D03*
X0463464Y0073878D03*
M02*