%FSTAX25Y25*%
%MOIN*%
%SFA1B1*%

%IPPOS*%
%ADD10C,0.009840*%
%ADD11C,0.007870*%
%ADD12C,0.023620*%
%ADD13C,0.010000*%
%ADD14C,0.003940*%
%ADD15C,0.005910*%
%ADD16C,0.005910*%
%ADD17C,0.005000*%
%ADD18C,0.012000*%
%ADD19C,0.013780*%
%LNdigitalizador_rpi-1*%
%LPD*%
G54D10*
X016752Y0200965D02*
X0166781Y0201391D01*
Y0200538*
X016752Y0200965*
X0236653Y0068898D02*
X0235915Y0069324D01*
Y0068471*
X0236653Y0068898*
X0141654D02*
X0140915Y0069324D01*
Y0068471*
X0141654Y0068898*
X004685D02*
X0046112Y0069324D01*
Y0068471*
X004685Y0068898*
X0524429Y0263878D02*
X0523691Y0264304D01*
Y0263452*
X0524429Y0263878*
X0209311Y0353996D02*
X0208573Y0354422D01*
Y035357*
X0209311Y0353996*
Y0308996D02*
X0208573Y0309422D01*
Y030857*
X0209311Y0308996*
X024502Y0200965D02*
X0244282Y0201391D01*
Y0200538*
X024502Y0200965*
X009002D02*
X0089281Y0201391D01*
Y0200538*
X009002Y0200965*
X0265433Y0154665D02*
X0264695Y0155091D01*
Y0154238*
X0265433Y0154665*
X0079311Y0148996D02*
X0078573Y0149422D01*
Y014857*
X0079311Y0148996*
X0126811D02*
X0126073Y0149422D01*
Y014857*
X0126811Y0148996*
X0174311D02*
X0173573Y0149422D01*
Y014857*
X0174311Y0148996*
G54D11*
X0290453Y0217756D02*
X0290551Y0216757D01*
X0290842Y0215797*
X0291315Y0214913*
X0291952Y0214137*
X0292727Y02135*
X0293612Y0213027*
X0294572Y0212736*
X0295571Y0212638*
X0296569Y0212736*
X029753Y0213027*
X0298414Y02135*
X029919Y0214137*
X0299827Y0214913*
X0300299Y0215797*
X0300591Y0216757*
X0300689Y0217756*
Y0237756D02*
X0300591Y0238754D01*
X0300299Y0239715*
X0299827Y0240599*
X029919Y0241375*
X0298414Y0242011*
X029753Y0242484*
X0296569Y0242776*
X0295571Y0242874*
X0294572Y0242776*
X0293612Y0242484*
X0292727Y0242011*
X0291952Y0241375*
X0291315Y0240599*
X0290842Y0239715*
X0290551Y0238754*
X0290453Y0237756*
X0225453Y0217756D02*
X0225551Y0216757D01*
X0225842Y0215797*
X0226315Y0214913*
X0226952Y0214137*
X0227727Y02135*
X0228612Y0213027*
X0229572Y0212736*
X0230571Y0212638*
X0231569Y0212736*
X0232529Y0213027*
X0233414Y02135*
X023419Y0214137*
X0234826Y0214913*
X0235299Y0215797*
X0235591Y0216757*
X0235689Y0217756*
Y0237756D02*
X0235591Y0238754D01*
X0235299Y0239715*
X0234826Y0240599*
X023419Y0241375*
X0233414Y0242011*
X0232529Y0242484*
X0231569Y0242776*
X0230571Y0242874*
X0229572Y0242776*
X0228612Y0242484*
X0227727Y0242011*
X0226952Y0241375*
X0226315Y0240599*
X0225842Y0239715*
X0225551Y0238754*
X0225453Y0237756*
X0212953Y0217756D02*
X0213051Y0216757D01*
X0213342Y0215797*
X0213815Y0214913*
X0214452Y0214137*
X0215227Y02135*
X0216112Y0213027*
X0217072Y0212736*
X0218071Y0212638*
X0219069Y0212736*
X0220029Y0213027*
X0220914Y02135*
X022169Y0214137*
X0222326Y0214913*
X0222799Y0215797*
X0223091Y0216757*
X0223189Y0217756*
Y0237756D02*
X0223091Y0238754D01*
X0222799Y0239715*
X0222326Y0240599*
X022169Y0241375*
X0220914Y0242011*
X0220029Y0242484*
X0219069Y0242776*
X0218071Y0242874*
X0217072Y0242776*
X0216112Y0242484*
X0215227Y0242011*
X0214452Y0241375*
X0213815Y0240599*
X0213342Y0239715*
X0213051Y0238754*
X0212953Y0237756*
X0147953Y0217756D02*
X0148051Y0216757D01*
X0148342Y0215797*
X0148815Y0214913*
X0149452Y0214137*
X0150227Y02135*
X0151112Y0213027*
X0152072Y0212736*
X0153071Y0212638*
X0154069Y0212736*
X0155029Y0213027*
X0155914Y02135*
X015669Y0214137*
X0157326Y0214913*
X0157799Y0215797*
X0158091Y0216757*
X0158189Y0217756*
Y0237756D02*
X0158091Y0238754D01*
X0157799Y0239715*
X0157326Y0240599*
X015669Y0241375*
X0155914Y0242011*
X0155029Y0242484*
X0154069Y0242776*
X0153071Y0242874*
X0152072Y0242776*
X0151112Y0242484*
X0150227Y0242011*
X0149452Y0241375*
X0148815Y0240599*
X0148342Y0239715*
X0148051Y0238754*
X0147953Y0237756*
X0135453Y0217756D02*
X0135551Y0216757D01*
X0135842Y0215797*
X0136315Y0214912*
X0136952Y0214137*
X0137727Y02135*
X0138612Y0213027*
X0139572Y0212736*
X0140571Y0212638*
X0141569Y0212736*
X0142529Y0213027*
X0143414Y02135*
X014419Y0214137*
X0144826Y0214912*
X0145299Y0215797*
X0145591Y0216757*
X0145689Y0217756*
Y0237756D02*
X0145591Y0238754D01*
X0145299Y0239715*
X0144826Y0240599*
X014419Y0241375*
X0143414Y0242011*
X0142529Y0242484*
X0141569Y0242776*
X0140571Y0242874*
X0139572Y0242776*
X0138612Y0242484*
X0137727Y0242011*
X0136952Y0241375*
X0136315Y0240599*
X0135842Y0239715*
X0135551Y0238754*
X0135453Y0237756*
X0070453Y0217756D02*
X0070551Y0216757D01*
X0070842Y0215797*
X0071315Y0214913*
X0071952Y0214137*
X0072727Y02135*
X0073612Y0213027*
X0074572Y0212736*
X0075571Y0212638*
X0076569Y0212736*
X007753Y0213027*
X0078414Y02135*
X007919Y0214137*
X0079826Y0214913*
X0080299Y0215797*
X0080591Y0216757*
X0080689Y0217756*
Y0237756D02*
X0080591Y0238754D01*
X0080299Y0239715*
X0079826Y0240599*
X007919Y0241375*
X0078414Y0242011*
X007753Y0242484*
X0076569Y0242776*
X0075571Y0242874*
X0074572Y0242776*
X0073612Y0242484*
X0072727Y0242011*
X0071952Y0241375*
X0071315Y0240599*
X0070842Y0239715*
X0070551Y0238754*
X0070453Y0237756*
X0300689Y0205256D02*
X0300591Y0206254D01*
X0300299Y0207215*
X0299827Y0208099*
X029919Y0208875*
X0298414Y0209511*
X029753Y0209984*
X0296569Y0210276*
X0295571Y0210374*
X0294572Y0210276*
X0293612Y0209984*
X0292727Y0209511*
X0291952Y0208875*
X0291315Y0208099*
X0290842Y0207215*
X0290551Y0206254*
X0290453Y0205256*
Y0185256D02*
X0290551Y0184257D01*
X0290842Y0183297*
X0291315Y0182413*
X0291952Y0181637*
X0292727Y0181*
X0293612Y0180527*
X0294572Y0180236*
X0295571Y0180138*
X0296569Y0180236*
X029753Y0180527*
X0298414Y0181*
X029919Y0181637*
X0299827Y0182413*
X0300299Y0183297*
X0300591Y0184257*
X0300689Y0185256*
X0225453D02*
X0225551Y0184257D01*
X0225842Y0183297*
X0226315Y0182412*
X0226952Y0181637*
X0227727Y0181*
X0228612Y0180527*
X0229572Y0180236*
X0230571Y0180138*
X0231569Y0180236*
X0232529Y0180527*
X0233414Y0181*
X023419Y0181637*
X0234826Y0182412*
X0235299Y0183297*
X0235591Y0184257*
X0235689Y0185256*
Y0205256D02*
X0235591Y0206254D01*
X0235299Y0207214*
X0234826Y0208099*
X023419Y0208875*
X0233414Y0209511*
X0232529Y0209984*
X0231569Y0210276*
X0230571Y0210374*
X0229572Y0210276*
X0228612Y0209984*
X0227727Y0209511*
X0226952Y0208875*
X0226315Y0208099*
X0225842Y0207214*
X0225551Y0206254*
X0225453Y0205256*
X0223189D02*
X0223091Y0206254D01*
X0222799Y0207215*
X0222326Y0208099*
X022169Y0208875*
X0220914Y0209511*
X0220029Y0209984*
X0219069Y0210276*
X0218071Y0210374*
X0217072Y0210276*
X0216112Y0209984*
X0215227Y0209511*
X0214452Y0208875*
X0213815Y0208099*
X0213342Y0207215*
X0213051Y0206254*
X0212953Y0205256*
Y0185256D02*
X0213051Y0184257D01*
X0213342Y0183297*
X0213815Y0182413*
X0214452Y0181637*
X0215227Y0181*
X0216112Y0180527*
X0217072Y0180236*
X0218071Y0180138*
X0219069Y0180236*
X0220029Y0180527*
X0220914Y0181*
X022169Y0181637*
X0222326Y0182413*
X0222799Y0183297*
X0223091Y0184257*
X0223189Y0185256*
X0147953D02*
X0148051Y0184257D01*
X0148342Y0183297*
X0148815Y0182412*
X0149452Y0181637*
X0150227Y0181*
X0151112Y0180527*
X0152072Y0180236*
X0153071Y0180138*
X0154069Y0180236*
X0155029Y0180527*
X0155914Y0181*
X015669Y0181637*
X0157326Y0182412*
X0157799Y0183297*
X0158091Y0184257*
X0158189Y0185256*
Y0205256D02*
X0158091Y0206254D01*
X0157799Y0207214*
X0157326Y0208099*
X015669Y0208875*
X0155914Y0209511*
X0155029Y0209984*
X0154069Y0210276*
X0153071Y0210374*
X0152072Y0210276*
X0151112Y0209984*
X0150227Y0209511*
X0149452Y0208875*
X0148815Y0208099*
X0148342Y0207214*
X0148051Y0206254*
X0147953Y0205256*
X0145689D02*
X0145591Y0206254D01*
X0145299Y0207215*
X0144826Y0208099*
X014419Y0208875*
X0143414Y0209511*
X0142529Y0209984*
X0141569Y0210276*
X0140571Y0210374*
X0139572Y0210276*
X0138612Y0209984*
X0137727Y0209511*
X0136952Y0208875*
X0136315Y0208099*
X0135842Y0207215*
X0135551Y0206254*
X0135453Y0205256*
Y0185256D02*
X0135551Y0184257D01*
X0135842Y0183297*
X0136315Y0182413*
X0136952Y0181637*
X0137727Y0181*
X0138612Y0180527*
X0139572Y0180236*
X0140571Y0180138*
X0141569Y0180236*
X0142529Y0180527*
X0143414Y0181*
X014419Y0181637*
X0144826Y0182413*
X0145299Y0183297*
X0145591Y0184257*
X0145689Y0185256*
X0070453D02*
X0070551Y0184257D01*
X0070842Y0183297*
X0071315Y0182412*
X0071952Y0181637*
X0072727Y0181*
X0073612Y0180527*
X0074572Y0180236*
X0075571Y0180138*
X0076569Y0180236*
X007753Y0180527*
X0078414Y0181*
X007919Y0181637*
X0079826Y0182412*
X0080299Y0183297*
X0080591Y0184257*
X0080689Y0185256*
Y0205256D02*
X0080591Y0206254D01*
X0080299Y0207214*
X0079826Y0208099*
X007919Y0208875*
X0078414Y0209511*
X007753Y0209984*
X0076569Y0210276*
X0075571Y0210374*
X0074572Y0210276*
X0073612Y0209984*
X0072727Y0209511*
X0071952Y0208875*
X0071315Y0208099*
X0070842Y0207214*
X0070551Y0206254*
X0070453Y0205256*
X0323819Y0186378D02*
X0324776Y0186568D01*
X0325587Y018711*
X0326129Y0187921*
X0326319Y0188878*
X0326129Y0189835*
X0325587Y0190646*
X0324776Y0191188*
X0323819Y0191378*
X0524094Y0251378D02*
X0523138Y0251188D01*
X0522327Y0250646*
X0521785Y0249835*
X0521594Y0248878*
X0521785Y0247921*
X0522327Y024711*
X0523138Y0246568*
X0524094Y0246378*
X0339646Y0286378D02*
X0339599Y0287377D01*
X0339461Y0288367*
X0339232Y0289341*
X0338915Y0290289*
X0338511Y0291204*
X0338024Y0292077*
X0337459Y0292903*
X033682Y0293672*
X0336113Y0294379*
X0335344Y0295018*
X0334519Y0295583*
X0333645Y029607*
X033273Y0296474*
X0331782Y0296791*
X0330808Y029702*
X0329818Y0297159*
X0328819Y0297205*
X032782Y0297159*
X032683Y029702*
X0325856Y0296791*
X0324908Y0296474*
X0323993Y029607*
X0323119Y0295583*
X0322294Y0295018*
X0321525Y0294379*
X0320818Y0293672*
X0320179Y0292902*
X0319614Y0292077*
X0319127Y0291204*
X0318723Y0290289*
X0318405Y0289341*
X0318177Y0288367*
X0318038Y0287377*
X0317992Y0286378*
X0318038Y0285379*
X0318177Y0284388*
X0318405Y0283415*
X0318723Y0282467*
X0319127Y0281552*
X0319614Y0280678*
X0320179Y0279853*
X0320818Y0279084*
X0321525Y0278377*
X0322294Y0277738*
X0323119Y0277173*
X0323993Y0276686*
X0324908Y0276282*
X0325856Y0275964*
X032683Y0275735*
X032782Y0275597*
X0328819Y0275551*
X0329818Y0275597*
X0330808Y0275735*
X0331782Y0275964*
X033273Y0276282*
X0333645Y0276686*
X0334519Y0277173*
X0335344Y0277738*
X0336113Y0278377*
X033682Y0279084*
X0337459Y0279853*
X0338024Y0280678*
X0338511Y0281552*
X0338915Y0282467*
X0339232Y0283415*
X0339461Y0284389*
X0339599Y0285379*
X0339646Y0286378*
X0308804Y0276102D02*
X0309724Y0276523D01*
X0310601Y0277026*
X0311429Y0277608*
X03122Y0278262*
X0312909Y0278984*
X0313548Y0279767*
X0314114Y0280606*
X0314601Y0281493*
X0315005Y028242*
X0315322Y028338*
X0315551Y0284366*
X0315689Y0285367*
X0315736Y0286378*
X0315689Y0287388*
X0315551Y028839*
X0315322Y0289376*
X0315005Y0290336*
X0314601Y0291263*
X0314114Y029215*
X0313548Y0292988*
X0312909Y0293772*
X03122Y0294494*
X0311429Y0295148*
X0310601Y0295729*
X0309724Y0296233*
X0308804Y0296654*
X0339646Y0321378D02*
X0339599Y0322377D01*
X0339461Y0323367*
X0339232Y0324341*
X0338915Y0325289*
X0338511Y0326204*
X0338024Y0327078*
X0337459Y0327903*
X033682Y0328672*
X0336113Y0329379*
X0335344Y0330018*
X0334519Y0330583*
X0333645Y033107*
X033273Y0331474*
X0331782Y0331791*
X0330808Y033202*
X0329818Y0332158*
X0328819Y0332205*
X032782Y0332158*
X032683Y033202*
X0325856Y0331791*
X0324908Y0331474*
X0323993Y033107*
X0323119Y0330583*
X0322294Y0330018*
X0321525Y0329379*
X0320818Y0328672*
X0320179Y0327903*
X0319614Y0327078*
X0319127Y0326204*
X0318723Y0325289*
X0318405Y0324341*
X0318177Y0323367*
X0318038Y0322377*
X0317992Y0321378*
X0318038Y0320379*
X0318177Y0319389*
X0318405Y0318415*
X0318723Y0317467*
X0319127Y0316552*
X0319614Y0315678*
X0320179Y0314853*
X0320818Y0314084*
X0321525Y0313377*
X0322294Y0312738*
X0323119Y0312173*
X0323993Y0311686*
X0324908Y0311282*
X0325856Y0310964*
X032683Y0310736*
X032782Y0310597*
X0328819Y0310551*
X0329818Y0310597*
X0330808Y0310736*
X0331782Y0310964*
X033273Y0311282*
X0333645Y0311686*
X0334519Y0312173*
X0335344Y0312738*
X0336113Y0313377*
X033682Y0314084*
X0337459Y0314853*
X0338024Y0315678*
X0338511Y0316552*
X0338915Y0317467*
X0339232Y0318415*
X0339461Y0319389*
X0339599Y0320379*
X0339646Y0321378*
X0221319Y0354153D02*
X0221509Y0353197D01*
X0222051Y0352386*
X0222862Y0351844*
X0223819Y0351654*
X0224776Y0351844*
X0225587Y0352386*
X0226129Y0353197*
X0226319Y0354153*
X0199646Y0278878D02*
X01996Y0279877D01*
X0199461Y0280867*
X0199232Y0281841*
X0198915Y0282789*
X0198511Y0283704*
X0198024Y0284577*
X0197459Y0285403*
X019682Y0286172*
X0196113Y0286879*
X0195343Y0287518*
X0194518Y0288083*
X0193645Y028857*
X019273Y0288974*
X0191782Y0289291*
X0190808Y028952*
X0189818Y0289658*
X0188819Y0289705*
X018782Y0289658*
X0186829Y028952*
X0185856Y0289291*
X0184908Y0288974*
X0183993Y028857*
X0183119Y0288083*
X0182294Y0287518*
X0181525Y0286879*
X0180818Y0286172*
X0180179Y0285402*
X0179614Y0284577*
X0179127Y0283704*
X0178723Y0282789*
X0178405Y0281841*
X0178176Y0280867*
X0178038Y0279877*
X0177992Y0278878*
X0178038Y0277879*
X0178176Y0276888*
X0178405Y0275915*
X0178723Y0274967*
X0179127Y0274052*
X0179614Y0273178*
X0180179Y0272353*
X0180818Y0271584*
X0181525Y0270877*
X0182294Y0270238*
X0183119Y0269673*
X0183993Y0269186*
X0184908Y0268782*
X0185856Y0268464*
X0186829Y0268235*
X018782Y0268097*
X0188819Y0268051*
X0189818Y0268097*
X0190808Y0268235*
X0191782Y0268464*
X019273Y0268782*
X0193645Y0269186*
X0194518Y0269673*
X0195343Y0270238*
X0196113Y0270877*
X019682Y0271584*
X0197459Y0272353*
X0198024Y0273178*
X0198511Y0274052*
X0198915Y0274967*
X0199232Y0275915*
X0199461Y0276889*
X01996Y0277879*
X0199646Y0278878*
X0268898Y0288839D02*
X0268851Y0289837D01*
X0268713Y0290828*
X0268484Y0291801*
X0268166Y029275*
X0267763Y0293664*
X0267276Y0294538*
X0266711Y0295363*
X0266072Y0296132*
X0265365Y0296839*
X0264595Y0297478*
X026377Y0298044*
X0262897Y029853*
X0261982Y0298934*
X0261034Y0299252*
X026006Y0299481*
X025907Y0299619*
X0258071Y0299665*
X0257072Y0299619*
X0256081Y0299481*
X0255108Y0299252*
X025416Y0298934*
X0253245Y029853*
X0252371Y0298044*
X0251546Y0297478*
X0250777Y0296839*
X025007Y0296132*
X0249431Y0295363*
X0248866Y0294538*
X0248379Y0293664*
X0247975Y029275*
X0247657Y0291801*
X0247428Y0290828*
X024729Y0289837*
X0247244Y0288839*
X024729Y028784*
X0247428Y0286849*
X0247657Y0285876*
X0247975Y0284927*
X0248379Y0284013*
X0248866Y0283139*
X0249431Y0282314*
X025007Y0281544*
X0250777Y0280837*
X0251546Y0280199*
X0252371Y0279633*
X0253245Y0279147*
X025416Y0278743*
X0255108Y0278425*
X0256081Y0278196*
X0257072Y0278058*
X0258071Y0278012*
X025907Y0278058*
X026006Y0278196*
X0261034Y0278425*
X0261982Y0278743*
X0262897Y0279147*
X026377Y0279633*
X0264595Y0280199*
X0265365Y0280837*
X0266072Y0281544*
X0266711Y0282314*
X0267276Y0283139*
X0267763Y0284013*
X0268166Y0284927*
X0268484Y0285876*
X0268713Y0286849*
X0268851Y028784*
X0268898Y0288839*
X0269646Y0331378D02*
X02696Y0332377D01*
X0269461Y0333367*
X0269232Y0334341*
X0268915Y0335289*
X0268511Y0336204*
X0268024Y0337077*
X0267459Y0337903*
X026682Y0338672*
X0266113Y0339379*
X0265343Y0340018*
X0264518Y0340583*
X0263645Y034107*
X026273Y0341474*
X0261782Y0341791*
X0260808Y034202*
X0259818Y0342159*
X0258819Y0342205*
X025782Y0342159*
X025683Y034202*
X0255856Y0341791*
X0254908Y0341474*
X0253993Y034107*
X0253119Y0340583*
X0252294Y0340018*
X0251525Y0339379*
X0250818Y0338672*
X0250179Y0337902*
X0249614Y0337077*
X0249127Y0336204*
X0248723Y0335289*
X0248405Y0334341*
X0248177Y0333367*
X0248038Y0332377*
X0247992Y0331378*
X0248038Y0330379*
X0248177Y0329388*
X0248405Y0328415*
X0248723Y0327467*
X0249127Y0326552*
X0249614Y0325678*
X0250179Y0324853*
X0250818Y0324084*
X0251525Y0323377*
X0252294Y0322738*
X0253119Y0322173*
X0253993Y0321686*
X0254908Y0321282*
X0255856Y0320965*
X025683Y0320736*
X025782Y0320597*
X0258819Y0320551*
X0259818Y0320597*
X0260808Y0320736*
X0261782Y0320965*
X026273Y0321282*
X0263645Y0321686*
X0264518Y0322173*
X0265343Y0322738*
X0266113Y0323377*
X026682Y0324084*
X0267459Y0324853*
X0268024Y0325678*
X0268511Y0326552*
X0268915Y0327467*
X0269232Y0328415*
X0269461Y0329389*
X02696Y0330379*
X0269646Y0331378*
X0221319Y0309154D02*
X0221509Y0308197D01*
X0222051Y0307386*
X0222862Y0306844*
X0223819Y0306653*
X0224776Y0306844*
X0225587Y0307386*
X0226129Y0308197*
X0226319Y0309154*
X0199646Y0303878D02*
X01996Y0304877D01*
X0199461Y0305867*
X0199232Y0306841*
X0198915Y0307789*
X0198511Y0308704*
X0198024Y0309577*
X0197459Y0310403*
X019682Y0311172*
X0196113Y0311879*
X0195343Y0312518*
X0194518Y0313083*
X0193645Y031357*
X019273Y0313974*
X0191782Y0314291*
X0190808Y031452*
X0189818Y0314658*
X0188819Y0314705*
X018782Y0314658*
X0186829Y031452*
X0185856Y0314291*
X0184908Y0313974*
X0183993Y031357*
X0183119Y0313083*
X0182294Y0312518*
X0181525Y0311879*
X0180818Y0311172*
X0180179Y0310402*
X0179614Y0309577*
X0179127Y0308704*
X0178723Y0307789*
X0178405Y0306841*
X0178176Y0305867*
X0178038Y0304877*
X0177992Y0303878*
X0178038Y0302879*
X0178176Y0301888*
X0178405Y0300915*
X0178723Y0299967*
X0179127Y0299052*
X0179614Y0298178*
X0180179Y0297353*
X0180818Y0296584*
X0181525Y0295877*
X0182294Y0295238*
X0183119Y0294673*
X0183993Y0294186*
X0184908Y0293782*
X0185856Y0293464*
X0186829Y0293235*
X018782Y0293097*
X0188819Y0293051*
X0189818Y0293097*
X0190808Y0293235*
X0191782Y0293464*
X019273Y0293782*
X0193645Y0294186*
X0194518Y0294673*
X0195343Y0295238*
X0196113Y0295877*
X019682Y0296584*
X0197459Y0297353*
X0198024Y0298178*
X0198511Y0299052*
X0198915Y0299967*
X0199232Y0300915*
X0199461Y0301889*
X01996Y0302879*
X0199646Y0303878*
X0265098Y0142165D02*
X0264142Y0141974D01*
X0263331Y0141432*
X0262789Y0140621*
X0262598Y0139665*
X0262789Y0138708*
X0263331Y0137897*
X0264142Y0137355*
X0265098Y0137165*
X0199646Y0333878D02*
X01996Y0334877D01*
X0199461Y0335867*
X0199232Y0336841*
X0198915Y0337789*
X0198511Y0338704*
X0198024Y0339578*
X0197459Y0340403*
X019682Y0341172*
X0196113Y0341879*
X0195343Y0342518*
X0194518Y0343083*
X0193645Y034357*
X019273Y0343974*
X0191782Y0344291*
X0190808Y034452*
X0189818Y0344658*
X0188819Y0344705*
X018782Y0344658*
X0186829Y034452*
X0185856Y0344291*
X0184908Y0343974*
X0183993Y034357*
X0183119Y0343083*
X0182294Y0342518*
X0181525Y0341879*
X0180818Y0341172*
X0180179Y0340403*
X0179614Y0339578*
X0179127Y0338704*
X0178723Y0337789*
X0178405Y0336841*
X0178176Y0335867*
X0178038Y0334877*
X0177992Y0333878*
X0178038Y0332879*
X0178176Y0331889*
X0178405Y0330915*
X0178723Y0329967*
X0179127Y0329052*
X0179614Y0328178*
X0180179Y0327353*
X0180818Y0326584*
X0181525Y0325877*
X0182294Y0325238*
X0183119Y0324673*
X0183993Y0324186*
X0184908Y0323782*
X0185856Y0323464*
X0186829Y0323236*
X018782Y0323097*
X0188819Y0323051*
X0189818Y0323097*
X0190808Y0323236*
X0191782Y0323464*
X019273Y0323782*
X0193645Y0324186*
X0194518Y0324673*
X0195343Y0325238*
X0196113Y0325877*
X019682Y0326584*
X0197459Y0327353*
X0198024Y0328178*
X0198511Y0329052*
X0198915Y0329967*
X0199232Y0330915*
X0199461Y0331889*
X01996Y0332879*
X0199646Y0333878*
X0091319Y0149153D02*
X0091509Y0148197D01*
X0092051Y0147386*
X0092862Y0146844*
X0093819Y0146653*
X0094776Y0146844*
X0095587Y0147386*
X0096129Y0148197*
X0096319Y0149153*
X0138819D02*
X0139009Y0148197D01*
X0139551Y0147386*
X0140362Y0146844*
X0141319Y0146653*
X0142276Y0146844*
X0143087Y0147386*
X0143629Y0148197*
X0143819Y0149153*
X0186319D02*
X0186509Y0148197D01*
X0187051Y0147386*
X0187862Y0146844*
X0188819Y0146653*
X0189776Y0146844*
X0190587Y0147386*
X0191129Y0148197*
X0191319Y0149153*
X0202894Y0207461D02*
Y021376D01*
X0168248Y0207461D02*
Y021376D01*
X0202894*
X0168248Y0207461D02*
X0202894D01*
X0290453Y0217756D02*
Y0237756D01*
X0300689Y0217756D02*
Y0237756D01*
X0225453Y0217756D02*
Y0237756D01*
X0235689Y0217756D02*
Y0237756D01*
X0212953Y0217756D02*
Y0237756D01*
X0223189Y0217756D02*
Y0237756D01*
X0147953Y0217756D02*
Y0237756D01*
X0158189Y0217756D02*
Y0237756D01*
X0135453Y0217756D02*
Y0237756D01*
X0145689Y0217756D02*
Y0237756D01*
X0070453Y0217756D02*
Y0237756D01*
X0080689Y0217756D02*
Y0237756D01*
X0238819Y0030709D02*
Y0069291D01*
X0263228Y0030709D02*
Y0069291D01*
X0238819Y0030709D02*
X0263228D01*
X0238819Y0069291D02*
X0263228D01*
X0252028Y0072559D02*
Y0072953D01*
X0249114Y0072559D02*
Y0072953D01*
X0143819Y0030709D02*
Y0069291D01*
X0168228Y0030709D02*
Y0069291D01*
X0143819Y0030709D02*
X0168228D01*
X0143819Y0069291D02*
X0168228D01*
X0157028Y0072559D02*
Y0072953D01*
X0154114Y0072559D02*
Y0072953D01*
X0049016Y0030709D02*
Y0069291D01*
X0073425Y0030709D02*
Y0069291D01*
X0049016Y0030709D02*
X0073425D01*
X0049016Y0069291D02*
X0073425D01*
X0062028Y0072559D02*
Y0072953D01*
X0059114Y0072559D02*
Y0072953D01*
X0300689Y0185256D02*
Y0205256D01*
X0290453Y0185256D02*
Y0205256D01*
X0225453Y0185256D02*
Y0205256D01*
X0235689Y0185256D02*
Y0205256D01*
X0223189Y0185256D02*
Y0205256D01*
X0212953Y0185256D02*
Y0205256D01*
X0147953Y0185256D02*
Y0205256D01*
X0158189Y0185256D02*
Y0205256D01*
X0145689Y0185256D02*
Y0205256D01*
X0135453Y0185256D02*
Y0205256D01*
X0070453Y0185256D02*
Y0205256D01*
X0080689Y0185256D02*
Y0205256D01*
X0323819Y0165315D02*
Y0186378D01*
Y0191378D02*
Y0212441D01*
X0523819*
Y0165315D02*
Y0212441D01*
X0323819Y0165315D02*
X0523819D01*
X0483543Y0238445D02*
Y0259311D01*
X0524094Y0238445D02*
Y0246378D01*
Y0251378D02*
Y0259311D01*
X0483543Y0238445D02*
X0524094D01*
X0483543Y0259311D02*
X0524094D01*
X0333118Y0291338D02*
X0337118D01*
X0335118Y0289338D02*
Y0293338D01*
X0298319Y0278156D02*
X0299348Y027747D01*
X0298319Y02946D02*
X0299348Y0295286D01*
X0298319Y0278156D02*
Y02946D01*
X0333118Y0326339D02*
X0337118D01*
X0335118Y0324339D02*
Y0328339D01*
X0315486Y0324711D02*
X0316319D01*
X0313819D02*
X0314652D01*
X0312152D02*
X0312985D01*
X0312152Y0338045D02*
X0312985D01*
X0313819D02*
X0314652D01*
X0315486D02*
X0316319D01*
X0312152Y0352211D02*
X0316319D01*
X0297986Y0313045D02*
X0312152Y0310544D01*
X0297986Y0313045D02*
Y0349711D01*
X0312152Y0352211*
Y0310544D02*
Y0352211D01*
Y0310544D02*
X0316319D01*
Y0352211*
X0213386Y0313602D02*
X0234252D01*
X0226319Y0354153D02*
X0234252D01*
X0213386D02*
X0221319D01*
X0234252Y0313602D02*
Y0354153D01*
X0213386Y0313602D02*
Y0354153D01*
X0193118Y0283839D02*
X0197118D01*
X0195118Y0281838D02*
Y0285839D01*
X026237Y0293799D02*
X026637D01*
X026437Y0291799D02*
Y0295799D01*
X0263118Y0336338D02*
X0267118D01*
X0265118Y0334338D02*
Y0338338D01*
X0213386Y0268602D02*
X0234252D01*
X0226319Y0309154D02*
X0234252D01*
X0213386D02*
X0221319D01*
X0234252Y0268602D02*
Y0309154D01*
X0213386Y0268602D02*
Y0309154D01*
X018052Y0298917D02*
X018452D01*
X018252Y0296917D02*
Y0300917D01*
X0446319Y0353878D02*
X0456319D01*
Y0303878D02*
Y0353878D01*
X0446319Y0303878D02*
Y0353878D01*
Y0303878D02*
X0456319D01*
X0516319Y0081378D02*
X0526319D01*
X0516319Y0021378D02*
X0526319D01*
X0516319D02*
Y0081378D01*
X0526319Y0021378D02*
Y0081378D01*
X0561319Y0331378D02*
X0571319D01*
X0561319Y0271378D02*
X0571319D01*
X0561319D02*
Y0331378D01*
X0571319Y0271378D02*
Y0331378D01*
X0245748Y0207461D02*
X0280394D01*
X0245748Y021376D02*
X0280394D01*
X0245748Y0207461D02*
Y021376D01*
X0280394Y0207461D02*
Y021376D01*
X0090748Y0207461D02*
X0125394D01*
X0090748Y021376D02*
X0125394D01*
X0090748Y0207461D02*
Y021376D01*
X0125394Y0207461D02*
Y021376D01*
X0224547Y0129232D02*
Y0150098D01*
X0265099Y0129232D02*
Y0137164D01*
Y0142165D02*
Y0150098D01*
X0224547Y0129232D02*
X0265099D01*
X0224547Y0150098D02*
X0265099D01*
X0103898Y0103681D02*
Y0104075D01*
X008374Y0103681D02*
Y0104075D01*
X0151398Y0103681D02*
Y0104075D01*
X013124Y0103681D02*
Y0104075D01*
X0198898Y0103681D02*
Y0104075D01*
X017874Y0103681D02*
Y0104075D01*
X0195118Y0336839D02*
Y0340839D01*
X0193118Y0338839D02*
X0197118D01*
X0083386Y0108602D02*
Y0149153D01*
X0104252Y0108602D02*
Y0149153D01*
X0083386D02*
X0091319D01*
X0096319D02*
X0104252D01*
X0083386Y0108602D02*
X0104252D01*
X0130886D02*
Y0149153D01*
X0151752Y0108602D02*
Y0149153D01*
X0130886D02*
X0138819D01*
X0143819D02*
X0151752D01*
X0130886Y0108602D02*
X0151752D01*
X0178386D02*
Y0149153D01*
X0199252Y0108602D02*
Y0149153D01*
X0178386D02*
X0186319D01*
X0191319D02*
X0199252D01*
X0178386Y0108602D02*
X0199252D01*
G54D12*
X024689Y006496D02*
X0246346Y0065709D01*
X0245465Y0065423*
Y0064498*
X0246346Y0064212*
X024689Y006496*
X015189D02*
X0151346Y0065709D01*
X0150465Y0065423*
Y0064498*
X0151346Y0064212*
X015189Y006496*
X0057087Y0064961D02*
X0056542Y006571D01*
X0055662Y0065424*
Y0064498*
X0056542Y0064212*
X0057087Y0064961*
X0521339Y0255374D02*
X0520894Y0256297D01*
X0519895Y0256525*
X0519093Y0255887*
Y0254862*
X0519895Y0254222*
X0520894Y0254451*
X0521339Y0255374*
X0218504Y0350217D02*
X0218059Y035114D01*
X021706Y0351368*
X0216259Y0350729*
Y0349704*
X021706Y0349065*
X0218059Y0349293*
X0218504Y0350217*
Y0305217D02*
X0218059Y030614D01*
X021706Y0306368*
X0216259Y0305729*
Y0304704*
X021706Y0304065*
X0218059Y0304293*
X0218504Y0305217*
X0262343Y0146161D02*
X0261898Y0147084D01*
X0260899Y0147312*
X0260097Y0146673*
Y0145648*
X0260899Y0145009*
X0261898Y0145237*
X0262343Y0146161*
X0088504Y0145217D02*
X0088059Y014614D01*
X008706Y0146368*
X0086259Y0145729*
Y0144704*
X008706Y0144065*
X0088059Y0144293*
X0088504Y0145217*
X0136004D02*
X0135559Y014614D01*
X013456Y0146368*
X0133759Y0145729*
Y0144704*
X013456Y0144065*
X0135559Y0144293*
X0136004Y0145217*
X0183504D02*
X0183059Y014614D01*
X018206Y0146368*
X0181259Y0145729*
Y0144704*
X018206Y0144065*
X0183059Y0144293*
X0183504Y0145217*
G54D13*
X0260541Y0103415D02*
X0260278Y0104399D01*
X0259557Y0105119*
X0258573Y0105383*
X0257589Y0105119*
X0256868Y0104399*
X0256604Y0103415*
X0256868Y010243*
X0257589Y010171*
X0258573Y0101446*
X0259557Y010171*
X0260278Y010243*
X0260541Y0103415*
X0443449Y0070571D02*
X0443392Y0071574D01*
X044322Y0072565*
X0442937Y0073529*
X0442546Y0074455*
X0442052Y007533*
X0441461Y0076143*
X0440781Y0076884*
X0440022Y0077542*
X0439192Y007811*
X0438303Y0078579*
X0437366Y0078943*
X0436394Y0079199*
X0435399Y0079342*
X0434394Y0079371*
X0433393Y0079285*
X0432408Y0079085*
X0431452Y0078774*
X0430537Y0078357*
X0429677Y0077838*
X0428881Y0077224*
X042816Y0076524*
X0427524Y0075745*
X042698Y00749*
X0426537Y0073998*
X0426199Y0073051*
X0425971Y0072072*
X0425857Y0071073*
Y0070068*
X0425971Y006907*
X0426199Y0068091*
X0426537Y0067144*
X042698Y0066242*
X0427524Y0065396*
X042816Y0064618*
X0428881Y0063918*
X0429677Y0063304*
X0430537Y0062785*
X0431452Y0062367*
X0432408Y0062057*
X0433393Y0061857*
X0434394Y0061771*
X0435399Y00618*
X0436394Y0061943*
X0437366Y0062198*
X0438303Y0062563*
X0439192Y0063032*
X0440022Y0063599*
X0440781Y0064258*
X0441461Y0064998*
X0442052Y0065811*
X0442546Y0066687*
X0442937Y0067612*
X044322Y0068577*
X0443392Y0069567*
X0443449Y0070571*
X0498732Y0114878D02*
X0498676Y0115886D01*
X0498507Y0116881*
X0498227Y011785*
X0497841Y0118783*
X0497353Y0119666*
X0496769Y0120489*
X0496096Y0121242*
X0495344Y0121914*
X0494521Y0122499*
X0493637Y0122987*
X0492705Y0123373*
X0491735Y0123652*
X049074Y0123821*
X0489732Y0123878*
Y0023878D02*
X049074Y0023934D01*
X0491735Y0024104*
X0492705Y0024383*
X0493637Y0024769*
X0494521Y0025257*
X0495344Y0025842*
X0496096Y0026514*
X0496769Y0027266*
X0497353Y002809*
X0497841Y0028973*
X0498227Y0029905*
X0498507Y0030875*
X0498676Y003187*
X0498732Y0032878*
X0366732Y0033878D02*
X036678Y0032898D01*
X0366925Y0031927*
X0367163Y0030975*
X0367494Y0030051*
X0367913Y0029164*
X0368418Y0028322*
X0369002Y0027534*
X0369661Y0026807*
X0370388Y0026148*
X0371177Y0025563*
X0372018Y0025059*
X0372905Y0024639*
X037383Y0024309*
X0374781Y002407*
X0375752Y0023926*
X0376732Y0023878*
Y0123878D02*
X0375752Y012383D01*
X0374781Y0123686*
X037383Y0123447*
X0372905Y0123117*
X0372018Y0122697*
X0371177Y0122193*
X0370388Y0121608*
X0369661Y0120949*
X0369002Y0120222*
X0368418Y0119434*
X0367913Y0118592*
X0367494Y0117705*
X0367163Y0116781*
X0366925Y0115829*
X036678Y0114858*
X0366732Y0113878*
X0279537Y0317628D02*
X0279274Y0318612D01*
X0278553Y0319333*
X0277569Y0319597*
X0276585Y0319333*
X0275864Y0318612*
X02756Y0317628*
X0275864Y0316644*
X0276585Y0315923*
X0277569Y0315659*
X0278553Y0315923*
X0279274Y0316644*
X0279537Y0317628*
Y0272628D02*
X0279274Y0273612D01*
X0278553Y0274333*
X0277569Y0274597*
X0276585Y0274333*
X0275864Y0273612*
X02756Y0272628*
X0275864Y0271644*
X0276585Y0270923*
X0277569Y0270659*
X0278553Y0270923*
X0279274Y0271644*
X0279537Y0272628*
X0165551Y0292677D02*
X0165521Y0293678D01*
X0165431Y0294675*
X0165282Y0295665*
X0165074Y0296644*
X0164808Y0297609*
X0164484Y0298556*
X0164105Y0299483*
X016367Y0300385*
X0163183Y0301259*
X0162644Y0302103*
X0162055Y0302913*
X0161419Y0303686*
X0160739Y030442*
X0160015Y0305112*
X0159251Y0305759*
X015845Y030636*
X0157615Y0306911*
X0156748Y0307412*
X0155852Y0307859*
X0154932Y0308253*
X015399Y0308591*
X0153029Y0308871*
X0152052Y0309094*
X0151065Y0309258*
X0150069Y0309363*
X0149069Y0309408*
X0148068Y0309393*
X014707Y0309318*
X0146078Y0309183*
X0145096Y030899*
X0144127Y0308738*
X0143175Y0308429*
X0142243Y0308063*
X0141334Y0307642*
X0140453Y0307168*
X0139601Y0306642*
X0138783Y0306065*
X0138Y0305441*
X0137256Y0304771*
X0136553Y0304058*
X0135895Y0303304*
X0135282Y0302512*
X0134718Y0301685*
X0134205Y0300826*
X0133744Y0299937*
X0133336Y0299023*
X0132985Y0298085*
X013269Y0297129*
X0132452Y0296156*
X0132273Y0295171*
X0132154Y0294177*
X0132094Y0293178*
Y0292177*
X0132154Y0291177*
X0132273Y0290183*
X0132452Y0289198*
X013269Y0288226*
X0132985Y0287269*
X0133336Y0286332*
X0133744Y0285417*
X0134205Y0284529*
X0134718Y0283669*
X0135282Y0282842*
X0135895Y028205*
X0136553Y0281296*
X0137256Y0280583*
X0138Y0279913*
X0138783Y0279289*
X0139601Y0278713*
X0140453Y0278187*
X0141334Y0277712*
X0142243Y0277291*
X0143175Y0276926*
X0144127Y0276616*
X0145096Y0276364*
X0146078Y0276171*
X014707Y0276037*
X0148068Y0275962*
X0149069Y0275947*
X0150069Y0275992*
X0151065Y0276096*
X0152052Y027626*
X0153029Y0276483*
X015399Y0276764*
X0154932Y0277101*
X0155852Y0277495*
X0156748Y0277943*
X0157615Y0278443*
X015845Y0278995*
X0159251Y0279595*
X0160015Y0280243*
X0160739Y0280935*
X0161419Y0281668*
X0162055Y0282442*
X0162644Y0283252*
X0163183Y0284095*
X016367Y0284969*
X0164105Y0285872*
X0164484Y0286798*
X0164808Y0287745*
X0165074Y028871*
X0165282Y0289689*
X0165431Y0290679*
X0165521Y0291676*
X0165551Y0292677*
X0064311Y0282618D02*
X0063573Y0283044D01*
Y0282192*
X0064311Y0282618*
X0045551Y0287677D02*
X0045521Y0288678D01*
X0045432Y0289675*
X0045282Y0290665*
X0045074Y0291644*
X0044808Y0292609*
X0044484Y0293556*
X0044105Y0294483*
X004367Y0295385*
X0043183Y0296259*
X0042644Y0297103*
X0042055Y0297913*
X004142Y0298686*
X0040739Y029942*
X0040015Y0300112*
X0039251Y0300759*
X003845Y030136*
X0037615Y0301911*
X0036748Y0302412*
X0035852Y0302859*
X0034932Y0303253*
X003399Y030359*
X0033029Y0303871*
X0032052Y0304094*
X0031065Y0304258*
X0030069Y0304363*
X0029069Y0304408*
X0028068Y0304393*
X002707Y0304318*
X0026078Y0304183*
X0025096Y030399*
X0024127Y0303738*
X0023175Y0303429*
X0022243Y0303063*
X0021334Y0302642*
X0020453Y0302168*
X0019601Y0301642*
X0018782Y0301065*
X0018Y0300441*
X0017256Y0299771*
X0016553Y0299058*
X0015895Y0298304*
X0015282Y0297512*
X0014718Y0296685*
X0014205Y0295826*
X0013744Y0294937*
X0013336Y0294022*
X0012985Y0293085*
X001269Y0292128*
X0012452Y0291156*
X0012274Y0290171*
X0012154Y0289177*
X0012094Y0288178*
Y0287177*
X0012154Y0286177*
X0012274Y0285183*
X0012452Y0284198*
X001269Y0283226*
X0012985Y0282269*
X0013337Y0281332*
X0013744Y0280417*
X0014205Y0279529*
X0014718Y0278669*
X0015282Y0277842*
X0015895Y027705*
X0016553Y0276296*
X0017256Y0275583*
X0018Y0274913*
X0018782Y0274289*
X0019601Y0273713*
X0020453Y0273187*
X0021334Y0272712*
X0022243Y0272291*
X0023175Y0271926*
X0024127Y0271616*
X0025096Y0271364*
X0026078Y0271171*
X002707Y0271037*
X0028068Y0270962*
X0029069Y0270947*
X0030069Y0270992*
X0031065Y0271096*
X0032052Y027126*
X0033029Y0271483*
X0033989Y0271764*
X0034932Y0272101*
X0035852Y0272495*
X0036748Y0272943*
X0037615Y0273443*
X003845Y0273995*
X0039251Y0274595*
X0040015Y0275243*
X0040738Y0275935*
X004142Y0276668*
X0042055Y0277442*
X0042644Y0278252*
X0043183Y0279095*
X004367Y027997*
X0044105Y0280872*
X0044484Y0281798*
X0044808Y0282745*
X0045074Y028371*
X0045282Y0284689*
X0045432Y0285679*
X0045521Y0286676*
X0045551Y0287677*
X0288819Y0151378D02*
X0298819D01*
X0288819Y0161378D02*
X0298819D01*
Y0131378D02*
Y0161378D01*
X0288819Y0131378D02*
X0298819D01*
X0288819D02*
Y0161378D01*
Y0116378D02*
X0298819D01*
X0288819Y0126378D02*
X0298819D01*
Y0096378D02*
Y0126378D01*
X0288819Y0096378D02*
X0298819D01*
X0288819D02*
Y0126378D01*
X0404173Y0099941D02*
X0464173D01*
X0404173Y0039941D02*
Y0099941D01*
Y0039941D02*
X0464173D01*
Y0099941*
X0498732Y0032878D02*
Y0114878D01*
X0376732Y0023878D02*
X0489732D01*
X0366732Y0033878D02*
Y0113878D01*
X0376732Y0123878D02*
X0489732D01*
X006811Y0315965D02*
X0119527D01*
X0128268Y0280649D02*
Y0307224D01*
X0070197Y0271791D02*
X0120394D01*
X005937Y0282618D02*
Y0307224D01*
X0097944Y0314001D02*
X0098506Y0314282D01*
X0097381Y0313439D02*
X0097944Y0314001D01*
X00971Y0312876D02*
X0097381Y0313439D01*
X0096819Y0312033D02*
X00971Y0312876D01*
X0096819Y0310627D02*
Y0312033D01*
Y0310627D02*
X00971Y0309784D01*
X0097381Y0309221*
X0097944Y0308659*
X0098506Y0308378*
X009963*
X0100193Y0308659*
X0100755Y0309221*
X0101036Y0309784*
X0101317Y0310627*
Y0312033*
X0101036Y0312876D02*
X0101317Y0312033D01*
X0100755Y0313439D02*
X0101036Y0312876D01*
X0100193Y0314001D02*
X0100755Y0313439D01*
X009963Y0314282D02*
X0100193Y0314001D01*
X0098506Y0314282D02*
X009963D01*
X0102695Y0310065D02*
Y0314282D01*
Y0310065D02*
X0102976Y0309221D01*
X0103539Y0308659*
X0104382Y0308378*
X0104944*
X0105788Y0308659*
X010635Y0309221*
X0106631Y0310065*
Y0314282*
X011023Y0308378D02*
Y0314282D01*
X0108262D02*
X0112198D01*
X0112901Y0310908D02*
X0117962D01*
X0102695Y0275065D02*
Y0279282D01*
Y0275065D02*
X0102976Y0274221D01*
X0103539Y0273659*
X0104382Y0273378*
X0104944*
X0105788Y0273659*
X010635Y0274221*
X0106631Y0275065*
Y0279282*
X011023Y0273378D02*
Y0279282D01*
X0115431Y0273378D02*
Y0278439D01*
X0112901Y0275908D02*
X0117962D01*
X0069819Y0308378D02*
Y0314282D01*
X0071056Y0308378D02*
Y0314282D01*
X0074992Y0308378*
Y0314282*
X0076623Y0310908D02*
X0081684D01*
X0069819Y0273378D02*
Y0279282D01*
X0071056Y0273378D02*
Y0279282D01*
X0074992Y0273378*
Y0279282*
X0079153Y0273378D02*
Y0278439D01*
X0076623Y0275908D02*
X0081684D01*
X0108262Y0279282D02*
X0112198D01*
X0097944Y0279001D02*
X0098506Y0279282D01*
X0097381Y0278439D02*
X0097944Y0279001D01*
X00971Y0277876D02*
X0097381Y0278439D01*
X0096819Y0277033D02*
X00971Y0277876D01*
X0096819Y0275627D02*
Y0277033D01*
Y0275627D02*
X00971Y0274784D01*
X0097381Y0274221*
X0097944Y0273659*
X0098506Y0273378*
X009963*
X0100193Y0273659*
X0100755Y0274221*
X0101036Y0274784*
X0101317Y0275627*
Y0277033*
X0101036Y0277876D02*
X0101317Y0277033D01*
X0100755Y0278439D02*
X0101036Y0277876D01*
X0100193Y0279001D02*
X0100755Y0278439D01*
X009963Y0279282D02*
X0100193Y0279001D01*
X0098506Y0279282D02*
X009963D01*
X0007819Y0350378D02*
X0038819D01*
Y0321878D02*
Y0350378D01*
X0007819Y0321878D02*
X0038819D01*
X0007819D02*
Y0350378D01*
X0521319Y0106378D02*
Y0136378D01*
X0511319D02*
X0521319D01*
X0511319Y0106378D02*
Y0136378D01*
Y0106378D02*
X0521319D01*
X0511319Y0116378D02*
X0521319D01*
X0542319Y0304878D02*
Y0352878D01*
X0511319D02*
X0542319D01*
X0511319Y0304878D02*
Y0352878D01*
Y0304878D02*
X0542319D01*
X0323819Y0113878D02*
Y0143878D01*
Y0113878D02*
X0333819D01*
Y0143878*
X0323819D02*
X0333819D01*
X0323819Y0133878D02*
X0333819D01*
X0499819Y0304878D02*
Y0352878D01*
X0468819D02*
X0499819D01*
X0468819Y0304878D02*
Y0352878D01*
Y0304878D02*
X0499819D01*
X0003819Y0108756D02*
X0035319D01*
X0003819D02*
Y0177256D01*
X0035319*
Y0108756D02*
Y0177256D01*
X0007819Y0184878D02*
Y0232878D01*
Y0184878D02*
X0038819D01*
Y0232878*
X0007819D02*
X0038819D01*
X0444732Y0052021D02*
X0442161D01*
X0441304Y0051736*
X0441019Y005145*
X0440733Y0050879*
Y0050022*
X0441019Y004945*
X0441304Y0049165*
X0442161Y0048879*
X0444732*
Y0054878*
X043482D02*
X0437105Y0048879D01*
X0439391Y0054878*
X0438534Y0052878D02*
X0435677D01*
X0429993Y0049736D02*
X0430278Y0049165D01*
X0431135Y0048879*
X0431706*
X0432563Y0049165*
X0433135Y0050022*
X0433421Y005145*
Y0052878*
X0433135Y0054021*
X0432563Y0054592*
X0431706Y0054878*
X0431421*
X0430564Y0054592*
X0429993Y0054021*
X0429707Y0053164*
Y0052878*
X0429993Y0052021*
X0430564Y005145*
X0431421Y0051165*
X0431706*
X0432563Y005145*
X0433135Y0052021*
X0433421Y0052878*
X0428393Y0048879D02*
Y0054878D01*
X0424394Y0048879D02*
Y0054878D01*
X0428393Y0051736D02*
X0424394D01*
G54D14*
X0466968Y0135217D02*
X0467976Y0135272D01*
X046897Y0135445*
X0469938Y0135732*
X0470865Y013613*
X047174Y0136633*
X0472551Y0137234*
X0473286Y0137925*
X0473935Y0138697*
X0474491Y013954*
X0474945Y0140441*
X047529Y0141389*
X0475524Y0142371*
X0475641Y0143374*
Y0144383*
X0475524Y0145385*
X047529Y0146367*
X0474944Y0147315*
X0474491Y0148216*
X0473935Y0149059*
X0473286Y0149831*
X0472551Y0150522*
X047174Y0151123*
X0470865Y0151626*
X0469938Y0152024*
X046897Y0152311*
X0467976Y0152484*
X0466968Y0152539*
X0441772D02*
X0440764Y0152483D01*
X043977Y0152311*
X0438802Y0152024*
X0437875Y0151626*
X0437Y0151123*
X043619Y0150522*
X0435454Y0149831*
X0434805Y0149058*
X0434249Y0148216*
X0433796Y0147315*
X043345Y0146367*
X0433217Y0145385*
X0433099Y0144383*
Y0143373*
X0433217Y0142371*
X043345Y0141389*
X0433796Y0140441*
X0434249Y013954*
X0434805Y0138697*
X0435454Y0137925*
X043619Y0137234*
X0437Y0136633*
X0437875Y013613*
X0438802Y0135732*
X043977Y0135445*
X0440764Y0135272*
X0441772Y0135216*
X0398732Y0096878D02*
X039857Y0097852D01*
X03981Y0098721*
X0397373Y0099389*
X0396469Y0099786*
X0395485Y0099868*
X0394527Y0099625*
X0393701Y0099085*
X0393094Y0098306*
X0392773Y0097372*
Y0096384*
X0393094Y009545*
X0393701Y0094671*
X0394527Y0094131*
X0395485Y0093888*
X0396469Y009397*
X0397373Y0094367*
X03981Y0095035*
X039857Y0095904*
X0398732Y0096878*
X0521068Y0276378D02*
X0521003Y0277385D01*
X052081Y0278375*
X0520493Y0279333*
X0520055Y0280242*
X0519504Y0281087*
X051885Y0281856*
X0518103Y0282534*
X0517276Y0283111*
X0516381Y0283578*
X0515434Y0283927*
X0514451Y0284151*
X0513446Y0284248*
X0512438Y0284216*
X0511442Y0284055*
X0510474Y0283768*
X0509552Y0283359*
X0508689Y0282836*
X05079Y0282207*
X0507198Y0281482*
X0506595Y0280674*
X05061Y0279794*
X0505721Y0278859*
X0505465Y0277883*
X0505336Y0276883*
Y0275873*
X0505465Y0274873*
X0505721Y0273897*
X05061Y0272961*
X0506595Y0272082*
X0507198Y0271274*
X05079Y0270549*
X0508689Y026992*
X0509552Y0269397*
X0510474Y0268988*
X0511442Y0268701*
X0512438Y026854*
X0513446Y0268508*
X0514451Y0268605*
X0515434Y0268829*
X0516381Y0269178*
X0517276Y0269644*
X0518103Y0270222*
X051885Y02709*
X0519504Y0271668*
X0520055Y0272514*
X0520493Y0273423*
X052081Y0274381*
X0521003Y0275371*
X0521068Y0276378*
X0416805Y0269311D02*
X0416788Y0270308D01*
X0416737Y0271304*
X0416653Y0272298*
X0416535Y0273289*
X0416384Y0274275*
X04162Y0275255*
X0415983Y0276228*
X0415733Y0277194*
X041545Y0278151*
X0415136Y0279097*
X0414789Y0280032*
X0414412Y0280955*
X0414003Y0281865*
X0413564Y0282761*
X0413094Y0283641*
X0412596Y0284505*
X0412068Y0285351*
X0411512Y0286179*
X0410929Y0286988*
X0410318Y0287777*
X0409681Y0288544*
X0409019Y028929*
X0408332Y0290013*
X040762Y0290712*
X0406886Y0291387*
X0406129Y0292037*
X0405351Y0292661*
X0404552Y0293258*
X0403733Y0293828*
X0402896Y0294369*
X0402041Y0294883*
X0401169Y0295367*
X0400281Y0295821*
X0399378Y0296245*
X0398461Y0296638*
X0397532Y0297001*
X0396591Y0297331*
X0395639Y029763*
X0394678Y0297896*
X0393708Y029813*
X0392731Y029833*
X0391748Y0298498*
X039076Y0298632*
X0389768Y0298733*
X0388773Y0298801*
X0387776Y0298834*
X0386778*
X0385781Y0298801*
X0384786Y0298733*
X0383794Y0298632*
X0382806Y0298498*
X0381822Y029833*
X0380845Y029813*
X0379876Y0297896*
X0378915Y029763*
X0377963Y0297331*
X0377022Y0297001*
X0376093Y0296638*
X0375176Y0296245*
X0374273Y0295821*
X0373385Y0295367*
X0372513Y0294883*
X0371658Y0294369*
X0370821Y0293828*
X0370002Y0293258*
X0369203Y0292661*
X0368425Y0292037*
X0367668Y0291387*
X0366933Y0290712*
X0366222Y0290013*
X0365535Y028929*
X0364873Y0288544*
X0364236Y0287777*
X0363625Y0286988*
X0363042Y0286179*
X0362486Y0285351*
X0361958Y0284505*
X036146Y0283641*
X036099Y0282761*
X0360551Y0281865*
X0360142Y0280955*
X0359765Y0280032*
X0359418Y0279097*
X0359104Y027815*
X0358821Y0277194*
X0358571Y0276228*
X0358354Y0275255*
X035817Y0274275*
X0358019Y0273289*
X0357901Y0272298*
X0357817Y0271304*
X0357766Y0270308*
X0357749Y0269311*
X0357766Y0268314*
X0357817Y0267318*
X0357901Y0266324*
X0358019Y0265333*
X035817Y0264347*
X0358354Y0263367*
X0358571Y0262394*
X0358821Y0261428*
X0359104Y0260472*
X0359418Y0259525*
X0359765Y025859*
X0360142Y0257667*
X0360551Y0256757*
X0360991Y0255861*
X036146Y0254981*
X0361958Y0254117*
X0362486Y0253271*
X0363042Y0252443*
X0363625Y0251634*
X0364236Y0250845*
X0364873Y0250078*
X0365535Y0249332*
X0366222Y0248609*
X0366933Y024791*
X0367668Y0247235*
X0368425Y0246585*
X0369203Y0245961*
X0370002Y0245364*
X0370821Y0244794*
X0371658Y0244253*
X0372513Y0243739*
X0373385Y0243255*
X0374273Y0242801*
X0375176Y0242377*
X0376093Y0241984*
X0377022Y0241621*
X0377963Y0241291*
X0378915Y0240992*
X0379876Y0240726*
X0380846Y0240492*
X0381823Y0240292*
X0382806Y0240124*
X0383794Y023999*
X0384786Y0239889*
X0385782Y0239821*
X0386778Y0239788*
X0387776*
X0388773Y0239821*
X0389768Y0239889*
X039076Y023999*
X0391748Y0240124*
X0392732Y0240292*
X0393709Y0240492*
X0394678Y0240726*
X0395639Y0240992*
X0396591Y0241291*
X0397532Y0241621*
X0398462Y0241984*
X0399378Y0242377*
X0400281Y0242801*
X0401169Y0243255*
X0402041Y0243739*
X0402896Y0244253*
X0403733Y0244795*
X0404552Y0245364*
X0405351Y0245961*
X0406129Y0246585*
X0406886Y0247235*
X0407621Y024791*
X0408332Y0248609*
X0409019Y0249332*
X0409681Y0250078*
X0410318Y0250845*
X0410929Y0251634*
X0411512Y0252443*
X0412068Y0253271*
X0412596Y0254117*
X0413094Y0254981*
X0413564Y0255861*
X0414003Y0256757*
X0414412Y0257667*
X0414789Y025859*
X0415136Y0259525*
X041545Y0260472*
X0415733Y0261428*
X0415983Y0262394*
X04162Y0263367*
X0416384Y0264348*
X0416535Y0265333*
X0416653Y0266324*
X0416737Y0267318*
X0416788Y0268314*
X0416805Y0269311*
X0441772Y0152539D02*
X0466968D01*
X0441772Y0135216D02*
X0466968D01*
X0391732Y0092878D02*
X0399732D01*
X0391732D02*
Y0100878D01*
X0399732*
Y0092878D02*
Y0100878D01*
X0432072Y0259469D02*
Y0279153D01*
X041523D02*
X0432072D01*
X041523Y0259469D02*
X0432072D01*
G54D15*
X0395832Y0096878D03*
G54D16*
X0537402Y0267923D02*
Y0270089D01*
X0542717Y0267923D02*
Y0270187D01*
X0539311Y024065D02*
X0541476D01*
X0539213Y0245965D02*
X0541476D01*
X0271988Y0182598D02*
X0274252D01*
X0271988Y0187914D02*
X0274153D01*
X0251988Y0182598D02*
X0254252D01*
X0251988Y0187914D02*
X0254153D01*
X0194488Y0182598D02*
X0196752D01*
X0194488Y0187914D02*
X0196653D01*
X0174488Y0182598D02*
X0176752D01*
X0174488Y0187914D02*
X0176654D01*
X0116988Y0182598D02*
X0119252D01*
X0116988Y0187914D02*
X0119153D01*
X0096988Y0182598D02*
X0099252D01*
X0096988Y0187914D02*
X0099154D01*
X0020236Y002122D02*
X00225D01*
X0020236Y0026535D02*
X0022401D01*
X0020236Y0028721D02*
X00225D01*
X0020236Y0034036D02*
X0022401D01*
X0020236Y0073721D02*
X00225D01*
X0020236Y0079036D02*
X0022401D01*
X0020236Y006622D02*
X00225D01*
X0020236Y0071535D02*
X0022401D01*
X0020236Y005872D02*
X00225D01*
X0020236Y0064035D02*
X0022401D01*
X0020236Y0051221D02*
X00225D01*
X0020236Y0056536D02*
X0022401D01*
X0020236Y004372D02*
X00225D01*
X0020236Y0049036D02*
X0022401D01*
X0020236Y003622D02*
X00225D01*
X0020236Y0041535D02*
X0022401D01*
X0100138Y0026535D02*
X0102401D01*
X0100236Y002122D02*
X0102401D01*
X0100138Y0034035D02*
X0102401D01*
X0100236Y0028721D02*
X0102401D01*
X0100138Y0079035D02*
X0102401D01*
X0100236Y0073721D02*
X0102401D01*
X0100138Y0071535D02*
X0102401D01*
X0100236Y006622D02*
X0102401D01*
X0100138Y0064035D02*
X0102401D01*
X0100236Y005872D02*
X0102401D01*
X0100138Y0056535D02*
X0102401D01*
X0100236Y0051221D02*
X0102401D01*
X0100138Y0049035D02*
X0102401D01*
X0100236Y004372D02*
X0102401D01*
X0100138Y0041535D02*
X0102401D01*
X0100236Y003622D02*
X0102401D01*
X0115236Y002122D02*
X01175D01*
X0115236Y0026535D02*
X0117402D01*
X0115236Y0028721D02*
X01175D01*
X0115236Y0034036D02*
X0117402D01*
X0115236Y006622D02*
X01175D01*
X0115236Y0071535D02*
X0117402D01*
X0115236Y005872D02*
X01175D01*
X0115236Y0064035D02*
X0117402D01*
X0115236Y0051221D02*
X01175D01*
X0115236Y0056536D02*
X0117402D01*
X0115236Y004372D02*
X01175D01*
X0115236Y0049036D02*
X0117402D01*
X0115236Y003622D02*
X01175D01*
X0115236Y0041535D02*
X0117402D01*
X0195138Y0026535D02*
X0197402D01*
X0195236Y002122D02*
X0197402D01*
X0195138Y0034036D02*
X0197402D01*
X0195236Y0028721D02*
X0197402D01*
X0195138Y0079036D02*
X0197402D01*
X0195236Y0073721D02*
X0197402D01*
X0195138Y0071535D02*
X0197402D01*
X0195236Y006622D02*
X0197402D01*
X0195138Y0064035D02*
X0197402D01*
X0195236Y005872D02*
X0197402D01*
X0195138Y0056536D02*
X0197402D01*
X0195236Y0051221D02*
X0197402D01*
X0195138Y0049036D02*
X0197402D01*
X0195236Y004372D02*
X0197402D01*
X0195138Y0041535D02*
X0197402D01*
X0195236Y003622D02*
X0197402D01*
X0210236Y0028721D02*
X02125D01*
X0210236Y0034036D02*
X0212402D01*
X0210236Y002122D02*
X02125D01*
X0210236Y0026535D02*
X0212402D01*
X0210236Y0073721D02*
X02125D01*
X0210236Y0079036D02*
X0212402D01*
X0210236Y006622D02*
X02125D01*
X0210236Y0071535D02*
X0212402D01*
X0210236Y005872D02*
X02125D01*
X0210236Y0064035D02*
X0212402D01*
X0210236Y0051221D02*
X02125D01*
X0210236Y0056536D02*
X0212402D01*
X0210236Y004372D02*
X02125D01*
X0210236Y0049036D02*
X0212402D01*
X0210236Y003622D02*
X02125D01*
X0210236Y0041535D02*
X0212402D01*
X0290138Y0026535D02*
X0292402D01*
X0290236Y002122D02*
X0292402D01*
X0290138Y0034036D02*
X0292402D01*
X0290236Y0028721D02*
X0292402D01*
X0290138Y0041535D02*
X0292402D01*
X0290236Y003622D02*
X0292402D01*
X0290138Y0049036D02*
X0292402D01*
X0290236Y004372D02*
X0292402D01*
X0290138Y0056536D02*
X0292402D01*
X0290236Y0051221D02*
X0292402D01*
X0290138Y0064035D02*
X0292402D01*
X0290236Y005872D02*
X0292402D01*
X0290138Y0071535D02*
X0292402D01*
X0290236Y006622D02*
X0292402D01*
X0290138Y0079036D02*
X0292402D01*
X0290236Y0073721D02*
X0292402D01*
X0115236D02*
X01175D01*
X0115236Y0079036D02*
X0117402D01*
X0251988Y0232598D02*
X0254153D01*
X025189Y0237913D02*
X0254153D01*
X0271988D02*
X0274153D01*
X0271988Y0232598D02*
X0274252D01*
X0194488Y0237913D02*
X0196653D01*
X0194488Y0232598D02*
X0196752D01*
X0174488D02*
X0176654D01*
X017439Y0237913D02*
X0176654D01*
X0116988D02*
X0119153D01*
X0116988Y0232598D02*
X0119252D01*
X0096988D02*
X0099154D01*
X009689Y0237913D02*
X0099154D01*
X0351161Y0066732D02*
Y0068897D01*
X0356476Y0066732D02*
Y0068996D01*
X0341161Y0066732D02*
Y0068897D01*
X0346476Y0066732D02*
Y0068996D01*
X0331161Y0066732D02*
Y0068897D01*
X0336476Y0066732D02*
Y0068996D01*
X0321161Y0066732D02*
Y0068897D01*
X0326476Y0066732D02*
Y0068996D01*
X0351162Y0082795D02*
Y0084961D01*
X0356476Y0082795D02*
Y0085059D01*
X0321162Y0082795D02*
Y0084961D01*
X0326476Y0082795D02*
Y0085059D01*
X0341161Y0082795D02*
Y0084961D01*
X0346476Y0082795D02*
Y0085059D01*
X0331161Y0082795D02*
Y0084961D01*
X0336476Y0082795D02*
Y0085059D01*
X0370333Y0044469D02*
X0373707D01*
X0374382Y0044693*
X0374832Y0045143*
X0375056Y0045818*
Y0046268*
X0374832Y0046943*
X0374382Y0047392*
X0373707Y0047617*
X0370333*
Y0048922D02*
X0375056D01*
X0370333Y0050586D02*
X0374157D01*
X0374832Y0050811*
X0375056Y0051261*
Y0051711*
X0371907Y0049912D02*
Y0051486D01*
X0370333Y0052836D02*
X0370558Y0053061D01*
X0370333Y0053285*
X0370108Y0053061*
X0370333Y0052836*
X0371907Y0053061D02*
X0375056D01*
X0371907Y0054118D02*
X0375056D01*
X0372807D02*
X0372132Y0054792D01*
X0371907Y0055242*
Y0055917*
X0372132Y0056367*
X0372807Y0056592*
X0375056*
X0372807D02*
X0372132Y0057267D01*
X0371907Y0057717*
Y0058391*
X0372132Y0058841*
X0372807Y0059066*
X0375056*
X0371907Y006325D02*
X0375056D01*
X0372582D02*
X0372132Y00628D01*
X0371907Y006235*
Y0061675*
X0372132Y0061225*
X0372582Y0060776*
X0373257Y006055*
X0373707*
X0374382Y0060776*
X0374832Y0061225*
X0375056Y0061675*
Y006235*
X0374832Y00628*
X0374382Y006325*
X0370333Y0065184D02*
X0374157D01*
X0374832Y0065409*
X0375056Y0065859*
Y0066309*
X0371907Y0064509D02*
Y0066084D01*
X0373257Y0066983D02*
Y0069682D01*
X0372807*
X0372357Y0069458*
X0372132Y0069233*
X0371907Y0068783*
Y0068108*
X0372132Y0067658*
X0372582Y0067208*
X0373257Y0066983*
X0373707*
X0374382Y0067208*
X0374832Y0067658*
X0375056Y0068108*
Y0068783*
X0374832Y0069233*
X0374382Y0069682*
X0371458Y007778D02*
X0371008Y0077555D01*
X0370558Y0077105*
X0370333Y0076655*
Y0075755*
X0370558Y0075305*
X0371008Y0074856*
X0371458Y0074631*
X0372132Y0074406*
X0373257*
X0373932Y0074631*
X0374382Y0074856*
X0374832Y0075305*
X0375056Y0075755*
Y0076655*
X0374832Y0077105*
X0374382Y0077555*
X0373932Y007778*
X0373257*
Y0076655D02*
Y007778D01*
X0372807Y0078859D02*
Y0080884D01*
X0372582Y0081558*
X0372357Y0081783*
X0371907Y0082008*
X0371233*
X0370783Y0081783*
X0370558Y0081558*
X0370333Y0080884*
Y0078859*
X0375056*
X0371008Y0086214D02*
X0370558Y0085764D01*
X0370333Y008509*
Y008419*
X0370558Y0083515*
X0371008Y0083065*
X0371458*
X0371907Y008329*
X0372132Y0083515*
X0372357Y0083965*
X0372807Y0085315*
X0373032Y0085764*
X0373257Y0085989*
X0373707Y0086214*
X0374382*
X0374832Y0085764*
X0375056Y008509*
Y008419*
X0374832Y0083515*
X0374382Y0083065*
X0377418Y0044469D02*
X0382142D01*
X0377418D02*
Y0046493D01*
X0377643Y0047168*
X0377868Y0047392*
X0378318Y0047617*
X0378768*
X0379218Y0047392*
X0379443Y0047168*
X0379668Y0046493*
Y0044469D02*
Y0046493D01*
X0379892Y0047168*
X0380118Y0047392*
X0380567Y0047617*
X0381242*
X0381692Y0047392*
X0381917Y0047168*
X0382142Y0046493*
Y0044469*
X0378993Y0048675D02*
X0382142D01*
X0380342D02*
X0379668Y0048899D01*
X0379218Y0049349*
X0378993Y0049799*
Y0050474*
X0380342Y0050901D02*
Y00536D01*
X0379892*
X0379443Y0053376*
X0379218Y005315*
X0378993Y0052701*
Y0052026*
X0379218Y0051576*
X0379668Y0051126*
X0380342Y0050901*
X0380792*
X0381467Y0051126*
X0381917Y0051576*
X0382142Y0052026*
Y0052701*
X0381917Y005315*
X0381467Y00536*
X0378993Y0057312D02*
X0382142D01*
X0379668D02*
X0379218Y0056862D01*
X0378993Y0056412*
Y0055737*
X0379218Y0055287*
X0379668Y0054838*
X0380342Y0054612*
X0380792*
X0381467Y0054838*
X0381917Y0055287*
X0382142Y0055737*
Y0056412*
X0381917Y0056862*
X0381467Y0057312*
X0377418Y0058571D02*
X0382142D01*
X0378993Y0060821D02*
X0381242Y0058571D01*
X0380342Y0059471D02*
X0382142Y0061045D01*
X0378993Y0062912D02*
X0379218Y0062462D01*
X0379668Y0062012*
X0380342Y0061788*
X0380792*
X0381467Y0062012*
X0381917Y0062462*
X0382142Y0062912*
Y0063587*
X0381917Y0064037*
X0381467Y0064487*
X0380792Y0064712*
X0380342*
X0379668Y0064487*
X0379218Y0064037*
X0378993Y0063587*
Y0062912*
Y0065746D02*
X0381242D01*
X0381917Y0065971*
X0382142Y0066421*
Y0067096*
X0381917Y0067546*
X0381242Y006822*
X0378993D02*
X0382142D01*
X0377418Y0070132D02*
X0381242D01*
X0381917Y0070357*
X0382142Y0070807*
Y0071257*
X0378993Y0069458D02*
Y0071032D01*
Y0075643D02*
X0382142Y0076992D01*
X0378993Y0078342D02*
X0382142Y0076992D01*
X0377418Y0079557D02*
Y0082031D01*
X0379218Y0080681*
Y0081356*
X0379443Y0081806*
X0379668Y0082031*
X0380342Y0082256*
X0380792*
X0381467Y0082031*
X0381917Y0081581*
X0382142Y0080906*
Y0080231*
X0381917Y0079557*
X0381692Y0079332*
X0381242Y0079107*
X0535187Y0275753D02*
Y0278902D01*
X0536761*
X0537286Y0278377*
Y0277327*
X0536761Y0276802*
X0535187*
X0536236D02*
X0537286Y0275753D01*
X0538336D02*
X0539385D01*
X053886*
Y0278902*
X0538336Y0278377*
X0543058Y0275753D02*
X0540959D01*
X0543058Y0277852*
Y0278377*
X0542534Y0278902*
X0541484*
X0540959Y0278377*
X0544108Y0275753D02*
X0545157D01*
X0544633*
Y0278902*
X0544108Y0278377*
X0535187Y0235256D02*
Y0238404D01*
X0536761*
X0537286Y023788*
Y023683*
X0536761Y0236305*
X0535187*
X0536236D02*
X0537286Y0235256D01*
X0538336D02*
X0539385D01*
X053886*
Y0238404*
X0538336Y023788*
X0543058Y0235256D02*
X0540959D01*
X0543058Y0237355*
Y023788*
X0542534Y0238404*
X0541484*
X0540959Y023788*
X0544108D02*
X0544633Y0238404D01*
X0545682*
X0546207Y023788*
Y0235781*
X0545682Y0235256*
X0544633*
X0544108Y0235781*
Y023788*
X0547001Y0259186D02*
Y0261285D01*
X0546476Y026181*
X0545426*
X0544901Y0261285*
Y0259186*
X0545426Y0258662*
X0546476*
X0545951Y0259711D02*
X0547001Y0258662D01*
X0546476D02*
X0547001Y0259186D01*
X054805Y026181D02*
X0550149D01*
Y0261285*
X054805Y0259186*
Y0258662*
X0160571Y0230905D02*
Y0228281D01*
X0161096Y0227756*
X0162145*
X016267Y0228281*
Y0230905*
X0163719Y0227756D02*
X0164769D01*
X0164244*
Y0230905*
X0163719Y023038*
X0166343D02*
X0166868Y0230905D01*
X0167918*
X0168442Y023038*
Y0229855*
X0167918Y022933*
X0167393*
X0167918*
X0168442Y0228805*
Y0228281*
X0167918Y0227756*
X0166868*
X0166343Y0228281*
X0511419Y0355978D02*
Y0359126D01*
X0512993*
X0513518Y0358602*
Y0357552*
X0512993Y0357028*
X0511419*
X0514568Y0355978D02*
X0515617D01*
X0515092*
Y0359126*
X0514568Y0358602*
X0517191D02*
X0517716Y0359126D01*
X0518766*
X051929Y0358602*
Y0358077*
X0518766Y0357552*
X0518241*
X0518766*
X051929Y0357028*
Y0356503*
X0518766Y0355978*
X0517716*
X0517191Y0356503*
X0516519Y0084378D02*
Y0087527D01*
X0518093*
X0518618Y0087002*
Y0085952*
X0518093Y0085427*
X0516519*
X0519667Y0084378D02*
X0520717D01*
X0520192*
Y0087527*
X0519667Y0087002*
X0522291Y0084378D02*
X0523341D01*
X0522816*
Y0087527*
X0522291Y0087002*
X0511419Y0139478D02*
Y0142627D01*
X0512993*
X0513518Y0142102*
Y0141052*
X0512993Y0140527*
X0511419*
X0514568Y0142102D02*
X0515092Y0142627D01*
X0516142*
X0516667Y0142102*
Y0141577*
X0516142Y0141052*
X0516667Y0140527*
Y0140003*
X0516142Y0139478*
X0515092*
X0514568Y0140003*
Y0140527*
X0515092Y0141052*
X0514568Y0141577*
Y0142102*
X0515092Y0141052D02*
X0516142D01*
X0446519Y0356878D02*
Y0360027D01*
X0448093*
X0448618Y0359502*
Y0358452*
X0448093Y0357927*
X0446519*
X0451767Y0356878D02*
X0449668D01*
X0451767Y0358977*
Y0359502*
X0451242Y0360027*
X0450192*
X0449668Y0359502*
X0551319Y0252078D02*
Y0255226D01*
X0552893*
X0553418Y0254702*
Y0253652*
X0552893Y0253128*
X0551319*
X0554467Y0252078D02*
X0555517D01*
X0554992*
Y0255226*
X0554467Y0254702*
X055919Y0252078D02*
X0557091D01*
X055919Y0254177*
Y0254702*
X0558666Y0255226*
X0557616*
X0557091Y0254702*
X0323919Y0146978D02*
Y0150127D01*
X0325493*
X0326018Y0149602*
Y0148552*
X0325493Y0148028*
X0323919*
X0327067Y0146978D02*
X0328117D01*
X0327592*
Y0150127*
X0327067Y0149602*
X0329691D02*
X0330216Y0150127D01*
X0331266*
X033179Y0149602*
Y0147503*
X0331266Y0146978*
X0330216*
X0329691Y0147503*
Y0149602*
X0561519Y0334378D02*
Y0337526D01*
X0563093*
X0563618Y0337002*
Y0335952*
X0563093Y0335427*
X0561519*
X0564668Y0334903D02*
X0565192Y0334378D01*
X0566242*
X0566767Y0334903*
Y0337002*
X0566242Y0337526*
X0565192*
X0564668Y0337002*
Y0336477*
X0565192Y0335952*
X0566767*
X0218319Y0074578D02*
Y0077727D01*
X0219893*
X0220418Y0077202*
Y0076152*
X0219893Y0075627*
X0218319*
X0219368D02*
X0220418Y0074578D01*
X0221467D02*
X0222517D01*
X0221992*
Y0077727*
X0221467Y0077202*
X0224091Y0074578D02*
X0225141D01*
X0224616*
Y0077727*
X0224091Y0077202*
X0226715Y0074578D02*
X0227765D01*
X022724*
Y0077727*
X0226715Y0077202*
X0218319Y0067078D02*
Y0070227D01*
X0219893*
X0220418Y0069702*
Y0068652*
X0219893Y0068128*
X0218319*
X0219368D02*
X0220418Y0067078D01*
X0221467D02*
X0222517D01*
X0221992*
Y0070227*
X0221467Y0069702*
X0224091Y0067078D02*
X0225141D01*
X0224616*
Y0070227*
X0224091Y0069702*
X0226715D02*
X022724Y0070227D01*
X0228289*
X0228814Y0069702*
Y0067603*
X0228289Y0067078*
X022724*
X0226715Y0067603*
Y0069702*
X0218319Y0059578D02*
Y0062726D01*
X0219893*
X0220418Y0062202*
Y0061152*
X0219893Y0060628*
X0218319*
X0219368D02*
X0220418Y0059578D01*
X0221467D02*
X0222517D01*
X0221992*
Y0062726*
X0221467Y0062202*
X0224091D02*
X0224616Y0062726D01*
X0225666*
X022619Y0062202*
Y0060103*
X0225666Y0059578*
X0224616*
X0224091Y0060103*
Y0062202*
X022724Y0060103D02*
X0227765Y0059578D01*
X0228814*
X0229339Y0060103*
Y0062202*
X0228814Y0062726*
X0227765*
X022724Y0062202*
Y0061677*
X0227765Y0061152*
X0229339*
X0218319Y0052078D02*
Y0055226D01*
X0219893*
X0220418Y0054702*
Y0053652*
X0219893Y0053127*
X0218319*
X0219368D02*
X0220418Y0052078D01*
X0221467D02*
X0222517D01*
X0221992*
Y0055226*
X0221467Y0054702*
X0224091D02*
X0224616Y0055226D01*
X0225666*
X022619Y0054702*
Y0052603*
X0225666Y0052078*
X0224616*
X0224091Y0052603*
Y0054702*
X022724D02*
X0227765Y0055226D01*
X0228814*
X0229339Y0054702*
Y0054177*
X0228814Y0053652*
X0229339Y0053127*
Y0052603*
X0228814Y0052078*
X0227765*
X022724Y0052603*
Y0053127*
X0227765Y0053652*
X022724Y0054177*
Y0054702*
X0227765Y0053652D02*
X0228814D01*
X0218319Y0044578D02*
Y0047727D01*
X0219893*
X0220418Y0047202*
Y0046152*
X0219893Y0045627*
X0218319*
X0219368D02*
X0220418Y0044578D01*
X0221467D02*
X0222517D01*
X0221992*
Y0047727*
X0221467Y0047202*
X0224091D02*
X0224616Y0047727D01*
X0225666*
X022619Y0047202*
Y0045103*
X0225666Y0044578*
X0224616*
X0224091Y0045103*
Y0047202*
X0229339Y0047727D02*
X0228289Y0047202D01*
X022724Y0046152*
Y0045103*
X0227765Y0044578*
X0228814*
X0229339Y0045103*
Y0045627*
X0228814Y0046152*
X022724*
X0218319Y0037078D02*
Y0040227D01*
X0219893*
X0220418Y0039702*
Y0038652*
X0219893Y0038127*
X0218319*
X0219368D02*
X0220418Y0037078D01*
X0221467D02*
X0222517D01*
X0221992*
Y0040227*
X0221467Y0039702*
X0224091D02*
X0224616Y0040227D01*
X0225666*
X022619Y0039702*
Y0037603*
X0225666Y0037078*
X0224616*
X0224091Y0037603*
Y0039702*
X0229339Y0037078D02*
X022724D01*
X0229339Y0039177*
Y0039702*
X0228814Y0040227*
X0227765*
X022724Y0039702*
X0218319Y0029578D02*
Y0032726D01*
X0219893*
X0220418Y0032202*
Y0031152*
X0219893Y0030628*
X0218319*
X0219368D02*
X0220418Y0029578D01*
X0221467Y0030103D02*
X0221992Y0029578D01*
X0223042*
X0223567Y0030103*
Y0032202*
X0223042Y0032726*
X0221992*
X0221467Y0032202*
Y0031677*
X0221992Y0031152*
X0223567*
X0224616Y0030103D02*
X0225141Y0029578D01*
X022619*
X0226715Y0030103*
Y0032202*
X022619Y0032726*
X0225141*
X0224616Y0032202*
Y0031677*
X0225141Y0031152*
X0226715*
X0218319Y0022078D02*
Y0025227D01*
X0219893*
X0220418Y0024702*
Y0023652*
X0219893Y0023128*
X0218319*
X0219368D02*
X0220418Y0022078D01*
X0221467Y0022603D02*
X0221992Y0022078D01*
X0223042*
X0223567Y0022603*
Y0024702*
X0223042Y0025227*
X0221992*
X0221467Y0024702*
Y0024177*
X0221992Y0023652*
X0223567*
X0224616Y0024702D02*
X0225141Y0025227D01*
X022619*
X0226715Y0024702*
Y0024177*
X022619Y0023652*
X0226715Y0023128*
Y0022603*
X022619Y0022078*
X0225141*
X0224616Y0022603*
Y0023128*
X0225141Y0023652*
X0224616Y0024177*
Y0024702*
X0225141Y0023652D02*
X022619D01*
X0298071Y0075256D02*
Y0078404D01*
X0299645*
X030017Y007788*
Y007683*
X0299645Y0076305*
X0298071*
X029912D02*
X030017Y0075256D01*
X030122Y0075781D02*
X0301744Y0075256D01*
X0302794*
X0303319Y0075781*
Y007788*
X0302794Y0078404*
X0301744*
X030122Y007788*
Y0077355*
X0301744Y007683*
X0303319*
X0304368Y007788D02*
X0304893Y0078404D01*
X0305942*
X0306467Y007788*
Y0077355*
X0305942Y007683*
X0305418*
X0305942*
X0306467Y0076305*
Y0075781*
X0305942Y0075256*
X0304893*
X0304368Y0075781*
X0298071Y0067756D02*
Y0070904D01*
X0299645*
X030017Y007038*
Y006933*
X0299645Y0068805*
X0298071*
X029912D02*
X030017Y0067756D01*
X030122Y0068281D02*
X0301744Y0067756D01*
X0302794*
X0303319Y0068281*
Y007038*
X0302794Y0070904*
X0301744*
X030122Y007038*
Y0069855*
X0301744Y006933*
X0303319*
X0306467Y0067756D02*
X0304368D01*
X0306467Y0069855*
Y007038*
X0305942Y0070904*
X0304893*
X0304368Y007038*
X0298071Y0060256D02*
Y0063405D01*
X0299645*
X030017Y006288*
Y006183*
X0299645Y0061305*
X0298071*
X029912D02*
X030017Y0060256D01*
X030122Y0060781D02*
X0301744Y0060256D01*
X0302794*
X0303319Y0060781*
Y006288*
X0302794Y0063405*
X0301744*
X030122Y006288*
Y0062355*
X0301744Y006183*
X0303319*
X0304368Y0060256D02*
X0305418D01*
X0304893*
Y0063405*
X0304368Y006288*
X0298071Y0052756D02*
Y0055905D01*
X0299645*
X030017Y005538*
Y005433*
X0299645Y0053805*
X0298071*
X029912D02*
X030017Y0052756D01*
X030122Y005538D02*
X0301744Y0055905D01*
X0302794*
X0303319Y005538*
Y0054855*
X0302794Y005433*
X0303319Y0053805*
Y0053281*
X0302794Y0052756*
X0301744*
X030122Y0053281*
Y0053805*
X0301744Y005433*
X030122Y0054855*
Y005538*
X0301744Y005433D02*
X0302794D01*
X0304368Y0053281D02*
X0304893Y0052756D01*
X0305942*
X0306467Y0053281*
Y005538*
X0305942Y0055905*
X0304893*
X0304368Y005538*
Y0054855*
X0304893Y005433*
X0306467*
X0298071Y0045256D02*
Y0048404D01*
X0299645*
X030017Y004788*
Y004683*
X0299645Y0046305*
X0298071*
X029912D02*
X030017Y0045256D01*
X030122Y004788D02*
X0301744Y0048404D01*
X0302794*
X0303319Y004788*
Y0047355*
X0302794Y004683*
X0303319Y0046305*
Y0045781*
X0302794Y0045256*
X0301744*
X030122Y0045781*
Y0046305*
X0301744Y004683*
X030122Y0047355*
Y004788*
X0301744Y004683D02*
X0302794D01*
X0304368Y004788D02*
X0304893Y0048404D01*
X0305942*
X0306467Y004788*
Y0047355*
X0305942Y004683*
X0306467Y0046305*
Y0045781*
X0305942Y0045256*
X0304893*
X0304368Y0045781*
Y0046305*
X0304893Y004683*
X0304368Y0047355*
Y004788*
X0304893Y004683D02*
X0305942D01*
X0298071Y0037756D02*
Y0040905D01*
X0299645*
X030017Y004038*
Y003933*
X0299645Y0038805*
X0298071*
X029912D02*
X030017Y0037756D01*
X030122Y004038D02*
X0301744Y0040905D01*
X0302794*
X0303319Y004038*
Y0039855*
X0302794Y003933*
X0303319Y0038805*
Y0038281*
X0302794Y0037756*
X0301744*
X030122Y0038281*
Y0038805*
X0301744Y003933*
X030122Y0039855*
Y004038*
X0301744Y003933D02*
X0302794D01*
X0304368Y0040905D02*
X0306467D01*
Y004038*
X0304368Y0038281*
Y0037756*
X0298071Y0030256D02*
Y0033404D01*
X0299645*
X030017Y003288*
Y003183*
X0299645Y0031305*
X0298071*
X029912D02*
X030017Y0030256D01*
X030122Y003288D02*
X0301744Y0033404D01*
X0302794*
X0303319Y003288*
Y0032355*
X0302794Y003183*
X0303319Y0031305*
Y0030781*
X0302794Y0030256*
X0301744*
X030122Y0030781*
Y0031305*
X0301744Y003183*
X030122Y0032355*
Y003288*
X0301744Y003183D02*
X0302794D01*
X0306467Y0033404D02*
X0305418Y003288D01*
X0304368Y003183*
Y0030781*
X0304893Y0030256*
X0305942*
X0306467Y0030781*
Y0031305*
X0305942Y003183*
X0304368*
X0298071Y0021506D02*
Y0024655D01*
X0299645*
X030017Y002413*
Y002308*
X0299645Y0022555*
X0298071*
X029912D02*
X030017Y0021506D01*
X030122Y002413D02*
X0301744Y0024655D01*
X0302794*
X0303319Y002413*
Y0023605*
X0302794Y002308*
X0303319Y0022555*
Y0022031*
X0302794Y0021506*
X0301744*
X030122Y0022031*
Y0022555*
X0301744Y002308*
X030122Y0023605*
Y002413*
X0301744Y002308D02*
X0302794D01*
X0306467Y0024655D02*
X0304368D01*
Y002308*
X0305418Y0023605*
X0305942*
X0306467Y002308*
Y0022031*
X0305942Y0021506*
X0304893*
X0304368Y0022031*
X0123319Y007439D02*
Y0077538D01*
X0124893*
X0125418Y0077014*
Y0075964*
X0124893Y0075439*
X0123319*
X0124368D02*
X0125418Y007439D01*
X0126468Y0077538D02*
X0128567D01*
Y0077014*
X0126468Y0074914*
Y007439*
X0129616Y0077014D02*
X0130141Y0077538D01*
X013119*
X0131715Y0077014*
Y0076489*
X013119Y0075964*
X0130666*
X013119*
X0131715Y0075439*
Y0074914*
X013119Y007439*
X0130141*
X0129616Y0074914*
X0123319Y0067078D02*
Y0070227D01*
X0124893*
X0125418Y0069702*
Y0068652*
X0124893Y0068128*
X0123319*
X0124368D02*
X0125418Y0067078D01*
X0126468Y0070227D02*
X0128567D01*
Y0069702*
X0126468Y0067603*
Y0067078*
X0131715D02*
X0129616D01*
X0131715Y0069177*
Y0069702*
X013119Y0070227*
X0130141*
X0129616Y0069702*
X0123319Y0059578D02*
Y0062726D01*
X0124893*
X0125418Y0062202*
Y0061152*
X0124893Y0060628*
X0123319*
X0124368D02*
X0125418Y0059578D01*
X0126468Y0062726D02*
X0128567D01*
Y0062202*
X0126468Y0060103*
Y0059578*
X0129616D02*
X0130666D01*
X0130141*
Y0062726*
X0129616Y0062202*
X0123319Y0052078D02*
Y0055226D01*
X0124893*
X0125418Y0054702*
Y0053652*
X0124893Y0053127*
X0123319*
X0124368D02*
X0125418Y0052078D01*
X0126468Y0055226D02*
X0128567D01*
Y0054702*
X0126468Y0052603*
Y0052078*
X0129616Y0054702D02*
X0130141Y0055226D01*
X013119*
X0131715Y0054702*
Y0052603*
X013119Y0052078*
X0130141*
X0129616Y0052603*
Y0054702*
X0123319Y0044578D02*
Y0047727D01*
X0124893*
X0125418Y0047202*
Y0046152*
X0124893Y0045627*
X0123319*
X0124368D02*
X0125418Y0044578D01*
X0128567Y0047727D02*
X0127517Y0047202D01*
X0126468Y0046152*
Y0045103*
X0126992Y0044578*
X0128042*
X0128567Y0045103*
Y0045627*
X0128042Y0046152*
X0126468*
X0129616Y0047202D02*
X0130141Y0047727D01*
X013119*
X0131715Y0047202*
Y0046677*
X013119Y0046152*
X0131715Y0045627*
Y0045103*
X013119Y0044578*
X0130141*
X0129616Y0045103*
Y0045627*
X0130141Y0046152*
X0129616Y0046677*
Y0047202*
X0130141Y0046152D02*
X013119D01*
X0123319Y0037078D02*
Y0040227D01*
X0124893*
X0125418Y0039702*
Y0038652*
X0124893Y0038127*
X0123319*
X0124368D02*
X0125418Y0037078D01*
X0128567Y0040227D02*
X0127517Y0039702D01*
X0126468Y0038652*
Y0037603*
X0126992Y0037078*
X0128042*
X0128567Y0037603*
Y0038127*
X0128042Y0038652*
X0126468*
X013119Y0037078D02*
Y0040227D01*
X0129616Y0038652*
X0131715*
X0123319Y0029578D02*
Y0032726D01*
X0124893*
X0125418Y0032202*
Y0031152*
X0124893Y0030628*
X0123319*
X0124368D02*
X0125418Y0029578D01*
X0128567Y0032726D02*
X0127517Y0032202D01*
X0126468Y0031152*
Y0030103*
X0126992Y0029578*
X0128042*
X0128567Y0030103*
Y0030628*
X0128042Y0031152*
X0126468*
X0129616Y0029578D02*
X0130666D01*
X0130141*
Y0032726*
X0129616Y0032202*
X0123319Y0022078D02*
Y0025227D01*
X0124893*
X0125418Y0024702*
Y0023652*
X0124893Y0023128*
X0123319*
X0124368D02*
X0125418Y0022078D01*
X0128567Y0025227D02*
X0127517Y0024702D01*
X0126468Y0023652*
Y0022603*
X0126992Y0022078*
X0128042*
X0128567Y0022603*
Y0023128*
X0128042Y0023652*
X0126468*
X0129616Y0024702D02*
X0130141Y0025227D01*
X013119*
X0131715Y0024702*
Y0022603*
X013119Y0022078*
X0130141*
X0129616Y0022603*
Y0024702*
X0180719Y0074578D02*
Y0077727D01*
X0182293*
X0182818Y0077202*
Y0076152*
X0182293Y0075627*
X0180719*
X0181768D02*
X0182818Y0074578D01*
X0185967Y0077727D02*
X0183868D01*
Y0076152*
X0184917Y0076677*
X0185442*
X0185967Y0076152*
Y0075103*
X0185442Y0074578*
X0184392*
X0183868Y0075103*
X0187016D02*
X0187541Y0074578D01*
X018859*
X0189115Y0075103*
Y0077202*
X018859Y0077727*
X0187541*
X0187016Y0077202*
Y0076677*
X0187541Y0076152*
X0189115*
X0180719Y0067078D02*
Y0070227D01*
X0182293*
X0182818Y0069702*
Y0068652*
X0182293Y0068128*
X0180719*
X0181768D02*
X0182818Y0067078D01*
X0185967Y0070227D02*
X0183868D01*
Y0068652*
X0184917Y0069177*
X0185442*
X0185967Y0068652*
Y0067603*
X0185442Y0067078*
X0184392*
X0183868Y0067603*
X0187016Y0069702D02*
X0187541Y0070227D01*
X018859*
X0189115Y0069702*
Y0069177*
X018859Y0068652*
X0189115Y0068128*
Y0067603*
X018859Y0067078*
X0187541*
X0187016Y0067603*
Y0068128*
X0187541Y0068652*
X0187016Y0069177*
Y0069702*
X0187541Y0068652D02*
X018859D01*
X0180719Y0059578D02*
Y0062726D01*
X0182293*
X0182818Y0062202*
Y0061152*
X0182293Y0060628*
X0180719*
X0181768D02*
X0182818Y0059578D01*
X0185967Y0062726D02*
X0183868D01*
Y0061152*
X0184917Y0061677*
X0185442*
X0185967Y0061152*
Y0060103*
X0185442Y0059578*
X0184392*
X0183868Y0060103*
X0187016Y0062726D02*
X0189115D01*
Y0062202*
X0187016Y0060103*
Y0059578*
X0180719Y0052078D02*
Y0055226D01*
X0182293*
X0182818Y0054702*
Y0053652*
X0182293Y0053127*
X0180719*
X0181768D02*
X0182818Y0052078D01*
X0185967Y0055226D02*
X0183868D01*
Y0053652*
X0184917Y0054177*
X0185442*
X0185967Y0053652*
Y0052603*
X0185442Y0052078*
X0184392*
X0183868Y0052603*
X0189115Y0055226D02*
X0187016D01*
Y0053652*
X0188066Y0054177*
X018859*
X0189115Y0053652*
Y0052603*
X018859Y0052078*
X0187541*
X0187016Y0052603*
X0180719Y0044578D02*
Y0047727D01*
X0182293*
X0182818Y0047202*
Y0046152*
X0182293Y0045627*
X0180719*
X0181768D02*
X0182818Y0044578D01*
X0185967Y0047727D02*
X0183868D01*
Y0046152*
X0184917Y0046677*
X0185442*
X0185967Y0046152*
Y0045103*
X0185442Y0044578*
X0184392*
X0183868Y0045103*
X018859Y0044578D02*
Y0047727D01*
X0187016Y0046152*
X0189115*
X0180719Y0037078D02*
Y0040227D01*
X0182293*
X0182818Y0039702*
Y0038652*
X0182293Y0038127*
X0180719*
X0181768D02*
X0182818Y0037078D01*
X0185967Y0040227D02*
X0183868D01*
Y0038652*
X0184917Y0039177*
X0185442*
X0185967Y0038652*
Y0037603*
X0185442Y0037078*
X0184392*
X0183868Y0037603*
X0187016Y0039702D02*
X0187541Y0040227D01*
X018859*
X0189115Y0039702*
Y0039177*
X018859Y0038652*
X0188066*
X018859*
X0189115Y0038127*
Y0037603*
X018859Y0037078*
X0187541*
X0187016Y0037603*
X0180719Y0029578D02*
Y0032726D01*
X0182293*
X0182818Y0032202*
Y0031152*
X0182293Y0030628*
X0180719*
X0181768D02*
X0182818Y0029578D01*
X0185967Y0032726D02*
X0183868D01*
Y0031152*
X0184917Y0031677*
X0185442*
X0185967Y0031152*
Y0030103*
X0185442Y0029578*
X0184392*
X0183868Y0030103*
X0189115Y0029578D02*
X0187016D01*
X0189115Y0031677*
Y0032202*
X018859Y0032726*
X0187541*
X0187016Y0032202*
X0180719Y0022078D02*
Y0025227D01*
X0182293*
X0182818Y0024702*
Y0023652*
X0182293Y0023128*
X0180719*
X0181768D02*
X0182818Y0022078D01*
X0185967Y0025227D02*
X0183868D01*
Y0023652*
X0184917Y0024177*
X0185442*
X0185967Y0023652*
Y0022603*
X0185442Y0022078*
X0184392*
X0183868Y0022603*
X0187016Y0022078D02*
X0188066D01*
X0187541*
Y0025227*
X0187016Y0024702*
X0005819Y0074578D02*
Y0077727D01*
X0007393*
X0007918Y0077202*
Y0076152*
X0007393Y0075627*
X0005819*
X0006868D02*
X0007918Y0074578D01*
X0010542D02*
Y0077727D01*
X0008968Y0076152*
X0011067*
X0012116Y0077202D02*
X0012641Y0077727D01*
X001369*
X0014215Y0077202*
Y0076677*
X001369Y0076152*
X0013166*
X001369*
X0014215Y0075627*
Y0075103*
X001369Y0074578*
X0012641*
X0012116Y0075103*
X0005819Y0067078D02*
Y0070227D01*
X0007393*
X0007918Y0069702*
Y0068652*
X0007393Y0068128*
X0005819*
X0006868D02*
X0007918Y0067078D01*
X0010542D02*
Y0070227D01*
X0008968Y0068652*
X0011067*
X0014215Y0067078D02*
X0012116D01*
X0014215Y0069177*
Y0069702*
X001369Y0070227*
X0012641*
X0012116Y0069702*
X0005819Y0059578D02*
Y0062726D01*
X0007393*
X0007918Y0062202*
Y0061152*
X0007393Y0060628*
X0005819*
X0006868D02*
X0007918Y0059578D01*
X0010542D02*
Y0062726D01*
X0008968Y0061152*
X0011067*
X0012116Y0059578D02*
X0013166D01*
X0012641*
Y0062726*
X0012116Y0062202*
X0005819Y0052078D02*
Y0055226D01*
X0007393*
X0007918Y0054702*
Y0053652*
X0007393Y0053127*
X0005819*
X0006868D02*
X0007918Y0052078D01*
X0010542D02*
Y0055226D01*
X0008968Y0053652*
X0011067*
X0012116Y0054702D02*
X0012641Y0055226D01*
X001369*
X0014215Y0054702*
Y0052603*
X001369Y0052078*
X0012641*
X0012116Y0052603*
Y0054702*
X0005819Y0044578D02*
Y0047727D01*
X0007393*
X0007918Y0047202*
Y0046152*
X0007393Y0045627*
X0005819*
X0006868D02*
X0007918Y0044578D01*
X0008968Y0047202D02*
X0009492Y0047727D01*
X0010542*
X0011067Y0047202*
Y0046677*
X0010542Y0046152*
X0010017*
X0010542*
X0011067Y0045627*
Y0045103*
X0010542Y0044578*
X0009492*
X0008968Y0045103*
X0012116D02*
X0012641Y0044578D01*
X001369*
X0014215Y0045103*
Y0047202*
X001369Y0047727*
X0012641*
X0012116Y0047202*
Y0046677*
X0012641Y0046152*
X0014215*
X0005819Y0037078D02*
Y0040227D01*
X0007393*
X0007918Y0039702*
Y0038652*
X0007393Y0038127*
X0005819*
X0006868D02*
X0007918Y0037078D01*
X0008968Y0039702D02*
X0009492Y0040227D01*
X0010542*
X0011067Y0039702*
Y0039177*
X0010542Y0038652*
X0010017*
X0010542*
X0011067Y0038127*
Y0037603*
X0010542Y0037078*
X0009492*
X0008968Y0037603*
X0012116Y0040227D02*
X0014215D01*
Y0039702*
X0012116Y0037603*
Y0037078*
X0005819Y0029578D02*
Y0032726D01*
X0007393*
X0007918Y0032202*
Y0031152*
X0007393Y0030628*
X0005819*
X0006868D02*
X0007918Y0029578D01*
X0008968Y0032202D02*
X0009492Y0032726D01*
X0010542*
X0011067Y0032202*
Y0031677*
X0010542Y0031152*
X0010017*
X0010542*
X0011067Y0030628*
Y0030103*
X0010542Y0029578*
X0009492*
X0008968Y0030103*
X001369Y0029578D02*
Y0032726D01*
X0012116Y0031152*
X0014215*
X0005819Y0022078D02*
Y0025227D01*
X0007393*
X0007918Y0024702*
Y0023652*
X0007393Y0023128*
X0005819*
X0006868D02*
X0007918Y0022078D01*
X0008968Y0024702D02*
X0009492Y0025227D01*
X0010542*
X0011067Y0024702*
Y0024177*
X0010542Y0023652*
X0010017*
X0010542*
X0011067Y0023128*
Y0022603*
X0010542Y0022078*
X0009492*
X0008968Y0022603*
X0012116Y0024702D02*
X0012641Y0025227D01*
X001369*
X0014215Y0024702*
Y0022603*
X001369Y0022078*
X0012641*
X0012116Y0022603*
Y0024702*
X0085719Y0074578D02*
Y0077727D01*
X0087293*
X0087818Y0077202*
Y0076152*
X0087293Y0075627*
X0085719*
X0086768D02*
X0087818Y0074578D01*
X0090966D02*
X0088867D01*
X0090966Y0076677*
Y0077202*
X0090442Y0077727*
X0089392*
X0088867Y0077202*
X0092016Y0075103D02*
X0092541Y0074578D01*
X009359*
X0094115Y0075103*
Y0077202*
X009359Y0077727*
X0092541*
X0092016Y0077202*
Y0076677*
X0092541Y0076152*
X0094115*
X0085719Y0067078D02*
Y0070227D01*
X0087293*
X0087818Y0069702*
Y0068652*
X0087293Y0068128*
X0085719*
X0086768D02*
X0087818Y0067078D01*
X0090966D02*
X0088867D01*
X0090966Y0069177*
Y0069702*
X0090442Y0070227*
X0089392*
X0088867Y0069702*
X0092016D02*
X0092541Y0070227D01*
X009359*
X0094115Y0069702*
Y0069177*
X009359Y0068652*
X0094115Y0068128*
Y0067603*
X009359Y0067078*
X0092541*
X0092016Y0067603*
Y0068128*
X0092541Y0068652*
X0092016Y0069177*
Y0069702*
X0092541Y0068652D02*
X009359D01*
X0085719Y0059578D02*
Y0062726D01*
X0087293*
X0087818Y0062202*
Y0061152*
X0087293Y0060628*
X0085719*
X0086768D02*
X0087818Y0059578D01*
X0090966D02*
X0088867D01*
X0090966Y0061677*
Y0062202*
X0090442Y0062726*
X0089392*
X0088867Y0062202*
X0092016Y0062726D02*
X0094115D01*
Y0062202*
X0092016Y0060103*
Y0059578*
X0085719Y0052078D02*
Y0055226D01*
X0087293*
X0087818Y0054702*
Y0053652*
X0087293Y0053127*
X0085719*
X0086768D02*
X0087818Y0052078D01*
X0090966D02*
X0088867D01*
X0090966Y0054177*
Y0054702*
X0090442Y0055226*
X0089392*
X0088867Y0054702*
X0094115Y0055226D02*
X0092016D01*
Y0053652*
X0093066Y0054177*
X009359*
X0094115Y0053652*
Y0052603*
X009359Y0052078*
X0092541*
X0092016Y0052603*
X0085719Y0044578D02*
Y0047727D01*
X0087293*
X0087818Y0047202*
Y0046152*
X0087293Y0045627*
X0085719*
X0086768D02*
X0087818Y0044578D01*
X0090966D02*
X0088867D01*
X0090966Y0046677*
Y0047202*
X0090442Y0047727*
X0089392*
X0088867Y0047202*
X009359Y0044578D02*
Y0047727D01*
X0092016Y0046152*
X0094115*
X0085719Y0037078D02*
Y0040227D01*
X0087293*
X0087818Y0039702*
Y0038652*
X0087293Y0038127*
X0085719*
X0086768D02*
X0087818Y0037078D01*
X0090966D02*
X0088867D01*
X0090966Y0039177*
Y0039702*
X0090442Y0040227*
X0089392*
X0088867Y0039702*
X0094115Y0037078D02*
X0092016D01*
X0094115Y0039177*
Y0039702*
X009359Y0040227*
X0092541*
X0092016Y0039702*
X0085719Y0029578D02*
Y0032726D01*
X0087293*
X0087818Y0032202*
Y0031152*
X0087293Y0030628*
X0085719*
X0086768D02*
X0087818Y0029578D01*
X0090966D02*
X0088867D01*
X0090966Y0031677*
Y0032202*
X0090442Y0032726*
X0089392*
X0088867Y0032202*
X0092016Y0029578D02*
X0093066D01*
X0092541*
Y0032726*
X0092016Y0032202*
X0085719Y0022078D02*
Y0025227D01*
X0087293*
X0087818Y0024702*
Y0023652*
X0087293Y0023128*
X0085719*
X0086768D02*
X0087818Y0022078D01*
X0090966D02*
X0088867D01*
X0090966Y0024177*
Y0024702*
X0090442Y0025227*
X0089392*
X0088867Y0024702*
X0092016D02*
X0092541Y0025227D01*
X009359*
X0094115Y0024702*
Y0022603*
X009359Y0022078*
X0092541*
X0092016Y0022603*
Y0024702*
X0504321Y0288404D02*
Y028788D01*
X050537Y028683*
X050642Y028788*
Y0288404*
X050537Y028683D02*
Y0285256D01*
X0509569D02*
X050747D01*
X0509569Y0287355*
Y028788*
X0509044Y0288404*
X0507994*
X050747Y028788*
X0429321Y0153404D02*
Y015288D01*
X043037Y015183*
X043142Y015288*
Y0153404*
X043037Y015183D02*
Y0150256D01*
X043247D02*
X0433519D01*
X0432994*
Y0153404*
X043247Y015288*
X0484321Y0272154D02*
Y0269531D01*
X0484846Y0269006*
X0485895*
X048642Y0269531*
Y0272154*
X0487469Y0269006D02*
X0488519D01*
X0487994*
Y0272154*
X0487469Y027163*
X0491668Y0269006D02*
Y0272154D01*
X0490093Y027058*
X0492192*
X0320571Y0227154D02*
Y0224531D01*
X0321096Y0224006*
X0322145*
X032267Y0224531*
Y0227154*
X0325294Y0224006D02*
Y0227154D01*
X032372Y022558*
X0325818*
X0319321Y0056506D02*
Y0059654D01*
X0320895*
X032142Y005913*
Y005808*
X0320895Y0057555*
X0319321*
X032037D02*
X032142Y0056506D01*
X0322469D02*
X0323519D01*
X0322994*
Y0059654*
X0322469Y005913*
X0326668Y0056506D02*
Y0059654D01*
X0325093Y005808*
X0327192*
X0330571Y0056506D02*
Y0059654D01*
X0332145*
X033267Y005913*
Y005808*
X0332145Y0057555*
X0330571*
X033162D02*
X033267Y0056506D01*
X0333719D02*
X0334769D01*
X0334244*
Y0059654*
X0333719Y005913*
X0336343D02*
X0336868Y0059654D01*
X0337918*
X0338442Y005913*
Y0058605*
X0337918Y005808*
X0337393*
X0337918*
X0338442Y0057555*
Y0057031*
X0337918Y0056506*
X0336868*
X0336343Y0057031*
X0340571Y0056506D02*
Y0059654D01*
X0342145*
X034267Y005913*
Y005808*
X0342145Y0057555*
X0340571*
X034162D02*
X034267Y0056506D01*
X034372D02*
X0344769D01*
X0344244*
Y0059654*
X034372Y005913*
X0348442Y0056506D02*
X0346343D01*
X0348442Y0058605*
Y005913*
X0347918Y0059654*
X0346868*
X0346343Y005913*
X0350571Y0056506D02*
Y0059654D01*
X0352145*
X035267Y005913*
Y005808*
X0352145Y0057555*
X0350571*
X035162D02*
X035267Y0056506D01*
X0353719D02*
X0354769D01*
X0354244*
Y0059654*
X0353719Y005913*
X0356343Y0056506D02*
X0357393D01*
X0356868*
Y0059654*
X0356343Y005913*
X0320571Y0091506D02*
Y0094655D01*
X0322145*
X032267Y009413*
Y009308*
X0322145Y0092555*
X0320571*
X032162D02*
X032267Y0091506D01*
X0325818Y0094655D02*
X032372D01*
Y009308*
X0324769Y0093605*
X0325294*
X0325818Y009308*
Y0092031*
X0325294Y0091506*
X0324244*
X032372Y0092031*
X0330571Y0091506D02*
Y0094655D01*
X0332145*
X033267Y009413*
Y009308*
X0332145Y0092555*
X0330571*
X033162D02*
X033267Y0091506D01*
X0335294D02*
Y0094655D01*
X0333719Y009308*
X0335819*
X0340571Y0091506D02*
Y0094655D01*
X0342145*
X034267Y009413*
Y009308*
X0342145Y0092555*
X0340571*
X034162D02*
X034267Y0091506D01*
X034372Y009413D02*
X0344244Y0094655D01*
X0345294*
X0345818Y009413*
Y0093605*
X0345294Y009308*
X0344769*
X0345294*
X0345818Y0092555*
Y0092031*
X0345294Y0091506*
X0344244*
X034372Y0092031*
X0350571Y0091506D02*
Y0094655D01*
X0352145*
X035267Y009413*
Y009308*
X0352145Y0092555*
X0350571*
X035162D02*
X035267Y0091506D01*
X0355819D02*
X0353719D01*
X0355819Y0093605*
Y009413*
X0355294Y0094655*
X0354244*
X0353719Y009413*
X0468919Y0355978D02*
Y0359126D01*
X0470493*
X0471018Y0358602*
Y0357552*
X0470493Y0357028*
X0468919*
X0474167Y0359126D02*
X0472067D01*
Y0357552*
X0473117Y0358077*
X0473642*
X0474167Y0357552*
Y0356503*
X0473642Y0355978*
X0472592*
X0472067Y0356503*
X0366833Y012913D02*
X0366309Y0129655D01*
X0365259*
X0364734Y012913*
Y0127031*
X0365259Y0126506*
X0366309*
X0366833Y0127031*
Y012808*
X0365784*
X0367883Y0126506D02*
Y0129655D01*
X0369457*
X0369982Y012913*
Y012808*
X0369457Y0127555*
X0367883*
X037313Y012913D02*
X0372606Y0129655D01*
X0371556*
X0371031Y012913*
Y0128605*
X0371556Y012808*
X0372606*
X037313Y0127555*
Y0127031*
X0372606Y0126506*
X0371556*
X0371031Y0127031*
X037418Y0126506D02*
X037523D01*
X0374705*
Y0129655*
X037418Y012913*
X0357897Y0302499D02*
Y029935D01*
X0359471*
X0359996Y0299875*
Y03004*
X0359471Y0300925*
X0357897*
X0359471*
X0359996Y0301449*
Y0301974*
X0359471Y0302499*
X0357897*
X0361046D02*
X0363145D01*
X0362095*
Y029935*
X0364194D02*
X0365244D01*
X0364719*
Y0302499*
X0364194Y0301974*
X002017Y030788D02*
X0019645Y0308404D01*
X0018596*
X0018071Y030788*
Y0305781*
X0018596Y0305256*
X0019645*
X002017Y0305781*
X0022794Y0305256D02*
Y0308404D01*
X0021219Y030683*
X0023318*
X0238976Y022992D02*
Y0227296D01*
X0239501Y0226772*
X0240551*
X0241075Y0227296*
Y022992*
X0242125Y0226772D02*
X0243175D01*
X024265*
Y022992*
X0242125Y0229396*
X0244749Y022992D02*
X0246848D01*
Y0229396*
X0244749Y0227296*
Y0226772*
X0171019Y0155727D02*
Y0153103D01*
X0171544Y0152578*
X0172593*
X0173118Y0153103*
Y0155727*
X0174168Y0152578D02*
X0175217D01*
X0174692*
Y0155727*
X0174168Y0155202*
X017889Y0155727D02*
X0177841Y0155202D01*
X0176791Y0154152*
Y0153103*
X0177316Y0152578*
X0178366*
X017889Y0153103*
Y0153628*
X0178366Y0154152*
X0176791*
X0233071Y0075058D02*
Y0072434D01*
X0233596Y0071909*
X0234645*
X023517Y0072434*
Y0075058*
X023622Y0071909D02*
X0237269D01*
X0236744*
Y0075058*
X023622Y0074533*
X0240942Y0075058D02*
X0238843D01*
Y0073484*
X0239893Y0074009*
X0240418*
X0240942Y0073484*
Y0072434*
X0240418Y0071909*
X0239368*
X0238843Y0072434*
X0122919Y0155727D02*
Y0153103D01*
X0123444Y0152578*
X0124493*
X0125018Y0153103*
Y0155727*
X0126067Y0152578D02*
X0127117D01*
X0126592*
Y0155727*
X0126067Y0155202*
X013079Y0152578D02*
X0128691D01*
X013079Y0154677*
Y0155202*
X0130266Y0155727*
X0129216*
X0128691Y0155202*
X0138071Y0075905D02*
Y0073281D01*
X0138596Y0072756*
X0139645*
X014017Y0073281*
Y0075905*
X0141219Y0072756D02*
X0142269D01*
X0141744*
Y0075905*
X0141219Y007538*
X0143843Y0072756D02*
X0144893D01*
X0144368*
Y0075905*
X0143843Y007538*
X0083071Y0228404D02*
Y0225781D01*
X0083596Y0225256*
X0084645*
X008517Y0225781*
Y0228404*
X008622Y0225256D02*
X0087269D01*
X0086744*
Y0228404*
X008622Y022788*
X0088843D02*
X0089368Y0228404D01*
X0090418*
X0090942Y022788*
Y0225781*
X0090418Y0225256*
X0089368*
X0088843Y0225781*
Y022788*
X0075419Y0155727D02*
Y0153103D01*
X0075944Y0152578*
X0076993*
X0077518Y0153103*
Y0155727*
X0078567Y0153103D02*
X0079092Y0152578D01*
X0080142*
X0080667Y0153103*
Y0155202*
X0080142Y0155727*
X0079092*
X0078567Y0155202*
Y0154677*
X0079092Y0154152*
X0080667*
X0043071Y0075905D02*
Y0073281D01*
X0043596Y0072756*
X0044645*
X004517Y0073281*
Y0075905*
X004622Y007538D02*
X0046744Y0075905D01*
X0047794*
X0048318Y007538*
Y0074855*
X0047794Y007433*
X0048318Y0073805*
Y0073281*
X0047794Y0072756*
X0046744*
X004622Y0073281*
Y0073805*
X0046744Y007433*
X004622Y0074855*
Y007538*
X0046744Y007433D02*
X0047794D01*
X0265788Y0124074D02*
Y012145D01*
X0266312Y0120925*
X0267362*
X0267886Y012145*
Y0124074*
X0268936D02*
X0271035D01*
Y0123549*
X0268936Y012145*
Y0120925*
X0298071Y0355905D02*
Y0353281D01*
X0298596Y0352756*
X0299645*
X030017Y0353281*
Y0355905*
X0303319D02*
X0302269Y035538D01*
X030122Y035433*
Y0353281*
X0301744Y0352756*
X0302794*
X0303319Y0353281*
Y0353805*
X0302794Y035433*
X030122*
X0299321Y0304655D02*
Y0302031D01*
X0299846Y0301506*
X0300895*
X030142Y0302031*
Y0304655*
X0304569D02*
X0302469D01*
Y030308*
X0303519Y0303605*
X0304044*
X0304569Y030308*
Y0302031*
X0304044Y0301506*
X0302994*
X0302469Y0302031*
X0203071Y0313404D02*
Y0310781D01*
X0203596Y0310256*
X0204645*
X020517Y0310781*
Y0313404*
X020622Y031288D02*
X0206744Y0313404D01*
X0207794*
X0208318Y031288*
Y0312355*
X0207794Y031183*
X0207269*
X0207794*
X0208318Y0311305*
Y0310781*
X0207794Y0310256*
X0206744*
X020622Y0310781*
X0205571Y0359654D02*
Y0357031D01*
X0206096Y0356506*
X0207145*
X020767Y0357031*
Y0359654*
X0210819Y0356506D02*
X0208719D01*
X0210819Y0358605*
Y035913*
X0210294Y0359654*
X0209244*
X0208719Y035913*
X0059321Y0320904D02*
Y0318281D01*
X0059846Y0317756*
X0060895*
X006142Y0318281*
Y0320904*
X006247Y0317756D02*
X0063519D01*
X0062994*
Y0320904*
X006247Y032038*
X0247244Y0239764D02*
Y0242912D01*
X0248818*
X0249343Y0242388*
Y0241338*
X0248818Y0240813*
X0247244*
X0248294D02*
X0249343Y0239764D01*
X0250393D02*
X0251442D01*
X0250918*
Y0242912*
X0250393Y0242388*
X0253016Y0239764D02*
X0254066D01*
X0253541*
Y0242912*
X0253016Y0242388*
X0257739Y0242912D02*
X025669Y0242388D01*
X025564Y0241338*
Y0240288*
X0256165Y0239764*
X0257215*
X0257739Y0240288*
Y0240813*
X0257215Y0241338*
X025564*
X0267323Y0239764D02*
Y0242912D01*
X0268897*
X0269422Y0242388*
Y0241338*
X0268897Y0240813*
X0267323*
X0268372D02*
X0269422Y0239764D01*
X0270471D02*
X0271521D01*
X0270996*
Y0242912*
X0270471Y0242388*
X0273095Y0239764D02*
X0274145D01*
X027362*
Y0242912*
X0273095Y0242388*
X0277818Y0242912D02*
X0275719D01*
Y0241338*
X0276769Y0241863*
X0277293*
X0277818Y0241338*
Y0240288*
X0277293Y0239764*
X0276244*
X0275719Y0240288*
X0267323Y0177165D02*
Y0180314D01*
X0268897*
X0269422Y0179789*
Y017874*
X0268897Y0178215*
X0267323*
X0268372D02*
X0269422Y0177165D01*
X0270471D02*
X0271521D01*
X0270996*
Y0180314*
X0270471Y0179789*
X0273095D02*
X027362Y0180314D01*
X027467*
X0275194Y0179789*
Y017769*
X027467Y0177165*
X027362*
X0273095Y017769*
Y0179789*
X0278343Y0180314D02*
X0276244D01*
Y017874*
X0277293Y0179264*
X0277818*
X0278343Y017874*
Y017769*
X0277818Y0177165*
X0276769*
X0276244Y017769*
X0247244Y0177165D02*
Y0180314D01*
X0248818*
X0249343Y0179789*
Y017874*
X0248818Y0178215*
X0247244*
X0248294D02*
X0249343Y0177165D01*
X0250393D02*
X0251442D01*
X0250918*
Y0180314*
X0250393Y0179789*
X0253016D02*
X0253541Y0180314D01*
X0254591*
X0255116Y0179789*
Y017769*
X0254591Y0177165*
X0253541*
X0253016Y017769*
Y0179789*
X0257739Y0177165D02*
Y0180314D01*
X0256165Y017874*
X0258264*
X0171653Y0239764D02*
Y0242912D01*
X0173228*
X0173753Y0242388*
Y0241338*
X0173228Y0240813*
X0171653*
X0172703D02*
X0173753Y0239764D01*
X0174802Y0242912D02*
X0176901D01*
Y0242388*
X0174802Y0240288*
Y0239764*
X0177951Y0242388D02*
X0178475Y0242912D01*
X0179525*
X018005Y0242388*
Y0241863*
X0179525Y0241338*
X018005Y0240813*
Y0240288*
X0179525Y0239764*
X0178475*
X0177951Y0240288*
Y0240813*
X0178475Y0241338*
X0177951Y0241863*
Y0242388*
X0178475Y0241338D02*
X0179525D01*
X0191732Y0239764D02*
Y0242912D01*
X0193307*
X0193831Y0242388*
Y0241338*
X0193307Y0240813*
X0191732*
X0192782D02*
X0193831Y0239764D01*
X0194881Y0242912D02*
X019698D01*
Y0242388*
X0194881Y0240288*
Y0239764*
X0198029Y0242912D02*
X0200129D01*
Y0242388*
X0198029Y0240288*
Y0239764*
X0191732Y0177165D02*
Y0180314D01*
X0193307*
X0193831Y0179789*
Y017874*
X0193307Y0178215*
X0191732*
X0192782D02*
X0193831Y0177165D01*
X019698Y0180314D02*
X019593Y0179789D01*
X0194881Y017874*
Y017769*
X0195406Y0177165*
X0196455*
X019698Y017769*
Y0178215*
X0196455Y017874*
X0194881*
X0198029Y0180314D02*
X0200129D01*
Y0179789*
X0198029Y017769*
Y0177165*
X0170472D02*
Y0180314D01*
X0172047*
X0172572Y0179789*
Y017874*
X0172047Y0178215*
X0170472*
X0171522D02*
X0172572Y0177165D01*
X017572Y0180314D02*
X0174671Y0179789D01*
X0173621Y017874*
Y017769*
X0174146Y0177165*
X0175195*
X017572Y017769*
Y0178215*
X0175195Y017874*
X0173621*
X0178869Y0180314D02*
X0177819Y0179789D01*
X017677Y017874*
Y017769*
X0177294Y0177165*
X0178344*
X0178869Y017769*
Y0178215*
X0178344Y017874*
X017677*
X0093701Y0239764D02*
Y0242912D01*
X0095275*
X00958Y0242388*
Y0241338*
X0095275Y0240813*
X0093701*
X009475D02*
X00958Y0239764D01*
X0098424D02*
Y0242912D01*
X0096849Y0241338*
X0098948*
X0099998Y0242388D02*
X0100523Y0242912D01*
X0101572*
X0102097Y0242388*
Y0241863*
X0101572Y0241338*
X0102097Y0240813*
Y0240288*
X0101572Y0239764*
X0100523*
X0099998Y0240288*
Y0240813*
X0100523Y0241338*
X0099998Y0241863*
Y0242388*
X0100523Y0241338D02*
X0101572D01*
X0113779Y0239764D02*
Y0242912D01*
X0115354*
X0115879Y0242388*
Y0241338*
X0115354Y0240813*
X0113779*
X0114829D02*
X0115879Y0239764D01*
X0118502D02*
Y0242912D01*
X0116928Y0241338*
X0119027*
X0120077Y0242912D02*
X0122176D01*
Y0242388*
X0120077Y0240288*
Y0239764*
X0116142Y0177165D02*
Y0180314D01*
X0117716*
X0118241Y0179789*
Y017874*
X0117716Y0178215*
X0116142*
X0117191D02*
X0118241Y0177165D01*
X011929Y0179789D02*
X0119815Y0180314D01*
X0120865*
X0121389Y0179789*
Y0179264*
X0120865Y017874*
X012034*
X0120865*
X0121389Y0178215*
Y017769*
X0120865Y0177165*
X0119815*
X011929Y017769*
X0124538Y0180314D02*
X0123488Y0179789D01*
X0122439Y017874*
Y017769*
X0122964Y0177165*
X0124013*
X0124538Y017769*
Y0178215*
X0124013Y017874*
X0122439*
X0093701Y0177165D02*
Y0180314D01*
X0095275*
X00958Y0179789*
Y017874*
X0095275Y0178215*
X0093701*
X009475D02*
X00958Y0177165D01*
X0096849Y0179789D02*
X0097374Y0180314D01*
X0098424*
X0098948Y0179789*
Y0179264*
X0098424Y017874*
X0097899*
X0098424*
X0098948Y0178215*
Y017769*
X0098424Y0177165*
X0097374*
X0096849Y017769*
X0102097Y0180314D02*
X0099998D01*
Y017874*
X0101048Y0179264*
X0101572*
X0102097Y017874*
Y017769*
X0101572Y0177165*
X0100523*
X0099998Y017769*
X0227323Y0093878D02*
Y0097026D01*
X0228898*
X0229422Y0096502*
Y0095452*
X0228898Y0094927*
X0227323*
X0228373D02*
X0229422Y0093878D01*
X0230472D02*
X0231521D01*
X0230997*
Y0097026*
X0230472Y0096502*
X0235195Y0097026D02*
X0233096D01*
Y0095452*
X0234145Y0095977*
X023467*
X0235195Y0095452*
Y0094403*
X023467Y0093878*
X0233621*
X0233096Y0094403*
X0274321Y0351506D02*
Y0354655D01*
X0275895*
X027642Y035413*
Y035308*
X0275895Y0352555*
X0274321*
X027537D02*
X027642Y0351506D01*
X0277469Y0352031D02*
X0277994Y0351506D01*
X0279044*
X0279569Y0352031*
Y035413*
X0279044Y0354655*
X0277994*
X0277469Y035413*
Y0353605*
X0277994Y035308*
X0279569*
X0274321Y0306506D02*
Y0309654D01*
X0275895*
X027642Y030913*
Y030808*
X0275895Y0307555*
X0274321*
X027537D02*
X027642Y0306506D01*
X0277469Y030913D02*
X0277994Y0309654D01*
X0279044*
X0279569Y030913*
Y0308605*
X0279044Y030808*
X0279569Y0307555*
Y0307031*
X0279044Y0306506*
X0277994*
X0277469Y0307031*
Y0307555*
X0277994Y030808*
X0277469Y0308605*
Y030913*
X0277994Y030808D02*
X0279044D01*
X0007919Y0235978D02*
Y0239126D01*
X0009493*
X0010018Y0238602*
Y0237552*
X0009493Y0237028*
X0007919*
X0011067Y0239126D02*
X0013167D01*
Y0238602*
X0011067Y0236503*
Y0235978*
X0003871Y0180334D02*
Y0183483D01*
X0005446*
X000597Y0182958*
Y0181908*
X0005446Y0181383*
X0003871*
X0009119Y0183483D02*
X0008069Y0182958D01*
X000702Y0181908*
Y0180859*
X0007545Y0180334*
X0008594*
X0009119Y0180859*
Y0181383*
X0008594Y0181908*
X000702*
X0301821Y0122756D02*
Y0125905D01*
X0303395*
X030392Y012538*
Y012433*
X0303395Y0123805*
X0301821*
X0306544Y0122756D02*
Y0125905D01*
X030497Y012433*
X0307068*
X0301821Y0157756D02*
Y0160905D01*
X0303395*
X030392Y016038*
Y015933*
X0303395Y0158805*
X0301821*
X030497Y016038D02*
X0305494Y0160905D01*
X0306544*
X0307068Y016038*
Y0159855*
X0306544Y015933*
X0306019*
X0306544*
X0307068Y0158805*
Y0158281*
X0306544Y0157756*
X0305494*
X030497Y0158281*
X0016821Y0351506D02*
Y0354655D01*
X0018395*
X001892Y035413*
Y035308*
X0018395Y0352555*
X0016821*
X001997Y0351506D02*
X0021019D01*
X0020494*
Y0354655*
X001997Y035413*
X0066821Y0342155D02*
Y0339006D01*
X0068395*
X006892Y0339531*
Y034163*
X0068395Y0342155*
X0066821*
X0071544Y0339006D02*
Y0342155D01*
X0069969Y034058*
X0072069*
X0066821Y0355905D02*
Y0352756D01*
X0068395*
X006892Y0353281*
Y035538*
X0068395Y0355905*
X0066821*
X0069969Y035538D02*
X0070494Y0355905D01*
X0071544*
X0072069Y035538*
Y0354855*
X0071544Y035433*
X0071019*
X0071544*
X0072069Y0353805*
Y0353281*
X0071544Y0352756*
X0070494*
X0069969Y0353281*
X0120571Y0342155D02*
Y0339006D01*
X0122145*
X012267Y0339531*
Y034163*
X0122145Y0342155*
X0120571*
X0125819Y0339006D02*
X012372D01*
X0125819Y0341105*
Y034163*
X0125294Y0342155*
X0124244*
X012372Y034163*
X0120571Y0357154D02*
Y0354006D01*
X0122145*
X012267Y0354531*
Y035663*
X0122145Y0357154*
X0120571*
X012372Y0354006D02*
X0124769D01*
X0124244*
Y0357154*
X012372Y035663*
X020017Y010038D02*
X0199645Y0100905D01*
X0198596*
X0198071Y010038*
Y0098281*
X0198596Y0097756*
X0199645*
X020017Y0098281*
X0203319Y0100905D02*
X0202269Y010038D01*
X020122Y009933*
Y0098281*
X0201744Y0097756*
X0202794*
X0203319Y0098281*
Y0098805*
X0202794Y009933*
X020122*
X0204368Y0097756D02*
X0205418D01*
X0204893*
Y0100905*
X0204368Y010038*
X017392D02*
X0173395Y0100905D01*
X0172346*
X0171821Y010038*
Y0098281*
X0172346Y0097756*
X0173395*
X017392Y0098281*
X0177068Y0100905D02*
X0176019Y010038D01*
X0174969Y009933*
Y0098281*
X0175494Y0097756*
X0176544*
X0177068Y0098281*
Y0098805*
X0176544Y009933*
X0174969*
X0178118Y010038D02*
X0178643Y0100905D01*
X0179692*
X0180217Y010038*
Y0098281*
X0179692Y0097756*
X0178643*
X0178118Y0098281*
Y010038*
X0256292Y0078273D02*
X0255767Y0078798D01*
X0254718*
X0254193Y0078273*
Y0076174*
X0254718Y007565*
X0255767*
X0256292Y0076174*
X025944Y0078798D02*
X0257342D01*
Y0077224*
X0258391Y0077749*
X0258916*
X025944Y0077224*
Y0076174*
X0258916Y007565*
X0257866*
X0257342Y0076174*
X026049D02*
X0261015Y007565D01*
X0262064*
X0262589Y0076174*
Y0078273*
X0262064Y0078798*
X0261015*
X026049Y0078273*
Y0077749*
X0261015Y0077224*
X0262589*
X0241922Y0078293D02*
X0241397Y0078818D01*
X0240348*
X0239823Y0078293*
Y0076194*
X0240348Y0075669*
X0241397*
X0241922Y0076194*
X0245071Y0078818D02*
X0242971D01*
Y0077244*
X0244021Y0077768*
X0244546*
X0245071Y0077244*
Y0076194*
X0244546Y0075669*
X0243496*
X0242971Y0076194*
X024612Y0078293D02*
X0246645Y0078818D01*
X0247694*
X0248219Y0078293*
Y0077768*
X0247694Y0077244*
X0248219Y0076719*
Y0076194*
X0247694Y0075669*
X0246645*
X024612Y0076194*
Y0076719*
X0246645Y0077244*
X024612Y0077768*
Y0078293*
X0246645Y0077244D02*
X0247694D01*
X0293044Y0247112D02*
X0292519Y0247637D01*
X029147*
X0290945Y0247112*
Y0245013*
X029147Y0244488*
X0292519*
X0293044Y0245013*
X0296193Y0247637D02*
X0294093D01*
Y0246062*
X0295143Y0246587*
X0295668*
X0296193Y0246062*
Y0245013*
X0295668Y0244488*
X0294618*
X0294093Y0245013*
X0299341Y0247637D02*
X0298292Y0247112D01*
X0297242Y0246062*
Y0245013*
X0297767Y0244488*
X0298816*
X0299341Y0245013*
Y0245538*
X0298816Y0246062*
X0297242*
X0228083Y0247112D02*
X0227559Y0247637D01*
X0226509*
X0225984Y0247112*
Y0245013*
X0226509Y0244488*
X0227559*
X0228083Y0245013*
X0231232Y0247637D02*
X0229133D01*
Y0246062*
X0230182Y0246587*
X0230707*
X0231232Y0246062*
Y0245013*
X0230707Y0244488*
X0229658*
X0229133Y0245013*
X0234381Y0247637D02*
X0232281D01*
Y0246062*
X0233331Y0246587*
X0233856*
X0234381Y0246062*
Y0245013*
X0233856Y0244488*
X0232806*
X0232281Y0245013*
X0293044Y0177427D02*
X0292519Y0177952D01*
X029147*
X0290945Y0177427*
Y0175328*
X029147Y0174803*
X0292519*
X0293044Y0175328*
X0296193Y0177952D02*
X0294093D01*
Y0176377*
X0295143Y0176902*
X0295668*
X0296193Y0176377*
Y0175328*
X0295668Y0174803*
X0294618*
X0294093Y0175328*
X0297242Y0177427D02*
X0297767Y0177952D01*
X0298816*
X0299341Y0177427*
Y0176902*
X0298816Y0176377*
X0298292*
X0298816*
X0299341Y0175853*
Y0175328*
X0298816Y0174803*
X0297767*
X0297242Y0175328*
X0233989Y0178096D02*
X0233464Y0178621D01*
X0232415*
X023189Y0178096*
Y0175997*
X0232415Y0175472*
X0233464*
X0233989Y0175997*
X0237137Y0178621D02*
X0235038D01*
Y0177047*
X0236088Y0177572*
X0236613*
X0237137Y0177047*
Y0175997*
X0236613Y0175472*
X0235563*
X0235038Y0175997*
X0240286Y0175472D02*
X0238187D01*
X0240286Y0177572*
Y0178096*
X0239761Y0178621*
X0238712*
X0238187Y0178096*
X015267Y0100655D02*
X0152145Y010118D01*
X0151096*
X0150571Y0100655*
Y0098556*
X0151096Y0098032*
X0152145*
X015267Y0098556*
X0155294Y0098032D02*
Y010118D01*
X0153719Y0099606*
X0155818*
X0156868Y010118D02*
X0158967D01*
Y0100655*
X0156868Y0098556*
Y0098032*
X012642Y010038D02*
X0125895Y0100905D01*
X0124846*
X0124321Y010038*
Y0098281*
X0124846Y0097756*
X0125895*
X012642Y0098281*
X0129044Y0097756D02*
Y0100905D01*
X012747Y009933*
X0129569*
X0132717Y0100905D02*
X0131668Y010038D01*
X0130618Y009933*
Y0098281*
X0131143Y0097756*
X0132192*
X0132717Y0098281*
Y0098805*
X0132192Y009933*
X0130618*
X01583Y007788D02*
X0157775Y0078405D01*
X0156726*
X0156201Y007788*
Y0075781*
X0156726Y0075256*
X0157775*
X01583Y0075781*
X0160924Y0075256D02*
Y0078405D01*
X0159349Y007683*
X0161449*
X0164597Y0078405D02*
X0162498D01*
Y007683*
X0163548Y0077355*
X0164072*
X0164597Y007683*
Y0075781*
X0164072Y0075256*
X0163023*
X0162498Y0075781*
X0148831Y0077565D02*
X0148307Y007809D01*
X0147257*
X0146732Y0077565*
Y0075466*
X0147257Y0074941*
X0148307*
X0148831Y0075466*
X0151455Y0074941D02*
Y007809D01*
X0149881Y0076515*
X015198*
X0154604Y0074941D02*
Y007809D01*
X0153029Y0076515*
X0155129*
X0216272Y0247112D02*
X0215747Y0247637D01*
X0214698*
X0214173Y0247112*
Y0245013*
X0214698Y0244488*
X0215747*
X0216272Y0245013*
X0218896Y0244488D02*
Y0247637D01*
X0217322Y0246062*
X0219421*
X0222569Y0244488D02*
X022047D01*
X0222569Y0246587*
Y0247112*
X0222045Y0247637*
X0220995*
X022047Y0247112*
X015017Y024788D02*
X0149645Y0248405D01*
X0148596*
X0148071Y024788*
Y0245781*
X0148596Y0245256*
X0149645*
X015017Y0245781*
X0152794Y0245256D02*
Y0248405D01*
X0151219Y024683*
X0153319*
X0154368Y0245256D02*
X0155418D01*
X0154893*
Y0248405*
X0154368Y024788*
X0216272Y0177427D02*
X0215747Y0177952D01*
X0214698*
X0214173Y0177427*
Y0175328*
X0214698Y0174803*
X0215747*
X0216272Y0175328*
X0217322Y0177427D02*
X0217847Y0177952D01*
X0218896*
X0219421Y0177427*
Y0176902*
X0218896Y0176377*
X0218371*
X0218896*
X0219421Y0175853*
Y0175328*
X0218896Y0174803*
X0217847*
X0217322Y0175328*
X022047Y0177427D02*
X0220995Y0177952D01*
X0222045*
X0222569Y0177427*
Y0176902*
X0222045Y0176377*
X0222569Y0175853*
Y0175328*
X0222045Y0174803*
X0220995*
X022047Y0175328*
Y0175853*
X0220995Y0176377*
X022047Y0176902*
Y0177427*
X0220995Y0176377D02*
X0222045D01*
X015017Y017788D02*
X0149645Y0178404D01*
X0148596*
X0148071Y017788*
Y0175781*
X0148596Y0175256*
X0149645*
X015017Y0175781*
X0151219Y017788D02*
X0151744Y0178404D01*
X0152794*
X0153319Y017788*
Y0177355*
X0152794Y017683*
X0152269*
X0152794*
X0153319Y0176305*
Y0175781*
X0152794Y0175256*
X0151744*
X0151219Y0175781*
X0154368Y0178404D02*
X0156467D01*
Y017788*
X0154368Y0175781*
Y0175256*
X0105249Y0100655D02*
X0104724Y010118D01*
X0103674*
X010315Y0100655*
Y0098556*
X0103674Y0098032*
X0104724*
X0105249Y0098556*
X0106298Y0100655D02*
X0106823Y010118D01*
X0107872*
X0108397Y0100655*
Y0100131*
X0107872Y0099606*
X0107348*
X0107872*
X0108397Y0099081*
Y0098556*
X0107872Y0098032*
X0106823*
X0106298Y0098556*
X0111546Y010118D02*
X0109447D01*
Y0099606*
X0110496Y0100131*
X0111021*
X0111546Y0099606*
Y0098556*
X0111021Y0098032*
X0109972*
X0109447Y0098556*
X0079264Y0100655D02*
X007874Y010118D01*
X007769*
X0077165Y0100655*
Y0098556*
X007769Y0098032*
X007874*
X0079264Y0098556*
X0080314Y0100655D02*
X0080839Y010118D01*
X0081888*
X0082413Y0100655*
Y0100131*
X0081888Y0099606*
X0081363*
X0081888*
X0082413Y0099081*
Y0098556*
X0081888Y0098032*
X0080839*
X0080314Y0098556*
X0085037Y0098032D02*
Y010118D01*
X0083463Y0099606*
X0085562*
X006517Y007788D02*
X0064645Y0078404D01*
X0063596*
X0063071Y007788*
Y0075781*
X0063596Y0075256*
X0064645*
X006517Y0075781*
X006622Y007788D02*
X0066744Y0078404D01*
X0067794*
X0068318Y007788*
Y0077355*
X0067794Y007683*
X0067269*
X0067794*
X0068318Y0076305*
Y0075781*
X0067794Y0075256*
X0066744*
X006622Y0075781*
X0069368Y007788D02*
X0069893Y0078404D01*
X0070942*
X0071467Y007788*
Y0077355*
X0070942Y007683*
X0070418*
X0070942*
X0071467Y0076305*
Y0075781*
X0070942Y0075256*
X0069893*
X0069368Y0075781*
X005267Y007788D02*
X0052145Y0078404D01*
X0051096*
X0050571Y007788*
Y0075781*
X0051096Y0075256*
X0052145*
X005267Y0075781*
X005372Y007788D02*
X0054244Y0078404D01*
X0055294*
X0055818Y007788*
Y0077355*
X0055294Y007683*
X0054769*
X0055294*
X0055818Y0076305*
Y0075781*
X0055294Y0075256*
X0054244*
X005372Y0075781*
X0058967Y0075256D02*
X0056868D01*
X0058967Y0077355*
Y007788*
X0058442Y0078404*
X0057393*
X0056868Y007788*
X013767Y024788D02*
X0137145Y0248405D01*
X0136096*
X0135571Y024788*
Y0245781*
X0136096Y0245256*
X0137145*
X013767Y0245781*
X0138719Y024788D02*
X0139244Y0248405D01*
X0140294*
X0140819Y024788*
Y0247355*
X0140294Y024683*
X0139769*
X0140294*
X0140819Y0246305*
Y0245781*
X0140294Y0245256*
X0139244*
X0138719Y0245781*
X0141868Y024788D02*
X0142393Y0248405D01*
X0143442*
X0143967Y024788*
Y0245781*
X0143442Y0245256*
X0142393*
X0141868Y0245781*
Y024788*
X007267D02*
X0072145Y0248405D01*
X0071096*
X0070571Y024788*
Y0245781*
X0071096Y0245256*
X0072145*
X007267Y0245781*
X0075819Y0245256D02*
X007372D01*
X0075819Y0247355*
Y024788*
X0075294Y0248405*
X0074244*
X007372Y024788*
X0076868Y0245781D02*
X0077393Y0245256D01*
X0078442*
X0078967Y0245781*
Y024788*
X0078442Y0248405*
X0077393*
X0076868Y024788*
Y0247355*
X0077393Y024683*
X0078967*
X013767Y017788D02*
X0137145Y0178404D01*
X0136096*
X0135571Y017788*
Y0175781*
X0136096Y0175256*
X0137145*
X013767Y0175781*
X0140819Y0175256D02*
X0138719D01*
X0140819Y0177355*
Y017788*
X0140294Y0178404*
X0139244*
X0138719Y017788*
X0141868Y0178404D02*
X0143967D01*
Y017788*
X0141868Y0175781*
Y0175256*
X007267Y017788D02*
X0072145Y0178404D01*
X0071096*
X0070571Y017788*
Y0175781*
X0071096Y0175256*
X0072145*
X007267Y0175781*
X0075819Y0175256D02*
X007372D01*
X0075819Y0177355*
Y017788*
X0075294Y0178404*
X0074244*
X007372Y017788*
X0078967Y0178404D02*
X0077918Y017788D01*
X0076868Y017683*
Y0175781*
X0077393Y0175256*
X0078442*
X0078967Y0175781*
Y0176305*
X0078442Y017683*
X0076868*
X032017Y033663D02*
X0319645Y0337155D01*
X0318596*
X0318071Y033663*
Y0334531*
X0318596Y0334006*
X0319645*
X032017Y0334531*
X0323319Y0334006D02*
X0321219D01*
X0323319Y0336105*
Y033663*
X0322794Y0337155*
X0321744*
X0321219Y033663*
X0326467Y0334006D02*
X0324368D01*
X0326467Y0336105*
Y033663*
X0325942Y0337155*
X0324893*
X0324368Y033663*
X024892Y034663D02*
X0248395Y0347154D01*
X0247346*
X0246821Y034663*
Y0344531*
X0247346Y0344006*
X0248395*
X024892Y0344531*
X0252068Y0344006D02*
X024997D01*
X0252068Y0346105*
Y034663*
X0251544Y0347154*
X0250494*
X024997Y034663*
X0253118Y0344006D02*
X0254168D01*
X0253643*
Y0347154*
X0253118Y034663*
X032517Y030163D02*
X0324645Y0302154D01*
X0323596*
X0323071Y030163*
Y0299531*
X0323596Y0299006*
X0324645*
X032517Y0299531*
X032622Y0299006D02*
X0327269D01*
X0326744*
Y0302154*
X032622Y030163*
X0328843Y0302154D02*
X0330942D01*
Y030163*
X0328843Y0299531*
Y0299006*
X026547Y0273587D02*
X0265995Y0273062D01*
X0267044*
X0267569Y0273587*
Y0275686*
X0267044Y027621*
X0265995*
X026547Y0275686*
X026442Y027621D02*
X0263371D01*
X0263896*
Y0273062*
X026442Y0273587*
X0259697Y0273062D02*
X0260747Y0273587D01*
X0261796Y0274636*
Y0275686*
X0261272Y027621*
X0260222*
X0259697Y0275686*
Y0275161*
X0260222Y0274636*
X0261796*
X017767Y029288D02*
X0177145Y0293405D01*
X0176096*
X0175571Y029288*
Y0290781*
X0176096Y0290256*
X0177145*
X017767Y0290781*
X0178719Y0290256D02*
X0179769D01*
X0179244*
Y0293405*
X0178719Y029288*
X0181343D02*
X0181868Y0293405D01*
X0182918*
X0183442Y029288*
Y0290781*
X0182918Y0290256*
X0181868*
X0181343Y0290781*
Y029288*
X0180318Y0350302D02*
X0179793Y0350827D01*
X0178744*
X0178219Y0350302*
Y0348203*
X0178744Y0347678*
X0179793*
X0180318Y0348203*
X0181368D02*
X0181892Y0347678D01*
X0182942*
X0183467Y0348203*
Y0350302*
X0182942Y0350827*
X0181892*
X0181368Y0350302*
Y0349777*
X0181892Y0349252*
X0183467*
X014017Y031288D02*
X0139645Y0313404D01*
X0138596*
X0138071Y031288*
Y0310781*
X0138596Y0310256*
X0139645*
X014017Y0310781*
X0143318Y0313404D02*
X0141219D01*
Y031183*
X0142269Y0312355*
X0142794*
X0143318Y031183*
Y0310781*
X0142794Y0310256*
X0141744*
X0141219Y0310781*
X017517Y031413D02*
X0174645Y0314654D01*
X0173596*
X0173071Y031413*
Y0312031*
X0173596Y0311506*
X0174645*
X017517Y0312031*
X0176219Y0311506D02*
X0177269D01*
X0176744*
Y0314654*
X0176219Y031413*
G54D17*
X0541732Y0257362D02*
X0543701D01*
X0536417D02*
X0538386D01*
X0543701Y025372D02*
Y0257362D01*
X0536417Y025372D02*
Y0257362D01*
G54D18*
X0227323Y0119665D02*
X0262323D01*
Y0099664D02*
Y0119665D01*
X0227323Y0099664D02*
X0262323D01*
X0227323D02*
Y0119665D01*
X0293819Y0313878D02*
Y0348878D01*
X0273819Y0313878D02*
X0293819D01*
X0273819D02*
Y0348878D01*
X0293819*
Y0268878D02*
Y0303878D01*
X0273819Y0268878D02*
X0293819D01*
X0273819D02*
Y0303878D01*
X0293819*
X0154819Y0282835D02*
X0160819D01*
X0157819Y0279677D02*
Y0285677D01*
X0127819Y0333878D02*
X0130819D01*
X0156819D02*
X0159819D01*
X0135819Y0328878D02*
Y0338878D01*
X0130819Y0328878D02*
X0156819D01*
X0130819D02*
Y0338878D01*
X0156819*
Y0328878D02*
Y0338878D01*
Y0348878D02*
X0159819D01*
X0127819D02*
X0130819D01*
X0151819Y0343878D02*
Y0353878D01*
X0130819D02*
X0156819D01*
Y0343878D02*
Y0353878D01*
X0130819Y0343878D02*
X0156819D01*
X0130819D02*
Y0353878D01*
X0077819Y0348878D02*
X0080819D01*
X0106819D02*
X0109819D01*
X0085819Y0343878D02*
Y0353878D01*
X0080819Y0343878D02*
X0106819D01*
X0080819D02*
Y0353878D01*
X0106819*
Y0343878D02*
Y0353878D01*
Y0333878D02*
X0109819D01*
X0077819D02*
X0080819D01*
X0101819Y0328878D02*
Y0338878D01*
X0080819D02*
X0106819D01*
Y0328878D02*
Y0338878D01*
X0080819Y0328878D02*
X0106819D01*
X0080819D02*
Y0338878D01*
X0034819Y0277835D02*
X0040819D01*
X0037819Y0274677D02*
Y0280677D01*
X0551319Y0048878D02*
X0571319D01*
Y0248878*
X0551319D02*
X0571319D01*
X0551319Y0048878D02*
Y0248878D01*
X0561319Y0048878D02*
Y0058878D01*
X0571319*
G54D19*
X0538072Y0249478D02*
X0538081Y0249468D01*
X0538091Y0249478*
X0538081Y0249487*
X0538072Y0249478*
M02*