%FSTAX25Y25*%
%MOIN*%
%SFA1B1*%

%IPPOS*%
%AMD15*
4,1,8,0.018800,-0.006600,0.018800,0.006600,0.012500,0.012900,-0.012500,0.012900,-0.018800,0.006600,-0.018800,-0.006600,-0.012500,-0.012900,0.012500,-0.012900,0.018800,-0.006600,0.0*
1,1,0.012440,0.012500,-0.006600*
1,1,0.012440,0.012500,0.006600*
1,1,0.012440,-0.012500,0.006600*
1,1,0.012440,-0.012500,-0.006600*
%
%ADD10R,0.059180X0.043430*%
%ADD11R,0.027690X0.023750*%
%ADD12R,0.043430X0.059180*%
%ADD13R,0.055240X0.035560*%
%ADD14R,0.023750X0.027690*%
G04~CAMADD=15~8~0.0~0.0~257.2~375.3~62.2~0.0~15~0.0~0.0~0.0~0.0~0~0.0~0.0~0.0~0.0~0~0.0~0.0~0.0~270.0~376.0~258.0*
%ADD15D15*%
%ADD16C,0.070990*%
%ADD17C,0.078870*%
%ADD18O,0.078870X0.074930*%
%ADD19R,0.078870X0.074930*%
%ADD20C,0.074930*%
%ADD21C,0.126110*%
%ADD22R,0.063120X0.078870*%
%ADD23O,0.063120X0.078870*%
%ADD24O,0.067060X0.078870*%
%ADD25R,0.126110X0.126110*%
%ADD26C,0.082800*%
%ADD27C,0.068000*%
%ADD28R,0.070990X0.070990*%
%ADD29O,0.074930X0.070990*%
%ADD30O,0.086740X0.082800*%
%ADD31O,0.078870X0.063120*%
%ADD32R,0.078870X0.063120*%
%ADD33R,0.078870X0.078870*%
%ADD34R,0.078870X0.078870*%
%ADD35C,0.086740*%
%ADD36R,0.086740X0.086740*%
%ADD37C,0.067060*%
%ADD38R,0.067060X0.067060*%
%ADD39R,0.078870X0.063120*%
%ADD40O,0.078870X0.063120*%
%ADD41C,0.145800*%
%ADD42R,0.086740X0.063120*%
%ADD43O,0.086740X0.063120*%
%ADD44C,0.035560*%
%LNdigitalizador_rpi-1*%
%LPD*%
G54D10*
X0240571Y0213819D03*
Y0221693D03*
Y0198819D03*
Y0206693D03*
X0285571Y0198819D03*
Y0206693D03*
Y0221693D03*
Y0213819D03*
X0163071Y0198819D03*
Y0206693D03*
Y0213819D03*
Y0221693D03*
X0208071Y0198819D03*
Y0206693D03*
Y0221693D03*
Y0213819D03*
X0130571Y0198819D03*
Y0206693D03*
Y0221693D03*
Y0213819D03*
X0085571Y0198819D03*
Y0206693D03*
Y0213819D03*
Y0221693D03*
X0478819Y0069941D03*
Y0077815D03*
X0480571Y0113819D03*
Y0121693D03*
X0361319Y0134941D03*
Y0142815D03*
X0338819Y0179252D03*
Y0171378D03*
X0371319Y0177441D03*
Y0185315D03*
X0438819Y0237776D03*
Y0229902D03*
X0471319Y0192441D03*
Y0200315D03*
X0481319Y0201004D03*
Y0208878D03*
Y0187441D03*
Y0195315D03*
X0506319Y0192441D03*
Y0200315D03*
X0541319Y0211752D03*
Y0203878D03*
Y0231752D03*
Y0223878D03*
X0498819Y0252815D03*
Y0244941D03*
X0488819Y0252815D03*
Y0244941D03*
X0313819Y0295315D03*
Y0287441D03*
X0438819Y0244941D03*
Y0252815D03*
G54D11*
X0566319Y0038878D03*
X0563563D03*
X0566319Y0043878D03*
X0563563D03*
X0553563Y0038878D03*
X0556319D03*
X0553563Y0043878D03*
X0556319D03*
X0461949Y0130256D03*
X0459193D03*
X0446693D03*
X0449449D03*
X0333071Y0232756D03*
X0330315D03*
X0333071Y0227756D03*
X0330315D03*
X0414449Y0210256D03*
X0411693D03*
X0250571Y0315256D03*
X0253327D03*
X0435571Y0167756D03*
X0432815D03*
G54D12*
X0528386Y0130571D03*
X053626D03*
X0463445Y0083878D03*
X0471319D03*
X0344882Y0128878D03*
X0352756D03*
X0457382Y0206378D03*
X0465256D03*
X0492382D03*
X0500256D03*
X0327848Y0341378D03*
X0319974D03*
X0388819Y0231378D03*
X0396693D03*
X0365256Y0171378D03*
X0357382D03*
X0192756Y0113878D03*
X0184882D03*
Y0123878D03*
X0192756D03*
Y0133878D03*
X0184882D03*
Y0143878D03*
X0192756D03*
X0145256Y0113878D03*
X0137382D03*
Y0123878D03*
X0145256D03*
Y0133878D03*
X0137382D03*
Y0143878D03*
X0145256D03*
X0097756Y0113878D03*
X0089882D03*
Y0123878D03*
X0097756D03*
Y0133878D03*
X0089882D03*
Y0143878D03*
X0097756D03*
G54D13*
X0535295Y0122854D03*
Y0115374D03*
X0528208Y0119114D03*
G54D14*
X0483819Y0100256D03*
Y00975D03*
X0518819Y0246378D03*
Y0249134D03*
X0336319Y0286634D03*
Y0283878D03*
X0170571Y0285D03*
Y0287756D03*
Y0297756D03*
Y0295D03*
X0336319Y0322756D03*
Y032D03*
X0063819Y0295256D03*
Y02925D03*
X0263071Y0235256D03*
Y02325D03*
Y0185256D03*
Y0188012D03*
X0185571Y0235256D03*
Y02325D03*
Y0185256D03*
Y0188012D03*
X0108071Y0235256D03*
Y02325D03*
Y0185256D03*
Y0188012D03*
X0259823Y0141042D03*
Y0138286D03*
X0229823D03*
Y0141042D03*
X0011319Y0196122D03*
Y0198878D03*
Y0216122D03*
Y0218878D03*
G54D15*
X034561Y0139409D03*
X0351319Y0137441D03*
Y0141378D03*
X035811Y0180847D03*
X0363819Y0178878D03*
Y0182815D03*
X045811Y0196909D03*
X0463819Y0194941D03*
Y0198878D03*
X049311Y0196909D03*
X0498819Y0194941D03*
Y0198878D03*
X0469173Y0075846D03*
Y0071909D03*
X0463464Y0073878D03*
G54D16*
X0295571Y0217756D03*
Y0237756D03*
X0230571Y0217756D03*
Y0237756D03*
X0218071Y0217756D03*
Y0237756D03*
X0153071Y0217756D03*
Y0237756D03*
X0140571Y0217756D03*
Y0237756D03*
X0075571Y0217756D03*
Y0237756D03*
X0295571Y0205256D03*
Y0185256D03*
X0230571D03*
Y0205256D03*
X0218071D03*
Y0185256D03*
X0153071D03*
Y0205256D03*
X0140571D03*
Y0185256D03*
X0075571D03*
Y0205256D03*
X0328819Y0281378D03*
Y0316378D03*
X0188819Y0273878D03*
X0258071Y0283839D03*
X0258819Y0326378D03*
X0188819Y0308878D03*
Y0328878D03*
G54D17*
X0234823Y0114664D03*
X0254823D03*
X0244823D03*
X0491732Y0113878D03*
Y0103878D03*
Y0093878D03*
Y0083878D03*
Y0073878D03*
Y0063878D03*
Y0053878D03*
Y0043878D03*
Y0033878D03*
X0288819Y0341378D03*
Y0321378D03*
Y0331378D03*
Y0296378D03*
Y0276378D03*
Y0286378D03*
X0148819Y0298976D03*
X0123819Y0333878D03*
X0163819Y0348878D03*
X0073819D03*
X0113819Y0333878D03*
X0028819Y0293976D03*
G54D18*
X0293819Y0136378D03*
Y0146378D03*
Y0101378D03*
Y0111378D03*
X0021319Y0331378D03*
X0516319Y0121378D03*
Y0131378D03*
X0528819Y0323878D03*
Y0333878D03*
Y0343878D03*
X0328819Y0128878D03*
Y0118878D03*
X0486319Y0323878D03*
Y0333878D03*
Y0343878D03*
X0021319Y0167756D03*
Y0157756D03*
Y0147756D03*
Y0137756D03*
Y0127756D03*
Y0213878D03*
Y0203878D03*
Y0193878D03*
G54D19*
X0293819Y0156378D03*
Y0121378D03*
X0021319Y0341378D03*
X0516319Y0111378D03*
X0528819Y0313878D03*
X0328819Y0138878D03*
X0486319Y0313878D03*
X0021319Y0117756D03*
Y0223878D03*
G54D20*
X0444921Y0143878D03*
X0463819D03*
G54D21*
X0376732Y0113878D03*
Y0033878D03*
G54D22*
X0328819Y0158878D03*
X0518819Y0263878D03*
X0259823Y0154665D03*
G54D23*
X0338819Y0158878D03*
X0348819D03*
X0358819D03*
X0368819D03*
X0378819D03*
X0388819D03*
X0398819D03*
X0408819D03*
X0418819D03*
X0428819D03*
X0438819D03*
X0448819D03*
X0458819D03*
X0468819D03*
X0478819D03*
X0488819D03*
X0498819D03*
X0508819D03*
X0518819D03*
X0328819Y0218878D03*
X0338819D03*
X0348819D03*
X0358819D03*
X0368819D03*
X0378819D03*
X0388819D03*
X0398819D03*
X0408819D03*
X0418819D03*
X0428819D03*
X0438819D03*
X0448819D03*
X0458819D03*
X0468819D03*
X0478819D03*
X0488819D03*
X0498819D03*
X0508819D03*
X0518819D03*
X0488819Y0233878D03*
X0498819D03*
X0508819D03*
X0518819D03*
X0488819Y0263878D03*
X0498819D03*
X0508819D03*
X0229823Y0124664D03*
X0239823D03*
X0249823D03*
X0259823D03*
X0229823Y0154665D03*
X0239823D03*
X0249823D03*
G54D24*
X0508819Y0276378D03*
X0517569D03*
G54D25*
X0425072Y0269311D03*
G54D26*
X0387277Y0269311D03*
G54D27*
X0387277Y0287815D03*
X0371135Y0260256D03*
X0403419D03*
G54D28*
X0328819Y0291378D03*
Y0326378D03*
X0188819Y0283878D03*
X0258071Y0293839D03*
X0258819Y0336378D03*
X0188819Y0298878D03*
Y0338878D03*
G54D29*
X0303819Y0286378D03*
Y0296378D03*
Y0276378D03*
G54D30*
X0303819Y0321378D03*
Y0331378D03*
Y0341378D03*
G54D31*
X0238819Y0318878D03*
Y0328878D03*
Y0338878D03*
Y0348878D03*
X0208819Y0318878D03*
Y0328878D03*
Y0338878D03*
X0238819Y0273878D03*
Y0283878D03*
Y0293878D03*
Y0303878D03*
X0208819Y0273878D03*
Y0283878D03*
Y0293878D03*
X0078819Y0133878D03*
Y0123878D03*
Y0113878D03*
X0108819Y0143878D03*
Y0133878D03*
Y0123878D03*
Y0113878D03*
X0126319Y0133878D03*
Y0123878D03*
Y0113878D03*
X0156319Y0143878D03*
Y0133878D03*
Y0123878D03*
Y0113878D03*
X0173819Y0133878D03*
Y0123878D03*
Y0113878D03*
X0203819Y0143878D03*
Y0133878D03*
Y0123878D03*
Y0113878D03*
G54D32*
X0208819Y0348878D03*
Y0303878D03*
X0078819Y0143878D03*
X0126319D03*
X0173819D03*
G54D33*
X0148819Y0286378D03*
X0028819Y0281378D03*
G54D34*
X0163819Y0333878D03*
X0123819Y0348878D03*
X0113819D03*
X0073819Y0333878D03*
G54D35*
X0123819Y0311378D03*
X0063819D03*
X0123819Y0276378D03*
G54D36*
X0063819Y0276378D03*
G54D37*
X0451319Y0308878D03*
Y0318878D03*
Y0328878D03*
Y0338878D03*
G54D38*
X0451319Y0348878D03*
G54D39*
X0521319Y0026378D03*
X0566319Y0276378D03*
G54D40*
X0521319Y0036378D03*
Y0046378D03*
Y0056378D03*
Y0066378D03*
Y0076378D03*
X0566319Y0286378D03*
Y0296378D03*
Y0306378D03*
Y0316378D03*
Y0326378D03*
G54D41*
X0011811Y0011811D03*
Y0362205D03*
X0566929Y0011811D03*
Y0362205D03*
G54D42*
X0566319Y0053878D03*
G54D43*
X0556319Y0053878D03*
X0566319Y0063878D03*
X0556319D03*
X0566319Y0073878D03*
X0556319D03*
X0566319Y0083878D03*
X0556319D03*
X0566319Y0093878D03*
X0556319D03*
X0566319Y0103878D03*
X0556319D03*
X0566319Y0113878D03*
X0556319D03*
X0566319Y0123878D03*
X0556319D03*
X0566319Y0133878D03*
X0556319D03*
X0566319Y0143878D03*
X0556319D03*
X0566319Y0153878D03*
X0556319D03*
X0566319Y0163878D03*
X0556319D03*
X0566319Y0173878D03*
X0556319D03*
X0566319Y0183878D03*
X0556319D03*
X0566319Y0193878D03*
X0556319D03*
X0566319Y0203878D03*
X0556319D03*
X0566319Y0213878D03*
X0556319D03*
X0566319Y0223878D03*
X0556319D03*
X0566319Y0233878D03*
X0556319D03*
X0566319Y0243878D03*
X0556319D03*
G54D44*
X0395571Y0185256D03*
X0320571Y0177756D03*
X0338071Y0147756D03*
X0333071Y0107756D03*
X0538071Y0062756D03*
X0528071Y0087756D03*
X0460571Y0185256D03*
X0443071Y0195256D03*
X0478071Y0237756D03*
X0465571D03*
X0313071Y0325256D03*
X0388071Y0242756D03*
X0033071Y0352756D03*
X0315571Y0080256D03*
X0370571Y0130256D03*
Y0140256D03*
X0548071Y0265256D03*
X0065571Y0145256D03*
X0133071Y0152756D03*
X0155571Y0155256D03*
X0303071Y0130256D03*
X0110571Y0172756D03*
X0175571Y0167756D03*
X0043071Y0020256D03*
X0080571D03*
X0135571D03*
X0165571Y0022756D03*
X0173071D03*
X0230571Y0020256D03*
X0268071Y0022756D03*
X0303071Y0002756D03*
X0270571Y0080256D03*
X0303071Y0105256D03*
X0283071Y0122756D03*
X0050571Y0185256D03*
X0030571Y0010256D03*
X0063071Y0052756D03*
X0158071D03*
X0253071D03*
X0265571Y0107756D03*
X0285571Y0165256D03*
X0320571Y0215256D03*
X0353071Y0210256D03*
X0363071D03*
X0373071D03*
X0333071Y0252756D03*
X0248071Y0165256D03*
X0208071Y0160256D03*
X0038071Y0090256D03*
X0050571Y0250256D03*
X0420471Y0303543D03*
X053307Y0238582D03*
X0533071Y0281102D03*
X0532323Y0108661D03*
X0011811Y0093307D03*
X0263071Y0192786D03*
X0158661Y0098032D03*
X0159292Y0081889D03*
X0176654Y0100256D03*
X0166929Y0093307D03*
X0057087Y0067775D03*
X005626Y0037795D03*
X0151949Y0068287D03*
X0149528Y0038976D03*
X0138071Y0103681D03*
Y0095669D03*
X0267165Y0169961D03*
Y015D03*
X0229527Y0177165D03*
X0234291Y0138189D03*
X0254882Y0140925D03*
X0244528Y0038583D03*
X0254331Y0063642D03*
X031811D03*
X0438819Y0116575D03*
X0485079Y0127559D03*
X0495669Y0122835D03*
X0528208Y0144095D03*
X0422919Y0244941D03*
X0525984Y0175984D03*
X0434882Y0198583D03*
Y0183071D03*
X044685Y0183405D03*
X0446791Y0167756D03*
X0357087Y0122835D03*
X0360964Y0129567D03*
X037061Y0171378D03*
X0529528Y0171912D03*
X0430419Y0288189D03*
X0429321Y0198583D03*
X0470472Y0206378D03*
X0511419Y0201004D03*
X0475197Y0202382D03*
X0376732Y0185433D03*
X0424409Y0131535D03*
X0540305Y0164025D03*
X0360964Y0147756D03*
X0484803Y007752D03*
X0348071Y0102756D03*
X0323819Y0092027D03*
X0348071Y0098032D03*
X0333819Y0093307D03*
X0092165Y0152578D03*
X0214173Y0099212D03*
X0205906D03*
X0281496Y0228329D03*
X0107087Y0092126D03*
X0119685D03*
X0106752Y0152578D03*
X0137382Y017126D03*
Y016063D03*
X0264016Y0069941D03*
X0263819Y0092126D03*
X0169035Y0069941D03*
X015549Y0092126D03*
X0073819Y0072047D03*
X0070571Y0092126D03*
X0207087Y0081496D03*
X0105384D03*
X0200256D03*
X0243701Y0088583D03*
X0149528D03*
X0240158Y0191604D03*
X0163071Y0191339D03*
X0085571Y0192441D03*
X0244193Y0076772D03*
X0149193Y0076378D03*
X0295256Y0018898D03*
X0207382Y0019026D03*
X0200256D03*
X0112382Y0018898D03*
X0105512D03*
X0158661Y0012992D03*
X0150709Y0009843D03*
X0254193Y0012992D03*
X024685Y0009843D03*
X0105512Y0003543D03*
X0237795Y0030118D03*
X0249055Y0037795D03*
X0237795Y0007087D03*
X0143657Y0030547D03*
X0154252Y0038287D03*
X0143819Y0007087D03*
X0159291Y0035433D03*
X0254291Y0034331D03*
X0126358Y0227756D03*
X0135453D03*
X0204725Y0228329D03*
X0238977D03*
X0285571Y0194137D03*
X0268071Y0212421D03*
X025807Y0208642D03*
X0249134Y0240945D03*
X0263071Y0227953D03*
X0190787Y0212579D03*
X0113071Y0212598D03*
X0108071Y0227953D03*
X0130571Y019252D03*
X0102976Y0208878D03*
X010813Y0192756D03*
X0185571Y0227953D03*
X0208071Y0194137D03*
X0185571Y0192786D03*
X0180571Y0208878D03*
X017126Y0243307D03*
X0094134D03*
X0089527Y0252756D03*
X0165748Y0256299D03*
X0471437Y0106299D03*
X0475197Y0187441D03*
X050561Y0206378D03*
X0243701Y0259842D03*
M02*