%FSTAX25Y25*%
%MOIN*%
%SFA1B1*%

%IPPOS*%
%ADD10C,0.009840*%
%ADD11C,0.005910*%
%ADD12C,0.007870*%
%ADD13C,0.005000*%
%ADD14C,0.013780*%
%LNdigitalizador_rpi-1*%
%LPD*%
G54D10*
X0535787Y0126201D02*
X0535049Y0126627D01*
Y0125775*
X0535787Y0126201*
G54D11*
X0237913Y0216673D02*
Y0218937D01*
X0243229Y0216673D02*
Y0218839D01*
X0237913Y0201673D02*
Y0203937D01*
X0243229Y0201673D02*
Y0203838D01*
X0282913Y0201673D02*
Y0203937D01*
X0288229Y0201673D02*
Y0203838D01*
Y0216575D02*
Y0218839D01*
X0282913Y0216673D02*
Y0218839D01*
X0160413Y0201673D02*
Y0203937D01*
X0165728Y0201673D02*
Y0203838D01*
X0160414Y0216673D02*
Y0218937D01*
X0165728Y0216673D02*
Y0218839D01*
X0205414Y0201673D02*
Y0203937D01*
X0210729Y0201673D02*
Y0203838D01*
Y0216575D02*
Y0218839D01*
X0205414Y0216673D02*
Y0218839D01*
X0127913Y0201673D02*
Y0203937D01*
X0133229Y0201673D02*
Y0203838D01*
Y0216575D02*
Y0218839D01*
X0127913Y0216673D02*
Y0218839D01*
X0082914Y0201673D02*
Y0203937D01*
X0088228Y0201673D02*
Y0203838D01*
X0082914Y0216673D02*
Y0218937D01*
X0088228Y0216673D02*
Y0218839D01*
X053124Y0133228D02*
X0533504D01*
X053124Y0127913D02*
X0533405D01*
X0476161Y0072795D02*
Y0075059D01*
X0481476Y0072795D02*
Y0074961D01*
X0466299Y0086535D02*
X0468563D01*
X0466299Y0081221D02*
X0468465D01*
X0477914Y0116673D02*
Y0118839D01*
X0483228Y0116575D02*
Y0118839D01*
X0358662Y0137795D02*
Y0140059D01*
X0363977Y0137795D02*
Y0139961D01*
X0347736Y0131535D02*
X035D01*
X0347736Y0126221D02*
X0349902D01*
X0341476Y0174134D02*
Y0176398D01*
X0336161Y0174232D02*
Y0176398D01*
X0368661Y0180295D02*
Y0182559D01*
X0373976Y0180295D02*
Y0182461D01*
X0441476Y0232658D02*
Y0234921D01*
X0436161Y0232756D02*
Y0234921D01*
X0460236Y0209035D02*
X04625D01*
X0460236Y020372D02*
X0462402D01*
X0468661Y0195295D02*
Y0197559D01*
X0473977Y0195295D02*
Y0197461D01*
X0478661Y0203858D02*
Y0206122D01*
X0483977Y0203858D02*
Y0206024D01*
X0478661Y0190295D02*
Y0192559D01*
X0483977Y0190295D02*
Y0192461D01*
X0495236Y0209035D02*
X04975D01*
X0495236Y020372D02*
X0497402D01*
X0503661Y0195295D02*
Y0197559D01*
X0508977Y0195295D02*
Y0197461D01*
X0543976Y0206634D02*
Y0208898D01*
X0538661Y0206732D02*
Y0208898D01*
X0543976Y0226634D02*
Y0228898D01*
X0538661Y0226732D02*
Y0228898D01*
X0501476Y0247697D02*
Y0249961D01*
X0496162Y0247795D02*
Y0249961D01*
X0491476Y0247697D02*
Y0249961D01*
X0486162Y0247795D02*
Y0249961D01*
X0316476Y0290197D02*
Y029246D01*
X0311161Y0290295D02*
Y029246D01*
X032273Y033872D02*
X0324994D01*
X0322828Y0344035D02*
X0324994D01*
X0391673Y0234035D02*
X0393839D01*
X0391575Y022872D02*
X0393839D01*
X0436161Y0247795D02*
Y0249961D01*
X0441476Y0247697D02*
Y0249961D01*
X0360236Y016872D02*
X0362402D01*
X0360236Y0174036D02*
X03625D01*
X0187638Y0111221D02*
X0189901D01*
X0187736Y0116535D02*
X0189901D01*
X0187736Y0126535D02*
X019D01*
X0187736Y0121221D02*
X0189901D01*
X0187638Y013122D02*
X0189901D01*
X0187736Y0136535D02*
X0189901D01*
X0187736Y0146535D02*
X019D01*
X0187736Y014122D02*
X0189901D01*
X0140138Y0111221D02*
X0142402D01*
X0140236Y0116535D02*
X0142402D01*
X0140236Y0126535D02*
X01425D01*
X0140236Y0121221D02*
X0142402D01*
X0140138Y013122D02*
X0142402D01*
X0140236Y0136535D02*
X0142402D01*
X0140236Y0146535D02*
X01425D01*
X0140236Y014122D02*
X0142402D01*
X0092638Y0111221D02*
X0094902D01*
X0092736Y0116535D02*
X0094902D01*
X0092736Y0126535D02*
X0095D01*
X0092736Y0121221D02*
X0094902D01*
X0092638Y013122D02*
X0094902D01*
X0092736Y0136535D02*
X0094902D01*
X0092736Y0146535D02*
X0095D01*
X0092736Y014122D02*
X0094902D01*
X0170972Y028038D02*
X0171497Y0280905D01*
X0172546*
X0173071Y028038*
Y0278281*
X0172546Y0277756*
X0171497*
X0170972Y0278281*
X0169922Y028038D02*
X0169397Y0280905D01*
X0168348*
X0167823Y028038*
Y0279855*
X0168348Y027933*
X0167823Y0278805*
Y0278281*
X0168348Y0277756*
X0169397*
X0169922Y0278281*
Y0278805*
X0169397Y027933*
X0169922Y0279855*
Y028038*
X0169397Y027933D02*
X0168348D01*
X0170972Y030538D02*
X0171497Y0305905D01*
X0172546*
X0173071Y030538*
Y0303281*
X0172546Y0302756*
X0171497*
X0170972Y0303281*
X0169922Y0305905D02*
X0167823D01*
Y030538*
X0169922Y0303281*
Y0302756*
X0252222Y031288D02*
X0252747Y0313404D01*
X0253796*
X0254321Y031288*
Y0310781*
X0253796Y0310256*
X0252747*
X0252222Y0310781*
X0249073Y0310256D02*
X0251172D01*
X0249073Y0312355*
Y031288*
X0249598Y0313404*
X0250647*
X0251172Y031288*
X0413472Y020788D02*
X0413997Y0208404D01*
X0415046*
X0415571Y020788*
Y0205781*
X0415046Y0205256*
X0413997*
X0413472Y0205781*
X0412422Y0205256D02*
X0411373D01*
X0411898*
Y0208404*
X0412422Y020788*
X0407699Y0208404D02*
X0409798D01*
Y020683*
X0408749Y0207355*
X0408224*
X0407699Y020683*
Y0205781*
X0408224Y0205256*
X0409274*
X0409798Y0205781*
X0437572Y017418D02*
X0438097Y0174705D01*
X0439146*
X0439671Y017418*
Y0172081*
X0439146Y0171556*
X0438097*
X0437572Y0172081*
X0436522Y0171556D02*
X0435473D01*
X0435997*
Y0174705*
X0436522Y017418*
X0432324Y0171556D02*
Y0174705D01*
X0433898Y017313*
X0431799*
X0343472Y022913D02*
X0343997Y0229655D01*
X0345046*
X0345571Y022913*
Y0227031*
X0345046Y0226506*
X0343997*
X0343472Y0227031*
X0342422Y0226506D02*
X0341373D01*
X0341898*
Y0229655*
X0342422Y022913*
X0339798D02*
X0339274Y0229655D01*
X0338224*
X0337699Y022913*
Y0228605*
X0338224Y022808*
X0338749*
X0338224*
X0337699Y0227555*
Y0227031*
X0338224Y0226506*
X0339274*
X0339798Y0227031*
X0343472Y023413D02*
X0343997Y0234654D01*
X0345046*
X0345571Y023413*
Y0232031*
X0345046Y0231506*
X0343997*
X0343472Y0232031*
X0342422Y0231506D02*
X0341373D01*
X0341898*
Y0234654*
X0342422Y023413*
X0337699Y0231506D02*
X0339798D01*
X0337699Y0233605*
Y023413*
X0338224Y0234654*
X0339274*
X0339798Y023413*
X0462222Y013538D02*
X0462747Y0135905D01*
X0463796*
X0464321Y013538*
Y0133281*
X0463796Y0132756*
X0462747*
X0462222Y0133281*
X0461172Y0132756D02*
X0460123D01*
X0460647*
Y0135905*
X0461172Y013538*
X0458548Y0132756D02*
X0457499D01*
X0458024*
Y0135905*
X0458548Y013538*
X0448472D02*
X0448997Y0135905D01*
X0450046*
X0450571Y013538*
Y0133281*
X0450046Y0132756*
X0448997*
X0448472Y0133281*
X0447422Y013538D02*
X0446898Y0135905D01*
X0445848*
X0445323Y013538*
Y0134855*
X0445848Y013433*
X0446373*
X0445848*
X0445323Y0133805*
Y0133281*
X0445848Y0132756*
X0446898*
X0447422Y0133281*
X0485571Y0125256D02*
Y0128404D01*
X0483997*
X0483472Y012788*
Y012683*
X0483997Y0126305*
X0485571*
X0484521D02*
X0483472Y0125256D01*
X0482422D02*
X0481373D01*
X0481897*
Y0128404*
X0482422Y012788*
X0479798Y0125256D02*
X0478749D01*
X0479274*
Y0128404*
X0479798Y012788*
X0477175Y0125781D02*
X047665Y0125256D01*
X04756*
X0475076Y0125781*
Y012788*
X04756Y0128404*
X047665*
X0477175Y012788*
Y0127355*
X047665Y012683*
X0475076*
X0545571Y0235256D02*
Y0238404D01*
X0543997*
X0543472Y023788*
Y023683*
X0543997Y0236305*
X0545571*
X0544521D02*
X0543472Y0235256D01*
X0542422D02*
X0541373D01*
X0541897*
Y0238404*
X0542422Y023788*
X0539798Y0235256D02*
X0538749D01*
X0539274*
Y0238404*
X0539798Y023788*
X0537175D02*
X053665Y0238404D01*
X05356*
X0535076Y023788*
Y0237355*
X05356Y023683*
X0535076Y0236305*
Y0235781*
X05356Y0235256*
X053665*
X0537175Y0235781*
Y0236305*
X053665Y023683*
X0537175Y0237355*
Y023788*
X053665Y023683D02*
X05356D01*
X0545571Y0215256D02*
Y0218405D01*
X0543997*
X0543472Y021788*
Y021683*
X0543997Y0216305*
X0545571*
X0544521D02*
X0543472Y0215256D01*
X0542422D02*
X0541373D01*
X0541897*
Y0218405*
X0542422Y021788*
X0539798Y0215256D02*
X0538749D01*
X0539274*
Y0218405*
X0539798Y021788*
X0537175Y0218405D02*
X0535076D01*
Y021788*
X0537175Y0215781*
Y0215256*
X0383993Y0236678D02*
X0380844D01*
Y0235104*
X0381369Y0234579*
X0382419*
X0382943Y0235104*
Y0236678*
Y0235629D02*
X0383993Y0234579D01*
Y0233529D02*
Y023248D01*
Y0233005*
X0380844*
X0381369Y0233529*
Y0230906D02*
X0380844Y0230381D01*
Y0229331*
X0381369Y0228807*
X0383468*
X0383993Y0229331*
Y0230381*
X0383468Y0230906*
X0381369*
X0340571Y0182756D02*
Y0185905D01*
X0338997*
X0338472Y018538*
Y018433*
X0338997Y0183805*
X0340571*
X0339521D02*
X0338472Y0182756D01*
X0337422D02*
X0336373D01*
X0336897*
Y0185905*
X0337422Y018538*
X0548472Y004538D02*
X0548997Y0045904D01*
X0550046*
X0550571Y004538*
Y0043281*
X0550046Y0042756*
X0548997*
X0548472Y0043281*
X0545323Y0045904D02*
X0547422D01*
Y004433*
X0546373Y0044855*
X0545848*
X0545323Y004433*
Y0043281*
X0545848Y0042756*
X0546898*
X0547422Y0043281*
X0544274Y0042756D02*
X0543224D01*
X0543749*
Y0045904*
X0544274Y004538*
X0548472Y004038D02*
X0548997Y0040905D01*
X0550046*
X0550571Y004038*
Y0038281*
X0550046Y0037756*
X0548997*
X0548472Y0038281*
X0545323Y0040905D02*
X0547422D01*
Y003933*
X0546373Y0039855*
X0545848*
X0545323Y003933*
Y0038281*
X0545848Y0037756*
X0546898*
X0547422Y0038281*
X0544274Y004038D02*
X0543749Y0040905D01*
X0542699*
X0542175Y004038*
Y0038281*
X0542699Y0037756*
X0543749*
X0544274Y0038281*
Y004038*
X0575972D02*
X0576497Y0040905D01*
X0577546*
X0578071Y004038*
Y0038281*
X0577546Y0037756*
X0576497*
X0575972Y0038281*
X0573348Y0037756D02*
Y0040905D01*
X0574922Y003933*
X0572823*
X0571774Y0038281D02*
X0571249Y0037756D01*
X0570199*
X0569675Y0038281*
Y004038*
X0570199Y0040905*
X0571249*
X0571774Y004038*
Y0039855*
X0571249Y003933*
X0569675*
X0575972Y004538D02*
X0576497Y0045904D01*
X0577546*
X0578071Y004538*
Y0043281*
X0577546Y0042756*
X0576497*
X0575972Y0043281*
X0573348Y0042756D02*
Y0045904D01*
X0574922Y004433*
X0572823*
X0571774Y004538D02*
X0571249Y0045904D01*
X0570199*
X0569675Y004538*
Y0044855*
X0570199Y004433*
X0569675Y0043805*
Y0043281*
X0570199Y0042756*
X0571249*
X0571774Y0043281*
Y0043805*
X0571249Y004433*
X0571774Y0044855*
Y004538*
X0571249Y004433D02*
X0570199D01*
X0353071Y0120256D02*
Y0123405D01*
X0351497*
X0350972Y012288*
Y012183*
X0351497Y0121305*
X0353071*
X0352021D02*
X0350972Y0120256D01*
X0349922Y0120781D02*
X0349397Y0120256D01*
X0348348*
X0347823Y0120781*
Y012288*
X0348348Y0123405*
X0349397*
X0349922Y012288*
Y0122355*
X0349397Y012183*
X0347823*
X0346774Y0123405D02*
X0344675D01*
Y012288*
X0346774Y0120781*
Y0120256*
X0365571Y0146506D02*
Y0149654D01*
X0363997*
X0363472Y014913*
Y014808*
X0363997Y0147555*
X0365571*
X0364521D02*
X0363472Y0146506D01*
X0362422Y0147031D02*
X0361897Y0146506D01*
X0360848*
X0360323Y0147031*
Y014913*
X0360848Y0149654*
X0361897*
X0362422Y014913*
Y0148605*
X0361897Y014808*
X0360323*
X0357175Y0149654D02*
X0358224Y014913D01*
X0359274Y014808*
Y0147031*
X0358749Y0146506*
X0357699*
X0357175Y0147031*
Y0147555*
X0357699Y014808*
X0359274*
X0500571Y0211506D02*
Y0214654D01*
X0498997*
X0498472Y021413*
Y021308*
X0498997Y0212555*
X0500571*
X0499521D02*
X0498472Y0211506D01*
X0497422Y0212031D02*
X0496898Y0211506D01*
X0495848*
X0495323Y0212031*
Y021413*
X0495848Y0214654*
X0496898*
X0497422Y021413*
Y0213605*
X0496898Y021308*
X0495323*
X0492175Y0214654D02*
X0494274D01*
Y021308*
X0493224Y0213605*
X0492699*
X0492175Y021308*
Y0212031*
X0492699Y0211506*
X0493749*
X0494274Y0212031*
X0511821Y0204006D02*
Y0207154D01*
X0510247*
X0509722Y020663*
Y020558*
X0510247Y0205055*
X0511821*
X0510771D02*
X0509722Y0204006D01*
X0508672Y0204531D02*
X0508147Y0204006D01*
X0507098*
X0506573Y0204531*
Y020663*
X0507098Y0207154*
X0508147*
X0508672Y020663*
Y0206105*
X0508147Y020558*
X0506573*
X0503949Y0204006D02*
Y0207154D01*
X0505524Y020558*
X0503425*
X0464321Y0211506D02*
Y0214654D01*
X0462747*
X0462222Y021413*
Y021308*
X0462747Y0212555*
X0464321*
X0463271D02*
X0462222Y0211506D01*
X0461172Y021413D02*
X0460647Y0214654D01*
X0459598*
X0459073Y021413*
Y0213605*
X0459598Y021308*
X0459073Y0212555*
Y0212031*
X0459598Y0211506*
X0460647*
X0461172Y0212031*
Y0212555*
X0460647Y021308*
X0461172Y0213605*
Y021413*
X0460647Y021308D02*
X0459598D01*
X0456449Y0211506D02*
Y0214654D01*
X0458024Y021308*
X0455925*
X0476821Y0204006D02*
Y0207154D01*
X0475247*
X0474722Y020663*
Y020558*
X0475247Y0205055*
X0476821*
X0475771D02*
X0474722Y0204006D01*
X0473672Y020663D02*
X0473147Y0207154D01*
X0472098*
X0471573Y020663*
Y0206105*
X0472098Y020558*
X0471573Y0205055*
Y0204531*
X0472098Y0204006*
X0473147*
X0473672Y0204531*
Y0205055*
X0473147Y020558*
X0473672Y0206105*
Y020663*
X0473147Y020558D02*
X0472098D01*
X0470524Y020663D02*
X0469999Y0207154D01*
X0468949*
X0468425Y020663*
Y0206105*
X0468949Y020558*
X0469474*
X0468949*
X0468425Y0205055*
Y0204531*
X0468949Y0204006*
X0469999*
X0470524Y0204531*
X0378071Y0169006D02*
Y0172154D01*
X0376497*
X0375972Y017163*
Y017058*
X0376497Y0170055*
X0378071*
X0377021D02*
X0375972Y0169006D01*
X0374922Y017163D02*
X0374397Y0172154D01*
X0373348*
X0372823Y017163*
Y0171105*
X0373348Y017058*
X0372823Y0170055*
Y0169531*
X0373348Y0169006*
X0374397*
X0374922Y0169531*
Y0170055*
X0374397Y017058*
X0374922Y0171105*
Y017163*
X0374397Y017058D02*
X0373348D01*
X0369675Y0169006D02*
X0371774D01*
X0369675Y0171105*
Y017163*
X0370199Y0172154*
X0371249*
X0371774Y017163*
X0374321Y0189006D02*
Y0192155D01*
X0372747*
X0372222Y019163*
Y019058*
X0372747Y0190055*
X0374321*
X0373271D02*
X0372222Y0189006D01*
X0371172Y019163D02*
X0370648Y0192155D01*
X0369598*
X0369073Y019163*
Y0191105*
X0369598Y019058*
X0369073Y0190055*
Y0189531*
X0369598Y0189006*
X0370648*
X0371172Y0189531*
Y0190055*
X0370648Y019058*
X0371172Y0191105*
Y019163*
X0370648Y019058D02*
X0369598D01*
X0368024Y0189006D02*
X0366974D01*
X0367499*
Y0192155*
X0368024Y019163*
X0538071Y0135256D02*
Y0138405D01*
X0536497*
X0535972Y013788*
Y013683*
X0536497Y0136305*
X0538071*
X0537021D02*
X0535972Y0135256D01*
X0532823D02*
X0534922D01*
X0532823Y0137355*
Y013788*
X0533348Y0138405*
X0534398*
X0534922Y013788*
X0529675Y0138405D02*
X0530724Y013788D01*
X0531774Y013683*
Y0135781*
X0531249Y0135256*
X0530199*
X0529675Y0135781*
Y0136305*
X0530199Y013683*
X0531774*
X0488071Y0195256D02*
X0484922D01*
Y0193682*
X0485447Y0193157*
X0486497*
X0487021Y0193682*
Y0195256*
Y0194206D02*
X0488071Y0193157D01*
Y0192107D02*
Y0191058D01*
Y0191583*
X0484922*
X0485447Y0192107*
X0487546Y0189483D02*
X0488071Y0188959D01*
Y0187909*
X0487546Y0187384*
X0485447*
X0484922Y0187909*
Y0188959*
X0485447Y0189483*
X0485972*
X0486497Y0188959*
Y0187384*
X0451575Y0244488D02*
Y0247637D01*
X045*
X0449476Y0247112*
Y0246062*
X045Y0245538*
X0451575*
X0450525D02*
X0449476Y0244488D01*
X0448426D02*
X0447377D01*
X0447901*
Y0247637*
X0448426Y0247112*
X0445802D02*
X0445278Y0247637D01*
X0444228*
X0443703Y0247112*
Y0246587*
X0444228Y0246062*
X0443703Y0245538*
Y0245013*
X0444228Y0244488*
X0445278*
X0445802Y0245013*
Y0245538*
X0445278Y0246062*
X0445802Y0246587*
Y0247112*
X0445278Y0246062D02*
X0444228D01*
X0488071Y0209035D02*
X0484922D01*
Y0207461*
X0485447Y0206937*
X0486497*
X0487021Y0207461*
Y0209035*
Y0207986D02*
X0488071Y0206937D01*
Y0205887D02*
Y0204837D01*
Y0205362*
X0484922*
X0485447Y0205887*
X0484922Y0203263D02*
Y0201164D01*
X0485447*
X0487546Y0203263*
X0488071*
X0451575Y0230315D02*
Y0233464D01*
X045*
X0449476Y0232939*
Y0231889*
X045Y0231364*
X0451575*
X0450525D02*
X0449476Y0230315D01*
X0448426D02*
X0447377D01*
X0447901*
Y0233464*
X0448426Y0232939*
X0443703Y0233464D02*
X0444753Y0232939D01*
X0445802Y0231889*
Y023084*
X0445278Y0230315*
X0444228*
X0443703Y023084*
Y0231364*
X0444228Y0231889*
X0445802*
X0345972Y0145781D02*
Y014788D01*
X0346497Y0148405*
X0347546*
X0348071Y014788*
Y0145781*
X0347546Y0145256*
X0346497*
X0347021Y0146305D02*
X0345972Y0145256D01*
X0346497D02*
X0345972Y0145781D01*
X0342823Y0148405D02*
X0343873Y014788D01*
X0344922Y014683*
Y0145781*
X0344397Y0145256*
X0343348*
X0342823Y0145781*
Y0146305*
X0343348Y014683*
X0344922*
X0494722Y0188281D02*
Y019038D01*
X0495247Y0190904*
X0496296*
X0496821Y019038*
Y0188281*
X0496296Y0187756*
X0495247*
X0495771Y0188805D02*
X0494722Y0187756D01*
X0495247D02*
X0494722Y0188281D01*
X0491573Y0190904D02*
X0493672D01*
Y018933*
X0492623Y0189855*
X0492098*
X0491573Y018933*
Y0188281*
X0492098Y0187756*
X0493148*
X0493672Y0188281*
X0459722D02*
Y019038D01*
X0460247Y0190904*
X0461296*
X0461821Y019038*
Y0188281*
X0461296Y0187756*
X0460247*
X0460771Y0188805D02*
X0459722Y0187756D01*
X0460247D02*
X0459722Y0188281D01*
X0457098Y0187756D02*
Y0190904D01*
X0458672Y018933*
X0456573*
X0358472Y0187031D02*
Y018913D01*
X0358997Y0189655*
X0360046*
X0360571Y018913*
Y0187031*
X0360046Y0186506*
X0358997*
X0359521Y0187555D02*
X0358472Y0186506D01*
X0358997D02*
X0358472Y0187031D01*
X0357422Y018913D02*
X0356897Y0189655D01*
X0355848*
X0355323Y018913*
Y0188605*
X0355848Y018808*
X0356373*
X0355848*
X0355323Y0187555*
Y0187031*
X0355848Y0186506*
X0356897*
X0357422Y0187031*
X0535899Y0119041D02*
X0537998D01*
X0538522Y0118516*
Y0117467*
X0537998Y0116942*
X0535899*
X0535374Y0117467*
Y0118516*
X0536423Y0117991D02*
X0535374Y0119041D01*
Y0118516D02*
X0535899Y0119041D01*
X0535374Y012009D02*
Y012114D01*
Y0120615*
X0538522*
X0537998Y012009*
X0471821Y0089006D02*
Y0092155D01*
X0470247*
X0469722Y009163*
Y009058*
X0470247Y0090055*
X0471821*
X0470771D02*
X0469722Y0089006D01*
X0466573Y0092155D02*
X0468672D01*
Y009058*
X0467623Y0091105*
X0467098*
X0466573Y009058*
Y0089531*
X0467098Y0089006*
X0468148*
X0468672Y0089531*
X0465524Y009163D02*
X0464999Y0092155D01*
X0463949*
X0463425Y009163*
Y0089531*
X0463949Y0089006*
X0464999*
X0465524Y0089531*
Y009163*
X0484321Y0081506D02*
Y0084654D01*
X0482747*
X0482222Y008413*
Y008308*
X0482747Y0082555*
X0484321*
X0483271D02*
X0482222Y0081506D01*
X0479598D02*
Y0084654D01*
X0481172Y008308*
X0479073*
X0478024Y0082031D02*
X0477499Y0081506D01*
X0476449*
X0475925Y0082031*
Y008413*
X0476449Y0084654*
X0477499*
X0478024Y008413*
Y0083605*
X0477499Y008308*
X0475925*
X0468472Y0065781D02*
Y006788D01*
X0468997Y0068405*
X0470046*
X0470571Y006788*
Y0065781*
X0470046Y0065256*
X0468997*
X0469521Y0066305D02*
X0468472Y0065256D01*
X0468997D02*
X0468472Y0065781D01*
X0465323Y0065256D02*
X0467422D01*
X0465323Y0067355*
Y006788*
X0465848Y0068405*
X0466897*
X0467422Y006788*
X0482222Y010538D02*
X0482747Y0105904D01*
X0483796*
X0484321Y010538*
Y0103281*
X0483796Y0102756*
X0482747*
X0482222Y0103281*
X0481172Y010538D02*
X0480648Y0105904D01*
X0479598*
X0479073Y010538*
Y0104855*
X0479598Y010433*
X0480123*
X0479598*
X0479073Y0103805*
Y0103281*
X0479598Y0102756*
X0480648*
X0481172Y0103281*
X0475925Y0105904D02*
X0476974Y010538D01*
X0478024Y010433*
Y0103281*
X0477499Y0102756*
X0476449*
X0475925Y0103281*
Y0103805*
X0476449Y010433*
X0478024*
X0491821Y0256506D02*
Y0259654D01*
X0490247*
X0489722Y025913*
Y025808*
X0490247Y0257555*
X0491821*
X0490771D02*
X0489722Y0256506D01*
X0488672Y025913D02*
X0488147Y0259654D01*
X0487098*
X0486573Y025913*
Y0258605*
X0487098Y025808*
X0486573Y0257555*
Y0257031*
X0487098Y0256506*
X0488147*
X0488672Y0257031*
Y0257555*
X0488147Y025808*
X0488672Y0258605*
Y025913*
X0488147Y025808D02*
X0487098D01*
X0485524Y025913D02*
X0484999Y0259654D01*
X0483949*
X0483425Y025913*
Y0257031*
X0483949Y0256506*
X0484999*
X0485524Y0257031*
Y025913*
X0503071Y0256506D02*
Y0259654D01*
X0501497*
X0500972Y025913*
Y025808*
X0501497Y0257555*
X0503071*
X0502021D02*
X0500972Y0256506D01*
X0499922Y0259654D02*
X0497823D01*
Y025913*
X0499922Y0257031*
Y0256506*
X0496774Y0257031D02*
X0496249Y0256506D01*
X0495199*
X0494675Y0257031*
Y025913*
X0495199Y0259654*
X0496249*
X0496774Y025913*
Y0258605*
X0496249Y025808*
X0494675*
X0514722Y025038D02*
X0515247Y0250904D01*
X0516296*
X0516821Y025038*
Y0248281*
X0516296Y0247756*
X0515247*
X0514722Y0248281*
X0512098Y0247756D02*
Y0250904D01*
X0513672Y024933*
X0511573*
X0510524Y025038D02*
X0509999Y0250904D01*
X0508949*
X0508425Y025038*
Y0248281*
X0508949Y0247756*
X0509999*
X0510524Y0248281*
Y025038*
X006642Y0303002D02*
X0066945Y0303526D01*
X0067994*
X0068519Y0303002*
Y0300903*
X0067994Y0300378*
X0066945*
X006642Y0300903*
X0063271Y0303526D02*
X0064321Y0303002D01*
X006537Y0301952*
Y0300903*
X0064846Y0300378*
X0063796*
X0063271Y0300903*
Y0301428*
X0063796Y0301952*
X006537*
X0106319Y0126378D02*
Y0129526D01*
X0104745*
X010422Y0129002*
Y0127952*
X0104745Y0127427*
X0106319*
X0105269D02*
X010422Y0126378D01*
X010317Y0129002D02*
X0102646Y0129526D01*
X0101596*
X0101071Y0129002*
Y0128477*
X0101596Y0127952*
X0102121*
X0101596*
X0101071Y0127427*
Y0126903*
X0101596Y0126378*
X0102646*
X010317Y0126903*
X0100022Y0129002D02*
X0099497Y0129526D01*
X0098447*
X0097923Y0129002*
Y0128477*
X0098447Y0127952*
X0098972*
X0098447*
X0097923Y0127427*
Y0126903*
X0098447Y0126378*
X0099497*
X0100022Y0126903*
X0106319Y0136378D02*
Y0139526D01*
X0104745*
X010422Y0139002*
Y0137952*
X0104745Y0137427*
X0106319*
X0105269D02*
X010422Y0136378D01*
X0101071D02*
X010317D01*
X0101071Y0138477*
Y0139002*
X0101596Y0139526*
X0102646*
X010317Y0139002*
X0100022D02*
X0099497Y0139526D01*
X0098447*
X0097923Y0139002*
Y0138477*
X0098447Y0137952*
X0098972*
X0098447*
X0097923Y0137427*
Y0136903*
X0098447Y0136378*
X0099497*
X0100022Y0136903*
X0193071Y0150256D02*
Y0153404D01*
X0191497*
X0190972Y015288*
Y015183*
X0191497Y0151305*
X0193071*
X0192021D02*
X0190972Y0150256D01*
X0189922D02*
X0188873D01*
X0189398*
Y0153404*
X0189922Y015288*
X0187299Y0150256D02*
X0186249D01*
X0186774*
Y0153404*
X0187299Y015288*
X01831Y0150256D02*
Y0153404D01*
X0184675Y015183*
X0182576*
X0193071Y0105256D02*
Y0108405D01*
X0191497*
X0190972Y010788*
Y010683*
X0191497Y0106305*
X0193071*
X0192021D02*
X0190972Y0105256D01*
X0189922D02*
X0188873D01*
X0189398*
Y0108405*
X0189922Y010788*
X0187299Y0105256D02*
X0186249D01*
X0186774*
Y0108405*
X0187299Y010788*
X0184675D02*
X018415Y0108405D01*
X01831*
X0182576Y010788*
Y0107355*
X01831Y010683*
X0183625*
X01831*
X0182576Y0106305*
Y0105781*
X01831Y0105256*
X018415*
X0184675Y0105781*
X0280315Y0216142D02*
Y021929D01*
X0278741*
X0278216Y0218766*
Y0217716*
X0278741Y0217191*
X0280315*
X0279265D02*
X0278216Y0216142D01*
X0277166D02*
X0276117D01*
X0276642*
Y021929*
X0277166Y0218766*
X0274542Y0216142D02*
X0273493D01*
X0274018*
Y021929*
X0274542Y0218766*
X026982Y0216142D02*
X0271919D01*
X026982Y0218241*
Y0218766*
X0270344Y021929*
X0271394*
X0271919Y0218766*
X0280315Y0201969D02*
Y0205117D01*
X0278741*
X0278216Y0204592*
Y0203543*
X0278741Y0203018*
X0280315*
X0279265D02*
X0278216Y0201969D01*
X0277166D02*
X0276117D01*
X0276642*
Y0205117*
X0277166Y0204592*
X0274542D02*
X0274018Y0205117D01*
X0272968*
X0272444Y0204592*
Y0202493*
X0272968Y0201969*
X0274018*
X0274542Y0202493*
Y0204592*
X0271394Y0205117D02*
X0269295D01*
Y0204592*
X0271394Y0202493*
Y0201969*
X0201319Y0126378D02*
Y0129526D01*
X0199745*
X019922Y0129002*
Y0127952*
X0199745Y0127427*
X0201319*
X0200269D02*
X019922Y0126378D01*
X019817D02*
X0197121D01*
X0197645*
Y0129526*
X019817Y0129002*
X0195546D02*
X0195022Y0129526D01*
X0193972*
X0193447Y0129002*
Y0126903*
X0193972Y0126378*
X0195022*
X0195546Y0126903*
Y0129002*
X0192398D02*
X0191873Y0129526D01*
X0190824*
X0190299Y0129002*
Y0128477*
X0190824Y0127952*
X0191348*
X0190824*
X0190299Y0127427*
Y0126903*
X0190824Y0126378*
X0191873*
X0192398Y0126903*
X0255512Y0216142D02*
Y021929D01*
X0253938*
X0253413Y0218766*
Y0217716*
X0253938Y0217191*
X0255512*
X0254462D02*
X0253413Y0216142D01*
X0252363D02*
X0251314D01*
X0251838*
Y021929*
X0252363Y0218766*
X0249739D02*
X0249215Y021929D01*
X0248165*
X024764Y0218766*
Y0216667*
X0248165Y0216142*
X0249215*
X0249739Y0216667*
Y0218766*
X0246591Y0216142D02*
X0245541D01*
X0246066*
Y021929*
X0246591Y0218766*
X0256693Y0201969D02*
Y0205117D01*
X0255119*
X0254594Y0204592*
Y0203543*
X0255119Y0203018*
X0256693*
X0255643D02*
X0254594Y0201969D01*
X0253544D02*
X0252495D01*
X025302*
Y0205117*
X0253544Y0204592*
X0250921D02*
X0250396Y0205117D01*
X0249346*
X0248821Y0204592*
Y0202493*
X0249346Y0201969*
X0250396*
X0250921Y0202493*
Y0204592*
X0247772D02*
X0247247Y0205117D01*
X0246198*
X0245673Y0204592*
Y0202493*
X0246198Y0201969*
X0247247*
X0247772Y0202493*
Y0204592*
X0201319Y0136378D02*
Y0139526D01*
X0199745*
X019922Y0139002*
Y0137952*
X0199745Y0137427*
X0201319*
X0200269D02*
X019922Y0136378D01*
X019817Y0136903D02*
X0197645Y0136378D01*
X0196596*
X0196071Y0136903*
Y0139002*
X0196596Y0139526*
X0197645*
X019817Y0139002*
Y0138477*
X0197645Y0137952*
X0196071*
X0195022Y0139002D02*
X0194497Y0139526D01*
X0193447*
X0192923Y0139002*
Y0136903*
X0193447Y0136378*
X0194497*
X0195022Y0136903*
Y0139002*
X0145571Y0150256D02*
Y0153404D01*
X0143997*
X0143472Y015288*
Y015183*
X0143997Y0151305*
X0145571*
X0144521D02*
X0143472Y0150256D01*
X0142422Y0153404D02*
X0140323D01*
Y015288*
X0142422Y0150781*
Y0150256*
X0137175Y0153404D02*
X0138224Y015288D01*
X0139274Y015183*
Y0150781*
X0138749Y0150256*
X0137699*
X0137175Y0150781*
Y0151305*
X0137699Y015183*
X0139274*
X0145571Y0105256D02*
Y0108405D01*
X0143997*
X0143472Y010788*
Y010683*
X0143997Y0106305*
X0145571*
X0144521D02*
X0143472Y0105256D01*
X0142422Y0108405D02*
X0140323D01*
Y010788*
X0142422Y0105781*
Y0105256*
X0137175Y0108405D02*
X0139274D01*
Y010683*
X0138224Y0107355*
X0137699*
X0137175Y010683*
Y0105781*
X0137699Y0105256*
X0138749*
X0139274Y0105781*
X0203543Y0216142D02*
Y021929D01*
X0201969*
X0201444Y0218766*
Y0217716*
X0201969Y0217191*
X0203543*
X0202494D02*
X0201444Y0216142D01*
X0200395Y021929D02*
X0198296D01*
Y0218766*
X0200395Y0216667*
Y0216142*
X0195672D02*
Y021929D01*
X0197246Y0217716*
X0195147*
X0203543Y0200787D02*
Y0203936D01*
X0201969*
X0201444Y0203411*
Y0202362*
X0201969Y0201837*
X0203543*
X0202494D02*
X0201444Y0200787D01*
X0198296Y0203936D02*
X0199345Y0203411D01*
X0200395Y0202362*
Y0201312*
X019987Y0200787*
X019882*
X0198296Y0201312*
Y0201837*
X019882Y0202362*
X0200395*
X0197246Y0201312D02*
X0196721Y0200787D01*
X0195672*
X0195147Y0201312*
Y0203411*
X0195672Y0203936*
X0196721*
X0197246Y0203411*
Y0202887*
X0196721Y0202362*
X0195147*
X0153819Y0126378D02*
Y0129526D01*
X0152245*
X015172Y0129002*
Y0127952*
X0152245Y0127427*
X0153819*
X0152769D02*
X015172Y0126378D01*
X0148571Y0129526D02*
X0149621Y0129002D01*
X015067Y0127952*
Y0126903*
X0150145Y0126378*
X0149096*
X0148571Y0126903*
Y0127427*
X0149096Y0127952*
X015067*
X0145423Y0129526D02*
X0147522D01*
Y0127952*
X0146472Y0128477*
X0145947*
X0145423Y0127952*
Y0126903*
X0145947Y0126378*
X0146997*
X0147522Y0126903*
X0176378Y0216142D02*
Y021929D01*
X0174804*
X0174279Y0218766*
Y0217716*
X0174804Y0217191*
X0176378*
X0175328D02*
X0174279Y0216142D01*
X017113Y021929D02*
X017218Y0218766D01*
X0173229Y0217716*
Y0216667*
X0172705Y0216142*
X0171655*
X017113Y0216667*
Y0217191*
X0171655Y0217716*
X0173229*
X0170081Y0218766D02*
X0169556Y021929D01*
X0168507*
X0167982Y0218766*
Y0218241*
X0168507Y0217716*
X0169031*
X0168507*
X0167982Y0217191*
Y0216667*
X0168507Y0216142*
X0169556*
X0170081Y0216667*
X0176575Y0200935D02*
Y0204084D01*
X0175001*
X0174476Y0203559*
Y0202509*
X0175001Y0201985*
X0176575*
X0175525D02*
X0174476Y0200935D01*
X0171327Y0204084D02*
X0172377Y0203559D01*
X0173426Y0202509*
Y020146*
X0172901Y0200935*
X0171852*
X0171327Y020146*
Y0201985*
X0171852Y0202509*
X0173426*
X0168179Y0200935D02*
X0170278D01*
X0168179Y0203034*
Y0203559*
X0168703Y0204084*
X0169753*
X0170278Y0203559*
X0153819Y0136378D02*
Y0139526D01*
X0152245*
X015172Y0139002*
Y0137952*
X0152245Y0137427*
X0153819*
X0152769D02*
X015172Y0136378D01*
X0148571Y0139526D02*
X015067D01*
Y0137952*
X0149621Y0138477*
X0149096*
X0148571Y0137952*
Y0136903*
X0149096Y0136378*
X0150145*
X015067Y0136903*
X0145423Y0139526D02*
X0146472Y0139002D01*
X0147522Y0137952*
Y0136903*
X0146997Y0136378*
X0145947*
X0145423Y0136903*
Y0137427*
X0145947Y0137952*
X0147522*
X0098071Y0150256D02*
Y0153404D01*
X0096497*
X0095972Y015288*
Y015183*
X0096497Y0151305*
X0098071*
X0097021D02*
X0095972Y0150256D01*
X0093348D02*
Y0153404D01*
X0094922Y015183*
X0092823*
X0089675Y0153404D02*
X0090724Y015288D01*
X0091774Y015183*
Y0150781*
X0091249Y0150256*
X0090199*
X0089675Y0150781*
Y0151305*
X0090199Y015183*
X0091774*
X0098071Y0105256D02*
Y0108405D01*
X0096497*
X0095972Y010788*
Y010683*
X0096497Y0106305*
X0098071*
X0097021D02*
X0095972Y0105256D01*
X0093348D02*
Y0108405D01*
X0094922Y010683*
X0092823*
X0089675Y0108405D02*
X0091774D01*
Y010683*
X0090724Y0107355*
X0090199*
X0089675Y010683*
Y0105781*
X0090199Y0105256*
X0091249*
X0091774Y0105781*
X0125591Y0216142D02*
Y021929D01*
X0124016*
X0123492Y0218766*
Y0217716*
X0124016Y0217191*
X0125591*
X0124541D02*
X0123492Y0216142D01*
X0120868D02*
Y021929D01*
X0122442Y0217716*
X0120343*
X0117719Y0216142D02*
Y021929D01*
X0119293Y0217716*
X0117194*
X0125591Y0200787D02*
Y0203936D01*
X0124016*
X0123492Y0203411*
Y0202362*
X0124016Y0201837*
X0125591*
X0124541D02*
X0123492Y0200787D01*
X0122442Y0203411D02*
X0121917Y0203936D01*
X0120868*
X0120343Y0203411*
Y0202887*
X0120868Y0202362*
X0121392*
X0120868*
X0120343Y0201837*
Y0201312*
X0120868Y0200787*
X0121917*
X0122442Y0201312*
X0119293Y0203411D02*
X0118769Y0203936D01*
X0117719*
X0117194Y0203411*
Y0202887*
X0117719Y0202362*
X0117194Y0201837*
Y0201312*
X0117719Y0200787*
X0118769*
X0119293Y0201312*
Y0201837*
X0118769Y0202362*
X0119293Y0202887*
Y0203411*
X0118769Y0202362D02*
X0117719D01*
X0098425Y0216142D02*
Y021929D01*
X0096851*
X0096326Y0218766*
Y0217716*
X0096851Y0217191*
X0098425*
X0097376D02*
X0096326Y0216142D01*
X0095277Y0218766D02*
X0094752Y021929D01*
X0093702*
X0093177Y0218766*
Y0218241*
X0093702Y0217716*
X0094227*
X0093702*
X0093177Y0217191*
Y0216667*
X0093702Y0216142*
X0094752*
X0095277Y0216667*
X0090029Y0216142D02*
X0092128D01*
X0090029Y0218241*
Y0218766*
X0090554Y021929*
X0091603*
X0092128Y0218766*
X0097244Y0200787D02*
Y0203936D01*
X009567*
X0095145Y0203411*
Y0202362*
X009567Y0201837*
X0097244*
X0096195D02*
X0095145Y0200787D01*
X0094095Y0203411D02*
X0093571Y0203936D01*
X0092521*
X0091997Y0203411*
Y0202887*
X0092521Y0202362*
X0093046*
X0092521*
X0091997Y0201837*
Y0201312*
X0092521Y0200787*
X0093571*
X0094095Y0201312*
X0090947Y0200787D02*
X0089897D01*
X0090422*
Y0203936*
X0090947Y0203411*
X0329321Y0346506D02*
Y0349655D01*
X0327747*
X0327222Y034913*
Y034808*
X0327747Y0347555*
X0329321*
X0328271D02*
X0327222Y0346506D01*
X0326172Y0349655D02*
X0324073D01*
Y034913*
X0326172Y0347031*
Y0346506*
X0316821Y0299006D02*
Y0302154D01*
X0315247*
X0314722Y030163*
Y030058*
X0315247Y0300055*
X0316821*
X0315771D02*
X0314722Y0299006D01*
X0311573Y0302154D02*
X0312623Y030163D01*
X0313672Y030058*
Y0299531*
X0313147Y0299006*
X0312098*
X0311573Y0299531*
Y0300055*
X0312098Y030058*
X0313672*
X0264043Y0179789D02*
X0264567Y0180314D01*
X0265617*
X0266142Y0179789*
Y017769*
X0265617Y0177165*
X0264567*
X0264043Y017769*
X0260894Y0180314D02*
X0262993D01*
Y017874*
X0261944Y0179264*
X0261419*
X0260894Y017874*
Y017769*
X0261419Y0177165*
X0262468*
X0262993Y017769*
X0259845Y0180314D02*
X0257746D01*
Y0179789*
X0259845Y017769*
Y0177165*
X0265224Y0242388D02*
X0265749Y0242912D01*
X0266798*
X0267323Y0242388*
Y0240288*
X0266798Y0239764*
X0265749*
X0265224Y0240288*
X0262075Y0242912D02*
X0264174D01*
Y0241338*
X0263125Y0241863*
X02626*
X0262075Y0241338*
Y0240288*
X02626Y0239764*
X026365*
X0264174Y0240288*
X0259451Y0239764D02*
Y0242912D01*
X0261026Y0241338*
X0258927*
X0187271Y018097D02*
X0187796Y0181495D01*
X0188845*
X018937Y018097*
Y0178871*
X0188845Y0178347*
X0187796*
X0187271Y0178871*
X0184647Y0178347D02*
Y0181495D01*
X0186222Y0179921*
X0184122*
X0183073Y018097D02*
X0182548Y0181495D01*
X0181499*
X0180974Y018097*
Y0180446*
X0181499Y0179921*
X0182023*
X0181499*
X0180974Y0179396*
Y0178871*
X0181499Y0178347*
X0182548*
X0183073Y0178871*
X0187271Y0242388D02*
X0187796Y0242912D01*
X0188845*
X018937Y0242388*
Y0240288*
X0188845Y0239764*
X0187796*
X0187271Y0240288*
X0186222Y0242388D02*
X0185697Y0242912D01*
X0184647*
X0184122Y0242388*
Y0241863*
X0184647Y0241338*
X0185172*
X0184647*
X0184122Y0240813*
Y0240288*
X0184647Y0239764*
X0185697*
X0186222Y0240288*
X0183073D02*
X0182548Y0239764D01*
X0181499*
X0180974Y0240288*
Y0242388*
X0181499Y0242912*
X0182548*
X0183073Y0242388*
Y0241863*
X0182548Y0241338*
X0180974*
X0109318Y0179789D02*
X0109843Y0180314D01*
X0110893*
X0111417Y0179789*
Y017769*
X0110893Y0177165*
X0109843*
X0109318Y017769*
X0108269Y0179789D02*
X0107744Y0180314D01*
X0106694*
X010617Y0179789*
Y0179264*
X0106694Y017874*
X0107219*
X0106694*
X010617Y0178215*
Y017769*
X0106694Y0177165*
X0107744*
X0108269Y017769*
X010512Y0177165D02*
X0104071D01*
X0104595*
Y0180314*
X010512Y0179789*
X0110499Y0242388D02*
X0111024Y0242912D01*
X0112074*
X0112598Y0242388*
Y0240288*
X0112074Y0239764*
X0111024*
X0110499Y0240288*
X0107351Y0239764D02*
X010945D01*
X0107351Y0241863*
Y0242388*
X0107876Y0242912*
X0108925*
X010945Y0242388*
X0106301D02*
X0105777Y0242912D01*
X0104727*
X0104202Y0242388*
Y0241863*
X0104727Y0241338*
X0104202Y0240813*
Y0240288*
X0104727Y0239764*
X0105777*
X0106301Y0240288*
Y0240813*
X0105777Y0241338*
X0106301Y0241863*
Y0242388*
X0105777Y0241338D02*
X0104727D01*
X0255775Y0140813D02*
X02563Y0141338D01*
X0257349*
X0257874Y0140813*
Y0138714*
X0257349Y0138189*
X02563*
X0255775Y0138714*
X0252626Y0138189D02*
X0254725D01*
X0252626Y0140288*
Y0140813*
X0253151Y0141338*
X0254201*
X0254725Y0140813*
X0249478Y0141338D02*
X0251577D01*
Y0139763*
X0250527Y0140288*
X0250003*
X0249478Y0139763*
Y0138714*
X0250003Y0138189*
X0251052*
X0251577Y0138714*
X0238058Y0140813D02*
X0238583Y0141338D01*
X0239633*
X0240158Y0140813*
Y0138714*
X0239633Y0138189*
X0238583*
X0238058Y0138714*
X023491Y0138189D02*
X0237009D01*
X023491Y0140288*
Y0140813*
X0235435Y0141338*
X0236484*
X0237009Y0140813*
X0232286Y0138189D02*
Y0141338D01*
X023386Y0139763*
X0231761*
X0344722Y032413D02*
X0345247Y0324655D01*
X0346296*
X0346821Y032413*
Y0322031*
X0346296Y0321506*
X0345247*
X0344722Y0322031*
X0341573Y0321506D02*
X0343672D01*
X0341573Y0323605*
Y032413*
X0342098Y0324655*
X0343147*
X0343672Y032413*
X0340524D02*
X0339999Y0324655D01*
X0338949*
X0338425Y032413*
Y0323605*
X0338949Y032308*
X0339474*
X0338949*
X0338425Y0322555*
Y0322031*
X0338949Y0321506*
X0339999*
X0340524Y0322031*
X0344722Y028663D02*
X0345247Y0287155D01*
X0346296*
X0346821Y028663*
Y0284531*
X0346296Y0284006*
X0345247*
X0344722Y0284531*
X0341573Y0284006D02*
X0343672D01*
X0341573Y0286105*
Y028663*
X0342098Y0287155*
X0343147*
X0343672Y028663*
X0340524D02*
X0339999Y0287155D01*
X0338949*
X0338425Y028663*
Y0284531*
X0338949Y0284006*
X0339999*
X0340524Y0284531*
Y028663*
X001172Y0204002D02*
X0012245Y0204526D01*
X0013294*
X0013819Y0204002*
Y0201903*
X0013294Y0201378*
X0012245*
X001172Y0201903*
X001067Y0201378D02*
X0009621D01*
X0010146*
Y0204526*
X001067Y0204002*
X0008046Y0201903D02*
X0007522Y0201378D01*
X0006472*
X0005947Y0201903*
Y0204002*
X0006472Y0204526*
X0007522*
X0008046Y0204002*
Y0203477*
X0007522Y0202952*
X0005947*
X001172Y0224002D02*
X0012245Y0224527D01*
X0013294*
X0013819Y0224002*
Y0221903*
X0013294Y0221378*
X0012245*
X001172Y0221903*
X001067Y0221378D02*
X0009621D01*
X0010146*
Y0224527*
X001067Y0224002*
X0008046D02*
X0007522Y0224527D01*
X0006472*
X0005947Y0224002*
Y0223477*
X0006472Y0222952*
X0005947Y0222428*
Y0221903*
X0006472Y0221378*
X0007522*
X0008046Y0221903*
Y0222428*
X0007522Y0222952*
X0008046Y0223477*
Y0224002*
X0007522Y0222952D02*
X0006472D01*
G54D12*
X0561398Y0038681D02*
Y0039075D01*
Y0043681D02*
Y0044075D01*
X0558484Y0038681D02*
Y0039075D01*
Y0043681D02*
Y0044075D01*
X0528996Y012502D02*
X0531358D01*
X0528996Y012187D02*
Y012502D01*
Y0113209D02*
X0531358D01*
X0528996D02*
Y0116358D01*
X0483622Y0095335D02*
X0484016D01*
X0464114Y0130059D02*
Y0130453D01*
X0444528Y0130059D02*
Y0130453D01*
X0335236Y0232559D02*
Y0232953D01*
Y0227559D02*
Y0227953D01*
X0416614Y0210059D02*
Y0210453D01*
X0518622Y0251299D02*
X0519016D01*
X0336122Y0281713D02*
X0336516D01*
X0248406Y0315059D02*
Y0315453D01*
X0170374Y0282835D02*
X0170768D01*
X0170374Y0299921D02*
X0170768D01*
X0437736Y0167559D02*
Y0167953D01*
X0336122Y0324921D02*
X0336516D01*
X0063622Y0297421D02*
X0064016D01*
X0262874Y0237421D02*
X0263268D01*
X0262874Y018309D02*
X0263268D01*
X0185374Y0237421D02*
X0185768D01*
X0185374Y0183091D02*
X0185768D01*
X0107874Y0237421D02*
X0108268D01*
X0107874Y0183091D02*
X0108268D01*
X0259626Y0143208D02*
X026002D01*
X0229626Y0136121D02*
X023002D01*
X0011122Y0193957D02*
X0011516D01*
X0011122Y0213957D02*
X0011516D01*
G54D13*
X0346299Y0143051D02*
X0349941D01*
X0346299Y0135768D02*
X0349941D01*
X0346299Y0141083D02*
Y0143051D01*
Y0135768D02*
Y0137736D01*
X0358799Y0184488D02*
X0362441D01*
X0358799Y0177205D02*
X0362441D01*
X0358799Y018252D02*
Y0184488D01*
Y0177205D02*
Y0179173D01*
X0458799Y0200551D02*
X0462441D01*
X0458799Y0193268D02*
X0462441D01*
X0458799Y0198583D02*
Y0200551D01*
Y0193268D02*
Y0195236D01*
X0493799Y0200551D02*
X0497441D01*
X0493799Y0193268D02*
X0497441D01*
X0493799Y0198583D02*
Y0200551D01*
Y0193268D02*
Y0195236D01*
X0464153Y0070236D02*
Y0072205D01*
Y0075551D02*
Y007752D01*
Y0070236D02*
X0467795D01*
X0464153Y007752D02*
X0467795D01*
G54D14*
X0354184Y0141397D02*
X0354193Y0141387D01*
X0354184Y0141378*
X0354174Y0141387*
X0354184Y0141397*
X0366684Y0182834D02*
X0366693Y0182824D01*
X0366684Y0182815*
X0366674Y0182824*
X0366684Y0182834*
X0466684Y0198897D02*
X0466693Y0198887D01*
X0466684Y0198878*
X0466674Y0198887*
X0466684Y0198897*
X0501684D02*
X0501693Y0198887D01*
X0501684Y0198878*
X0501674Y0198887*
X0501684Y0198897*
X0472038Y0075865D02*
X0472047Y0075856D01*
X0472038Y0075846*
X0472028Y0075856*
X0472038Y0075865*
M02*