%FSTAX25Y25*%
%MOIN*%
%SFA1B1*%

%IPPOS*%
%AMD11*
4,1,8,0.006600,0.014800,-0.006600,0.014800,-0.008900,0.012500,-0.008900,-0.012500,-0.006600,-0.014800,0.006600,-0.014800,0.008900,-0.012500,0.008900,0.012500,0.006600,0.014800,0.0*
1,1,0.004440,0.006600,0.012500*
1,1,0.004440,-0.006600,0.012500*
1,1,0.004440,-0.006600,-0.012500*
1,1,0.004440,0.006600,-0.012500*
%
%ADD10R,0.051180X0.035430*%
G04~CAMADD=11~8~0.0~0.0~177.2~295.3~22.2~0.0~15~0.0~0.0~0.0~0.0~0~0.0~0.0~0.0~0.0~0~0.0~0.0~0.0~0.0~177.2~295.3*
%ADD11D11*%
%ADD12R,0.035430X0.051180*%
%ADD13O,0.027560X0.106300*%
%ADD14O,0.070870X0.011810*%
%ADD15R,0.019680X0.015750*%
%LNdigitalizador_rpi-1*%
%LPD*%
G54D10*
X054006Y0272943D03*
Y0265069D03*
X0353819Y0071752D03*
Y0063878D03*
X0343819Y0071752D03*
Y0063878D03*
X0333819Y0071752D03*
Y0063878D03*
X0323819Y0071752D03*
Y0063878D03*
X0353819Y0087815D03*
Y0079941D03*
X0323819Y0087815D03*
Y0079941D03*
X0343819Y0087815D03*
Y0079941D03*
X0333819Y0087815D03*
Y0079941D03*
G54D11*
X0538091Y0252343D03*
X0542028D03*
X0540059Y0258051D03*
G54D12*
X0536457Y0243307D03*
X0544331D03*
X0269134Y0185256D03*
X0277008D03*
X0249134D03*
X0257008D03*
X0191634D03*
X0199508D03*
X0171634D03*
X0179508D03*
X0114134D03*
X0122008D03*
X0094134D03*
X0102008D03*
X0017382Y0023878D03*
X0025256D03*
X0017382Y0031378D03*
X0025256D03*
X0017382Y0076378D03*
X0025256D03*
X0017382Y0068878D03*
X0025256D03*
X0017382Y0061378D03*
X0025256D03*
X0017382Y0053878D03*
X0025256D03*
X0017382Y0046378D03*
X0025256D03*
X0017382Y0038878D03*
X0025256D03*
X0105256Y0023878D03*
X0097382D03*
X0105256Y0031378D03*
X0097382D03*
X0105256Y0076378D03*
X0097382D03*
X0105256Y0068878D03*
X0097382D03*
X0105256Y0061378D03*
X0097382D03*
X0105256Y0053878D03*
X0097382D03*
X0105256Y0046378D03*
X0097382D03*
X0105256Y0038878D03*
X0097382D03*
X0112382Y0023878D03*
X0120256D03*
X0112382Y0031378D03*
X0120256D03*
X0112382Y0068878D03*
X0120256D03*
X0112382Y0061378D03*
X0120256D03*
X0112382Y0053878D03*
X0120256D03*
X0112382Y0046378D03*
X0120256D03*
X0112382Y0038878D03*
X0120256D03*
X0200256Y0023878D03*
X0192382D03*
X0200256Y0031378D03*
X0192382D03*
X0200256Y0076378D03*
X0192382D03*
X0200256Y0068878D03*
X0192382D03*
X0200256Y0061378D03*
X0192382D03*
X0200256Y0053878D03*
X0192382D03*
X0200256Y0046378D03*
X0192382D03*
X0200256Y0038878D03*
X0192382D03*
X0207382Y0031378D03*
X0215256D03*
X0207382Y0023878D03*
X0215256D03*
X0207382Y0076378D03*
X0215256D03*
X0207382Y0068878D03*
X0215256D03*
X0207382Y0061378D03*
X0215256D03*
X0207382Y0053878D03*
X0215256D03*
X0207382Y0046378D03*
X0215256D03*
X0207382Y0038878D03*
X0215256D03*
X0295256Y0023878D03*
X0287382D03*
X0295256Y0031378D03*
X0287382D03*
X0295256Y0038878D03*
X0287382D03*
X0295256Y0046378D03*
X0287382D03*
X0295256Y0053878D03*
X0287382D03*
X0295256Y0061378D03*
X0287382D03*
X0295256Y0068878D03*
X0287382D03*
X0295256Y0076378D03*
X0287382D03*
X0112382D03*
X0120256D03*
X0249134Y0235256D03*
X0257008D03*
X0277008D03*
X0269134D03*
X0199508D03*
X0191634D03*
X0171634D03*
X0179508D03*
X0122008D03*
X0114134D03*
X0094134D03*
X0102008D03*
G54D13*
X0200571Y0220256D03*
X0195571D03*
X0190571D03*
X0185571D03*
X0180571D03*
X0175571D03*
X0170571D03*
X0200571Y0200964D03*
X0195571D03*
X0190571D03*
X0185571D03*
X0180571D03*
X0175571D03*
X0170571D03*
X0248071D03*
X0253071D03*
X0258071D03*
X0263071D03*
X0268071D03*
X0273071D03*
X0278071D03*
X0248071Y0220256D03*
X0253071D03*
X0258071D03*
X0263071D03*
X0268071D03*
X0273071D03*
X0278071D03*
X0093071Y0200964D03*
X0098071D03*
X0103071D03*
X0108071D03*
X0113071D03*
X0118071D03*
X0123071D03*
X0093071Y0220256D03*
X0098071D03*
X0103071D03*
X0108071D03*
X0113071D03*
X0118071D03*
X0123071D03*
G54D14*
X0263819Y0033465D03*
Y0036024D03*
Y0038583D03*
Y0041142D03*
Y0043701D03*
Y004626D03*
Y0048819D03*
Y0051378D03*
Y0053937D03*
Y0056496D03*
Y0059055D03*
Y0061614D03*
Y0064173D03*
Y0066732D03*
X0238622D03*
Y0064173D03*
Y0061614D03*
Y0059055D03*
Y0056496D03*
Y0053937D03*
Y0051378D03*
Y0048819D03*
Y004626D03*
Y0043701D03*
Y0041142D03*
Y0038583D03*
Y0036024D03*
Y0033465D03*
X0168819D03*
Y0036024D03*
Y0038583D03*
Y0041142D03*
Y0043701D03*
Y004626D03*
Y0048819D03*
Y0051378D03*
Y0053937D03*
Y0056496D03*
Y0059055D03*
Y0061614D03*
Y0064173D03*
Y0066732D03*
X0143622D03*
Y0064173D03*
Y0061614D03*
Y0059055D03*
Y0056496D03*
Y0053937D03*
Y0051378D03*
Y0048819D03*
Y004626D03*
Y0043701D03*
Y0041142D03*
Y0038583D03*
Y0036024D03*
Y0033465D03*
X0074016D03*
Y0036024D03*
Y0038583D03*
Y0041142D03*
Y0043701D03*
Y004626D03*
Y0048819D03*
Y0051378D03*
Y0053937D03*
Y0056496D03*
Y0059055D03*
Y0061614D03*
Y0064173D03*
Y0066732D03*
X0048819D03*
Y0064173D03*
Y0061614D03*
Y0059055D03*
Y0056496D03*
Y0053937D03*
Y0051378D03*
Y0048819D03*
Y004626D03*
Y0043701D03*
Y0041142D03*
Y0038583D03*
Y0036024D03*
Y0033465D03*
G54D15*
X0256949Y0072756D03*
X0254193D03*
X0244193D03*
X0246949D03*
X0161949D03*
X0159193D03*
X0149193D03*
X0151949D03*
X0066949D03*
X0064193D03*
X0054193D03*
X0056949D03*
X0106063Y0103878D03*
X0108819D03*
X0081575D03*
X0078819D03*
X0153563D03*
X0156319D03*
X0129075D03*
X0126319D03*
X0201063D03*
X0203819D03*
X0176575D03*
X0173819D03*
M02*