G04*
G04 #@! TF.GenerationSoftware,Altium Limited,Altium Designer,19.0.15 (446)*
G04*
G04 Layer_Color=32896*
%FSLAX25Y25*%
%MOIN*%
G70*
G01*
G75*
%ADD10C,0.00984*%
%ADD11C,0.00591*%
%ADD12C,0.00787*%
%ADD13C,0.00500*%
%ADD14C,0.01378*%
D10*
X535787Y126201D02*
X535049Y126627D01*
Y125775D01*
X535787Y126201D01*
D11*
X237913Y216673D02*
Y218937D01*
X243229Y216673D02*
Y218839D01*
X237913Y201673D02*
Y203937D01*
X243229Y201673D02*
Y203838D01*
X282913Y201673D02*
Y203937D01*
X288229Y201673D02*
Y203838D01*
Y216575D02*
Y218839D01*
X282913Y216673D02*
Y218839D01*
X160413Y201673D02*
Y203937D01*
X165728Y201673D02*
Y203838D01*
X160414Y216673D02*
Y218937D01*
X165728Y216673D02*
Y218839D01*
X205414Y201673D02*
Y203937D01*
X210729Y201673D02*
Y203838D01*
Y216575D02*
Y218839D01*
X205414Y216673D02*
Y218839D01*
X127913Y201673D02*
Y203937D01*
X133229Y201673D02*
Y203838D01*
Y216575D02*
Y218839D01*
X127913Y216673D02*
Y218839D01*
X82914Y201673D02*
Y203937D01*
X88228Y201673D02*
Y203838D01*
X82914Y216673D02*
Y218937D01*
X88228Y216673D02*
Y218839D01*
X531240Y133228D02*
X533504D01*
X531240Y127913D02*
X533405D01*
X476161Y72795D02*
Y75059D01*
X481476Y72795D02*
Y74961D01*
X466299Y86535D02*
X468563D01*
X466299Y81221D02*
X468465D01*
X477914Y116673D02*
Y118839D01*
X483228Y116575D02*
Y118839D01*
X358662Y137795D02*
Y140059D01*
X363977Y137795D02*
Y139961D01*
X347736Y131535D02*
X350000D01*
X347736Y126221D02*
X349902D01*
X341476Y174134D02*
Y176398D01*
X336161Y174232D02*
Y176398D01*
X368661Y180295D02*
Y182559D01*
X373976Y180295D02*
Y182461D01*
X441476Y232658D02*
Y234921D01*
X436161Y232756D02*
Y234921D01*
X460236Y209035D02*
X462500D01*
X460236Y203720D02*
X462402D01*
X468661Y195295D02*
Y197559D01*
X473977Y195295D02*
Y197461D01*
X478661Y203858D02*
Y206122D01*
X483977Y203858D02*
Y206024D01*
X478661Y190295D02*
Y192559D01*
X483977Y190295D02*
Y192461D01*
X495236Y209035D02*
X497500D01*
X495236Y203720D02*
X497402D01*
X503661Y195295D02*
Y197559D01*
X508977Y195295D02*
Y197461D01*
X543976Y206634D02*
Y208898D01*
X538661Y206732D02*
Y208898D01*
X543976Y226634D02*
Y228898D01*
X538661Y226732D02*
Y228898D01*
X501476Y247697D02*
Y249961D01*
X496162Y247795D02*
Y249961D01*
X491476Y247697D02*
Y249961D01*
X486162Y247795D02*
Y249961D01*
X316476Y290197D02*
Y292460D01*
X311161Y290295D02*
Y292460D01*
X322730Y338720D02*
X324994D01*
X322828Y344035D02*
X324994D01*
X391673Y234035D02*
X393839D01*
X391575Y228720D02*
X393839D01*
X436161Y247795D02*
Y249961D01*
X441476Y247697D02*
Y249961D01*
X360236Y168720D02*
X362402D01*
X360236Y174036D02*
X362500D01*
X187638Y111221D02*
X189901D01*
X187736Y116535D02*
X189901D01*
X187736Y126535D02*
X190000D01*
X187736Y121221D02*
X189901D01*
X187638Y131220D02*
X189901D01*
X187736Y136535D02*
X189901D01*
X187736Y146535D02*
X190000D01*
X187736Y141220D02*
X189901D01*
X140138Y111221D02*
X142402D01*
X140236Y116535D02*
X142402D01*
X140236Y126535D02*
X142500D01*
X140236Y121221D02*
X142402D01*
X140138Y131220D02*
X142402D01*
X140236Y136535D02*
X142402D01*
X140236Y146535D02*
X142500D01*
X140236Y141220D02*
X142402D01*
X92638Y111221D02*
X94902D01*
X92736Y116535D02*
X94902D01*
X92736Y126535D02*
X95000D01*
X92736Y121221D02*
X94902D01*
X92638Y131220D02*
X94902D01*
X92736Y136535D02*
X94902D01*
X92736Y146535D02*
X95000D01*
X92736Y141220D02*
X94902D01*
X170972Y280380D02*
X171497Y280905D01*
X172546D01*
X173071Y280380D01*
Y278281D01*
X172546Y277756D01*
X171497D01*
X170972Y278281D01*
X169922Y280380D02*
X169397Y280905D01*
X168348D01*
X167823Y280380D01*
Y279855D01*
X168348Y279330D01*
X167823Y278805D01*
Y278281D01*
X168348Y277756D01*
X169397D01*
X169922Y278281D01*
Y278805D01*
X169397Y279330D01*
X169922Y279855D01*
Y280380D01*
X169397Y279330D02*
X168348D01*
X170972Y305380D02*
X171497Y305905D01*
X172546D01*
X173071Y305380D01*
Y303281D01*
X172546Y302756D01*
X171497D01*
X170972Y303281D01*
X169922Y305905D02*
X167823D01*
Y305380D01*
X169922Y303281D01*
Y302756D01*
X252222Y312880D02*
X252747Y313404D01*
X253796D01*
X254321Y312880D01*
Y310781D01*
X253796Y310256D01*
X252747D01*
X252222Y310781D01*
X249073Y310256D02*
X251172D01*
X249073Y312355D01*
Y312880D01*
X249598Y313404D01*
X250647D01*
X251172Y312880D01*
X413472Y207880D02*
X413997Y208404D01*
X415046D01*
X415571Y207880D01*
Y205781D01*
X415046Y205256D01*
X413997D01*
X413472Y205781D01*
X412422Y205256D02*
X411373D01*
X411898D01*
Y208404D01*
X412422Y207880D01*
X407699Y208404D02*
X409798D01*
Y206830D01*
X408749Y207355D01*
X408224D01*
X407699Y206830D01*
Y205781D01*
X408224Y205256D01*
X409274D01*
X409798Y205781D01*
X437572Y174180D02*
X438097Y174705D01*
X439146D01*
X439671Y174180D01*
Y172081D01*
X439146Y171556D01*
X438097D01*
X437572Y172081D01*
X436522Y171556D02*
X435473D01*
X435997D01*
Y174705D01*
X436522Y174180D01*
X432324Y171556D02*
Y174705D01*
X433898Y173130D01*
X431799D01*
X343472Y229130D02*
X343997Y229655D01*
X345046D01*
X345571Y229130D01*
Y227031D01*
X345046Y226506D01*
X343997D01*
X343472Y227031D01*
X342422Y226506D02*
X341373D01*
X341898D01*
Y229655D01*
X342422Y229130D01*
X339798D02*
X339274Y229655D01*
X338224D01*
X337699Y229130D01*
Y228605D01*
X338224Y228080D01*
X338749D01*
X338224D01*
X337699Y227555D01*
Y227031D01*
X338224Y226506D01*
X339274D01*
X339798Y227031D01*
X343472Y234130D02*
X343997Y234654D01*
X345046D01*
X345571Y234130D01*
Y232031D01*
X345046Y231506D01*
X343997D01*
X343472Y232031D01*
X342422Y231506D02*
X341373D01*
X341898D01*
Y234654D01*
X342422Y234130D01*
X337699Y231506D02*
X339798D01*
X337699Y233605D01*
Y234130D01*
X338224Y234654D01*
X339274D01*
X339798Y234130D01*
X462222Y135380D02*
X462747Y135905D01*
X463796D01*
X464321Y135380D01*
Y133281D01*
X463796Y132756D01*
X462747D01*
X462222Y133281D01*
X461172Y132756D02*
X460123D01*
X460647D01*
Y135905D01*
X461172Y135380D01*
X458548Y132756D02*
X457499D01*
X458024D01*
Y135905D01*
X458548Y135380D01*
X448472D02*
X448997Y135905D01*
X450046D01*
X450571Y135380D01*
Y133281D01*
X450046Y132756D01*
X448997D01*
X448472Y133281D01*
X447422Y135380D02*
X446898Y135905D01*
X445848D01*
X445323Y135380D01*
Y134855D01*
X445848Y134330D01*
X446373D01*
X445848D01*
X445323Y133805D01*
Y133281D01*
X445848Y132756D01*
X446898D01*
X447422Y133281D01*
X485571Y125256D02*
Y128404D01*
X483997D01*
X483472Y127880D01*
Y126830D01*
X483997Y126305D01*
X485571D01*
X484521D02*
X483472Y125256D01*
X482422D02*
X481373D01*
X481897D01*
Y128404D01*
X482422Y127880D01*
X479798Y125256D02*
X478749D01*
X479274D01*
Y128404D01*
X479798Y127880D01*
X477175Y125781D02*
X476650Y125256D01*
X475600D01*
X475076Y125781D01*
Y127880D01*
X475600Y128404D01*
X476650D01*
X477175Y127880D01*
Y127355D01*
X476650Y126830D01*
X475076D01*
X545571Y235256D02*
Y238404D01*
X543997D01*
X543472Y237880D01*
Y236830D01*
X543997Y236305D01*
X545571D01*
X544521D02*
X543472Y235256D01*
X542422D02*
X541373D01*
X541897D01*
Y238404D01*
X542422Y237880D01*
X539798Y235256D02*
X538749D01*
X539274D01*
Y238404D01*
X539798Y237880D01*
X537175D02*
X536650Y238404D01*
X535600D01*
X535076Y237880D01*
Y237355D01*
X535600Y236830D01*
X535076Y236305D01*
Y235781D01*
X535600Y235256D01*
X536650D01*
X537175Y235781D01*
Y236305D01*
X536650Y236830D01*
X537175Y237355D01*
Y237880D01*
X536650Y236830D02*
X535600D01*
X545571Y215256D02*
Y218405D01*
X543997D01*
X543472Y217880D01*
Y216830D01*
X543997Y216305D01*
X545571D01*
X544521D02*
X543472Y215256D01*
X542422D02*
X541373D01*
X541897D01*
Y218405D01*
X542422Y217880D01*
X539798Y215256D02*
X538749D01*
X539274D01*
Y218405D01*
X539798Y217880D01*
X537175Y218405D02*
X535076D01*
Y217880D01*
X537175Y215781D01*
Y215256D01*
X383993Y236678D02*
X380844D01*
Y235104D01*
X381369Y234579D01*
X382419D01*
X382943Y235104D01*
Y236678D01*
Y235629D02*
X383993Y234579D01*
Y233529D02*
Y232480D01*
Y233005D01*
X380844D01*
X381369Y233529D01*
Y230906D02*
X380844Y230381D01*
Y229331D01*
X381369Y228807D01*
X383468D01*
X383993Y229331D01*
Y230381D01*
X383468Y230906D01*
X381369D01*
X340571Y182756D02*
Y185905D01*
X338997D01*
X338472Y185380D01*
Y184330D01*
X338997Y183805D01*
X340571D01*
X339521D02*
X338472Y182756D01*
X337422D02*
X336373D01*
X336897D01*
Y185905D01*
X337422Y185380D01*
X548472Y45380D02*
X548997Y45904D01*
X550046D01*
X550571Y45380D01*
Y43281D01*
X550046Y42756D01*
X548997D01*
X548472Y43281D01*
X545323Y45904D02*
X547422D01*
Y44330D01*
X546373Y44855D01*
X545848D01*
X545323Y44330D01*
Y43281D01*
X545848Y42756D01*
X546898D01*
X547422Y43281D01*
X544274Y42756D02*
X543224D01*
X543749D01*
Y45904D01*
X544274Y45380D01*
X548472Y40380D02*
X548997Y40905D01*
X550046D01*
X550571Y40380D01*
Y38281D01*
X550046Y37756D01*
X548997D01*
X548472Y38281D01*
X545323Y40905D02*
X547422D01*
Y39330D01*
X546373Y39855D01*
X545848D01*
X545323Y39330D01*
Y38281D01*
X545848Y37756D01*
X546898D01*
X547422Y38281D01*
X544274Y40380D02*
X543749Y40905D01*
X542699D01*
X542175Y40380D01*
Y38281D01*
X542699Y37756D01*
X543749D01*
X544274Y38281D01*
Y40380D01*
X575972D02*
X576497Y40905D01*
X577546D01*
X578071Y40380D01*
Y38281D01*
X577546Y37756D01*
X576497D01*
X575972Y38281D01*
X573348Y37756D02*
Y40905D01*
X574922Y39330D01*
X572823D01*
X571774Y38281D02*
X571249Y37756D01*
X570199D01*
X569675Y38281D01*
Y40380D01*
X570199Y40905D01*
X571249D01*
X571774Y40380D01*
Y39855D01*
X571249Y39330D01*
X569675D01*
X575972Y45380D02*
X576497Y45904D01*
X577546D01*
X578071Y45380D01*
Y43281D01*
X577546Y42756D01*
X576497D01*
X575972Y43281D01*
X573348Y42756D02*
Y45904D01*
X574922Y44330D01*
X572823D01*
X571774Y45380D02*
X571249Y45904D01*
X570199D01*
X569675Y45380D01*
Y44855D01*
X570199Y44330D01*
X569675Y43805D01*
Y43281D01*
X570199Y42756D01*
X571249D01*
X571774Y43281D01*
Y43805D01*
X571249Y44330D01*
X571774Y44855D01*
Y45380D01*
X571249Y44330D02*
X570199D01*
X353071Y120256D02*
Y123405D01*
X351497D01*
X350972Y122880D01*
Y121830D01*
X351497Y121305D01*
X353071D01*
X352021D02*
X350972Y120256D01*
X349922Y120781D02*
X349397Y120256D01*
X348348D01*
X347823Y120781D01*
Y122880D01*
X348348Y123405D01*
X349397D01*
X349922Y122880D01*
Y122355D01*
X349397Y121830D01*
X347823D01*
X346774Y123405D02*
X344675D01*
Y122880D01*
X346774Y120781D01*
Y120256D01*
X365571Y146506D02*
Y149654D01*
X363997D01*
X363472Y149130D01*
Y148080D01*
X363997Y147555D01*
X365571D01*
X364521D02*
X363472Y146506D01*
X362422Y147031D02*
X361897Y146506D01*
X360848D01*
X360323Y147031D01*
Y149130D01*
X360848Y149654D01*
X361897D01*
X362422Y149130D01*
Y148605D01*
X361897Y148080D01*
X360323D01*
X357175Y149654D02*
X358224Y149130D01*
X359274Y148080D01*
Y147031D01*
X358749Y146506D01*
X357699D01*
X357175Y147031D01*
Y147555D01*
X357699Y148080D01*
X359274D01*
X500571Y211506D02*
Y214654D01*
X498997D01*
X498472Y214130D01*
Y213080D01*
X498997Y212555D01*
X500571D01*
X499521D02*
X498472Y211506D01*
X497422Y212031D02*
X496898Y211506D01*
X495848D01*
X495323Y212031D01*
Y214130D01*
X495848Y214654D01*
X496898D01*
X497422Y214130D01*
Y213605D01*
X496898Y213080D01*
X495323D01*
X492175Y214654D02*
X494274D01*
Y213080D01*
X493224Y213605D01*
X492699D01*
X492175Y213080D01*
Y212031D01*
X492699Y211506D01*
X493749D01*
X494274Y212031D01*
X511821Y204006D02*
Y207154D01*
X510247D01*
X509722Y206630D01*
Y205580D01*
X510247Y205055D01*
X511821D01*
X510771D02*
X509722Y204006D01*
X508672Y204531D02*
X508147Y204006D01*
X507098D01*
X506573Y204531D01*
Y206630D01*
X507098Y207154D01*
X508147D01*
X508672Y206630D01*
Y206105D01*
X508147Y205580D01*
X506573D01*
X503949Y204006D02*
Y207154D01*
X505524Y205580D01*
X503425D01*
X464321Y211506D02*
Y214654D01*
X462747D01*
X462222Y214130D01*
Y213080D01*
X462747Y212555D01*
X464321D01*
X463271D02*
X462222Y211506D01*
X461172Y214130D02*
X460647Y214654D01*
X459598D01*
X459073Y214130D01*
Y213605D01*
X459598Y213080D01*
X459073Y212555D01*
Y212031D01*
X459598Y211506D01*
X460647D01*
X461172Y212031D01*
Y212555D01*
X460647Y213080D01*
X461172Y213605D01*
Y214130D01*
X460647Y213080D02*
X459598D01*
X456449Y211506D02*
Y214654D01*
X458024Y213080D01*
X455925D01*
X476821Y204006D02*
Y207154D01*
X475247D01*
X474722Y206630D01*
Y205580D01*
X475247Y205055D01*
X476821D01*
X475771D02*
X474722Y204006D01*
X473672Y206630D02*
X473147Y207154D01*
X472098D01*
X471573Y206630D01*
Y206105D01*
X472098Y205580D01*
X471573Y205055D01*
Y204531D01*
X472098Y204006D01*
X473147D01*
X473672Y204531D01*
Y205055D01*
X473147Y205580D01*
X473672Y206105D01*
Y206630D01*
X473147Y205580D02*
X472098D01*
X470524Y206630D02*
X469999Y207154D01*
X468949D01*
X468425Y206630D01*
Y206105D01*
X468949Y205580D01*
X469474D01*
X468949D01*
X468425Y205055D01*
Y204531D01*
X468949Y204006D01*
X469999D01*
X470524Y204531D01*
X378071Y169006D02*
Y172154D01*
X376497D01*
X375972Y171630D01*
Y170580D01*
X376497Y170055D01*
X378071D01*
X377021D02*
X375972Y169006D01*
X374922Y171630D02*
X374397Y172154D01*
X373348D01*
X372823Y171630D01*
Y171105D01*
X373348Y170580D01*
X372823Y170055D01*
Y169531D01*
X373348Y169006D01*
X374397D01*
X374922Y169531D01*
Y170055D01*
X374397Y170580D01*
X374922Y171105D01*
Y171630D01*
X374397Y170580D02*
X373348D01*
X369675Y169006D02*
X371774D01*
X369675Y171105D01*
Y171630D01*
X370199Y172154D01*
X371249D01*
X371774Y171630D01*
X374321Y189006D02*
Y192155D01*
X372747D01*
X372222Y191630D01*
Y190580D01*
X372747Y190055D01*
X374321D01*
X373271D02*
X372222Y189006D01*
X371172Y191630D02*
X370648Y192155D01*
X369598D01*
X369073Y191630D01*
Y191105D01*
X369598Y190580D01*
X369073Y190055D01*
Y189531D01*
X369598Y189006D01*
X370648D01*
X371172Y189531D01*
Y190055D01*
X370648Y190580D01*
X371172Y191105D01*
Y191630D01*
X370648Y190580D02*
X369598D01*
X368024Y189006D02*
X366974D01*
X367499D01*
Y192155D01*
X368024Y191630D01*
X538071Y135256D02*
Y138405D01*
X536497D01*
X535972Y137880D01*
Y136830D01*
X536497Y136305D01*
X538071D01*
X537021D02*
X535972Y135256D01*
X532823D02*
X534922D01*
X532823Y137355D01*
Y137880D01*
X533348Y138405D01*
X534398D01*
X534922Y137880D01*
X529675Y138405D02*
X530724Y137880D01*
X531774Y136830D01*
Y135781D01*
X531249Y135256D01*
X530199D01*
X529675Y135781D01*
Y136305D01*
X530199Y136830D01*
X531774D01*
X488071Y195256D02*
X484922D01*
Y193682D01*
X485447Y193157D01*
X486497D01*
X487021Y193682D01*
Y195256D01*
Y194206D02*
X488071Y193157D01*
Y192107D02*
Y191058D01*
Y191583D01*
X484922D01*
X485447Y192107D01*
X487546Y189483D02*
X488071Y188959D01*
Y187909D01*
X487546Y187384D01*
X485447D01*
X484922Y187909D01*
Y188959D01*
X485447Y189483D01*
X485972D01*
X486497Y188959D01*
Y187384D01*
X451575Y244488D02*
Y247637D01*
X450000D01*
X449476Y247112D01*
Y246062D01*
X450000Y245538D01*
X451575D01*
X450525D02*
X449476Y244488D01*
X448426D02*
X447377D01*
X447901D01*
Y247637D01*
X448426Y247112D01*
X445802D02*
X445278Y247637D01*
X444228D01*
X443703Y247112D01*
Y246587D01*
X444228Y246062D01*
X443703Y245538D01*
Y245013D01*
X444228Y244488D01*
X445278D01*
X445802Y245013D01*
Y245538D01*
X445278Y246062D01*
X445802Y246587D01*
Y247112D01*
X445278Y246062D02*
X444228D01*
X488071Y209035D02*
X484922D01*
Y207461D01*
X485447Y206937D01*
X486497D01*
X487021Y207461D01*
Y209035D01*
Y207986D02*
X488071Y206937D01*
Y205887D02*
Y204837D01*
Y205362D01*
X484922D01*
X485447Y205887D01*
X484922Y203263D02*
Y201164D01*
X485447D01*
X487546Y203263D01*
X488071D01*
X451575Y230315D02*
Y233464D01*
X450000D01*
X449476Y232939D01*
Y231889D01*
X450000Y231364D01*
X451575D01*
X450525D02*
X449476Y230315D01*
X448426D02*
X447377D01*
X447901D01*
Y233464D01*
X448426Y232939D01*
X443703Y233464D02*
X444753Y232939D01*
X445802Y231889D01*
Y230840D01*
X445278Y230315D01*
X444228D01*
X443703Y230840D01*
Y231364D01*
X444228Y231889D01*
X445802D01*
X345972Y145781D02*
Y147880D01*
X346497Y148405D01*
X347546D01*
X348071Y147880D01*
Y145781D01*
X347546Y145256D01*
X346497D01*
X347021Y146305D02*
X345972Y145256D01*
X346497D02*
X345972Y145781D01*
X342823Y148405D02*
X343873Y147880D01*
X344922Y146830D01*
Y145781D01*
X344397Y145256D01*
X343348D01*
X342823Y145781D01*
Y146305D01*
X343348Y146830D01*
X344922D01*
X494722Y188281D02*
Y190380D01*
X495247Y190904D01*
X496296D01*
X496821Y190380D01*
Y188281D01*
X496296Y187756D01*
X495247D01*
X495771Y188805D02*
X494722Y187756D01*
X495247D02*
X494722Y188281D01*
X491573Y190904D02*
X493672D01*
Y189330D01*
X492623Y189855D01*
X492098D01*
X491573Y189330D01*
Y188281D01*
X492098Y187756D01*
X493148D01*
X493672Y188281D01*
X459722D02*
Y190380D01*
X460247Y190904D01*
X461296D01*
X461821Y190380D01*
Y188281D01*
X461296Y187756D01*
X460247D01*
X460771Y188805D02*
X459722Y187756D01*
X460247D02*
X459722Y188281D01*
X457098Y187756D02*
Y190904D01*
X458672Y189330D01*
X456573D01*
X358472Y187031D02*
Y189130D01*
X358997Y189655D01*
X360046D01*
X360571Y189130D01*
Y187031D01*
X360046Y186506D01*
X358997D01*
X359521Y187555D02*
X358472Y186506D01*
X358997D02*
X358472Y187031D01*
X357422Y189130D02*
X356897Y189655D01*
X355848D01*
X355323Y189130D01*
Y188605D01*
X355848Y188080D01*
X356373D01*
X355848D01*
X355323Y187555D01*
Y187031D01*
X355848Y186506D01*
X356897D01*
X357422Y187031D01*
X535899Y119041D02*
X537998D01*
X538522Y118516D01*
Y117467D01*
X537998Y116942D01*
X535899D01*
X535374Y117467D01*
Y118516D01*
X536423Y117991D02*
X535374Y119041D01*
Y118516D02*
X535899Y119041D01*
X535374Y120090D02*
Y121140D01*
Y120615D01*
X538522D01*
X537998Y120090D01*
X471821Y89006D02*
Y92155D01*
X470247D01*
X469722Y91630D01*
Y90580D01*
X470247Y90055D01*
X471821D01*
X470771D02*
X469722Y89006D01*
X466573Y92155D02*
X468672D01*
Y90580D01*
X467623Y91105D01*
X467098D01*
X466573Y90580D01*
Y89531D01*
X467098Y89006D01*
X468148D01*
X468672Y89531D01*
X465524Y91630D02*
X464999Y92155D01*
X463949D01*
X463425Y91630D01*
Y89531D01*
X463949Y89006D01*
X464999D01*
X465524Y89531D01*
Y91630D01*
X484321Y81506D02*
Y84654D01*
X482747D01*
X482222Y84130D01*
Y83080D01*
X482747Y82555D01*
X484321D01*
X483271D02*
X482222Y81506D01*
X479598D02*
Y84654D01*
X481172Y83080D01*
X479073D01*
X478024Y82031D02*
X477499Y81506D01*
X476449D01*
X475925Y82031D01*
Y84130D01*
X476449Y84654D01*
X477499D01*
X478024Y84130D01*
Y83605D01*
X477499Y83080D01*
X475925D01*
X468472Y65781D02*
Y67880D01*
X468997Y68405D01*
X470046D01*
X470571Y67880D01*
Y65781D01*
X470046Y65256D01*
X468997D01*
X469521Y66305D02*
X468472Y65256D01*
X468997D02*
X468472Y65781D01*
X465323Y65256D02*
X467422D01*
X465323Y67355D01*
Y67880D01*
X465848Y68405D01*
X466897D01*
X467422Y67880D01*
X482222Y105380D02*
X482747Y105904D01*
X483796D01*
X484321Y105380D01*
Y103281D01*
X483796Y102756D01*
X482747D01*
X482222Y103281D01*
X481172Y105380D02*
X480648Y105904D01*
X479598D01*
X479073Y105380D01*
Y104855D01*
X479598Y104330D01*
X480123D01*
X479598D01*
X479073Y103805D01*
Y103281D01*
X479598Y102756D01*
X480648D01*
X481172Y103281D01*
X475925Y105904D02*
X476974Y105380D01*
X478024Y104330D01*
Y103281D01*
X477499Y102756D01*
X476449D01*
X475925Y103281D01*
Y103805D01*
X476449Y104330D01*
X478024D01*
X491821Y256506D02*
Y259654D01*
X490247D01*
X489722Y259130D01*
Y258080D01*
X490247Y257555D01*
X491821D01*
X490771D02*
X489722Y256506D01*
X488672Y259130D02*
X488147Y259654D01*
X487098D01*
X486573Y259130D01*
Y258605D01*
X487098Y258080D01*
X486573Y257555D01*
Y257031D01*
X487098Y256506D01*
X488147D01*
X488672Y257031D01*
Y257555D01*
X488147Y258080D01*
X488672Y258605D01*
Y259130D01*
X488147Y258080D02*
X487098D01*
X485524Y259130D02*
X484999Y259654D01*
X483949D01*
X483425Y259130D01*
Y257031D01*
X483949Y256506D01*
X484999D01*
X485524Y257031D01*
Y259130D01*
X503071Y256506D02*
Y259654D01*
X501497D01*
X500972Y259130D01*
Y258080D01*
X501497Y257555D01*
X503071D01*
X502021D02*
X500972Y256506D01*
X499922Y259654D02*
X497823D01*
Y259130D01*
X499922Y257031D01*
Y256506D01*
X496774Y257031D02*
X496249Y256506D01*
X495199D01*
X494675Y257031D01*
Y259130D01*
X495199Y259654D01*
X496249D01*
X496774Y259130D01*
Y258605D01*
X496249Y258080D01*
X494675D01*
X514722Y250380D02*
X515247Y250904D01*
X516296D01*
X516821Y250380D01*
Y248281D01*
X516296Y247756D01*
X515247D01*
X514722Y248281D01*
X512098Y247756D02*
Y250904D01*
X513672Y249330D01*
X511573D01*
X510524Y250380D02*
X509999Y250904D01*
X508949D01*
X508425Y250380D01*
Y248281D01*
X508949Y247756D01*
X509999D01*
X510524Y248281D01*
Y250380D01*
X66420Y303002D02*
X66945Y303526D01*
X67994D01*
X68519Y303002D01*
Y300903D01*
X67994Y300378D01*
X66945D01*
X66420Y300903D01*
X63271Y303526D02*
X64321Y303002D01*
X65370Y301952D01*
Y300903D01*
X64846Y300378D01*
X63796D01*
X63271Y300903D01*
Y301428D01*
X63796Y301952D01*
X65370D01*
X106319Y126378D02*
Y129526D01*
X104745D01*
X104220Y129002D01*
Y127952D01*
X104745Y127427D01*
X106319D01*
X105269D02*
X104220Y126378D01*
X103170Y129002D02*
X102646Y129526D01*
X101596D01*
X101071Y129002D01*
Y128477D01*
X101596Y127952D01*
X102121D01*
X101596D01*
X101071Y127427D01*
Y126903D01*
X101596Y126378D01*
X102646D01*
X103170Y126903D01*
X100022Y129002D02*
X99497Y129526D01*
X98447D01*
X97923Y129002D01*
Y128477D01*
X98447Y127952D01*
X98972D01*
X98447D01*
X97923Y127427D01*
Y126903D01*
X98447Y126378D01*
X99497D01*
X100022Y126903D01*
X106319Y136378D02*
Y139526D01*
X104745D01*
X104220Y139002D01*
Y137952D01*
X104745Y137427D01*
X106319D01*
X105269D02*
X104220Y136378D01*
X101071D02*
X103170D01*
X101071Y138477D01*
Y139002D01*
X101596Y139526D01*
X102646D01*
X103170Y139002D01*
X100022D02*
X99497Y139526D01*
X98447D01*
X97923Y139002D01*
Y138477D01*
X98447Y137952D01*
X98972D01*
X98447D01*
X97923Y137427D01*
Y136903D01*
X98447Y136378D01*
X99497D01*
X100022Y136903D01*
X193071Y150256D02*
Y153404D01*
X191497D01*
X190972Y152880D01*
Y151830D01*
X191497Y151305D01*
X193071D01*
X192021D02*
X190972Y150256D01*
X189922D02*
X188873D01*
X189398D01*
Y153404D01*
X189922Y152880D01*
X187299Y150256D02*
X186249D01*
X186774D01*
Y153404D01*
X187299Y152880D01*
X183100Y150256D02*
Y153404D01*
X184675Y151830D01*
X182576D01*
X193071Y105256D02*
Y108405D01*
X191497D01*
X190972Y107880D01*
Y106830D01*
X191497Y106305D01*
X193071D01*
X192021D02*
X190972Y105256D01*
X189922D02*
X188873D01*
X189398D01*
Y108405D01*
X189922Y107880D01*
X187299Y105256D02*
X186249D01*
X186774D01*
Y108405D01*
X187299Y107880D01*
X184675D02*
X184150Y108405D01*
X183100D01*
X182576Y107880D01*
Y107355D01*
X183100Y106830D01*
X183625D01*
X183100D01*
X182576Y106305D01*
Y105781D01*
X183100Y105256D01*
X184150D01*
X184675Y105781D01*
X280315Y216142D02*
Y219290D01*
X278741D01*
X278216Y218766D01*
Y217716D01*
X278741Y217191D01*
X280315D01*
X279265D02*
X278216Y216142D01*
X277166D02*
X276117D01*
X276642D01*
Y219290D01*
X277166Y218766D01*
X274542Y216142D02*
X273493D01*
X274018D01*
Y219290D01*
X274542Y218766D01*
X269820Y216142D02*
X271919D01*
X269820Y218241D01*
Y218766D01*
X270344Y219290D01*
X271394D01*
X271919Y218766D01*
X280315Y201969D02*
Y205117D01*
X278741D01*
X278216Y204592D01*
Y203543D01*
X278741Y203018D01*
X280315D01*
X279265D02*
X278216Y201969D01*
X277166D02*
X276117D01*
X276642D01*
Y205117D01*
X277166Y204592D01*
X274542D02*
X274018Y205117D01*
X272968D01*
X272444Y204592D01*
Y202493D01*
X272968Y201969D01*
X274018D01*
X274542Y202493D01*
Y204592D01*
X271394Y205117D02*
X269295D01*
Y204592D01*
X271394Y202493D01*
Y201969D01*
X201319Y126378D02*
Y129526D01*
X199745D01*
X199220Y129002D01*
Y127952D01*
X199745Y127427D01*
X201319D01*
X200269D02*
X199220Y126378D01*
X198170D02*
X197121D01*
X197645D01*
Y129526D01*
X198170Y129002D01*
X195546D02*
X195022Y129526D01*
X193972D01*
X193447Y129002D01*
Y126903D01*
X193972Y126378D01*
X195022D01*
X195546Y126903D01*
Y129002D01*
X192398D02*
X191873Y129526D01*
X190824D01*
X190299Y129002D01*
Y128477D01*
X190824Y127952D01*
X191348D01*
X190824D01*
X190299Y127427D01*
Y126903D01*
X190824Y126378D01*
X191873D01*
X192398Y126903D01*
X255512Y216142D02*
Y219290D01*
X253938D01*
X253413Y218766D01*
Y217716D01*
X253938Y217191D01*
X255512D01*
X254462D02*
X253413Y216142D01*
X252363D02*
X251314D01*
X251838D01*
Y219290D01*
X252363Y218766D01*
X249739D02*
X249215Y219290D01*
X248165D01*
X247640Y218766D01*
Y216667D01*
X248165Y216142D01*
X249215D01*
X249739Y216667D01*
Y218766D01*
X246591Y216142D02*
X245541D01*
X246066D01*
Y219290D01*
X246591Y218766D01*
X256693Y201969D02*
Y205117D01*
X255119D01*
X254594Y204592D01*
Y203543D01*
X255119Y203018D01*
X256693D01*
X255643D02*
X254594Y201969D01*
X253544D02*
X252495D01*
X253020D01*
Y205117D01*
X253544Y204592D01*
X250921D02*
X250396Y205117D01*
X249346D01*
X248821Y204592D01*
Y202493D01*
X249346Y201969D01*
X250396D01*
X250921Y202493D01*
Y204592D01*
X247772D02*
X247247Y205117D01*
X246198D01*
X245673Y204592D01*
Y202493D01*
X246198Y201969D01*
X247247D01*
X247772Y202493D01*
Y204592D01*
X201319Y136378D02*
Y139526D01*
X199745D01*
X199220Y139002D01*
Y137952D01*
X199745Y137427D01*
X201319D01*
X200269D02*
X199220Y136378D01*
X198170Y136903D02*
X197645Y136378D01*
X196596D01*
X196071Y136903D01*
Y139002D01*
X196596Y139526D01*
X197645D01*
X198170Y139002D01*
Y138477D01*
X197645Y137952D01*
X196071D01*
X195022Y139002D02*
X194497Y139526D01*
X193447D01*
X192923Y139002D01*
Y136903D01*
X193447Y136378D01*
X194497D01*
X195022Y136903D01*
Y139002D01*
X145571Y150256D02*
Y153404D01*
X143997D01*
X143472Y152880D01*
Y151830D01*
X143997Y151305D01*
X145571D01*
X144521D02*
X143472Y150256D01*
X142422Y153404D02*
X140323D01*
Y152880D01*
X142422Y150781D01*
Y150256D01*
X137175Y153404D02*
X138224Y152880D01*
X139274Y151830D01*
Y150781D01*
X138749Y150256D01*
X137699D01*
X137175Y150781D01*
Y151305D01*
X137699Y151830D01*
X139274D01*
X145571Y105256D02*
Y108405D01*
X143997D01*
X143472Y107880D01*
Y106830D01*
X143997Y106305D01*
X145571D01*
X144521D02*
X143472Y105256D01*
X142422Y108405D02*
X140323D01*
Y107880D01*
X142422Y105781D01*
Y105256D01*
X137175Y108405D02*
X139274D01*
Y106830D01*
X138224Y107355D01*
X137699D01*
X137175Y106830D01*
Y105781D01*
X137699Y105256D01*
X138749D01*
X139274Y105781D01*
X203543Y216142D02*
Y219290D01*
X201969D01*
X201444Y218766D01*
Y217716D01*
X201969Y217191D01*
X203543D01*
X202494D02*
X201444Y216142D01*
X200395Y219290D02*
X198296D01*
Y218766D01*
X200395Y216667D01*
Y216142D01*
X195672D02*
Y219290D01*
X197246Y217716D01*
X195147D01*
X203543Y200787D02*
Y203936D01*
X201969D01*
X201444Y203411D01*
Y202362D01*
X201969Y201837D01*
X203543D01*
X202494D02*
X201444Y200787D01*
X198296Y203936D02*
X199345Y203411D01*
X200395Y202362D01*
Y201312D01*
X199870Y200787D01*
X198820D01*
X198296Y201312D01*
Y201837D01*
X198820Y202362D01*
X200395D01*
X197246Y201312D02*
X196721Y200787D01*
X195672D01*
X195147Y201312D01*
Y203411D01*
X195672Y203936D01*
X196721D01*
X197246Y203411D01*
Y202887D01*
X196721Y202362D01*
X195147D01*
X153819Y126378D02*
Y129526D01*
X152245D01*
X151720Y129002D01*
Y127952D01*
X152245Y127427D01*
X153819D01*
X152769D02*
X151720Y126378D01*
X148571Y129526D02*
X149621Y129002D01*
X150670Y127952D01*
Y126903D01*
X150145Y126378D01*
X149096D01*
X148571Y126903D01*
Y127427D01*
X149096Y127952D01*
X150670D01*
X145423Y129526D02*
X147522D01*
Y127952D01*
X146472Y128477D01*
X145947D01*
X145423Y127952D01*
Y126903D01*
X145947Y126378D01*
X146997D01*
X147522Y126903D01*
X176378Y216142D02*
Y219290D01*
X174804D01*
X174279Y218766D01*
Y217716D01*
X174804Y217191D01*
X176378D01*
X175328D02*
X174279Y216142D01*
X171130Y219290D02*
X172180Y218766D01*
X173229Y217716D01*
Y216667D01*
X172705Y216142D01*
X171655D01*
X171130Y216667D01*
Y217191D01*
X171655Y217716D01*
X173229D01*
X170081Y218766D02*
X169556Y219290D01*
X168507D01*
X167982Y218766D01*
Y218241D01*
X168507Y217716D01*
X169031D01*
X168507D01*
X167982Y217191D01*
Y216667D01*
X168507Y216142D01*
X169556D01*
X170081Y216667D01*
X176575Y200935D02*
Y204084D01*
X175001D01*
X174476Y203559D01*
Y202509D01*
X175001Y201985D01*
X176575D01*
X175525D02*
X174476Y200935D01*
X171327Y204084D02*
X172377Y203559D01*
X173426Y202509D01*
Y201460D01*
X172901Y200935D01*
X171852D01*
X171327Y201460D01*
Y201985D01*
X171852Y202509D01*
X173426D01*
X168179Y200935D02*
X170278D01*
X168179Y203034D01*
Y203559D01*
X168703Y204084D01*
X169753D01*
X170278Y203559D01*
X153819Y136378D02*
Y139526D01*
X152245D01*
X151720Y139002D01*
Y137952D01*
X152245Y137427D01*
X153819D01*
X152769D02*
X151720Y136378D01*
X148571Y139526D02*
X150670D01*
Y137952D01*
X149621Y138477D01*
X149096D01*
X148571Y137952D01*
Y136903D01*
X149096Y136378D01*
X150145D01*
X150670Y136903D01*
X145423Y139526D02*
X146472Y139002D01*
X147522Y137952D01*
Y136903D01*
X146997Y136378D01*
X145947D01*
X145423Y136903D01*
Y137427D01*
X145947Y137952D01*
X147522D01*
X98071Y150256D02*
Y153404D01*
X96497D01*
X95972Y152880D01*
Y151830D01*
X96497Y151305D01*
X98071D01*
X97021D02*
X95972Y150256D01*
X93348D02*
Y153404D01*
X94922Y151830D01*
X92823D01*
X89675Y153404D02*
X90724Y152880D01*
X91774Y151830D01*
Y150781D01*
X91249Y150256D01*
X90199D01*
X89675Y150781D01*
Y151305D01*
X90199Y151830D01*
X91774D01*
X98071Y105256D02*
Y108405D01*
X96497D01*
X95972Y107880D01*
Y106830D01*
X96497Y106305D01*
X98071D01*
X97021D02*
X95972Y105256D01*
X93348D02*
Y108405D01*
X94922Y106830D01*
X92823D01*
X89675Y108405D02*
X91774D01*
Y106830D01*
X90724Y107355D01*
X90199D01*
X89675Y106830D01*
Y105781D01*
X90199Y105256D01*
X91249D01*
X91774Y105781D01*
X125591Y216142D02*
Y219290D01*
X124016D01*
X123492Y218766D01*
Y217716D01*
X124016Y217191D01*
X125591D01*
X124541D02*
X123492Y216142D01*
X120868D02*
Y219290D01*
X122442Y217716D01*
X120343D01*
X117719Y216142D02*
Y219290D01*
X119293Y217716D01*
X117194D01*
X125591Y200787D02*
Y203936D01*
X124016D01*
X123492Y203411D01*
Y202362D01*
X124016Y201837D01*
X125591D01*
X124541D02*
X123492Y200787D01*
X122442Y203411D02*
X121917Y203936D01*
X120868D01*
X120343Y203411D01*
Y202887D01*
X120868Y202362D01*
X121392D01*
X120868D01*
X120343Y201837D01*
Y201312D01*
X120868Y200787D01*
X121917D01*
X122442Y201312D01*
X119293Y203411D02*
X118769Y203936D01*
X117719D01*
X117194Y203411D01*
Y202887D01*
X117719Y202362D01*
X117194Y201837D01*
Y201312D01*
X117719Y200787D01*
X118769D01*
X119293Y201312D01*
Y201837D01*
X118769Y202362D01*
X119293Y202887D01*
Y203411D01*
X118769Y202362D02*
X117719D01*
X98425Y216142D02*
Y219290D01*
X96851D01*
X96326Y218766D01*
Y217716D01*
X96851Y217191D01*
X98425D01*
X97376D02*
X96326Y216142D01*
X95277Y218766D02*
X94752Y219290D01*
X93702D01*
X93177Y218766D01*
Y218241D01*
X93702Y217716D01*
X94227D01*
X93702D01*
X93177Y217191D01*
Y216667D01*
X93702Y216142D01*
X94752D01*
X95277Y216667D01*
X90029Y216142D02*
X92128D01*
X90029Y218241D01*
Y218766D01*
X90554Y219290D01*
X91603D01*
X92128Y218766D01*
X97244Y200787D02*
Y203936D01*
X95670D01*
X95145Y203411D01*
Y202362D01*
X95670Y201837D01*
X97244D01*
X96195D02*
X95145Y200787D01*
X94095Y203411D02*
X93571Y203936D01*
X92521D01*
X91997Y203411D01*
Y202887D01*
X92521Y202362D01*
X93046D01*
X92521D01*
X91997Y201837D01*
Y201312D01*
X92521Y200787D01*
X93571D01*
X94095Y201312D01*
X90947Y200787D02*
X89897D01*
X90422D01*
Y203936D01*
X90947Y203411D01*
X329321Y346506D02*
Y349655D01*
X327747D01*
X327222Y349130D01*
Y348080D01*
X327747Y347555D01*
X329321D01*
X328271D02*
X327222Y346506D01*
X326172Y349655D02*
X324073D01*
Y349130D01*
X326172Y347031D01*
Y346506D01*
X316821Y299006D02*
Y302154D01*
X315247D01*
X314722Y301630D01*
Y300580D01*
X315247Y300055D01*
X316821D01*
X315771D02*
X314722Y299006D01*
X311573Y302154D02*
X312623Y301630D01*
X313672Y300580D01*
Y299531D01*
X313147Y299006D01*
X312098D01*
X311573Y299531D01*
Y300055D01*
X312098Y300580D01*
X313672D01*
X264043Y179789D02*
X264567Y180314D01*
X265617D01*
X266142Y179789D01*
Y177690D01*
X265617Y177165D01*
X264567D01*
X264043Y177690D01*
X260894Y180314D02*
X262993D01*
Y178740D01*
X261944Y179264D01*
X261419D01*
X260894Y178740D01*
Y177690D01*
X261419Y177165D01*
X262468D01*
X262993Y177690D01*
X259845Y180314D02*
X257746D01*
Y179789D01*
X259845Y177690D01*
Y177165D01*
X265224Y242388D02*
X265749Y242912D01*
X266798D01*
X267323Y242388D01*
Y240288D01*
X266798Y239764D01*
X265749D01*
X265224Y240288D01*
X262075Y242912D02*
X264174D01*
Y241338D01*
X263125Y241863D01*
X262600D01*
X262075Y241338D01*
Y240288D01*
X262600Y239764D01*
X263650D01*
X264174Y240288D01*
X259451Y239764D02*
Y242912D01*
X261026Y241338D01*
X258927D01*
X187271Y180970D02*
X187796Y181495D01*
X188845D01*
X189370Y180970D01*
Y178871D01*
X188845Y178347D01*
X187796D01*
X187271Y178871D01*
X184647Y178347D02*
Y181495D01*
X186222Y179921D01*
X184122D01*
X183073Y180970D02*
X182548Y181495D01*
X181499D01*
X180974Y180970D01*
Y180446D01*
X181499Y179921D01*
X182023D01*
X181499D01*
X180974Y179396D01*
Y178871D01*
X181499Y178347D01*
X182548D01*
X183073Y178871D01*
X187271Y242388D02*
X187796Y242912D01*
X188845D01*
X189370Y242388D01*
Y240288D01*
X188845Y239764D01*
X187796D01*
X187271Y240288D01*
X186222Y242388D02*
X185697Y242912D01*
X184647D01*
X184122Y242388D01*
Y241863D01*
X184647Y241338D01*
X185172D01*
X184647D01*
X184122Y240813D01*
Y240288D01*
X184647Y239764D01*
X185697D01*
X186222Y240288D01*
X183073D02*
X182548Y239764D01*
X181499D01*
X180974Y240288D01*
Y242388D01*
X181499Y242912D01*
X182548D01*
X183073Y242388D01*
Y241863D01*
X182548Y241338D01*
X180974D01*
X109318Y179789D02*
X109843Y180314D01*
X110893D01*
X111417Y179789D01*
Y177690D01*
X110893Y177165D01*
X109843D01*
X109318Y177690D01*
X108269Y179789D02*
X107744Y180314D01*
X106694D01*
X106170Y179789D01*
Y179264D01*
X106694Y178740D01*
X107219D01*
X106694D01*
X106170Y178215D01*
Y177690D01*
X106694Y177165D01*
X107744D01*
X108269Y177690D01*
X105120Y177165D02*
X104071D01*
X104595D01*
Y180314D01*
X105120Y179789D01*
X110499Y242388D02*
X111024Y242912D01*
X112074D01*
X112598Y242388D01*
Y240288D01*
X112074Y239764D01*
X111024D01*
X110499Y240288D01*
X107351Y239764D02*
X109450D01*
X107351Y241863D01*
Y242388D01*
X107876Y242912D01*
X108925D01*
X109450Y242388D01*
X106301D02*
X105777Y242912D01*
X104727D01*
X104202Y242388D01*
Y241863D01*
X104727Y241338D01*
X104202Y240813D01*
Y240288D01*
X104727Y239764D01*
X105777D01*
X106301Y240288D01*
Y240813D01*
X105777Y241338D01*
X106301Y241863D01*
Y242388D01*
X105777Y241338D02*
X104727D01*
X255775Y140813D02*
X256300Y141338D01*
X257349D01*
X257874Y140813D01*
Y138714D01*
X257349Y138189D01*
X256300D01*
X255775Y138714D01*
X252626Y138189D02*
X254725D01*
X252626Y140288D01*
Y140813D01*
X253151Y141338D01*
X254201D01*
X254725Y140813D01*
X249478Y141338D02*
X251577D01*
Y139763D01*
X250527Y140288D01*
X250003D01*
X249478Y139763D01*
Y138714D01*
X250003Y138189D01*
X251052D01*
X251577Y138714D01*
X238058Y140813D02*
X238583Y141338D01*
X239633D01*
X240158Y140813D01*
Y138714D01*
X239633Y138189D01*
X238583D01*
X238058Y138714D01*
X234910Y138189D02*
X237009D01*
X234910Y140288D01*
Y140813D01*
X235435Y141338D01*
X236484D01*
X237009Y140813D01*
X232286Y138189D02*
Y141338D01*
X233860Y139763D01*
X231761D01*
X344722Y324130D02*
X345247Y324655D01*
X346296D01*
X346821Y324130D01*
Y322031D01*
X346296Y321506D01*
X345247D01*
X344722Y322031D01*
X341573Y321506D02*
X343672D01*
X341573Y323605D01*
Y324130D01*
X342098Y324655D01*
X343147D01*
X343672Y324130D01*
X340524D02*
X339999Y324655D01*
X338949D01*
X338425Y324130D01*
Y323605D01*
X338949Y323080D01*
X339474D01*
X338949D01*
X338425Y322555D01*
Y322031D01*
X338949Y321506D01*
X339999D01*
X340524Y322031D01*
X344722Y286630D02*
X345247Y287155D01*
X346296D01*
X346821Y286630D01*
Y284531D01*
X346296Y284006D01*
X345247D01*
X344722Y284531D01*
X341573Y284006D02*
X343672D01*
X341573Y286105D01*
Y286630D01*
X342098Y287155D01*
X343147D01*
X343672Y286630D01*
X340524D02*
X339999Y287155D01*
X338949D01*
X338425Y286630D01*
Y284531D01*
X338949Y284006D01*
X339999D01*
X340524Y284531D01*
Y286630D01*
X11720Y204002D02*
X12245Y204526D01*
X13294D01*
X13819Y204002D01*
Y201903D01*
X13294Y201378D01*
X12245D01*
X11720Y201903D01*
X10670Y201378D02*
X9621D01*
X10146D01*
Y204526D01*
X10670Y204002D01*
X8046Y201903D02*
X7522Y201378D01*
X6472D01*
X5947Y201903D01*
Y204002D01*
X6472Y204526D01*
X7522D01*
X8046Y204002D01*
Y203477D01*
X7522Y202952D01*
X5947D01*
X11720Y224002D02*
X12245Y224527D01*
X13294D01*
X13819Y224002D01*
Y221903D01*
X13294Y221378D01*
X12245D01*
X11720Y221903D01*
X10670Y221378D02*
X9621D01*
X10146D01*
Y224527D01*
X10670Y224002D01*
X8046D02*
X7522Y224527D01*
X6472D01*
X5947Y224002D01*
Y223477D01*
X6472Y222952D01*
X5947Y222428D01*
Y221903D01*
X6472Y221378D01*
X7522D01*
X8046Y221903D01*
Y222428D01*
X7522Y222952D01*
X8046Y223477D01*
Y224002D01*
X7522Y222952D02*
X6472D01*
D12*
X561398Y38681D02*
Y39075D01*
Y43681D02*
Y44075D01*
X558484Y38681D02*
Y39075D01*
Y43681D02*
Y44075D01*
X528996Y125020D02*
X531358D01*
X528996Y121870D02*
Y125020D01*
Y113209D02*
X531358D01*
X528996D02*
Y116358D01*
X483622Y95335D02*
X484016D01*
X464114Y130059D02*
Y130453D01*
X444528Y130059D02*
Y130453D01*
X335236Y232559D02*
Y232953D01*
Y227559D02*
Y227953D01*
X416614Y210059D02*
Y210453D01*
X518622Y251299D02*
X519016D01*
X336122Y281713D02*
X336516D01*
X248406Y315059D02*
Y315453D01*
X170374Y282835D02*
X170768D01*
X170374Y299921D02*
X170768D01*
X437736Y167559D02*
Y167953D01*
X336122Y324921D02*
X336516D01*
X63622Y297421D02*
X64016D01*
X262874Y237421D02*
X263268D01*
X262874Y183090D02*
X263268D01*
X185374Y237421D02*
X185768D01*
X185374Y183091D02*
X185768D01*
X107874Y237421D02*
X108268D01*
X107874Y183091D02*
X108268D01*
X259626Y143208D02*
X260020D01*
X229626Y136121D02*
X230020D01*
X11122Y193957D02*
X11516D01*
X11122Y213957D02*
X11516D01*
D13*
X346299Y143051D02*
X349941D01*
X346299Y135768D02*
X349941D01*
X346299Y141083D02*
Y143051D01*
Y135768D02*
Y137736D01*
X358799Y184488D02*
X362441D01*
X358799Y177205D02*
X362441D01*
X358799Y182520D02*
Y184488D01*
Y177205D02*
Y179173D01*
X458799Y200551D02*
X462441D01*
X458799Y193268D02*
X462441D01*
X458799Y198583D02*
Y200551D01*
Y193268D02*
Y195236D01*
X493799Y200551D02*
X497441D01*
X493799Y193268D02*
X497441D01*
X493799Y198583D02*
Y200551D01*
Y193268D02*
Y195236D01*
X464153Y70236D02*
Y72205D01*
Y75551D02*
Y77520D01*
Y70236D02*
X467795D01*
X464153Y77520D02*
X467795D01*
D14*
X354184Y141397D02*
X354193Y141387D01*
X354184Y141378D01*
X354174Y141387D01*
X354184Y141397D01*
X366684Y182834D02*
X366693Y182824D01*
X366684Y182815D01*
X366674Y182824D01*
X366684Y182834D01*
X466684Y198897D02*
X466693Y198887D01*
X466684Y198878D01*
X466674Y198887D01*
X466684Y198897D01*
X501684D02*
X501693Y198887D01*
X501684Y198878D01*
X501674Y198887D01*
X501684Y198897D01*
X472038Y75865D02*
X472047Y75856D01*
X472038Y75846D01*
X472028Y75856D01*
X472038Y75865D01*
M02*
