G04*
G04 #@! TF.GenerationSoftware,Altium Limited,Altium Designer,19.0.15 (446)*
G04*
G04 Layer_Color=32768*
%FSLAX25Y25*%
%MOIN*%
G70*
G01*
G75*
%ADD10C,0.01000*%
%ADD11C,0.01000*%
%ADD12C,0.00394*%
%ADD13C,0.00500*%
D10*
X540059Y255197D02*
D03*
X348465Y139409D02*
D03*
X360965Y180847D02*
D03*
X460965Y196909D02*
D03*
X495965D02*
D03*
X466319Y73878D02*
D03*
D11*
X7874Y374016D02*
X570866D01*
X7874Y0D02*
X570866D01*
X0Y7874D02*
X7874Y0D01*
X0Y7874D02*
Y366142D01*
X7874Y374016D01*
X570866Y374016D02*
X578740Y366142D01*
Y7874D02*
Y366142D01*
X570866Y0D02*
X578740Y7874D01*
D12*
X539469Y269006D02*
X540768D01*
X540060Y268356D02*
Y269655D01*
X543013Y263100D02*
Y275010D01*
X537107Y263100D02*
Y275010D01*
X543013D01*
X537107Y263100D02*
X543013D01*
X540394Y242717D02*
Y244016D01*
X539744Y243307D02*
X541043D01*
X534390Y246260D02*
X546299D01*
X534390Y240354D02*
X546299D01*
X534390D02*
Y246260D01*
X546299Y240354D02*
Y246260D01*
X183602Y210610D02*
X187540D01*
X185571Y208642D02*
Y212579D01*
X204862Y194075D02*
Y227146D01*
X166279Y194075D02*
Y227146D01*
X204862D01*
X166279Y194075D02*
X204862D01*
X237618Y211850D02*
X243524D01*
X237618Y223760D02*
X243524D01*
Y211850D02*
Y223760D01*
X237618Y211850D02*
Y223760D01*
X240571Y217106D02*
Y218406D01*
X239862Y217756D02*
X241161D01*
X237618Y196850D02*
X243524D01*
X237618Y208760D02*
X243524D01*
Y196850D02*
Y208760D01*
X237618Y196850D02*
Y208760D01*
X240571Y202106D02*
Y203405D01*
X239862Y202756D02*
X241161D01*
X282618Y196850D02*
X288524D01*
X282618Y208760D02*
X288524D01*
Y196850D02*
Y208760D01*
X282618Y196850D02*
Y208760D01*
X285571Y202106D02*
Y203405D01*
X284862Y202756D02*
X286161D01*
X282618Y223661D02*
X288524D01*
X282618Y211752D02*
X288524D01*
X282618D02*
Y223661D01*
X288524Y211752D02*
Y223661D01*
X285571Y217106D02*
Y218406D01*
X284981Y217756D02*
X286280D01*
X160118Y196850D02*
X166024D01*
X160118Y208760D02*
X166024D01*
Y196850D02*
Y208760D01*
X160118Y196850D02*
Y208760D01*
X163071Y202106D02*
Y203405D01*
X162362Y202756D02*
X163661D01*
X160118Y211850D02*
X166024D01*
X160118Y223760D02*
X166024D01*
Y211850D02*
Y223760D01*
X160118Y211850D02*
Y223760D01*
X163071Y217106D02*
Y218406D01*
X162362Y217756D02*
X163662D01*
X205118Y196850D02*
X211024D01*
X205118Y208760D02*
X211024D01*
Y196850D02*
Y208760D01*
X205118Y196850D02*
Y208760D01*
X208071Y202106D02*
Y203405D01*
X207362Y202756D02*
X208662D01*
X205118Y223661D02*
X211024D01*
X205118Y211752D02*
X211024D01*
X205118D02*
Y223661D01*
X211024Y211752D02*
Y223661D01*
X208071Y217106D02*
Y218406D01*
X207481Y217756D02*
X208780D01*
X127618Y196850D02*
X133524D01*
X127618Y208760D02*
X133524D01*
Y196850D02*
Y208760D01*
X127618Y196850D02*
Y208760D01*
X130571Y202106D02*
Y203405D01*
X129862Y202756D02*
X131161D01*
X127618Y223661D02*
X133524D01*
X127618Y211752D02*
X133524D01*
X127618D02*
Y223661D01*
X133524Y211752D02*
Y223661D01*
X130571Y217106D02*
Y218406D01*
X129981Y217756D02*
X131280D01*
X82618Y196850D02*
X88524D01*
X82618Y208760D02*
X88524D01*
Y196850D02*
Y208760D01*
X82618Y196850D02*
Y208760D01*
X85571Y202106D02*
Y203405D01*
X84862Y202756D02*
X86162D01*
X82618Y211850D02*
X88524D01*
X82618Y223760D02*
X88524D01*
Y211850D02*
Y223760D01*
X82618Y211850D02*
Y223760D01*
X85571Y217106D02*
Y218406D01*
X84862Y217756D02*
X86162D01*
X234291Y30709D02*
Y69291D01*
X268150Y30709D02*
Y69291D01*
X234291D02*
X268150D01*
X249055Y48051D02*
X252992D01*
X251024Y46082D02*
Y50020D01*
X234291Y30709D02*
X268150D01*
X255571Y72067D02*
Y73445D01*
X254882Y72756D02*
X256260D01*
X252815Y71772D02*
X258327D01*
X252815Y73740D02*
X258327D01*
Y71772D02*
Y73740D01*
X252815Y71772D02*
Y73740D01*
X245571Y72067D02*
Y73445D01*
X244882Y72756D02*
X246260D01*
X242815Y73740D02*
X248327D01*
X242815Y71772D02*
X248327D01*
X242815D02*
Y73740D01*
X248327Y71772D02*
Y73740D01*
X139291Y30709D02*
Y69291D01*
X173150Y30709D02*
Y69291D01*
X139291D02*
X173150D01*
X154055Y48051D02*
X157992D01*
X156024Y46082D02*
Y50020D01*
X139291Y30709D02*
X173150D01*
X160571Y72067D02*
Y73445D01*
X159882Y72756D02*
X161260D01*
X157815Y71772D02*
X163327D01*
X157815Y73740D02*
X163327D01*
Y71772D02*
Y73740D01*
X157815Y71772D02*
Y73740D01*
X150571Y72067D02*
Y73445D01*
X149882Y72756D02*
X151260D01*
X147815Y73740D02*
X153327D01*
X147815Y71772D02*
X153327D01*
X147815D02*
Y73740D01*
X153327Y71772D02*
Y73740D01*
X44488Y30709D02*
Y69291D01*
X78347Y30709D02*
Y69291D01*
X44488D02*
X78347D01*
X59252Y48051D02*
X63189D01*
X61220Y46083D02*
Y50020D01*
X44488Y30709D02*
X78347D01*
X65571Y72067D02*
Y73445D01*
X64882Y72756D02*
X66260D01*
X62815Y71772D02*
X68327D01*
X62815Y73740D02*
X68327D01*
Y71772D02*
Y73740D01*
X62815Y71772D02*
Y73740D01*
X55571Y72067D02*
Y73445D01*
X54882Y72756D02*
X56260D01*
X52815Y73740D02*
X58327D01*
X52815Y71772D02*
X58327D01*
X52815D02*
Y73740D01*
X58327Y71772D02*
Y73740D01*
X267165Y182303D02*
Y188209D01*
X279075Y182303D02*
Y188209D01*
X267165D02*
X279075D01*
X267165Y182303D02*
X279075D01*
X272421Y185256D02*
X273721D01*
X273071Y184547D02*
Y185846D01*
X247165Y182303D02*
Y188209D01*
X259075Y182303D02*
Y188209D01*
X247165D02*
X259075D01*
X247165Y182303D02*
X259075D01*
X252421Y185256D02*
X253720D01*
X253071Y184547D02*
Y185846D01*
X189665Y182303D02*
Y188209D01*
X201575Y182303D02*
Y188209D01*
X189665D02*
X201575D01*
X189665Y182303D02*
X201575D01*
X194921Y185256D02*
X196221D01*
X195571Y184547D02*
Y185846D01*
X169665Y182303D02*
Y188209D01*
X181575Y182303D02*
Y188209D01*
X169665D02*
X181575D01*
X169665Y182303D02*
X181575D01*
X174921Y185256D02*
X176221D01*
X175571Y184547D02*
Y185846D01*
X112165Y182303D02*
Y188209D01*
X124075Y182303D02*
Y188209D01*
X112165D02*
X124075D01*
X112165Y182303D02*
X124075D01*
X117421Y185256D02*
X118720D01*
X118071Y184547D02*
Y185846D01*
X92165Y182303D02*
Y188209D01*
X104075Y182303D02*
Y188209D01*
X92165D02*
X104075D01*
X92165Y182303D02*
X104075D01*
X97421Y185256D02*
X98721D01*
X98071Y184547D02*
Y185846D01*
X15413Y20925D02*
Y26831D01*
X27323Y20925D02*
Y26831D01*
X15413D02*
X27323D01*
X15413Y20925D02*
X27323D01*
X20669Y23878D02*
X21969D01*
X21319Y23169D02*
Y24468D01*
X15413Y28425D02*
Y34331D01*
X27323Y28425D02*
Y34331D01*
X15413D02*
X27323D01*
X15413Y28425D02*
X27323D01*
X20669Y31378D02*
X21969D01*
X21319Y30669D02*
Y31969D01*
X15413Y73425D02*
Y79331D01*
X27323Y73425D02*
Y79331D01*
X15413D02*
X27323D01*
X15413Y73425D02*
X27323D01*
X20669Y76378D02*
X21969D01*
X21319Y75669D02*
Y76968D01*
X15413Y65925D02*
Y71831D01*
X27323Y65925D02*
Y71831D01*
X15413D02*
X27323D01*
X15413Y65925D02*
X27323D01*
X20669Y68878D02*
X21969D01*
X21319Y68169D02*
Y69468D01*
X15413Y58425D02*
Y64331D01*
X27323Y58425D02*
Y64331D01*
X15413D02*
X27323D01*
X15413Y58425D02*
X27323D01*
X20669Y61378D02*
X21969D01*
X21319Y60669D02*
Y61968D01*
X15413Y50925D02*
Y56831D01*
X27323Y50925D02*
Y56831D01*
X15413D02*
X27323D01*
X15413Y50925D02*
X27323D01*
X20669Y53878D02*
X21969D01*
X21319Y53169D02*
Y54469D01*
X15413Y43425D02*
Y49331D01*
X27323Y43425D02*
Y49331D01*
X15413D02*
X27323D01*
X15413Y43425D02*
X27323D01*
X20669Y46378D02*
X21969D01*
X21319Y45669D02*
Y46968D01*
X15413Y35925D02*
Y41831D01*
X27323Y35925D02*
Y41831D01*
X15413D02*
X27323D01*
X15413Y35925D02*
X27323D01*
X20669Y38878D02*
X21969D01*
X21319Y38169D02*
Y39469D01*
X107225Y20925D02*
Y26831D01*
X95315Y20925D02*
Y26831D01*
Y20925D02*
X107225D01*
X95315Y26831D02*
X107225D01*
X100669Y23878D02*
X101969D01*
X101319Y23287D02*
Y24587D01*
X107225Y28425D02*
Y34331D01*
X95315Y28425D02*
Y34331D01*
Y28425D02*
X107225D01*
X95315Y34331D02*
X107225D01*
X100669Y31378D02*
X101969D01*
X101319Y30787D02*
Y32087D01*
X107225Y73425D02*
Y79331D01*
X95315Y73425D02*
Y79331D01*
Y73425D02*
X107225D01*
X95315Y79331D02*
X107225D01*
X100669Y76378D02*
X101969D01*
X101319Y75787D02*
Y77087D01*
X107225Y65925D02*
Y71831D01*
X95315Y65925D02*
Y71831D01*
Y65925D02*
X107225D01*
X95315Y71831D02*
X107225D01*
X100669Y68878D02*
X101969D01*
X101319Y68287D02*
Y69586D01*
X107225Y58425D02*
Y64331D01*
X95315Y58425D02*
Y64331D01*
Y58425D02*
X107225D01*
X95315Y64331D02*
X107225D01*
X100669Y61378D02*
X101969D01*
X101319Y60787D02*
Y62086D01*
X107225Y50925D02*
Y56831D01*
X95315Y50925D02*
Y56831D01*
Y50925D02*
X107225D01*
X95315Y56831D02*
X107225D01*
X100669Y53878D02*
X101969D01*
X101319Y53287D02*
Y54586D01*
X107225Y43425D02*
Y49331D01*
X95315Y43425D02*
Y49331D01*
Y43425D02*
X107225D01*
X95315Y49331D02*
X107225D01*
X100669Y46378D02*
X101969D01*
X101319Y45787D02*
Y47087D01*
X107225Y35925D02*
Y41831D01*
X95315Y35925D02*
Y41831D01*
Y35925D02*
X107225D01*
X95315Y41831D02*
X107225D01*
X100669Y38878D02*
X101969D01*
X101319Y38287D02*
Y39586D01*
X110414Y20925D02*
Y26831D01*
X122323Y20925D02*
Y26831D01*
X110414D02*
X122323D01*
X110414Y20925D02*
X122323D01*
X115669Y23878D02*
X116969D01*
X116319Y23169D02*
Y24468D01*
X110414Y28425D02*
Y34331D01*
X122323Y28425D02*
Y34331D01*
X110414D02*
X122323D01*
X110414Y28425D02*
X122323D01*
X115669Y31378D02*
X116969D01*
X116319Y30669D02*
Y31969D01*
X110414Y65925D02*
Y71831D01*
X122323Y65925D02*
Y71831D01*
X110414D02*
X122323D01*
X110414Y65925D02*
X122323D01*
X115669Y68878D02*
X116969D01*
X116319Y68169D02*
Y69468D01*
X110414Y58425D02*
Y64331D01*
X122323Y58425D02*
Y64331D01*
X110414D02*
X122323D01*
X110414Y58425D02*
X122323D01*
X115669Y61378D02*
X116969D01*
X116319Y60669D02*
Y61968D01*
X110414Y50925D02*
Y56831D01*
X122323Y50925D02*
Y56831D01*
X110414D02*
X122323D01*
X110414Y50925D02*
X122323D01*
X115669Y53878D02*
X116969D01*
X116319Y53169D02*
Y54469D01*
X110414Y43425D02*
Y49331D01*
X122323Y43425D02*
Y49331D01*
X110414D02*
X122323D01*
X110414Y43425D02*
X122323D01*
X115669Y46378D02*
X116969D01*
X116319Y45669D02*
Y46968D01*
X110414Y35925D02*
Y41831D01*
X122323Y35925D02*
Y41831D01*
X110414D02*
X122323D01*
X110414Y35925D02*
X122323D01*
X115669Y38878D02*
X116969D01*
X116319Y38169D02*
Y39469D01*
X202224Y20925D02*
Y26831D01*
X190315Y20925D02*
Y26831D01*
Y20925D02*
X202224D01*
X190315Y26831D02*
X202224D01*
X195669Y23878D02*
X196968D01*
X196319Y23288D02*
Y24587D01*
X202224Y28425D02*
Y34331D01*
X190315Y28425D02*
Y34331D01*
Y28425D02*
X202224D01*
X190315Y34331D02*
X202224D01*
X195669Y31378D02*
X196968D01*
X196319Y30788D02*
Y32087D01*
X202224Y73425D02*
Y79331D01*
X190315Y73425D02*
Y79331D01*
Y73425D02*
X202224D01*
X190315Y79331D02*
X202224D01*
X195669Y76378D02*
X196968D01*
X196319Y75788D02*
Y77087D01*
X202224Y65925D02*
Y71831D01*
X190315Y65925D02*
Y71831D01*
Y65925D02*
X202224D01*
X190315Y71831D02*
X202224D01*
X195669Y68878D02*
X196968D01*
X196319Y68287D02*
Y69587D01*
X202224Y58425D02*
Y64331D01*
X190315Y58425D02*
Y64331D01*
Y58425D02*
X202224D01*
X190315Y64331D02*
X202224D01*
X195669Y61378D02*
X196968D01*
X196319Y60787D02*
Y62087D01*
X202224Y50925D02*
Y56831D01*
X190315Y50925D02*
Y56831D01*
Y50925D02*
X202224D01*
X190315Y56831D02*
X202224D01*
X195669Y53878D02*
X196968D01*
X196319Y53288D02*
Y54587D01*
X202224Y43425D02*
Y49331D01*
X190315Y43425D02*
Y49331D01*
Y43425D02*
X202224D01*
X190315Y49331D02*
X202224D01*
X195669Y46378D02*
X196968D01*
X196319Y45788D02*
Y47087D01*
X202224Y35925D02*
Y41831D01*
X190315Y35925D02*
Y41831D01*
Y35925D02*
X202224D01*
X190315Y41831D02*
X202224D01*
X195669Y38878D02*
X196968D01*
X196319Y38287D02*
Y39587D01*
X205414Y28425D02*
Y34331D01*
X217323Y28425D02*
Y34331D01*
X205414D02*
X217323D01*
X205414Y28425D02*
X217323D01*
X210669Y31378D02*
X211968D01*
X211319Y30669D02*
Y31969D01*
X205414Y20925D02*
Y26831D01*
X217323Y20925D02*
Y26831D01*
X205414D02*
X217323D01*
X205414Y20925D02*
X217323D01*
X210669Y23878D02*
X211968D01*
X211319Y23169D02*
Y24468D01*
X205414Y73425D02*
Y79331D01*
X217323Y73425D02*
Y79331D01*
X205414D02*
X217323D01*
X205414Y73425D02*
X217323D01*
X210669Y76378D02*
X211968D01*
X211319Y75669D02*
Y76968D01*
X205414Y65925D02*
Y71831D01*
X217323Y65925D02*
Y71831D01*
X205414D02*
X217323D01*
X205414Y65925D02*
X217323D01*
X210669Y68878D02*
X211968D01*
X211319Y68169D02*
Y69468D01*
X205414Y58425D02*
Y64331D01*
X217323Y58425D02*
Y64331D01*
X205414D02*
X217323D01*
X205414Y58425D02*
X217323D01*
X210669Y61378D02*
X211968D01*
X211319Y60669D02*
Y61968D01*
X205414Y50925D02*
Y56831D01*
X217323Y50925D02*
Y56831D01*
X205414D02*
X217323D01*
X205414Y50925D02*
X217323D01*
X210669Y53878D02*
X211968D01*
X211319Y53169D02*
Y54469D01*
X205414Y43425D02*
Y49331D01*
X217323Y43425D02*
Y49331D01*
X205414D02*
X217323D01*
X205414Y43425D02*
X217323D01*
X210669Y46378D02*
X211968D01*
X211319Y45669D02*
Y46968D01*
X205414Y35925D02*
Y41831D01*
X217323Y35925D02*
Y41831D01*
X205414D02*
X217323D01*
X205414Y35925D02*
X217323D01*
X210669Y38878D02*
X211968D01*
X211319Y38169D02*
Y39469D01*
X297224Y20925D02*
Y26831D01*
X285315Y20925D02*
Y26831D01*
Y20925D02*
X297224D01*
X285315Y26831D02*
X297224D01*
X290669Y23878D02*
X291968D01*
X291319Y23288D02*
Y24587D01*
X297224Y28425D02*
Y34331D01*
X285315Y28425D02*
Y34331D01*
Y28425D02*
X297224D01*
X285315Y34331D02*
X297224D01*
X290669Y31378D02*
X291968D01*
X291319Y30788D02*
Y32087D01*
X297224Y35925D02*
Y41831D01*
X285315Y35925D02*
Y41831D01*
Y35925D02*
X297224D01*
X285315Y41831D02*
X297224D01*
X290669Y38878D02*
X291968D01*
X291319Y38287D02*
Y39587D01*
X297224Y43425D02*
Y49331D01*
X285315Y43425D02*
Y49331D01*
Y43425D02*
X297224D01*
X285315Y49331D02*
X297224D01*
X290669Y46378D02*
X291968D01*
X291319Y45788D02*
Y47087D01*
X297224Y50925D02*
Y56831D01*
X285315Y50925D02*
Y56831D01*
Y50925D02*
X297224D01*
X285315Y56831D02*
X297224D01*
X290669Y53878D02*
X291968D01*
X291319Y53288D02*
Y54587D01*
X297224Y58425D02*
Y64331D01*
X285315Y58425D02*
Y64331D01*
Y58425D02*
X297224D01*
X285315Y64331D02*
X297224D01*
X290669Y61378D02*
X291968D01*
X291319Y60787D02*
Y62087D01*
X297224Y65925D02*
Y71831D01*
X285315Y65925D02*
Y71831D01*
Y65925D02*
X297224D01*
X285315Y71831D02*
X297224D01*
X290669Y68878D02*
X291968D01*
X291319Y68287D02*
Y69587D01*
X297224Y73425D02*
Y79331D01*
X285315Y73425D02*
Y79331D01*
Y73425D02*
X297224D01*
X285315Y79331D02*
X297224D01*
X290669Y76378D02*
X291968D01*
X291319Y75788D02*
Y77087D01*
X564941Y38189D02*
Y39567D01*
X564252Y38878D02*
X565630D01*
X562185Y39862D02*
X567697D01*
X562185Y37894D02*
X567697D01*
Y39862D01*
X562185Y37894D02*
Y39862D01*
X564941Y43189D02*
Y44567D01*
X564252Y43878D02*
X565630D01*
X562185Y44862D02*
X567697D01*
X562185Y42894D02*
X567697D01*
Y44862D01*
X562185Y42894D02*
Y44862D01*
X554941Y38189D02*
Y39567D01*
X554252Y38878D02*
X555630D01*
X552185Y37894D02*
X557697D01*
X552185Y39862D02*
X557697D01*
X552185Y37894D02*
Y39862D01*
X557697Y37894D02*
Y39862D01*
X554941Y43189D02*
Y44567D01*
X554252Y43878D02*
X555630D01*
X552185Y42894D02*
X557697D01*
X552185Y44862D02*
X557697D01*
X552185Y42894D02*
Y44862D01*
X557697Y42894D02*
Y44862D01*
X526417Y127618D02*
Y133524D01*
X538327Y127618D02*
Y133524D01*
X526417Y127618D02*
X538327D01*
X526417Y133524D02*
X538327D01*
X531673Y130571D02*
X532972D01*
X532323Y129980D02*
Y131280D01*
X538051Y112815D02*
Y125413D01*
X525453Y112815D02*
Y125413D01*
X538051D01*
X525453Y112815D02*
X538051D01*
X529783Y119114D02*
X533720D01*
X531752Y117146D02*
Y121083D01*
X475866Y67972D02*
X481772D01*
X475866Y79882D02*
X481772D01*
Y67972D02*
Y79882D01*
X475866Y67972D02*
Y79882D01*
X478819Y73228D02*
Y74528D01*
X478110Y73878D02*
X479410D01*
X461477Y80925D02*
Y86831D01*
X473386Y80925D02*
Y86831D01*
X461477Y80925D02*
X473386D01*
X461477Y86831D02*
X473386D01*
X466732Y83878D02*
X468032D01*
X467382Y83287D02*
Y84587D01*
X483130Y98878D02*
X484508D01*
X483819Y98189D02*
Y99567D01*
X482835Y96122D02*
Y101634D01*
X484803Y96122D02*
Y101634D01*
X482835D02*
X484803D01*
X482835Y96122D02*
X484803D01*
X479980Y117756D02*
X481280D01*
X480571Y117106D02*
Y118405D01*
X483524Y111752D02*
Y123661D01*
X477618Y111752D02*
Y123661D01*
Y111752D02*
X483524D01*
X477618Y123661D02*
X483524D01*
X463327Y129272D02*
Y131240D01*
X457815Y129272D02*
Y131240D01*
X463327D01*
X457815Y129272D02*
X463327D01*
X459882Y130256D02*
X461260D01*
X460571Y129567D02*
Y130945D01*
X445315Y129272D02*
Y131240D01*
X450827Y129272D02*
Y131240D01*
X445315Y129272D02*
X450827D01*
X445315Y131240D02*
X450827D01*
X447382Y130256D02*
X448760D01*
X448071Y129567D02*
Y130945D01*
X358366Y132973D02*
X364272D01*
X358366Y144882D02*
X364272D01*
Y132973D02*
Y144882D01*
X358366Y132973D02*
Y144882D01*
X361319Y138228D02*
Y139527D01*
X360610Y138878D02*
X361910D01*
X342914Y125925D02*
Y131831D01*
X354823Y125925D02*
Y131831D01*
X342914Y125925D02*
X354823D01*
X342914Y131831D02*
X354823D01*
X348169Y128878D02*
X349468D01*
X348819Y128287D02*
Y129587D01*
X334449Y231772D02*
Y233740D01*
X328937Y231772D02*
Y233740D01*
X334449D01*
X328937Y231772D02*
X334449D01*
X331004Y232756D02*
X332382D01*
X331693Y232067D02*
Y233445D01*
X334449Y226772D02*
Y228740D01*
X328937Y226772D02*
Y228740D01*
X334449D01*
X328937Y226772D02*
X334449D01*
X331004Y227756D02*
X332382D01*
X331693Y227067D02*
Y228445D01*
X335866Y181220D02*
X341772D01*
X335866Y169311D02*
X341772D01*
X335866D02*
Y181220D01*
X341772Y169311D02*
Y181220D01*
X338819Y174665D02*
Y175964D01*
X338228Y175315D02*
X339528D01*
X368366Y175472D02*
X374272D01*
X368366Y187382D02*
X374272D01*
Y175472D02*
Y187382D01*
X368366Y175472D02*
Y187382D01*
X371319Y180728D02*
Y182027D01*
X370610Y181378D02*
X371909D01*
X415827Y209272D02*
Y211240D01*
X410315Y209272D02*
Y211240D01*
X415827D01*
X410315Y209272D02*
X415827D01*
X412382Y210256D02*
X413760D01*
X413071Y209567D02*
Y210945D01*
X435866Y239744D02*
X441772D01*
X435866Y227835D02*
X441772D01*
X435866D02*
Y239744D01*
X441772Y227835D02*
Y239744D01*
X438819Y233189D02*
Y234488D01*
X438228Y233839D02*
X439528D01*
X455413Y203425D02*
Y209331D01*
X467323Y203425D02*
Y209331D01*
X455413Y203425D02*
X467323D01*
X455413Y209331D02*
X467323D01*
X460669Y206378D02*
X461969D01*
X461319Y205787D02*
Y207087D01*
X468366Y190472D02*
X474272D01*
X468366Y202382D02*
X474272D01*
Y190472D02*
Y202382D01*
X468366Y190472D02*
Y202382D01*
X471319Y195728D02*
Y197028D01*
X470610Y196378D02*
X471910D01*
X478366Y199036D02*
X484272D01*
X478366Y210945D02*
X484272D01*
Y199036D02*
Y210945D01*
X478366Y199036D02*
Y210945D01*
X481319Y204291D02*
Y205591D01*
X480610Y204941D02*
X481910D01*
X478366Y185473D02*
X484272D01*
X478366Y197382D02*
X484272D01*
Y185473D02*
Y197382D01*
X478366Y185473D02*
Y197382D01*
X481319Y190728D02*
Y192027D01*
X480610Y191378D02*
X481910D01*
X490414Y203425D02*
Y209331D01*
X502323Y203425D02*
Y209331D01*
X490414Y203425D02*
X502323D01*
X490414Y209331D02*
X502323D01*
X495669Y206378D02*
X496969D01*
X496319Y205787D02*
Y207087D01*
X503366Y190472D02*
X509272D01*
X503366Y202382D02*
X509272D01*
Y190472D02*
Y202382D01*
X503366Y190472D02*
Y202382D01*
X506319Y195728D02*
Y197028D01*
X505610Y196378D02*
X506910D01*
X538366Y213720D02*
X544272D01*
X538366Y201811D02*
X544272D01*
X538366D02*
Y213720D01*
X544272Y201811D02*
Y213720D01*
X541319Y207165D02*
Y208465D01*
X540728Y207815D02*
X542028D01*
X538366Y233720D02*
X544272D01*
X538366Y221811D02*
X544272D01*
X538366D02*
Y233720D01*
X544272Y221811D02*
Y233720D01*
X541319Y227165D02*
Y228465D01*
X540728Y227815D02*
X542028D01*
X518130Y247756D02*
X519508D01*
X518819Y247067D02*
Y248445D01*
X519803Y245000D02*
Y250512D01*
X517835Y245000D02*
Y250512D01*
Y245000D02*
X519803D01*
X517835Y250512D02*
X519803D01*
X495866Y254784D02*
X501772D01*
X495866Y242874D02*
X501772D01*
X495866D02*
Y254784D01*
X501772Y242874D02*
Y254784D01*
X498819Y248228D02*
Y249528D01*
X498228Y248878D02*
X499528D01*
X485866Y254784D02*
X491772D01*
X485866Y242874D02*
X491772D01*
X485866D02*
Y254784D01*
X491772Y242874D02*
Y254784D01*
X488819Y248228D02*
Y249528D01*
X488228Y248878D02*
X489528D01*
X501851D02*
X505788D01*
X503819Y246909D02*
Y250847D01*
X335630Y285256D02*
X337008D01*
X336319Y284567D02*
Y285945D01*
X335335Y282500D02*
Y288012D01*
X337303Y282500D02*
Y288012D01*
X335335D02*
X337303D01*
X335335Y282500D02*
X337303D01*
X310866Y297284D02*
X316772D01*
X310866Y285374D02*
X316772D01*
X310866D02*
Y297284D01*
X316772Y285374D02*
Y297284D01*
X313819Y290728D02*
Y292027D01*
X313228Y291378D02*
X314528D01*
X329817Y338425D02*
Y344331D01*
X317907Y338425D02*
Y344331D01*
X329817D01*
X317907Y338425D02*
X329817D01*
X323261Y341378D02*
X324561D01*
X323911Y340669D02*
Y341968D01*
X249193Y314272D02*
Y316240D01*
X254705Y314272D02*
Y316240D01*
X249193Y314272D02*
X254705D01*
X249193Y316240D02*
X254705D01*
X251260Y315256D02*
X252638D01*
X251949Y314567D02*
Y315945D01*
X223819Y331909D02*
Y335846D01*
X221850Y333878D02*
X225787D01*
X169587Y283622D02*
X171555D01*
X169587Y289134D02*
X171555D01*
Y283622D02*
Y289134D01*
X169587Y283622D02*
Y289134D01*
X170571Y285689D02*
Y287067D01*
X169882Y286378D02*
X171260D01*
X169587Y299134D02*
X171555D01*
X169587Y293622D02*
X171555D01*
X169587D02*
Y299134D01*
X171555Y293622D02*
Y299134D01*
X170571Y295689D02*
Y297067D01*
X169882Y296378D02*
X171260D01*
X436949Y166772D02*
Y168740D01*
X431437Y166772D02*
Y168740D01*
X436949D01*
X431437Y166772D02*
X436949D01*
X433504Y167756D02*
X434882D01*
X434193Y167067D02*
Y168445D01*
X223819Y286910D02*
Y290846D01*
X221850Y288878D02*
X225787D01*
X110414Y73425D02*
Y79331D01*
X122323Y73425D02*
Y79331D01*
X110414D02*
X122323D01*
X110414Y73425D02*
X122323D01*
X115669Y76378D02*
X116969D01*
X116319Y75669D02*
Y76968D01*
X392756Y230669D02*
Y231968D01*
X392106Y231378D02*
X393406D01*
X386752Y228425D02*
X398661D01*
X386752Y234331D02*
X398661D01*
X386752Y228425D02*
Y234331D01*
X398661Y228425D02*
Y234331D01*
X438228Y248878D02*
X439528D01*
X438819Y248229D02*
Y249528D01*
X441772Y242874D02*
Y254784D01*
X435866Y242874D02*
Y254784D01*
Y242874D02*
X441772D01*
X435866Y254784D02*
X441772D01*
X361319Y170788D02*
Y172087D01*
X360669Y171378D02*
X361968D01*
X355414Y174331D02*
X367323D01*
X355414Y168425D02*
X367323D01*
Y174331D01*
X355414Y168425D02*
Y174331D01*
X335335Y324134D02*
X337303D01*
X335335Y318622D02*
X337303D01*
X335335D02*
Y324134D01*
X337303Y318622D02*
Y324134D01*
X336319Y320689D02*
Y322067D01*
X335630Y321378D02*
X337008D01*
X62835Y296634D02*
X64803D01*
X62835Y291122D02*
X64803D01*
X62835D02*
Y296634D01*
X64803Y291122D02*
Y296634D01*
X63819Y293189D02*
Y294567D01*
X63130Y293878D02*
X64508D01*
X262087Y236634D02*
X264055D01*
X262087Y231122D02*
X264055D01*
X262087D02*
Y236634D01*
X264055Y231122D02*
Y236634D01*
X263071Y233189D02*
Y234567D01*
X262382Y233878D02*
X263760D01*
X262087Y183878D02*
X264055D01*
X262087Y189390D02*
X264055D01*
Y183878D02*
Y189390D01*
X262087Y183878D02*
Y189390D01*
X263071Y185945D02*
Y187323D01*
X262382Y186634D02*
X263760D01*
X184587Y236634D02*
X186555D01*
X184587Y231122D02*
X186555D01*
X184587D02*
Y236634D01*
X186555Y231122D02*
Y236634D01*
X185571Y233189D02*
Y234567D01*
X184882Y233878D02*
X186260D01*
X184587Y183878D02*
X186555D01*
X184587Y189390D02*
X186555D01*
Y183878D02*
Y189390D01*
X184587Y183878D02*
Y189390D01*
X185571Y185945D02*
Y187323D01*
X184882Y186634D02*
X186260D01*
X107087Y236634D02*
X109055D01*
X107087Y231122D02*
X109055D01*
X107087D02*
Y236634D01*
X109055Y231122D02*
Y236634D01*
X108071Y233189D02*
Y234567D01*
X107382Y233878D02*
X108760D01*
X107087Y183878D02*
X109055D01*
X107087Y189390D02*
X109055D01*
Y183878D02*
Y189390D01*
X107087Y183878D02*
Y189390D01*
X108071Y185945D02*
Y187323D01*
X107382Y186634D02*
X108760D01*
X253071Y234665D02*
Y235965D01*
X252421Y235256D02*
X253720D01*
X247067Y238209D02*
X258977D01*
X247067Y232303D02*
X258977D01*
X247067D02*
Y238209D01*
X258977Y232303D02*
Y238209D01*
X273071Y234547D02*
Y235846D01*
X272421Y235256D02*
X273721D01*
X267165Y232303D02*
X279075D01*
X267165Y238209D02*
X279075D01*
Y232303D02*
Y238209D01*
X267165Y232303D02*
Y238209D01*
X195571Y234547D02*
Y235846D01*
X194921Y235256D02*
X196221D01*
X189665Y232303D02*
X201575D01*
X189665Y238209D02*
X201575D01*
Y232303D02*
Y238209D01*
X189665Y232303D02*
Y238209D01*
X175571Y234665D02*
Y235965D01*
X174921Y235256D02*
X176221D01*
X169567Y238209D02*
X181476D01*
X169567Y232303D02*
X181476D01*
X169567D02*
Y238209D01*
X181476Y232303D02*
Y238209D01*
X118071Y234547D02*
Y235846D01*
X117421Y235256D02*
X118720D01*
X112165Y232303D02*
X124075D01*
X112165Y238209D02*
X124075D01*
Y232303D02*
Y238209D01*
X112165Y232303D02*
Y238209D01*
X98071Y234665D02*
Y235965D01*
X97421Y235256D02*
X98721D01*
X92067Y238209D02*
X103977D01*
X92067Y232303D02*
X103977D01*
X92067D02*
Y238209D01*
X103977Y232303D02*
Y238209D01*
X243779Y194075D02*
X282362D01*
X243779Y227146D02*
X282362D01*
X243779Y194075D02*
Y227146D01*
X282362Y194075D02*
Y227146D01*
X263071Y208642D02*
Y212579D01*
X261103Y210610D02*
X265039D01*
X88779Y194075D02*
X127362D01*
X88779Y227146D02*
X127362D01*
X88779Y194075D02*
Y227146D01*
X127362Y194075D02*
Y227146D01*
X108071Y208642D02*
Y212579D01*
X106103Y210610D02*
X110039D01*
X353228Y67815D02*
X354527D01*
X353819Y67165D02*
Y68464D01*
X356772Y61910D02*
Y73819D01*
X350866Y61910D02*
Y73819D01*
X356772D01*
X350866Y61910D02*
X356772D01*
X343228Y67815D02*
X344528D01*
X343819Y67165D02*
Y68464D01*
X346772Y61910D02*
Y73819D01*
X340866Y61910D02*
Y73819D01*
X346772D01*
X340866Y61910D02*
X346772D01*
X333228Y67815D02*
X334527D01*
X333819Y67165D02*
Y68464D01*
X336772Y61910D02*
Y73819D01*
X330866Y61910D02*
Y73819D01*
X336772D01*
X330866Y61910D02*
X336772D01*
X323228Y67815D02*
X324528D01*
X323819Y67165D02*
Y68464D01*
X326772Y61910D02*
Y73819D01*
X320866Y61910D02*
Y73819D01*
X326772D01*
X320866Y61910D02*
X326772D01*
X353228Y83878D02*
X354527D01*
X353819Y83228D02*
Y84527D01*
X356772Y77972D02*
Y89882D01*
X350866Y77972D02*
Y89882D01*
X356772D01*
X350866Y77972D02*
X356772D01*
X323228Y83878D02*
X324528D01*
X323819Y83228D02*
Y84527D01*
X326772Y77972D02*
Y89882D01*
X320866Y77972D02*
Y89882D01*
X326772D01*
X320866Y77972D02*
X326772D01*
X343228Y83878D02*
X344528D01*
X343819Y83228D02*
Y84527D01*
X346772Y77972D02*
Y89882D01*
X340866Y77972D02*
Y89882D01*
X346772D01*
X340866Y77972D02*
X346772D01*
X333228Y83878D02*
X334527D01*
X333819Y83228D02*
Y84527D01*
X336772Y77972D02*
Y89882D01*
X330866Y77972D02*
Y89882D01*
X336772D01*
X330866Y77972D02*
X336772D01*
X242854Y139664D02*
X246791D01*
X244823Y137696D02*
Y141633D01*
X258839Y142420D02*
X260807D01*
X258839Y136908D02*
X260807D01*
X258839D02*
Y142420D01*
X260807Y136908D02*
Y142420D01*
X259823Y138976D02*
Y140354D01*
X259134Y139664D02*
X260512D01*
X228839Y136908D02*
X230807D01*
X228839Y142420D02*
X230807D01*
Y136908D02*
Y142420D01*
X228839Y136908D02*
Y142420D01*
X229823Y138976D02*
Y140354D01*
X229134Y139664D02*
X230512D01*
X194725Y110925D02*
Y116831D01*
X182815Y110925D02*
Y116831D01*
X194725D01*
X182815Y110925D02*
X194725D01*
X188169Y113878D02*
X189469D01*
X188819Y113169D02*
Y114469D01*
X182913Y120925D02*
Y126831D01*
X194823Y120925D02*
Y126831D01*
X182913Y120925D02*
X194823D01*
X182913Y126831D02*
X194823D01*
X188169Y123878D02*
X189469D01*
X188819Y123287D02*
Y124586D01*
X194725Y130925D02*
Y136831D01*
X182815Y130925D02*
Y136831D01*
X194725D01*
X182815Y130925D02*
X194725D01*
X188169Y133878D02*
X189469D01*
X188819Y133169D02*
Y134468D01*
X182913Y140925D02*
Y146831D01*
X194823Y140925D02*
Y146831D01*
X182913Y140925D02*
X194823D01*
X182913Y146831D02*
X194823D01*
X188169Y143878D02*
X189469D01*
X188819Y143287D02*
Y144587D01*
X147224Y110925D02*
Y116831D01*
X135315Y110925D02*
Y116831D01*
X147224D01*
X135315Y110925D02*
X147224D01*
X140669Y113878D02*
X141969D01*
X141319Y113169D02*
Y114469D01*
X135413Y120925D02*
Y126831D01*
X147323Y120925D02*
Y126831D01*
X135413Y120925D02*
X147323D01*
X135413Y126831D02*
X147323D01*
X140669Y123878D02*
X141969D01*
X141319Y123287D02*
Y124586D01*
X147224Y130925D02*
Y136831D01*
X135315Y130925D02*
Y136831D01*
X147224D01*
X135315Y130925D02*
X147224D01*
X140669Y133878D02*
X141969D01*
X141319Y133169D02*
Y134468D01*
X135413Y140925D02*
Y146831D01*
X147323Y140925D02*
Y146831D01*
X135413Y140925D02*
X147323D01*
X135413Y146831D02*
X147323D01*
X140669Y143878D02*
X141969D01*
X141319Y143287D02*
Y144587D01*
X99725Y110925D02*
Y116831D01*
X87815Y110925D02*
Y116831D01*
X99725D01*
X87815Y110925D02*
X99725D01*
X93169Y113878D02*
X94468D01*
X93819Y113169D02*
Y114469D01*
X87913Y120925D02*
Y126831D01*
X99823Y120925D02*
Y126831D01*
X87913Y120925D02*
X99823D01*
X87913Y126831D02*
X99823D01*
X93169Y123878D02*
X94468D01*
X93819Y123287D02*
Y124586D01*
X99725Y130925D02*
Y136831D01*
X87815Y130925D02*
Y136831D01*
X99725D01*
X87815Y130925D02*
X99725D01*
X93169Y133878D02*
X94468D01*
X93819Y133169D02*
Y134468D01*
X87913Y140925D02*
Y146831D01*
X99823Y140925D02*
Y146831D01*
X87913Y140925D02*
X99823D01*
X87913Y146831D02*
X99823D01*
X93169Y143878D02*
X94468D01*
X93819Y143287D02*
Y144587D01*
X10335Y194744D02*
X12303D01*
X10335Y200256D02*
X12303D01*
Y194744D02*
Y200256D01*
X10335Y194744D02*
Y200256D01*
X11319Y196811D02*
Y198189D01*
X10630Y197500D02*
X12008D01*
X10335Y214744D02*
X12303D01*
X10335Y220256D02*
X12303D01*
Y214744D02*
Y220256D01*
X10335Y214744D02*
Y220256D01*
X11319Y216811D02*
Y218189D01*
X10630Y217500D02*
X12008D01*
X104685Y102894D02*
Y104862D01*
X110197Y102894D02*
Y104862D01*
X104685D02*
X110197D01*
X104685Y102894D02*
X110197D01*
X106752Y103878D02*
X108130D01*
X107441Y103189D02*
Y104567D01*
X82953Y102894D02*
Y104862D01*
X77441Y102894D02*
Y104862D01*
Y102894D02*
X82953D01*
X77441Y104862D02*
X82953D01*
X79508Y103878D02*
X80886D01*
X80197Y103189D02*
Y104567D01*
X152185Y102894D02*
Y104862D01*
X157697Y102894D02*
Y104862D01*
X152185D02*
X157697D01*
X152185Y102894D02*
X157697D01*
X154252Y103878D02*
X155630D01*
X154941Y103189D02*
Y104567D01*
X130453Y102894D02*
Y104862D01*
X124941Y102894D02*
Y104862D01*
Y102894D02*
X130453D01*
X124941Y104862D02*
X130453D01*
X127008Y103878D02*
X128386D01*
X127697Y103189D02*
Y104567D01*
X199685Y102894D02*
Y104862D01*
X205197Y102894D02*
Y104862D01*
X199685D02*
X205197D01*
X199685Y102894D02*
X205197D01*
X201752Y103878D02*
X203130D01*
X202441Y103189D02*
Y104567D01*
X177953Y102894D02*
Y104862D01*
X172441Y102894D02*
Y104862D01*
Y102894D02*
X177953D01*
X172441Y104862D02*
X177953D01*
X174508Y103878D02*
X175886D01*
X175197Y103189D02*
Y104567D01*
X91851Y128878D02*
X95788D01*
X93819Y126909D02*
Y130846D01*
X139350Y128878D02*
X143288D01*
X141319Y126909D02*
Y130846D01*
X186851Y128878D02*
X190787D01*
X188819Y126909D02*
Y130846D01*
D13*
X536220Y250079D02*
Y260315D01*
Y250079D02*
X543897D01*
Y260315D01*
X536220D02*
X543897D01*
X343347Y135571D02*
Y143248D01*
Y135571D02*
X353583D01*
Y143248D01*
X343347D02*
X353583D01*
X355847Y177008D02*
Y184685D01*
Y177008D02*
X366083D01*
Y184685D01*
X355847D02*
X366083D01*
X455847Y193071D02*
Y200748D01*
Y193071D02*
X466083D01*
Y200748D01*
X455847D02*
X466083D01*
X490846Y193071D02*
Y200748D01*
Y193071D02*
X501083D01*
Y200748D01*
X490846D02*
X501083D01*
X461201Y77716D02*
X471437D01*
Y70039D02*
Y77716D01*
X461201Y70039D02*
X471437D01*
X461201D02*
Y77716D01*
M02*
