G04*
G04 #@! TF.GenerationSoftware,Altium Limited,Altium Designer,19.0.15 (446)*
G04*
G04 Layer_Color=8388736*
%FSLAX25Y25*%
%MOIN*%
G70*
G01*
G75*
%ADD10C,0.01000*%
%ADD11R,0.05918X0.04343*%
G04:AMPARAMS|DCode=12|XSize=25.72mil|YSize=37.53mil|CornerRadius=6.22mil|HoleSize=0mil|Usage=FLASHONLY|Rotation=0.000|XOffset=0mil|YOffset=0mil|HoleType=Round|Shape=RoundedRectangle|*
%AMROUNDEDRECTD12*
21,1,0.02572,0.02510,0,0,0.0*
21,1,0.01329,0.03753,0,0,0.0*
1,1,0.01243,0.00664,-0.01255*
1,1,0.01243,-0.00664,-0.01255*
1,1,0.01243,-0.00664,0.01255*
1,1,0.01243,0.00664,0.01255*
%
%ADD12ROUNDEDRECTD12*%
%ADD13R,0.04343X0.05918*%
%ADD14O,0.03556X0.11430*%
%ADD15O,0.07887X0.01981*%
%ADD16R,0.02769X0.02375*%
%ADD17C,0.07099*%
%ADD18C,0.07887*%
%ADD19O,0.07887X0.07493*%
%ADD20R,0.07887X0.07493*%
%ADD21C,0.07493*%
%ADD22C,0.12611*%
%ADD23R,0.06312X0.07887*%
%ADD24O,0.06312X0.07887*%
%ADD25O,0.06706X0.07887*%
%ADD26R,0.12611X0.12611*%
%ADD27C,0.08280*%
%ADD28C,0.06800*%
%ADD29R,0.07099X0.07099*%
%ADD30O,0.07493X0.07099*%
%ADD31O,0.08674X0.08280*%
%ADD32O,0.07887X0.06312*%
%ADD33R,0.07887X0.06312*%
%ADD34R,0.07887X0.07887*%
%ADD35R,0.07887X0.07887*%
%ADD36C,0.08674*%
%ADD37R,0.08674X0.08674*%
%ADD38C,0.06706*%
%ADD39R,0.06706X0.06706*%
%ADD40R,0.07887X0.06312*%
%ADD41O,0.07887X0.06312*%
%ADD42C,0.14580*%
%ADD43R,0.08674X0.06312*%
%ADD44O,0.08674X0.06312*%
%ADD45C,0.03556*%
D10*
X553702Y268878D02*
X558819D01*
X553702D02*
X558819Y270827D01*
X553702Y272777D02*
X558819Y270827D01*
X553702Y272777D02*
X558819D01*
X554920Y277894D02*
X554433Y277650D01*
X553946Y277163D01*
X553702Y276675D01*
Y275701D01*
X553946Y275213D01*
X554433Y274726D01*
X554920Y274482D01*
X555651Y274239D01*
X556870D01*
X557601Y274482D01*
X558088Y274726D01*
X558575Y275213D01*
X558819Y275701D01*
Y276675D01*
X558575Y277163D01*
X558088Y277650D01*
X557601Y277894D01*
X553702Y279331D02*
X558819D01*
Y282255D01*
X553702Y282816D02*
X558819D01*
X553702D02*
Y285009D01*
X553946Y285740D01*
X554189Y285983D01*
X554677Y286227D01*
X555164D01*
X555651Y285983D01*
X555895Y285740D01*
X556139Y285009D01*
Y282816D01*
Y284521D02*
X558819Y286227D01*
X316202Y133878D02*
X321319D01*
X316202D02*
Y137046D01*
X318639Y133878D02*
Y135827D01*
X316202Y137630D02*
X319857D01*
X320588Y137874D01*
X321075Y138361D01*
X321319Y139092D01*
Y139580D01*
X321075Y140311D01*
X320588Y140798D01*
X319857Y141042D01*
X316202D01*
Y142455D02*
X321319D01*
X316202D02*
X321319Y145866D01*
X316202D02*
X321319D01*
X317420Y115033D02*
X316933Y114789D01*
X316446Y114302D01*
X316202Y113815D01*
Y112840D01*
X316446Y112353D01*
X316933Y111865D01*
X317420Y111622D01*
X318151Y111378D01*
X319370D01*
X320101Y111622D01*
X320588Y111865D01*
X321075Y112353D01*
X321319Y112840D01*
Y113815D01*
X321075Y114302D01*
X320588Y114789D01*
X320101Y115033D01*
X319370D01*
Y113815D02*
Y115033D01*
X316202Y116203D02*
X321319D01*
X316202D02*
Y118396D01*
X316446Y119127D01*
X316689Y119370D01*
X317177Y119614D01*
X317664D01*
X318151Y119370D01*
X318395Y119127D01*
X318639Y118396D01*
Y116203D01*
Y117908D02*
X321319Y119614D01*
Y124658D02*
X316202Y122708D01*
X321319Y120759D01*
X319613Y121490D02*
Y123927D01*
X284126Y96378D02*
Y100764D01*
X282420Y102518D02*
X282177D01*
X281689Y102762D01*
X281446Y103006D01*
X281202Y103493D01*
Y104468D01*
X281446Y104955D01*
X281689Y105199D01*
X282177Y105442D01*
X282664D01*
X283151Y105199D01*
X283882Y104711D01*
X286319Y102275D01*
Y105686D01*
X285832Y107075D02*
X286075Y106831D01*
X286319Y107075D01*
X286075Y107319D01*
X285832Y107075D01*
X281202Y111363D02*
Y108927D01*
X283395Y108683D01*
X283151Y108927D01*
X282908Y109658D01*
Y110389D01*
X283151Y111120D01*
X283639Y111607D01*
X284370Y111851D01*
X284857D01*
X285588Y111607D01*
X286075Y111120D01*
X286319Y110389D01*
Y109658D01*
X286075Y108927D01*
X285832Y108683D01*
X285344Y108440D01*
X281202Y112996D02*
X286319Y114945D01*
X281202Y116895D02*
X286319Y114945D01*
X281933Y133571D02*
X286319D01*
X284126Y131378D02*
Y135764D01*
X282420Y137518D02*
X282177D01*
X281689Y137762D01*
X281446Y138006D01*
X281202Y138493D01*
Y139468D01*
X281446Y139955D01*
X281689Y140199D01*
X282177Y140442D01*
X282664D01*
X283151Y140199D01*
X283882Y139711D01*
X286319Y137275D01*
Y140686D01*
X285832Y142075D02*
X286075Y141831D01*
X286319Y142075D01*
X286075Y142319D01*
X285832Y142075D01*
X281202Y146363D02*
Y143927D01*
X283395Y143683D01*
X283151Y143927D01*
X282908Y144658D01*
Y145389D01*
X283151Y146120D01*
X283639Y146607D01*
X284370Y146851D01*
X284857D01*
X285588Y146607D01*
X286075Y146120D01*
X286319Y145389D01*
Y144658D01*
X286075Y143927D01*
X285832Y143683D01*
X285344Y143439D01*
X281202Y147996D02*
X286319Y149945D01*
X281202Y151895D02*
X286319Y149945D01*
X41319Y334877D02*
X43604Y328878D01*
X45889Y334877D02*
X43604Y328878D01*
X46661Y334877D02*
Y328878D01*
X47918Y334877D02*
Y328878D01*
Y334877D02*
X51917Y328878D01*
Y334877D02*
Y328878D01*
X53573Y331449D02*
X58715D01*
X41319Y345877D02*
X43604Y339878D01*
X45889Y345877D02*
X43604Y339878D01*
X46661Y345877D02*
Y339878D01*
X47918Y345877D02*
Y339878D01*
Y345877D02*
X51917Y339878D01*
Y345877D02*
Y339878D01*
X56144Y345020D02*
Y339878D01*
X53573Y342449D02*
X58715D01*
X43890Y227520D02*
Y222378D01*
X41319Y224949D02*
X46461D01*
X48232Y227234D02*
X48803Y227520D01*
X49660Y228377D01*
Y222378D01*
X52916Y226948D02*
Y227234D01*
X53202Y227805D01*
X53488Y228091D01*
X54059Y228377D01*
X55202D01*
X55773Y228091D01*
X56059Y227805D01*
X56344Y227234D01*
Y226663D01*
X56059Y226091D01*
X55487Y225235D01*
X52631Y222378D01*
X56630D01*
X57973Y228377D02*
X60258Y222378D01*
X62543Y228377D02*
X60258Y222378D01*
X45604Y195948D02*
X45318Y196520D01*
X44747Y197091D01*
X44175Y197377D01*
X43033D01*
X42461Y197091D01*
X41890Y196520D01*
X41605Y195948D01*
X41319Y195091D01*
Y193663D01*
X41605Y192806D01*
X41890Y192235D01*
X42461Y191664D01*
X43033Y191378D01*
X44175D01*
X44747Y191664D01*
X45318Y192235D01*
X45604Y192806D01*
Y193663D01*
X44175D02*
X45604D01*
X46975Y197377D02*
Y191378D01*
Y197377D02*
X50974Y191378D01*
Y197377D02*
Y191378D01*
X52631Y197377D02*
Y191378D01*
Y197377D02*
X54630D01*
X55487Y197091D01*
X56059Y196520D01*
X56344Y195948D01*
X56630Y195091D01*
Y193663D01*
X56344Y192806D01*
X56059Y192235D01*
X55487Y191664D01*
X54630Y191378D01*
X52631D01*
X41319Y203949D02*
X46461D01*
X48232Y206234D02*
X48803Y206520D01*
X49660Y207377D01*
Y201378D01*
X52916Y205948D02*
Y206234D01*
X53202Y206805D01*
X53488Y207091D01*
X54059Y207377D01*
X55202D01*
X55773Y207091D01*
X56059Y206805D01*
X56344Y206234D01*
Y205663D01*
X56059Y205091D01*
X55487Y204235D01*
X52631Y201378D01*
X56630D01*
X57973Y207377D02*
X60258Y201378D01*
X62543Y207377D02*
X60258Y201378D01*
X45604Y215948D02*
X45318Y216520D01*
X44747Y217091D01*
X44175Y217377D01*
X43033D01*
X42461Y217091D01*
X41890Y216520D01*
X41605Y215948D01*
X41319Y215091D01*
Y213663D01*
X41605Y212806D01*
X41890Y212235D01*
X42461Y211664D01*
X43033Y211378D01*
X44175D01*
X44747Y211664D01*
X45318Y212235D01*
X45604Y212806D01*
Y213663D01*
X44175D02*
X45604D01*
X46975Y217377D02*
Y211378D01*
Y217377D02*
X50974Y211378D01*
Y217377D02*
Y211378D01*
X52631Y217377D02*
Y211378D01*
Y217377D02*
X54630D01*
X55487Y217091D01*
X56059Y216520D01*
X56344Y215948D01*
X56630Y215091D01*
Y213663D01*
X56344Y212806D01*
X56059Y212235D01*
X55487Y211664D01*
X54630Y211378D01*
X52631D01*
X46231Y168448D02*
X45946Y169020D01*
X45374Y169591D01*
X44803Y169877D01*
X43660D01*
X43089Y169591D01*
X42518Y169020D01*
X42232Y168448D01*
X41946Y167592D01*
Y166163D01*
X42232Y165306D01*
X42518Y164735D01*
X43089Y164164D01*
X43660Y163878D01*
X44803D01*
X45374Y164164D01*
X45946Y164735D01*
X46231Y165306D01*
X48488Y169877D02*
X51630D01*
X49916Y167592D01*
X50773D01*
X51344Y167306D01*
X51630Y167020D01*
X51916Y166163D01*
Y165592D01*
X51630Y164735D01*
X51059Y164164D01*
X50202Y163878D01*
X49345D01*
X48488Y164164D01*
X48202Y164449D01*
X47917Y165021D01*
X53258Y166449D02*
X58400D01*
X46231Y158645D02*
X45946Y159216D01*
X45374Y159788D01*
X44803Y160073D01*
X43660D01*
X43089Y159788D01*
X42518Y159216D01*
X42232Y158645D01*
X41946Y157788D01*
Y156360D01*
X42232Y155503D01*
X42518Y154932D01*
X43089Y154360D01*
X43660Y154075D01*
X44803D01*
X45374Y154360D01*
X45946Y154932D01*
X46231Y155503D01*
X48488Y160073D02*
X51630D01*
X49916Y157788D01*
X50773D01*
X51344Y157502D01*
X51630Y157217D01*
X51916Y156360D01*
Y155789D01*
X51630Y154932D01*
X51059Y154360D01*
X50202Y154075D01*
X49345D01*
X48488Y154360D01*
X48202Y154646D01*
X47917Y155217D01*
X55829Y159216D02*
Y154075D01*
X53258Y156646D02*
X58400D01*
X46231Y129373D02*
X45946Y129945D01*
X45374Y130516D01*
X44803Y130802D01*
X43660D01*
X43089Y130516D01*
X42518Y129945D01*
X42232Y129373D01*
X41946Y128516D01*
Y127088D01*
X42232Y126231D01*
X42518Y125660D01*
X43089Y125089D01*
X43660Y124803D01*
X44803D01*
X45374Y125089D01*
X45946Y125660D01*
X46231Y126231D01*
X47917Y129659D02*
X48488Y129945D01*
X49345Y130802D01*
Y124803D01*
X52316Y127374D02*
X57457D01*
X46231Y119393D02*
X45946Y119964D01*
X45374Y120536D01*
X44803Y120821D01*
X43660D01*
X43089Y120536D01*
X42518Y119964D01*
X42232Y119393D01*
X41946Y118536D01*
Y117108D01*
X42232Y116251D01*
X42518Y115680D01*
X43089Y115108D01*
X43660Y114822D01*
X44803D01*
X45374Y115108D01*
X45946Y115680D01*
X46231Y116251D01*
X47917Y119679D02*
X48488Y119964D01*
X49345Y120821D01*
Y114822D01*
X54887Y119964D02*
Y114822D01*
X52316Y117393D02*
X57457D01*
X46231Y138881D02*
X45946Y139453D01*
X45374Y140024D01*
X44803Y140310D01*
X43660D01*
X43089Y140024D01*
X42518Y139453D01*
X42232Y138881D01*
X41946Y138024D01*
Y136596D01*
X42232Y135739D01*
X42518Y135168D01*
X43089Y134597D01*
X43660Y134311D01*
X44803D01*
X45374Y134597D01*
X45946Y135168D01*
X46231Y135739D01*
X48202Y138881D02*
Y139167D01*
X48488Y139738D01*
X48774Y140024D01*
X49345Y140310D01*
X50488D01*
X51059Y140024D01*
X51344Y139738D01*
X51630Y139167D01*
Y138596D01*
X51344Y138024D01*
X50773Y137167D01*
X47917Y134311D01*
X51916D01*
X55829Y139453D02*
Y134311D01*
X53258Y136882D02*
X58400D01*
X46231Y148724D02*
X45946Y149295D01*
X45374Y149866D01*
X44803Y150152D01*
X43660D01*
X43089Y149866D01*
X42518Y149295D01*
X42232Y148724D01*
X41946Y147867D01*
Y146439D01*
X42232Y145582D01*
X42518Y145010D01*
X43089Y144439D01*
X43660Y144153D01*
X44803D01*
X45374Y144439D01*
X45946Y145010D01*
X46231Y145582D01*
X48202Y148724D02*
Y149010D01*
X48488Y149581D01*
X48774Y149866D01*
X49345Y150152D01*
X50488D01*
X51059Y149866D01*
X51344Y149581D01*
X51630Y149010D01*
Y148438D01*
X51344Y147867D01*
X50773Y147010D01*
X47917Y144153D01*
X51916D01*
X53258Y146724D02*
X58400D01*
D11*
X540060Y272943D02*
D03*
Y265069D02*
D03*
X353819Y71752D02*
D03*
Y63878D02*
D03*
X343819Y71752D02*
D03*
Y63878D02*
D03*
X333819Y71752D02*
D03*
Y63878D02*
D03*
X323819Y71752D02*
D03*
Y63878D02*
D03*
X353819Y87815D02*
D03*
Y79941D02*
D03*
X323819Y87815D02*
D03*
Y79941D02*
D03*
X343819Y87815D02*
D03*
Y79941D02*
D03*
X333819Y87815D02*
D03*
Y79941D02*
D03*
D12*
X538091Y252343D02*
D03*
X542028D02*
D03*
X540059Y258051D02*
D03*
D13*
X536457Y243307D02*
D03*
X544331D02*
D03*
X269134Y185256D02*
D03*
X277008D02*
D03*
X249134D02*
D03*
X257008D02*
D03*
X191634D02*
D03*
X199508D02*
D03*
X171634D02*
D03*
X179508D02*
D03*
X114134D02*
D03*
X122008D02*
D03*
X94134D02*
D03*
X102008D02*
D03*
X17382Y23878D02*
D03*
X25256D02*
D03*
X17382Y31378D02*
D03*
X25256D02*
D03*
X17382Y76378D02*
D03*
X25256D02*
D03*
X17382Y68878D02*
D03*
X25256D02*
D03*
X17382Y61378D02*
D03*
X25256D02*
D03*
X17382Y53878D02*
D03*
X25256D02*
D03*
X17382Y46378D02*
D03*
X25256D02*
D03*
X17382Y38878D02*
D03*
X25256D02*
D03*
X105256Y23878D02*
D03*
X97382D02*
D03*
X105256Y31378D02*
D03*
X97382D02*
D03*
X105256Y76378D02*
D03*
X97382D02*
D03*
X105256Y68878D02*
D03*
X97382D02*
D03*
X105256Y61378D02*
D03*
X97382D02*
D03*
X105256Y53878D02*
D03*
X97382D02*
D03*
X105256Y46378D02*
D03*
X97382D02*
D03*
X105256Y38878D02*
D03*
X97382D02*
D03*
X112382Y23878D02*
D03*
X120256D02*
D03*
X112382Y31378D02*
D03*
X120256D02*
D03*
X112382Y68878D02*
D03*
X120256D02*
D03*
X112382Y61378D02*
D03*
X120256D02*
D03*
X112382Y53878D02*
D03*
X120256D02*
D03*
X112382Y46378D02*
D03*
X120256D02*
D03*
X112382Y38878D02*
D03*
X120256D02*
D03*
X200256Y23878D02*
D03*
X192382D02*
D03*
X200256Y31378D02*
D03*
X192382D02*
D03*
X200256Y76378D02*
D03*
X192382D02*
D03*
X200256Y68878D02*
D03*
X192382D02*
D03*
X200256Y61378D02*
D03*
X192382D02*
D03*
X200256Y53878D02*
D03*
X192382D02*
D03*
X200256Y46378D02*
D03*
X192382D02*
D03*
X200256Y38878D02*
D03*
X192382D02*
D03*
X207382Y31378D02*
D03*
X215256D02*
D03*
X207382Y23878D02*
D03*
X215256D02*
D03*
X207382Y76378D02*
D03*
X215256D02*
D03*
X207382Y68878D02*
D03*
X215256D02*
D03*
X207382Y61378D02*
D03*
X215256D02*
D03*
X207382Y53878D02*
D03*
X215256D02*
D03*
X207382Y46378D02*
D03*
X215256D02*
D03*
X207382Y38878D02*
D03*
X215256D02*
D03*
X295256Y23878D02*
D03*
X287382D02*
D03*
X295256Y31378D02*
D03*
X287382D02*
D03*
X295256Y38878D02*
D03*
X287382D02*
D03*
X295256Y46378D02*
D03*
X287382D02*
D03*
X295256Y53878D02*
D03*
X287382D02*
D03*
X295256Y61378D02*
D03*
X287382D02*
D03*
X295256Y68878D02*
D03*
X287382D02*
D03*
X295256Y76378D02*
D03*
X287382D02*
D03*
X112382Y76378D02*
D03*
X120256D02*
D03*
X249134Y235256D02*
D03*
X257008D02*
D03*
X277008Y235256D02*
D03*
X269134D02*
D03*
X199508D02*
D03*
X191634D02*
D03*
X171634Y235256D02*
D03*
X179508D02*
D03*
X122008Y235256D02*
D03*
X114134D02*
D03*
X94134Y235256D02*
D03*
X102008D02*
D03*
D14*
X200571Y220256D02*
D03*
X195571D02*
D03*
X190571D02*
D03*
X185571D02*
D03*
X180571D02*
D03*
X175571D02*
D03*
X170571D02*
D03*
X200571Y200964D02*
D03*
X195571D02*
D03*
X190571D02*
D03*
X185571D02*
D03*
X180571D02*
D03*
X175571D02*
D03*
X170571D02*
D03*
X248071D02*
D03*
X253071D02*
D03*
X258071D02*
D03*
X263071D02*
D03*
X268071D02*
D03*
X273071D02*
D03*
X278071D02*
D03*
X248071Y220256D02*
D03*
X253071D02*
D03*
X258071D02*
D03*
X263071D02*
D03*
X268071D02*
D03*
X273071D02*
D03*
X278071D02*
D03*
X93071Y200964D02*
D03*
X98071D02*
D03*
X103071D02*
D03*
X108071D02*
D03*
X113071D02*
D03*
X118071D02*
D03*
X123071D02*
D03*
X93071Y220256D02*
D03*
X98071D02*
D03*
X103071D02*
D03*
X108071D02*
D03*
X113071D02*
D03*
X118071D02*
D03*
X123071D02*
D03*
D15*
X263819Y33465D02*
D03*
Y36024D02*
D03*
Y38583D02*
D03*
Y41142D02*
D03*
Y43701D02*
D03*
Y46260D02*
D03*
Y48819D02*
D03*
Y51378D02*
D03*
Y53937D02*
D03*
Y56496D02*
D03*
Y59055D02*
D03*
Y61614D02*
D03*
Y64173D02*
D03*
Y66732D02*
D03*
X238622D02*
D03*
Y64173D02*
D03*
Y61614D02*
D03*
Y59055D02*
D03*
Y56496D02*
D03*
Y53937D02*
D03*
Y51378D02*
D03*
Y48819D02*
D03*
Y46260D02*
D03*
Y43701D02*
D03*
Y41142D02*
D03*
Y38583D02*
D03*
Y36024D02*
D03*
Y33465D02*
D03*
X168819D02*
D03*
Y36024D02*
D03*
Y38583D02*
D03*
Y41142D02*
D03*
Y43701D02*
D03*
Y46260D02*
D03*
Y48819D02*
D03*
Y51378D02*
D03*
Y53937D02*
D03*
Y56496D02*
D03*
Y59055D02*
D03*
Y61614D02*
D03*
Y64173D02*
D03*
Y66732D02*
D03*
X143622D02*
D03*
Y64173D02*
D03*
Y61614D02*
D03*
Y59055D02*
D03*
Y56496D02*
D03*
Y53937D02*
D03*
Y51378D02*
D03*
Y48819D02*
D03*
Y46260D02*
D03*
Y43701D02*
D03*
Y41142D02*
D03*
Y38583D02*
D03*
Y36024D02*
D03*
Y33465D02*
D03*
X74016D02*
D03*
Y36024D02*
D03*
Y38583D02*
D03*
Y41142D02*
D03*
Y43701D02*
D03*
Y46260D02*
D03*
Y48819D02*
D03*
Y51378D02*
D03*
Y53937D02*
D03*
Y56496D02*
D03*
Y59055D02*
D03*
Y61614D02*
D03*
Y64173D02*
D03*
Y66732D02*
D03*
X48819D02*
D03*
Y64173D02*
D03*
Y61614D02*
D03*
Y59055D02*
D03*
Y56496D02*
D03*
Y53937D02*
D03*
Y51378D02*
D03*
Y48819D02*
D03*
Y46260D02*
D03*
Y43701D02*
D03*
Y41142D02*
D03*
Y38583D02*
D03*
Y36024D02*
D03*
Y33465D02*
D03*
D16*
X256949Y72756D02*
D03*
X254193D02*
D03*
X244193D02*
D03*
X246949D02*
D03*
X161949D02*
D03*
X159193D02*
D03*
X149193D02*
D03*
X151949D02*
D03*
X66949D02*
D03*
X64193D02*
D03*
X54193D02*
D03*
X56949D02*
D03*
X106063Y103878D02*
D03*
X108819D02*
D03*
X81575D02*
D03*
X78819D02*
D03*
X153563D02*
D03*
X156319D02*
D03*
X129075D02*
D03*
X126319D02*
D03*
X201063D02*
D03*
X203819D02*
D03*
X176575D02*
D03*
X173819D02*
D03*
D17*
X295571Y217756D02*
D03*
Y237756D02*
D03*
X230571Y217756D02*
D03*
Y237756D02*
D03*
X218071Y217756D02*
D03*
Y237756D02*
D03*
X153071Y217756D02*
D03*
Y237756D02*
D03*
X140571Y217756D02*
D03*
Y237756D02*
D03*
X75571Y217756D02*
D03*
Y237756D02*
D03*
X295571Y205256D02*
D03*
Y185256D02*
D03*
X230571D02*
D03*
Y205256D02*
D03*
X218071D02*
D03*
Y185256D02*
D03*
X153071D02*
D03*
Y205256D02*
D03*
X140571D02*
D03*
Y185256D02*
D03*
X75571D02*
D03*
Y205256D02*
D03*
X328819Y281378D02*
D03*
Y316378D02*
D03*
X188819Y273878D02*
D03*
X258071Y283839D02*
D03*
X258819Y326378D02*
D03*
X188819Y308878D02*
D03*
Y328878D02*
D03*
D18*
X234823Y114664D02*
D03*
X254823D02*
D03*
X244823D02*
D03*
X491732Y113878D02*
D03*
Y103878D02*
D03*
Y93878D02*
D03*
Y83878D02*
D03*
Y73878D02*
D03*
Y63878D02*
D03*
Y53878D02*
D03*
Y43878D02*
D03*
Y33878D02*
D03*
X288819Y341378D02*
D03*
Y321378D02*
D03*
Y331378D02*
D03*
Y296378D02*
D03*
Y276378D02*
D03*
Y286378D02*
D03*
X148819Y298976D02*
D03*
X123819Y333878D02*
D03*
X163819Y348878D02*
D03*
X73819D02*
D03*
X113819Y333878D02*
D03*
X28819Y293976D02*
D03*
D19*
X293819Y136378D02*
D03*
Y146378D02*
D03*
Y101378D02*
D03*
Y111378D02*
D03*
X21319Y331378D02*
D03*
X516319Y121378D02*
D03*
Y131378D02*
D03*
X528819Y323878D02*
D03*
Y333878D02*
D03*
Y343878D02*
D03*
X328819Y128878D02*
D03*
Y118878D02*
D03*
X486319Y323878D02*
D03*
Y333878D02*
D03*
Y343878D02*
D03*
X21319Y167756D02*
D03*
Y157756D02*
D03*
Y147756D02*
D03*
Y137756D02*
D03*
Y127756D02*
D03*
X21319Y213878D02*
D03*
Y203878D02*
D03*
Y193878D02*
D03*
D20*
X293819Y156378D02*
D03*
Y121378D02*
D03*
X21319Y341378D02*
D03*
X516319Y111378D02*
D03*
X528819Y313878D02*
D03*
X328819Y138878D02*
D03*
X486319Y313878D02*
D03*
X21319Y117756D02*
D03*
X21319Y223878D02*
D03*
D21*
X444921Y143878D02*
D03*
X463819D02*
D03*
D22*
X376732Y113878D02*
D03*
Y33878D02*
D03*
D23*
X328819Y158878D02*
D03*
X518819Y263878D02*
D03*
X259823Y154665D02*
D03*
D24*
X338819Y158878D02*
D03*
X348819D02*
D03*
X358819D02*
D03*
X368819D02*
D03*
X378819D02*
D03*
X388819D02*
D03*
X398819D02*
D03*
X408819D02*
D03*
X418819D02*
D03*
X428819D02*
D03*
X438819D02*
D03*
X448819D02*
D03*
X458819D02*
D03*
X468819D02*
D03*
X478819D02*
D03*
X488819D02*
D03*
X498819D02*
D03*
X508819D02*
D03*
X518819D02*
D03*
X328819Y218878D02*
D03*
X338819D02*
D03*
X348819D02*
D03*
X358819D02*
D03*
X368819D02*
D03*
X378819D02*
D03*
X388819D02*
D03*
X398819D02*
D03*
X408819D02*
D03*
X418819D02*
D03*
X428819D02*
D03*
X438819D02*
D03*
X448819D02*
D03*
X458819D02*
D03*
X468819D02*
D03*
X478819D02*
D03*
X488819D02*
D03*
X498819D02*
D03*
X508819D02*
D03*
X518819D02*
D03*
X488819Y233878D02*
D03*
X498819D02*
D03*
X508819D02*
D03*
X518819D02*
D03*
X488819Y263878D02*
D03*
X498819D02*
D03*
X508819D02*
D03*
X229823Y124664D02*
D03*
X239823D02*
D03*
X249823D02*
D03*
X259823D02*
D03*
X229823Y154665D02*
D03*
X239823D02*
D03*
X249823D02*
D03*
D25*
X508819Y276378D02*
D03*
X517569D02*
D03*
D26*
X425072Y269311D02*
D03*
D27*
X387277D02*
D03*
D28*
Y287815D02*
D03*
X371135Y260256D02*
D03*
X403419D02*
D03*
D29*
X328819Y291378D02*
D03*
Y326378D02*
D03*
X188819Y283878D02*
D03*
X258071Y293839D02*
D03*
X258819Y336378D02*
D03*
X188819Y298878D02*
D03*
Y338878D02*
D03*
D30*
X303819Y286378D02*
D03*
Y296378D02*
D03*
Y276378D02*
D03*
D31*
Y321378D02*
D03*
Y331378D02*
D03*
Y341378D02*
D03*
D32*
X238819Y318878D02*
D03*
Y328878D02*
D03*
Y338878D02*
D03*
Y348878D02*
D03*
X208819Y318878D02*
D03*
Y328878D02*
D03*
Y338878D02*
D03*
X238819Y273878D02*
D03*
Y283878D02*
D03*
Y293878D02*
D03*
Y303878D02*
D03*
X208819Y273878D02*
D03*
Y283878D02*
D03*
Y293878D02*
D03*
X78819Y133878D02*
D03*
Y123878D02*
D03*
Y113878D02*
D03*
X108819Y143878D02*
D03*
Y133878D02*
D03*
Y123878D02*
D03*
Y113878D02*
D03*
X126319Y133878D02*
D03*
Y123878D02*
D03*
Y113878D02*
D03*
X156319Y143878D02*
D03*
Y133878D02*
D03*
Y123878D02*
D03*
Y113878D02*
D03*
X173819Y133878D02*
D03*
Y123878D02*
D03*
Y113878D02*
D03*
X203819Y143878D02*
D03*
Y133878D02*
D03*
Y123878D02*
D03*
Y113878D02*
D03*
D33*
X208819Y348878D02*
D03*
Y303878D02*
D03*
X78819Y143878D02*
D03*
X126319D02*
D03*
X173819D02*
D03*
D34*
X148819Y286378D02*
D03*
X28819Y281378D02*
D03*
D35*
X163819Y333878D02*
D03*
X123819Y348878D02*
D03*
X113819D02*
D03*
X73819Y333878D02*
D03*
D36*
X123819Y311378D02*
D03*
X63819D02*
D03*
X123819Y276378D02*
D03*
D37*
X63819D02*
D03*
D38*
X451319Y308878D02*
D03*
Y318878D02*
D03*
Y328878D02*
D03*
Y338878D02*
D03*
D39*
Y348878D02*
D03*
D40*
X521319Y26378D02*
D03*
X566319Y276378D02*
D03*
D41*
X521319Y36378D02*
D03*
Y46378D02*
D03*
Y56378D02*
D03*
Y66378D02*
D03*
Y76378D02*
D03*
X566319Y286378D02*
D03*
Y296378D02*
D03*
Y306378D02*
D03*
Y316378D02*
D03*
Y326378D02*
D03*
D42*
X11811Y11811D02*
D03*
Y362205D02*
D03*
X566929Y11811D02*
D03*
Y362205D02*
D03*
D43*
X566319Y53878D02*
D03*
D44*
X556319D02*
D03*
X566319Y63878D02*
D03*
X556319D02*
D03*
X566319Y73878D02*
D03*
X556319D02*
D03*
X566319Y83878D02*
D03*
X556319D02*
D03*
X566319Y93878D02*
D03*
X556319D02*
D03*
X566319Y103878D02*
D03*
X556319D02*
D03*
X566319Y113878D02*
D03*
X556319D02*
D03*
X566319Y123878D02*
D03*
X556319D02*
D03*
X566319Y133878D02*
D03*
X556319D02*
D03*
X566319Y143878D02*
D03*
X556319D02*
D03*
X566319Y153878D02*
D03*
X556319D02*
D03*
X566319Y163878D02*
D03*
X556319D02*
D03*
X566319Y173878D02*
D03*
X556319D02*
D03*
X566319Y183878D02*
D03*
X556319D02*
D03*
X566319Y193878D02*
D03*
X556319D02*
D03*
X566319Y203878D02*
D03*
X556319D02*
D03*
X566319Y213878D02*
D03*
X556319D02*
D03*
X566319Y223878D02*
D03*
X556319D02*
D03*
X566319Y233878D02*
D03*
X556319D02*
D03*
X566319Y243878D02*
D03*
X556319D02*
D03*
D45*
X395571Y185256D02*
D03*
X320571Y177756D02*
D03*
X338071Y147756D02*
D03*
X333071Y107756D02*
D03*
X538071Y62756D02*
D03*
X528071Y87756D02*
D03*
X460571Y185256D02*
D03*
X443071Y195256D02*
D03*
X478071Y237756D02*
D03*
X465571D02*
D03*
X313071Y325256D02*
D03*
X388071Y242756D02*
D03*
X33071Y352756D02*
D03*
X315571Y80256D02*
D03*
X370571Y130256D02*
D03*
Y140256D02*
D03*
X548071Y265256D02*
D03*
X65571Y145256D02*
D03*
X133071Y152756D02*
D03*
X155571Y155256D02*
D03*
X303071Y130256D02*
D03*
X110571Y172756D02*
D03*
X175571Y167756D02*
D03*
X43071Y20256D02*
D03*
X80571D02*
D03*
X135571D02*
D03*
X165571Y22756D02*
D03*
X173071D02*
D03*
X230571Y20256D02*
D03*
X268071Y22756D02*
D03*
X303071Y2756D02*
D03*
X270571Y80256D02*
D03*
X303071Y105256D02*
D03*
X283071Y122756D02*
D03*
X50571Y185256D02*
D03*
X30571Y10256D02*
D03*
X63071Y52756D02*
D03*
X158071D02*
D03*
X253071D02*
D03*
X265571Y107756D02*
D03*
X285571Y165256D02*
D03*
X320571Y215256D02*
D03*
X353071Y210256D02*
D03*
X363071D02*
D03*
X373071D02*
D03*
X333071Y252756D02*
D03*
X248071Y165256D02*
D03*
X208071Y160256D02*
D03*
X38071Y90256D02*
D03*
X50571Y250256D02*
D03*
X420471Y303543D02*
D03*
X533070Y238582D02*
D03*
X533071Y281102D02*
D03*
X532323Y108661D02*
D03*
X11811Y93307D02*
D03*
X263071Y192786D02*
D03*
X158661Y98032D02*
D03*
X159292Y81889D02*
D03*
X176654Y100256D02*
D03*
X166929Y93307D02*
D03*
X57087Y67775D02*
D03*
X56260Y37795D02*
D03*
X151949Y68287D02*
D03*
X149528Y38976D02*
D03*
X138071Y103681D02*
D03*
Y95669D02*
D03*
X267165Y169961D02*
D03*
X267165Y150000D02*
D03*
X229527Y177165D02*
D03*
X234291Y138189D02*
D03*
X254882Y140925D02*
D03*
X244528Y38583D02*
D03*
X254331Y63642D02*
D03*
X318110D02*
D03*
X438819Y116575D02*
D03*
X485079Y127559D02*
D03*
X495669Y122835D02*
D03*
X528208Y144095D02*
D03*
X422919Y244941D02*
D03*
X525984Y175984D02*
D03*
X434882Y198583D02*
D03*
Y183071D02*
D03*
X446850Y183405D02*
D03*
X446791Y167756D02*
D03*
X357087Y122835D02*
D03*
X360964Y129567D02*
D03*
X370610Y171378D02*
D03*
X529528Y171912D02*
D03*
X430419Y288189D02*
D03*
X429321Y198583D02*
D03*
X470472Y206378D02*
D03*
X511419Y201004D02*
D03*
X475197Y202382D02*
D03*
X376732Y185433D02*
D03*
X424409Y131535D02*
D03*
X540305Y164025D02*
D03*
X360964Y147756D02*
D03*
X484803Y77520D02*
D03*
X348071Y102756D02*
D03*
X323819Y92027D02*
D03*
X348071Y98032D02*
D03*
X333819Y93307D02*
D03*
X92165Y152578D02*
D03*
X214173Y99212D02*
D03*
X205906D02*
D03*
X281496Y228329D02*
D03*
X107087Y92126D02*
D03*
X119685D02*
D03*
X106752Y152578D02*
D03*
X137382Y171260D02*
D03*
Y160630D02*
D03*
X264016Y69941D02*
D03*
X263819Y92126D02*
D03*
X169035Y69941D02*
D03*
X155490Y92126D02*
D03*
X73819Y72047D02*
D03*
X70571Y92126D02*
D03*
X207087Y81496D02*
D03*
X105384D02*
D03*
X200256D02*
D03*
X243701Y88583D02*
D03*
X149528D02*
D03*
X240158Y191604D02*
D03*
X163071Y191339D02*
D03*
X85571Y192441D02*
D03*
X244193Y76772D02*
D03*
X149193Y76378D02*
D03*
X295256Y18898D02*
D03*
X207382Y19026D02*
D03*
X200256D02*
D03*
X112382Y18898D02*
D03*
X105512D02*
D03*
X158661Y12992D02*
D03*
X150709Y9843D02*
D03*
X254193Y12992D02*
D03*
X246850Y9843D02*
D03*
X105512Y3543D02*
D03*
X237795Y30118D02*
D03*
X249055Y37795D02*
D03*
X237795Y7087D02*
D03*
X143657Y30547D02*
D03*
X154252Y38287D02*
D03*
X143819Y7087D02*
D03*
X159291Y35433D02*
D03*
X254291Y34331D02*
D03*
X126358Y227756D02*
D03*
X135453D02*
D03*
X204725Y228329D02*
D03*
X238977D02*
D03*
X285571Y194137D02*
D03*
X268071Y212421D02*
D03*
X258070Y208642D02*
D03*
X249134Y240945D02*
D03*
X263071Y227953D02*
D03*
X190787Y212579D02*
D03*
X113071Y212598D02*
D03*
X108071Y227953D02*
D03*
X130571Y192520D02*
D03*
X102976Y208878D02*
D03*
X108130Y192756D02*
D03*
X185571Y227953D02*
D03*
X208071Y194137D02*
D03*
X185571Y192786D02*
D03*
X180571Y208878D02*
D03*
X171260Y243307D02*
D03*
X94134D02*
D03*
X89527Y252756D02*
D03*
X165748Y256299D02*
D03*
X471437Y106299D02*
D03*
X475197Y187441D02*
D03*
X505610Y206378D02*
D03*
X243701Y259842D02*
D03*
M02*
