M48
;Layer_Color=9474304
;FILE_FORMAT=2:5
INCH,TZ
;TYPE=PLATED
T1F00S00C0.01181
T2F00S00C0.02756
T3F00S00C0.03150
T4F00S00C0.03543
T5F00S00C0.03937
T6F00S00C0.04331
T7F00S00C0.05906
T8F00S00C0.09449
T9F00S00C0.09843
T10F00S00C0.11811
%
T01
X30571Y10256
X43071Y20256
X56260Y37795
X63071Y52756
X57087Y67775
X73819Y72047
X70571Y92126
X38071Y90256
X11811Y93307
X80571Y20256
X105512Y18898
X112382
X105512Y3543
X143819Y7087
X150709Y9843
X158661Y12992
X165571Y22756
X173071
X159291Y35433
X154252Y38287
X149528Y38976
X143657Y30547
X135571Y20256
X158071Y52756
X151949Y68287
X149193Y76378
X149528Y88583
X155490Y92126
X158661Y98032
X166929Y93307
X176654Y100256
X205906Y99212
X214173
X207087Y81496
X200256
X159292Y81889
X169035Y69941
X138071Y95669
Y103681
X119685Y92126
X107087
X105384Y81496
X244193Y76772
X243701Y88583
X244528Y38583
X237795Y30118
X230571Y20256
X237795Y7087
X207382Y19026
X200256
X246850Y9843
X254193Y12992
X254291Y34331
X249055Y37795
X253071Y52756
X254331Y63642
X264016Y69941
X270571Y80256
X263819Y92126
X265571Y107756
X303071Y105256
X333071Y107756
X333819Y93307
X323819Y92027
X315571Y80256
X318110Y63642
X348071Y98032
Y102756
X295256Y18898
X303071Y2756
X268071Y22756
X484803Y77520
X471437Y106299
X532323Y108661
X528071Y87756
X538071Y62756
X528208Y144095
X529528Y171912
X525984Y175984
X540305Y164025
X511419Y201004
X505610Y206378
X475197Y202382
X470472Y206378
X475197Y187441
X460571Y185256
X446850Y183405
X434882Y183071
Y198583
X429321
X443071Y195256
X446791Y167756
X424409Y131535
X438819Y116575
X485079Y127559
X495669Y122835
X478071Y237756
X465571
X422919Y244941
X533070Y238582
X388071Y242756
X373071Y210256
X363071
X353071
X320571Y215256
Y177756
X338071Y147756
X360964
X370571Y140256
Y130256
X360964Y129567
X357087Y122835
X303071Y130256
X283071Y122756
X267165Y150000
X267165Y169961
X285571Y165256
Y194137
X263071Y192786
X258070Y208642
X268071Y212421
X263071Y227953
X281496Y228329
X249134Y240945
X248071Y165256
X254882Y140925
X370610Y171378
X376732Y185433
X395571Y185256
X333071Y252756
X243701Y259842
X238977Y228329
X204725
X185571Y227953
X190787Y212579
X180571Y208878
X185571Y192786
X208071Y194137
Y160256
X229527Y177165
X240158Y191604
X234291Y138189
X175571Y167756
X155571Y155256
X137382Y160630
Y171260
X133071Y152756
X106752Y152578
X92165
X110571Y172756
X108130Y192756
X102976Y208878
X113071Y212598
X108071Y227953
X126358Y227756
X135453
X130571Y192520
X163071Y191339
X171260Y243307
X165748Y256299
X89527Y252756
X94134Y243307
X50571Y250256
Y185256
X85571Y192441
X65571Y145256
X33071Y352756
X313071Y325256
X420471Y303543
X430419Y288189
X533071Y281102
X548071Y265256
T02
X444921Y143878
X463819
X508819Y276378
X517569
T03
X408819Y158878
X418819
X428819
X438819
X448819
X458819
X468819
X478819
X488819
X498819
X508819
X518819
Y218878
X508819
X498819
X488819
X478819
X468819
X458819
X448819
X438819
X428819
X418819
X408819
X488819Y233878
X498819
X508819
X518819
Y263878
X508819
X498819
X488819
X398819Y218878
X388819
X378819
X368819
X358819
X348819
X338819
X328819
X295571Y217756
Y205256
Y185256
Y237756
X328819Y158878
X338819
X348819
X358819
X368819
X378819
X388819
X398819
X259823Y154665
X249823
Y124664
X259823
X254823Y114664
X244823
X234823
X229823Y124664
X239823
Y154665
X229823
X230571Y185256
X218071
Y205256
Y217756
X230571
Y205256
Y237756
X218071
X153071
X140571
Y217756
X153071
Y205256
X140571
Y185256
X153071
X156319Y143878
Y133878
Y123878
Y113878
X173819
Y123878
Y133878
Y143878
X203819
Y133878
Y123878
Y113878
X126319
Y123878
Y133878
Y143878
X108819
Y133878
Y123878
Y113878
X78819
Y123878
Y133878
Y143878
X75571Y185256
Y205256
Y217756
Y237756
X28819Y281378
Y293976
X148819Y298976
Y286378
X188819Y283878
Y273878
X208819
Y283878
Y293878
Y303878
Y318878
Y328878
Y338878
Y348878
X238819
Y338878
Y328878
Y318878
Y303878
Y293878
Y283878
Y273878
X188819Y298878
Y308878
Y328878
Y338878
X258819Y336378
Y326378
X258071Y293839
Y283839
X288819Y286378
Y296378
X303819
Y286378
Y276378
X288819
X328819Y281378
Y291378
Y316378
Y326378
X288819Y321378
Y331378
Y341378
T04
X387277Y269311
T05
X293819Y101378
X491732Y103878
Y93878
Y83878
Y73878
Y63878
Y53878
Y43878
Y33878
X521319Y36378
Y26378
Y46378
Y56378
Y66378
Y76378
X556319Y73878
Y63878
Y53878
Y83878
Y93878
Y103878
X566319
Y93878
Y83878
Y73878
Y63878
Y53878
Y113878
Y123878
Y133878
Y143878
Y153878
Y163878
Y173878
Y183878
Y193878
Y203878
Y213878
Y223878
Y233878
Y243878
X556319
Y233878
Y223878
Y213878
Y203878
Y193878
Y183878
Y173878
Y163878
Y153878
Y143878
Y133878
Y123878
Y113878
X516319Y111378
Y121378
Y131378
X491732Y113878
X328819Y118878
Y128878
Y138878
X293819Y136378
Y146378
Y156378
Y121378
Y111378
X21319Y117756
Y127756
Y137756
Y147756
Y157756
Y167756
X21319Y193878
Y203878
Y213878
Y223878
X63819Y276378
Y311378
X73819Y333878
Y348878
X21319Y341378
Y331378
X113819Y333878
X123819
Y348878
X113819
X123819Y311378
Y276378
X163819Y333878
Y348878
X451319
Y338878
Y328878
Y318878
Y308878
X486319Y313878
Y323878
Y333878
Y343878
X528819
Y333878
Y323878
Y313878
X566319Y316378
Y306378
Y296378
Y286378
Y276378
Y326378
T06
X303819Y321378
Y331378
Y341378
T07
X403419Y260256
X371135
X387277Y287815
T08
X425072Y269311
T09
X376732Y33878
Y113878
T10
X11811Y11811
X566929
X11811Y362205
X566929
M30
