G04*
G04 #@! TF.GenerationSoftware,Altium Limited,Altium Designer,19.0.15 (446)*
G04*
G04 Layer_Color=8388736*
%FSLAX25Y25*%
%MOIN*%
G70*
G01*
G75*
%ADD33R,0.05512X0.06299*%
G04:AMPARAMS|DCode=34|XSize=61.02mil|YSize=43.31mil|CornerRadius=5.91mil|HoleSize=0mil|Usage=FLASHONLY|Rotation=90.000|XOffset=0mil|YOffset=0mil|HoleType=Round|Shape=RoundedRectangle|*
%AMROUNDEDRECTD34*
21,1,0.06102,0.03150,0,0,90.0*
21,1,0.04921,0.04331,0,0,90.0*
1,1,0.01181,0.01575,0.02461*
1,1,0.01181,0.01575,-0.02461*
1,1,0.01181,-0.01575,-0.02461*
1,1,0.01181,-0.01575,0.02461*
%
%ADD34ROUNDEDRECTD34*%
G04:AMPARAMS|DCode=35|XSize=40.95mil|YSize=35.43mil|CornerRadius=5.12mil|HoleSize=0mil|Usage=FLASHONLY|Rotation=90.000|XOffset=0mil|YOffset=0mil|HoleType=Round|Shape=RoundedRectangle|*
%AMROUNDEDRECTD35*
21,1,0.04095,0.02520,0,0,90.0*
21,1,0.03071,0.03543,0,0,90.0*
1,1,0.01024,0.01260,0.01535*
1,1,0.01024,0.01260,-0.01535*
1,1,0.01024,-0.01260,-0.01535*
1,1,0.01024,-0.01260,0.01535*
%
%ADD35ROUNDEDRECTD35*%
G04:AMPARAMS|DCode=36|XSize=61.02mil|YSize=43.31mil|CornerRadius=5.91mil|HoleSize=0mil|Usage=FLASHONLY|Rotation=180.000|XOffset=0mil|YOffset=0mil|HoleType=Round|Shape=RoundedRectangle|*
%AMROUNDEDRECTD36*
21,1,0.06102,0.03150,0,0,180.0*
21,1,0.04921,0.04331,0,0,180.0*
1,1,0.01181,-0.02461,0.01575*
1,1,0.01181,0.02461,0.01575*
1,1,0.01181,0.02461,-0.01575*
1,1,0.01181,-0.02461,-0.01575*
%
%ADD36ROUNDEDRECTD36*%
G04:AMPARAMS|DCode=37|XSize=43.31mil|YSize=39.37mil|CornerRadius=5.51mil|HoleSize=0mil|Usage=FLASHONLY|Rotation=90.000|XOffset=0mil|YOffset=0mil|HoleType=Round|Shape=RoundedRectangle|*
%AMROUNDEDRECTD37*
21,1,0.04331,0.02835,0,0,90.0*
21,1,0.03228,0.03937,0,0,90.0*
1,1,0.01102,0.01417,0.01614*
1,1,0.01102,0.01417,-0.01614*
1,1,0.01102,-0.01417,-0.01614*
1,1,0.01102,-0.01417,0.01614*
%
%ADD37ROUNDEDRECTD37*%
G04:AMPARAMS|DCode=38|XSize=63.98mil|YSize=29.53mil|CornerRadius=4.53mil|HoleSize=0mil|Usage=FLASHONLY|Rotation=0.000|XOffset=0mil|YOffset=0mil|HoleType=Round|Shape=RoundedRectangle|*
%AMROUNDEDRECTD38*
21,1,0.06398,0.02047,0,0,0.0*
21,1,0.05492,0.02953,0,0,0.0*
1,1,0.00906,0.02746,-0.01024*
1,1,0.00906,-0.02746,-0.01024*
1,1,0.00906,-0.02746,0.01024*
1,1,0.00906,0.02746,0.01024*
%
%ADD38ROUNDEDRECTD38*%
G04:AMPARAMS|DCode=39|XSize=40.95mil|YSize=35.43mil|CornerRadius=5.12mil|HoleSize=0mil|Usage=FLASHONLY|Rotation=0.000|XOffset=0mil|YOffset=0mil|HoleType=Round|Shape=RoundedRectangle|*
%AMROUNDEDRECTD39*
21,1,0.04095,0.02520,0,0,0.0*
21,1,0.03071,0.03543,0,0,0.0*
1,1,0.01024,0.01535,-0.01260*
1,1,0.01024,-0.01535,-0.01260*
1,1,0.01024,-0.01535,0.01260*
1,1,0.01024,0.01535,0.01260*
%
%ADD39ROUNDEDRECTD39*%
G04:AMPARAMS|DCode=40|XSize=74.8mil|YSize=17.72mil|CornerRadius=3.35mil|HoleSize=0mil|Usage=FLASHONLY|Rotation=0.000|XOffset=0mil|YOffset=0mil|HoleType=Round|Shape=RoundedRectangle|*
%AMROUNDEDRECTD40*
21,1,0.07480,0.01102,0,0,0.0*
21,1,0.06811,0.01772,0,0,0.0*
1,1,0.00669,0.03406,-0.00551*
1,1,0.00669,-0.03406,-0.00551*
1,1,0.00669,-0.03406,0.00551*
1,1,0.00669,0.03406,0.00551*
%
%ADD40ROUNDEDRECTD40*%
G04:AMPARAMS|DCode=41|XSize=51.18mil|YSize=29.53mil|CornerRadius=4.53mil|HoleSize=0mil|Usage=FLASHONLY|Rotation=270.000|XOffset=0mil|YOffset=0mil|HoleType=Round|Shape=RoundedRectangle|*
%AMROUNDEDRECTD41*
21,1,0.05118,0.02047,0,0,270.0*
21,1,0.04213,0.02953,0,0,270.0*
1,1,0.00906,-0.01024,-0.02106*
1,1,0.00906,-0.01024,0.02106*
1,1,0.00906,0.01024,0.02106*
1,1,0.00906,0.01024,-0.02106*
%
%ADD41ROUNDEDRECTD41*%
G04:AMPARAMS|DCode=42|XSize=51.18mil|YSize=29.53mil|CornerRadius=4.53mil|HoleSize=0mil|Usage=FLASHONLY|Rotation=180.000|XOffset=0mil|YOffset=0mil|HoleType=Round|Shape=RoundedRectangle|*
%AMROUNDEDRECTD42*
21,1,0.05118,0.02047,0,0,180.0*
21,1,0.04213,0.02953,0,0,180.0*
1,1,0.00906,-0.02106,0.01024*
1,1,0.00906,0.02106,0.01024*
1,1,0.00906,0.02106,-0.01024*
1,1,0.00906,-0.02106,-0.01024*
%
%ADD42ROUNDEDRECTD42*%
G04:AMPARAMS|DCode=43|XSize=86.61mil|YSize=31.5mil|CornerRadius=4.72mil|HoleSize=0mil|Usage=FLASHONLY|Rotation=90.000|XOffset=0mil|YOffset=0mil|HoleType=Round|Shape=RoundedRectangle|*
%AMROUNDEDRECTD43*
21,1,0.08661,0.02205,0,0,90.0*
21,1,0.07717,0.03150,0,0,90.0*
1,1,0.00945,0.01102,0.03858*
1,1,0.00945,0.01102,-0.03858*
1,1,0.00945,-0.01102,-0.03858*
1,1,0.00945,-0.01102,0.03858*
%
%ADD43ROUNDEDRECTD43*%
G04:AMPARAMS|DCode=44|XSize=58.66mil|YSize=41.73mil|CornerRadius=5.75mil|HoleSize=0mil|Usage=FLASHONLY|Rotation=90.000|XOffset=0mil|YOffset=0mil|HoleType=Round|Shape=RoundedRectangle|*
%AMROUNDEDRECTD44*
21,1,0.05866,0.03024,0,0,90.0*
21,1,0.04717,0.04173,0,0,90.0*
1,1,0.01150,0.01512,0.02358*
1,1,0.01150,0.01512,-0.02358*
1,1,0.01150,-0.01512,-0.02358*
1,1,0.01150,-0.01512,0.02358*
%
%ADD44ROUNDEDRECTD44*%
G04:AMPARAMS|DCode=45|XSize=41.34mil|YSize=41.34mil|CornerRadius=6.64mil|HoleSize=0mil|Usage=FLASHONLY|Rotation=270.000|XOffset=0mil|YOffset=0mil|HoleType=Round|Shape=RoundedRectangle|*
%AMROUNDEDRECTD45*
21,1,0.04134,0.02805,0,0,270.0*
21,1,0.02805,0.04134,0,0,270.0*
1,1,0.01329,-0.01403,-0.01403*
1,1,0.01329,-0.01403,0.01403*
1,1,0.01329,0.01403,0.01403*
1,1,0.01329,0.01403,-0.01403*
%
%ADD45ROUNDEDRECTD45*%
G04:AMPARAMS|DCode=46|XSize=49.21mil|YSize=35.43mil|CornerRadius=5.12mil|HoleSize=0mil|Usage=FLASHONLY|Rotation=270.000|XOffset=0mil|YOffset=0mil|HoleType=Round|Shape=RoundedRectangle|*
%AMROUNDEDRECTD46*
21,1,0.04921,0.02520,0,0,270.0*
21,1,0.03898,0.03543,0,0,270.0*
1,1,0.01024,-0.01260,-0.01949*
1,1,0.01024,-0.01260,0.01949*
1,1,0.01024,0.01260,0.01949*
1,1,0.01024,0.01260,-0.01949*
%
%ADD46ROUNDEDRECTD46*%
G04:AMPARAMS|DCode=47|XSize=74.8mil|YSize=15.35mil|CornerRadius=3.11mil|HoleSize=0mil|Usage=FLASHONLY|Rotation=0.000|XOffset=0mil|YOffset=0mil|HoleType=Round|Shape=RoundedRectangle|*
%AMROUNDEDRECTD47*
21,1,0.07480,0.00913,0,0,0.0*
21,1,0.06858,0.01535,0,0,0.0*
1,1,0.00622,0.03429,-0.00457*
1,1,0.00622,-0.03429,-0.00457*
1,1,0.00622,-0.03429,0.00457*
1,1,0.00622,0.03429,0.00457*
%
%ADD47ROUNDEDRECTD47*%
G04:AMPARAMS|DCode=48|XSize=47.24mil|YSize=59.06mil|CornerRadius=7.38mil|HoleSize=0mil|Usage=FLASHONLY|Rotation=180.000|XOffset=0mil|YOffset=0mil|HoleType=Round|Shape=RoundedRectangle|*
%AMROUNDEDRECTD48*
21,1,0.04724,0.04429,0,0,180.0*
21,1,0.03248,0.05906,0,0,180.0*
1,1,0.01476,-0.01624,0.02215*
1,1,0.01476,0.01624,0.02215*
1,1,0.01476,0.01624,-0.02215*
1,1,0.01476,-0.01624,-0.02215*
%
%ADD48ROUNDEDRECTD48*%
G04:AMPARAMS|DCode=49|XSize=181.1mil|YSize=161.42mil|CornerRadius=17.72mil|HoleSize=0mil|Usage=FLASHONLY|Rotation=90.000|XOffset=0mil|YOffset=0mil|HoleType=Round|Shape=RoundedRectangle|*
%AMROUNDEDRECTD49*
21,1,0.18110,0.12598,0,0,90.0*
21,1,0.14567,0.16142,0,0,90.0*
1,1,0.03543,0.06299,0.07284*
1,1,0.03543,0.06299,-0.07284*
1,1,0.03543,-0.06299,-0.07284*
1,1,0.03543,-0.06299,0.07284*
%
%ADD49ROUNDEDRECTD49*%
%ADD50C,0.05906*%
G04:AMPARAMS|DCode=51|XSize=59.06mil|YSize=59.06mil|CornerRadius=7.48mil|HoleSize=0mil|Usage=FLASHONLY|Rotation=0.000|XOffset=0mil|YOffset=0mil|HoleType=Round|Shape=RoundedRectangle|*
%AMROUNDEDRECTD51*
21,1,0.05906,0.04409,0,0,0.0*
21,1,0.04409,0.05906,0,0,0.0*
1,1,0.01496,0.02205,-0.02205*
1,1,0.01496,-0.02205,-0.02205*
1,1,0.01496,-0.02205,0.02205*
1,1,0.01496,0.02205,0.02205*
%
%ADD51ROUNDEDRECTD51*%
G04:AMPARAMS|DCode=52|XSize=68.9mil|YSize=68.9mil|CornerRadius=8.47mil|HoleSize=0mil|Usage=FLASHONLY|Rotation=270.000|XOffset=0mil|YOffset=0mil|HoleType=Round|Shape=RoundedRectangle|*
%AMROUNDEDRECTD52*
21,1,0.06890,0.05197,0,0,270.0*
21,1,0.05197,0.06890,0,0,270.0*
1,1,0.01693,-0.02598,-0.02598*
1,1,0.01693,-0.02598,0.02598*
1,1,0.01693,0.02598,0.02598*
1,1,0.01693,0.02598,-0.02598*
%
%ADD52ROUNDEDRECTD52*%
%ADD53C,0.06890*%
G04:AMPARAMS|DCode=54|XSize=62.99mil|YSize=62.99mil|CornerRadius=7.87mil|HoleSize=0mil|Usage=FLASHONLY|Rotation=90.000|XOffset=0mil|YOffset=0mil|HoleType=Round|Shape=RoundedRectangle|*
%AMROUNDEDRECTD54*
21,1,0.06299,0.04724,0,0,90.0*
21,1,0.04724,0.06299,0,0,90.0*
1,1,0.01575,0.02362,0.02362*
1,1,0.01575,0.02362,-0.02362*
1,1,0.01575,-0.02362,-0.02362*
1,1,0.01575,-0.02362,0.02362*
%
%ADD54ROUNDEDRECTD54*%
%ADD55C,0.06299*%
%ADD56C,0.12205*%
%ADD57C,0.07087*%
G04:AMPARAMS|DCode=58|XSize=62.99mil|YSize=74.8mil|CornerRadius=9.35mil|HoleSize=0mil|Usage=FLASHONLY|Rotation=0.000|XOffset=0mil|YOffset=0mil|HoleType=Round|Shape=RoundedRectangle|*
%AMROUNDEDRECTD58*
21,1,0.06299,0.05610,0,0,0.0*
21,1,0.04429,0.07480,0,0,0.0*
1,1,0.01870,0.02215,-0.02805*
1,1,0.01870,-0.02215,-0.02805*
1,1,0.01870,-0.02215,0.02805*
1,1,0.01870,0.02215,0.02805*
%
%ADD58ROUNDEDRECTD58*%
%ADD59O,0.06299X0.07480*%
G04:AMPARAMS|DCode=60|XSize=55.12mil|YSize=55.12mil|CornerRadius=7.09mil|HoleSize=0mil|Usage=FLASHONLY|Rotation=0.000|XOffset=0mil|YOffset=0mil|HoleType=Round|Shape=RoundedRectangle|*
%AMROUNDEDRECTD60*
21,1,0.05512,0.04095,0,0,0.0*
21,1,0.04095,0.05512,0,0,0.0*
1,1,0.01417,0.02047,-0.02047*
1,1,0.01417,-0.02047,-0.02047*
1,1,0.01417,-0.02047,0.02047*
1,1,0.01417,0.02047,0.02047*
%
%ADD60ROUNDEDRECTD60*%
%ADD61C,0.05512*%
%ADD62O,0.05118X0.06299*%
G04:AMPARAMS|DCode=63|XSize=62.99mil|YSize=51.18mil|CornerRadius=6.69mil|HoleSize=0mil|Usage=FLASHONLY|Rotation=90.000|XOffset=0mil|YOffset=0mil|HoleType=Round|Shape=RoundedRectangle|*
%AMROUNDEDRECTD63*
21,1,0.06299,0.03780,0,0,90.0*
21,1,0.04961,0.05118,0,0,90.0*
1,1,0.01339,0.01890,0.02480*
1,1,0.01339,0.01890,-0.02480*
1,1,0.01339,-0.01890,-0.02480*
1,1,0.01339,-0.01890,0.02480*
%
%ADD63ROUNDEDRECTD63*%
G04:AMPARAMS|DCode=64|XSize=70.87mil|YSize=82.68mil|CornerRadius=10.34mil|HoleSize=0mil|Usage=FLASHONLY|Rotation=90.000|XOffset=0mil|YOffset=0mil|HoleType=Round|Shape=RoundedRectangle|*
%AMROUNDEDRECTD64*
21,1,0.07087,0.06201,0,0,90.0*
21,1,0.05020,0.08268,0,0,90.0*
1,1,0.02067,0.03100,0.02510*
1,1,0.02067,0.03100,-0.02510*
1,1,0.02067,-0.03100,-0.02510*
1,1,0.02067,-0.03100,0.02510*
%
%ADD64ROUNDEDRECTD64*%
%ADD65O,0.08268X0.07087*%
%ADD66C,0.20079*%
%ADD67C,0.06906*%
D33*
X442087Y195000D02*
D03*
X435000D02*
D03*
X442087Y205000D02*
D03*
X435000D02*
D03*
X442087Y225000D02*
D03*
X435000D02*
D03*
X442087Y255000D02*
D03*
X435000D02*
D03*
X370000D02*
D03*
X362913D02*
D03*
X370000Y265000D02*
D03*
X362913D02*
D03*
X322087Y255000D02*
D03*
X315000D02*
D03*
X322087Y225000D02*
D03*
X315000D02*
D03*
X322087Y205000D02*
D03*
X315000D02*
D03*
X322087Y195000D02*
D03*
X315000D02*
D03*
X250000Y265000D02*
D03*
X242913D02*
D03*
X250000Y255000D02*
D03*
X242913D02*
D03*
X202087Y195000D02*
D03*
X195000D02*
D03*
X202087Y205000D02*
D03*
X195000D02*
D03*
X202087Y225000D02*
D03*
X195000D02*
D03*
X202087Y255000D02*
D03*
X195000D02*
D03*
X130000Y265000D02*
D03*
X122913D02*
D03*
X129803Y255000D02*
D03*
X122717D02*
D03*
D34*
X435000Y215000D02*
D03*
X442480D02*
D03*
X435000Y235059D02*
D03*
X442480D02*
D03*
X435000Y245000D02*
D03*
X442480D02*
D03*
X435000Y265000D02*
D03*
X442480D02*
D03*
X452480Y320000D02*
D03*
X445000D02*
D03*
X423386Y380000D02*
D03*
X431260D02*
D03*
X423386Y390000D02*
D03*
X431260D02*
D03*
X423386Y400000D02*
D03*
X431260D02*
D03*
X415000D02*
D03*
X407126D02*
D03*
X380000D02*
D03*
X387480D02*
D03*
X369803D02*
D03*
X361929D02*
D03*
X390000Y340000D02*
D03*
X382520D02*
D03*
X410000D02*
D03*
X402520D02*
D03*
X303386Y380000D02*
D03*
X311260D02*
D03*
X303386Y390400D02*
D03*
X311260D02*
D03*
X303386Y400000D02*
D03*
X311260D02*
D03*
X295000D02*
D03*
X287126D02*
D03*
X259803D02*
D03*
X267283D02*
D03*
X249803D02*
D03*
X241929D02*
D03*
X289803Y340000D02*
D03*
X282323D02*
D03*
X270000D02*
D03*
X262520D02*
D03*
X377520Y320000D02*
D03*
X385000D02*
D03*
X362520D02*
D03*
X370000D02*
D03*
X377520Y295000D02*
D03*
X385000D02*
D03*
X362520D02*
D03*
X370000D02*
D03*
X332480Y320000D02*
D03*
X325000D02*
D03*
X257520D02*
D03*
X265000D02*
D03*
X242520D02*
D03*
X250000D02*
D03*
X257520Y295000D02*
D03*
X265000D02*
D03*
X242520D02*
D03*
X250000D02*
D03*
X362520Y195000D02*
D03*
X370000D02*
D03*
X362520Y205000D02*
D03*
X370000D02*
D03*
X362520Y215000D02*
D03*
X370000D02*
D03*
X362520Y225000D02*
D03*
X370000D02*
D03*
X362520Y235059D02*
D03*
X370000D02*
D03*
X362520Y245000D02*
D03*
X370000D02*
D03*
X315000Y265000D02*
D03*
X322480D02*
D03*
X315000Y245000D02*
D03*
X322480D02*
D03*
X315000Y235000D02*
D03*
X322480D02*
D03*
X315000Y215000D02*
D03*
X322480D02*
D03*
X242520Y195000D02*
D03*
X250000D02*
D03*
X242520Y205000D02*
D03*
X250000D02*
D03*
X242520Y215000D02*
D03*
X250000D02*
D03*
X242520Y225000D02*
D03*
X250000D02*
D03*
X242520Y234764D02*
D03*
X250000D02*
D03*
X242520Y245000D02*
D03*
X250000D02*
D03*
X490000Y225000D02*
D03*
X497480D02*
D03*
X490000Y215000D02*
D03*
X497480D02*
D03*
X503583Y205000D02*
D03*
X511457D02*
D03*
X501417Y155709D02*
D03*
X493543D02*
D03*
X493740Y144961D02*
D03*
X501220D02*
D03*
X501417Y115870D02*
D03*
X493543D02*
D03*
X501220Y105256D02*
D03*
X493740D02*
D03*
X420354Y185000D02*
D03*
X428228D02*
D03*
X420000Y155709D02*
D03*
X427874D02*
D03*
X452520Y135000D02*
D03*
X460000D02*
D03*
X452520Y145000D02*
D03*
X460000D02*
D03*
X420000Y126063D02*
D03*
X427874D02*
D03*
X420354Y96024D02*
D03*
X428228D02*
D03*
X452520Y85000D02*
D03*
X460000D02*
D03*
X212480Y320000D02*
D03*
X205000D02*
D03*
X195000Y215000D02*
D03*
X202480D02*
D03*
X195000Y235000D02*
D03*
X202480D02*
D03*
X195000Y245000D02*
D03*
X202480D02*
D03*
X195000Y265000D02*
D03*
X202480D02*
D03*
X122520Y245000D02*
D03*
X130000D02*
D03*
X122520Y235000D02*
D03*
X130000D02*
D03*
X122520Y225000D02*
D03*
X130000D02*
D03*
X122520Y215000D02*
D03*
X130000D02*
D03*
X122520Y205000D02*
D03*
X130000D02*
D03*
X122520Y195000D02*
D03*
X130000D02*
D03*
X350000Y114803D02*
D03*
X357874D02*
D03*
X320000Y95000D02*
D03*
X327874D02*
D03*
X164134Y155000D02*
D03*
X156260D02*
D03*
X133937D02*
D03*
X126063D02*
D03*
X93937Y30000D02*
D03*
X86063D02*
D03*
X63937D02*
D03*
X56063D02*
D03*
X16260Y155000D02*
D03*
X23740D02*
D03*
X137520Y295000D02*
D03*
X145000D02*
D03*
X122520D02*
D03*
X130000D02*
D03*
X137520Y320000D02*
D03*
X145000D02*
D03*
X122520D02*
D03*
X130000D02*
D03*
X170000Y340000D02*
D03*
X162520D02*
D03*
X150000D02*
D03*
X142520D02*
D03*
X183661Y380000D02*
D03*
X191535D02*
D03*
X183661Y390000D02*
D03*
X191535D02*
D03*
X183661Y400000D02*
D03*
X191535D02*
D03*
X175000D02*
D03*
X167126D02*
D03*
X140290D02*
D03*
X147770D02*
D03*
X129803D02*
D03*
X121929D02*
D03*
X302874Y160000D02*
D03*
X295000D02*
D03*
X302874Y170000D02*
D03*
X295000D02*
D03*
X382323Y160000D02*
D03*
X390197D02*
D03*
X382126Y170000D02*
D03*
X390000D02*
D03*
X18661Y210000D02*
D03*
X26142D02*
D03*
X73661Y190000D02*
D03*
X81142D02*
D03*
D35*
X450394Y305000D02*
D03*
X444803D02*
D03*
X450394Y300000D02*
D03*
X444803D02*
D03*
X450394Y310000D02*
D03*
X444803D02*
D03*
X430394Y360000D02*
D03*
X424803D02*
D03*
X430394Y365000D02*
D03*
X424803D02*
D03*
X430394Y370000D02*
D03*
X424803D02*
D03*
X400197Y400000D02*
D03*
X394606D02*
D03*
X369606Y375000D02*
D03*
X375197D02*
D03*
X369606Y370000D02*
D03*
X375197D02*
D03*
X369606Y365000D02*
D03*
X375197D02*
D03*
X372795Y350000D02*
D03*
X367205D02*
D03*
Y340000D02*
D03*
X372795D02*
D03*
X280394Y400000D02*
D03*
X274803D02*
D03*
X310394Y370000D02*
D03*
X304803D02*
D03*
X310394Y365000D02*
D03*
X304803D02*
D03*
X310394Y360000D02*
D03*
X304803D02*
D03*
X249606Y375000D02*
D03*
X255197D02*
D03*
X249606Y370000D02*
D03*
X255197D02*
D03*
X249606Y365000D02*
D03*
X255197D02*
D03*
X247205Y340000D02*
D03*
X252795D02*
D03*
X252992Y350000D02*
D03*
X247401D02*
D03*
X364606Y310000D02*
D03*
X370197D02*
D03*
Y305000D02*
D03*
X364606D02*
D03*
X379606Y307437D02*
D03*
X385197D02*
D03*
X330394Y300000D02*
D03*
X324803D02*
D03*
X330394Y305000D02*
D03*
X324803D02*
D03*
X330394Y310000D02*
D03*
X324803D02*
D03*
X244606D02*
D03*
X250197D02*
D03*
Y305000D02*
D03*
X244606D02*
D03*
X259606Y307437D02*
D03*
X265197D02*
D03*
X409606Y255000D02*
D03*
X415197D02*
D03*
X395394D02*
D03*
X389803D02*
D03*
X289606D02*
D03*
X295197D02*
D03*
X275394D02*
D03*
X269803D02*
D03*
X495394Y45000D02*
D03*
X489803D02*
D03*
X495394Y50472D02*
D03*
X489803D02*
D03*
X454606Y35000D02*
D03*
X460197D02*
D03*
X454606Y30000D02*
D03*
X460197D02*
D03*
X204803Y305000D02*
D03*
X210394D02*
D03*
Y310000D02*
D03*
X204803D02*
D03*
X169803Y255000D02*
D03*
X175394D02*
D03*
X155197D02*
D03*
X149606D02*
D03*
X130197Y305000D02*
D03*
X124606D02*
D03*
Y310000D02*
D03*
X130197D02*
D03*
X139606Y307437D02*
D03*
X145197D02*
D03*
X127008Y340000D02*
D03*
X132598D02*
D03*
X132795Y350000D02*
D03*
X127205D02*
D03*
X129606Y370000D02*
D03*
X135197D02*
D03*
X129606Y365000D02*
D03*
X135197D02*
D03*
X129606Y375000D02*
D03*
X135197D02*
D03*
X190394Y365000D02*
D03*
X184803D02*
D03*
X190394Y370000D02*
D03*
X184803D02*
D03*
X190394Y360000D02*
D03*
X184803D02*
D03*
X160820Y400000D02*
D03*
X155229D02*
D03*
X29803Y265000D02*
D03*
X35394D02*
D03*
X25197D02*
D03*
X19606D02*
D03*
X210394Y300000D02*
D03*
X204803D02*
D03*
X25394Y190000D02*
D03*
X19803D02*
D03*
X25394Y195000D02*
D03*
X19803D02*
D03*
X25394Y200000D02*
D03*
X19803D02*
D03*
X74606D02*
D03*
X80197D02*
D03*
X74606Y205000D02*
D03*
X80197D02*
D03*
X74606Y210000D02*
D03*
X80197D02*
D03*
D36*
X440000Y361260D02*
D03*
Y368740D02*
D03*
X360000Y366260D02*
D03*
Y373740D02*
D03*
X320000Y361260D02*
D03*
Y368740D02*
D03*
X240000Y366260D02*
D03*
Y373740D02*
D03*
X355000Y312126D02*
D03*
Y320000D02*
D03*
Y295000D02*
D03*
Y302874D02*
D03*
X235000Y295000D02*
D03*
Y302874D02*
D03*
Y312126D02*
D03*
Y320000D02*
D03*
X405000Y268661D02*
D03*
Y276142D02*
D03*
X285000Y268661D02*
D03*
Y276142D02*
D03*
X493583Y185000D02*
D03*
Y192874D02*
D03*
X511417Y175748D02*
D03*
Y167874D02*
D03*
X511457Y135909D02*
D03*
Y128035D02*
D03*
X440354Y175000D02*
D03*
Y167126D02*
D03*
X440000Y145000D02*
D03*
Y137126D02*
D03*
Y115000D02*
D03*
Y107126D02*
D03*
X440354Y85669D02*
D03*
Y77795D02*
D03*
X410000Y26063D02*
D03*
Y33937D02*
D03*
X165000Y268661D02*
D03*
Y276142D02*
D03*
X338937Y96988D02*
D03*
Y104862D02*
D03*
X308937Y75000D02*
D03*
Y82874D02*
D03*
X175000Y175000D02*
D03*
Y167126D02*
D03*
X145000Y175000D02*
D03*
Y167126D02*
D03*
X249803Y172874D02*
D03*
Y165000D02*
D03*
X240000Y172874D02*
D03*
Y165000D02*
D03*
X235000Y137874D02*
D03*
Y130000D02*
D03*
X105000Y50000D02*
D03*
Y42126D02*
D03*
X75000Y50000D02*
D03*
Y42126D02*
D03*
X40000Y52520D02*
D03*
Y60000D02*
D03*
X115000Y295000D02*
D03*
Y302874D02*
D03*
Y312126D02*
D03*
Y320000D02*
D03*
X120000Y366339D02*
D03*
Y373819D02*
D03*
X200000Y361339D02*
D03*
Y368819D02*
D03*
D37*
X368307Y390000D02*
D03*
X362717D02*
D03*
X248307D02*
D03*
X242717D02*
D03*
X128307Y390400D02*
D03*
X122717D02*
D03*
D38*
X270000Y385000D02*
D03*
Y380000D02*
D03*
Y375000D02*
D03*
Y370000D02*
D03*
Y365000D02*
D03*
Y360000D02*
D03*
Y355000D02*
D03*
X291354D02*
D03*
Y360000D02*
D03*
Y365000D02*
D03*
Y370000D02*
D03*
Y375000D02*
D03*
Y380000D02*
D03*
Y385000D02*
D03*
X149323D02*
D03*
Y380000D02*
D03*
Y375000D02*
D03*
Y370000D02*
D03*
Y365000D02*
D03*
Y360000D02*
D03*
Y355000D02*
D03*
X170677D02*
D03*
Y360000D02*
D03*
Y365000D02*
D03*
Y370000D02*
D03*
Y375000D02*
D03*
Y380000D02*
D03*
Y385000D02*
D03*
X411354D02*
D03*
Y380000D02*
D03*
Y375000D02*
D03*
Y370000D02*
D03*
Y365000D02*
D03*
Y360000D02*
D03*
Y355000D02*
D03*
X390000D02*
D03*
Y360000D02*
D03*
Y365000D02*
D03*
Y370000D02*
D03*
Y375000D02*
D03*
Y380000D02*
D03*
Y385000D02*
D03*
D39*
X395197Y269606D02*
D03*
Y275197D02*
D03*
X390197Y269606D02*
D03*
Y275197D02*
D03*
X385197Y269606D02*
D03*
Y275197D02*
D03*
X275000Y269606D02*
D03*
Y275197D02*
D03*
X265000Y269606D02*
D03*
Y275197D02*
D03*
X270000Y269606D02*
D03*
Y275197D02*
D03*
X155000Y269606D02*
D03*
Y275197D02*
D03*
X150000Y269606D02*
D03*
Y275197D02*
D03*
X145000Y269606D02*
D03*
Y275197D02*
D03*
X325000Y114606D02*
D03*
Y120197D02*
D03*
X320000Y114606D02*
D03*
Y120197D02*
D03*
X314803Y114606D02*
D03*
Y120197D02*
D03*
X100000Y145394D02*
D03*
Y139803D02*
D03*
X105000Y145394D02*
D03*
Y139803D02*
D03*
X95000Y145394D02*
D03*
Y139803D02*
D03*
X245000Y100516D02*
D03*
Y106106D02*
D03*
X250000Y100516D02*
D03*
Y106106D02*
D03*
X239803Y100516D02*
D03*
Y106106D02*
D03*
X20000Y145394D02*
D03*
Y139803D02*
D03*
X25000Y145394D02*
D03*
Y139803D02*
D03*
X15000Y145394D02*
D03*
Y139803D02*
D03*
D40*
X413134Y245000D02*
D03*
Y242441D02*
D03*
Y239882D02*
D03*
Y237323D02*
D03*
Y234764D02*
D03*
Y232205D02*
D03*
Y229646D02*
D03*
Y227087D02*
D03*
Y224528D02*
D03*
Y221969D02*
D03*
Y219409D02*
D03*
Y216850D02*
D03*
Y214291D02*
D03*
Y211732D02*
D03*
X390000D02*
D03*
Y214291D02*
D03*
Y216850D02*
D03*
Y219409D02*
D03*
Y221969D02*
D03*
Y224528D02*
D03*
Y227087D02*
D03*
Y229646D02*
D03*
Y232205D02*
D03*
Y234764D02*
D03*
Y237323D02*
D03*
Y239882D02*
D03*
Y242441D02*
D03*
Y245000D02*
D03*
X293134D02*
D03*
Y242441D02*
D03*
Y239882D02*
D03*
Y237323D02*
D03*
Y234764D02*
D03*
Y232205D02*
D03*
Y229646D02*
D03*
Y227087D02*
D03*
Y224528D02*
D03*
Y221969D02*
D03*
Y219409D02*
D03*
Y216850D02*
D03*
Y214291D02*
D03*
Y211732D02*
D03*
X270000D02*
D03*
Y214291D02*
D03*
Y216850D02*
D03*
Y219409D02*
D03*
Y221969D02*
D03*
Y224528D02*
D03*
Y227087D02*
D03*
Y229646D02*
D03*
Y232205D02*
D03*
Y234764D02*
D03*
Y237323D02*
D03*
Y239882D02*
D03*
Y242441D02*
D03*
Y245000D02*
D03*
X173134D02*
D03*
Y242441D02*
D03*
Y239882D02*
D03*
Y237323D02*
D03*
Y234764D02*
D03*
Y232205D02*
D03*
Y229646D02*
D03*
Y227087D02*
D03*
Y224528D02*
D03*
Y221969D02*
D03*
Y219409D02*
D03*
Y216850D02*
D03*
Y214291D02*
D03*
Y211732D02*
D03*
X150000D02*
D03*
Y214291D02*
D03*
Y216850D02*
D03*
Y219409D02*
D03*
Y221969D02*
D03*
Y224528D02*
D03*
Y227087D02*
D03*
Y229646D02*
D03*
Y232205D02*
D03*
Y234764D02*
D03*
Y237323D02*
D03*
Y239882D02*
D03*
Y242441D02*
D03*
Y245000D02*
D03*
D41*
X511299Y193268D02*
D03*
X503740D02*
D03*
X507520Y185000D02*
D03*
X493701Y167441D02*
D03*
X501260D02*
D03*
X497480Y175709D02*
D03*
X493701Y127602D02*
D03*
X501260D02*
D03*
X497480Y135870D02*
D03*
X357717Y105256D02*
D03*
X350157D02*
D03*
X353937Y96988D02*
D03*
X327716Y83268D02*
D03*
X320157D02*
D03*
X323937Y75000D02*
D03*
X156417Y166732D02*
D03*
X163976D02*
D03*
X160197Y175000D02*
D03*
X126220Y166732D02*
D03*
X133780D02*
D03*
X130000Y175000D02*
D03*
X86220Y41732D02*
D03*
X93780D02*
D03*
X90000Y50000D02*
D03*
X56220Y41732D02*
D03*
X63780D02*
D03*
X60000Y50000D02*
D03*
D42*
X428622Y167283D02*
D03*
Y174843D02*
D03*
X420354Y171063D02*
D03*
X428268Y136929D02*
D03*
Y144488D02*
D03*
X420000Y140709D02*
D03*
X428268Y107283D02*
D03*
Y114843D02*
D03*
X420000Y111063D02*
D03*
X428622Y77953D02*
D03*
Y85512D02*
D03*
X420354Y81732D02*
D03*
D43*
X245000Y153189D02*
D03*
X250000D02*
D03*
X255000D02*
D03*
X260000D02*
D03*
X265000D02*
D03*
X270000D02*
D03*
X275000D02*
D03*
X280000D02*
D03*
Y115000D02*
D03*
X275000D02*
D03*
X270000D02*
D03*
X265000D02*
D03*
X260000D02*
D03*
X255000D02*
D03*
X250000D02*
D03*
X245000D02*
D03*
D44*
X155000Y30000D02*
D03*
X148543D02*
D03*
X135000D02*
D03*
X141457D02*
D03*
D45*
X20000Y60000D02*
D03*
Y54291D02*
D03*
D46*
Y30433D02*
D03*
Y45000D02*
D03*
D47*
X58661Y203937D02*
D03*
Y201969D02*
D03*
Y200000D02*
D03*
Y198032D02*
D03*
Y196063D02*
D03*
X41339D02*
D03*
Y198032D02*
D03*
Y200000D02*
D03*
Y201969D02*
D03*
Y203937D02*
D03*
D48*
X321890Y160000D02*
D03*
X315000D02*
D03*
Y170000D02*
D03*
X321890D02*
D03*
X363307Y160000D02*
D03*
X370197D02*
D03*
Y170000D02*
D03*
X363307D02*
D03*
D49*
X260000Y79094D02*
D03*
Y11378D02*
D03*
D50*
X431260Y320000D02*
D03*
Y310000D02*
D03*
Y300000D02*
D03*
Y290000D02*
D03*
X400000D02*
D03*
Y300000D02*
D03*
Y310000D02*
D03*
X311260Y320000D02*
D03*
Y310000D02*
D03*
Y300000D02*
D03*
Y290000D02*
D03*
X280000D02*
D03*
Y300000D02*
D03*
Y310000D02*
D03*
X191260Y320000D02*
D03*
Y310000D02*
D03*
Y300000D02*
D03*
Y290000D02*
D03*
X160000D02*
D03*
Y300000D02*
D03*
Y310000D02*
D03*
D51*
X400000Y320000D02*
D03*
X280000D02*
D03*
X160000D02*
D03*
D52*
X470000Y35000D02*
D03*
X20000Y375000D02*
D03*
D53*
X480000Y35000D02*
D03*
X470000Y45000D02*
D03*
X480000D02*
D03*
X470000Y55000D02*
D03*
X480000D02*
D03*
X470000Y65000D02*
D03*
X480000D02*
D03*
X470000Y75000D02*
D03*
X480000D02*
D03*
X470000Y85000D02*
D03*
X480000D02*
D03*
X470000Y95000D02*
D03*
X480000D02*
D03*
X470000Y105000D02*
D03*
X480000D02*
D03*
X470000Y115000D02*
D03*
X480000D02*
D03*
X470000Y125000D02*
D03*
X480000D02*
D03*
X470000Y135000D02*
D03*
X480000D02*
D03*
X470000Y145000D02*
D03*
X480000D02*
D03*
X470000Y155000D02*
D03*
X480000D02*
D03*
X470000Y165000D02*
D03*
X480000D02*
D03*
X470000Y175000D02*
D03*
X480000D02*
D03*
X470000Y185000D02*
D03*
X480000D02*
D03*
X470000Y195000D02*
D03*
X480000D02*
D03*
X470000Y205000D02*
D03*
X480000D02*
D03*
X470000Y215000D02*
D03*
X480000D02*
D03*
X470000Y225000D02*
D03*
X480000D02*
D03*
X30000Y375000D02*
D03*
X20000Y365000D02*
D03*
X30000D02*
D03*
X20000Y355000D02*
D03*
X30000D02*
D03*
X20000Y345000D02*
D03*
X30000D02*
D03*
X20000Y335000D02*
D03*
X30000D02*
D03*
X20000Y325000D02*
D03*
X30000D02*
D03*
X20000Y315000D02*
D03*
X30000D02*
D03*
X20000Y305000D02*
D03*
X30000D02*
D03*
X20000Y295000D02*
D03*
X30000D02*
D03*
X20000Y285000D02*
D03*
X30000D02*
D03*
D54*
X425000Y25000D02*
D03*
D55*
Y34843D02*
D03*
Y44685D02*
D03*
Y54528D02*
D03*
D56*
X390000Y20000D02*
D03*
X310000D02*
D03*
D57*
X390000Y135000D02*
D03*
X380000D02*
D03*
X370000D02*
D03*
X360000D02*
D03*
X350000D02*
D03*
X340000D02*
D03*
X330000D02*
D03*
X320000D02*
D03*
X310000D02*
D03*
D58*
X175000Y10000D02*
D03*
X105000D02*
D03*
X95000Y235000D02*
D03*
D59*
X185000Y10000D02*
D03*
X195000D02*
D03*
X205000D02*
D03*
X215000D02*
D03*
X225000D02*
D03*
X95000D02*
D03*
X85000D02*
D03*
X75000D02*
D03*
X65000D02*
D03*
X55000D02*
D03*
X45000D02*
D03*
X35000D02*
D03*
X85000Y235000D02*
D03*
X75000D02*
D03*
X65000D02*
D03*
X55000D02*
D03*
X45000D02*
D03*
D60*
X135787Y50000D02*
D03*
D61*
X155000D02*
D03*
D62*
X20000Y130748D02*
D03*
X30000D02*
D03*
X40000D02*
D03*
X50000D02*
D03*
X60000D02*
D03*
X70000D02*
D03*
X80000D02*
D03*
X90000D02*
D03*
X100000D02*
D03*
X110000D02*
D03*
X120000D02*
D03*
X130000D02*
D03*
X140000D02*
D03*
X150000D02*
D03*
X160000D02*
D03*
X170000D02*
D03*
X180000D02*
D03*
X190000D02*
D03*
X200000D02*
D03*
X210000D02*
D03*
Y70000D02*
D03*
X200000D02*
D03*
X190000D02*
D03*
X180000D02*
D03*
X170000D02*
D03*
X160000D02*
D03*
X150000D02*
D03*
X140000D02*
D03*
X130000D02*
D03*
X120000D02*
D03*
X110000D02*
D03*
X100000D02*
D03*
X90000D02*
D03*
X80000D02*
D03*
X70000D02*
D03*
X60000D02*
D03*
X50000D02*
D03*
X40000D02*
D03*
X30000D02*
D03*
D63*
X20000D02*
D03*
D64*
X70000Y335000D02*
D03*
Y275000D02*
D03*
D65*
Y345000D02*
D03*
Y355000D02*
D03*
Y365000D02*
D03*
Y375000D02*
D03*
Y385000D02*
D03*
Y285000D02*
D03*
Y295000D02*
D03*
Y305000D02*
D03*
D66*
X505000Y400000D02*
D03*
Y15000D02*
D03*
X15000Y400000D02*
D03*
Y15000D02*
D03*
D67*
X260000Y30472D02*
D03*
Y60000D02*
D03*
M02*
