G04*
G04 #@! TF.GenerationSoftware,Altium Limited,Altium Designer,19.0.15 (446)*
G04*
G04 Layer_Color=32768*
%FSLAX25Y25*%
%MOIN*%
G70*
G01*
G75*
%ADD14C,0.00394*%
%ADD69C,0.01968*%
%ADD71C,0.01575*%
%ADD89C,0.00197*%
%ADD90C,0.01496*%
G36*
X261063Y18502D02*
Y4447D01*
X259055D01*
Y18502D01*
X261063D01*
D02*
G37*
G36*
X261063Y80157D02*
X266929D01*
Y78149D01*
X261063D01*
Y72165D01*
X259055D01*
Y78149D01*
X252874D01*
Y80157D01*
X259055D01*
Y86220D01*
X261063D01*
Y80157D01*
D02*
G37*
D14*
X201969Y10000D02*
X201705Y10984D01*
X200984Y11705D01*
X200000Y11969D01*
X199016Y11705D01*
X198295Y10984D01*
X198031Y10000D01*
X198295Y9016D01*
X199016Y8295D01*
X200000Y8032D01*
X200984Y8295D01*
X201705Y9016D01*
X201969Y10000D01*
X71969Y360000D02*
X71705Y360985D01*
X70984Y361705D01*
X70000Y361969D01*
X69016Y361705D01*
X68295Y360985D01*
X68032Y360000D01*
X68295Y359016D01*
X69016Y358296D01*
X70000Y358032D01*
X70984Y358296D01*
X71705Y359016D01*
X71969Y360000D01*
Y290000D02*
X71705Y290984D01*
X70984Y291705D01*
X70000Y291968D01*
X69016Y291705D01*
X68295Y290984D01*
X68032Y290000D01*
X68295Y289016D01*
X69016Y288295D01*
X70000Y288032D01*
X70984Y288295D01*
X71705Y289016D01*
X71969Y290000D01*
Y10000D02*
X71705Y10984D01*
X70984Y11705D01*
X70000Y11969D01*
X69016Y11705D01*
X68295Y10984D01*
X68032Y10000D01*
X68295Y9016D01*
X69016Y8295D01*
X70000Y8032D01*
X70984Y8295D01*
X71705Y9016D01*
X71969Y10000D01*
Y235000D02*
X71705Y235984D01*
X70984Y236705D01*
X70000Y236968D01*
X69016Y236705D01*
X68295Y235984D01*
X68032Y235000D01*
X68295Y234016D01*
X69016Y233295D01*
X70000Y233032D01*
X70984Y233295D01*
X71705Y234016D01*
X71969Y235000D01*
X438543Y193032D02*
Y196969D01*
X436575Y195000D02*
X440512D01*
X431654Y191260D02*
X445433D01*
X431654Y198740D02*
X445433D01*
Y191260D02*
Y198740D01*
X431654Y191260D02*
Y198740D01*
X438543Y203032D02*
Y206969D01*
X436575Y205000D02*
X440512D01*
X431654Y201260D02*
X445433D01*
X431654Y208740D02*
X445433D01*
Y201260D02*
Y208740D01*
X431654Y201260D02*
Y208740D01*
X438543Y223032D02*
Y226969D01*
X436575Y225000D02*
X440512D01*
X431654Y221260D02*
X445433D01*
X431654Y228740D02*
X445433D01*
Y221260D02*
Y228740D01*
X431654Y221260D02*
Y228740D01*
X438543Y253032D02*
Y256969D01*
X436575Y255000D02*
X440512D01*
X431654Y251260D02*
X445433D01*
X431654Y258740D02*
X445433D01*
Y251260D02*
Y258740D01*
X431654Y251260D02*
Y258740D01*
X366457Y253032D02*
Y256969D01*
X364488Y255000D02*
X368425D01*
X359567Y251260D02*
X373346D01*
X359567Y258740D02*
X373346D01*
Y251260D02*
Y258740D01*
X359567Y251260D02*
Y258740D01*
X366457Y263032D02*
Y266969D01*
X364488Y265000D02*
X368425D01*
X359567Y261260D02*
X373346D01*
X359567Y268740D02*
X373346D01*
Y261260D02*
Y268740D01*
X359567Y261260D02*
Y268740D01*
X318543Y253032D02*
Y256969D01*
X316575Y255000D02*
X320512D01*
X311654Y251260D02*
X325433D01*
X311654Y258740D02*
X325433D01*
Y251260D02*
Y258740D01*
X311654Y251260D02*
Y258740D01*
X318543Y223032D02*
Y226969D01*
X316575Y225000D02*
X320512D01*
X311654Y221260D02*
X325433D01*
X311654Y228740D02*
X325433D01*
Y221260D02*
Y228740D01*
X311654Y221260D02*
Y228740D01*
X318543Y203032D02*
Y206969D01*
X316575Y205000D02*
X320512D01*
X311654Y201260D02*
X325433D01*
X311654Y208740D02*
X325433D01*
Y201260D02*
Y208740D01*
X311654Y201260D02*
Y208740D01*
X318543Y193032D02*
Y196969D01*
X316575Y195000D02*
X320512D01*
X311654Y191260D02*
X325433D01*
X311654Y198740D02*
X325433D01*
Y191260D02*
Y198740D01*
X311654Y191260D02*
Y198740D01*
X246457Y263032D02*
Y266969D01*
X244488Y265000D02*
X248425D01*
X239567Y261260D02*
X253346D01*
X239567Y268740D02*
X253346D01*
Y261260D02*
Y268740D01*
X239567Y261260D02*
Y268740D01*
X246457Y253032D02*
Y256969D01*
X244488Y255000D02*
X248425D01*
X239567Y251260D02*
X253346D01*
X239567Y258740D02*
X253346D01*
Y251260D02*
Y258740D01*
X239567Y251260D02*
Y258740D01*
X413189Y6102D02*
Y73425D01*
X451378D01*
Y6102D02*
Y73425D01*
X413189Y6102D02*
X451378D01*
X198543Y193032D02*
Y196969D01*
X196575Y195000D02*
X200512D01*
X191654Y191260D02*
X205433D01*
X191654Y198740D02*
X205433D01*
Y191260D02*
Y198740D01*
X191654Y191260D02*
Y198740D01*
X198543Y203032D02*
Y206969D01*
X196575Y205000D02*
X200512D01*
X191654Y201260D02*
X205433D01*
X191654Y208740D02*
X205433D01*
Y201260D02*
Y208740D01*
X191654Y201260D02*
Y208740D01*
X198543Y223032D02*
Y226969D01*
X196575Y225000D02*
X200512D01*
X191654Y221260D02*
X205433D01*
X191654Y228740D02*
X205433D01*
Y221260D02*
Y228740D01*
X191654Y221260D02*
Y228740D01*
X198543Y253032D02*
Y256969D01*
X196575Y255000D02*
X200512D01*
X191654Y251260D02*
X205433D01*
X191654Y258740D02*
X205433D01*
Y251260D02*
Y258740D01*
X191654Y251260D02*
Y258740D01*
X126457Y263032D02*
Y266969D01*
X124488Y265000D02*
X128425D01*
X119567Y261260D02*
X133346D01*
X119567Y268740D02*
X133346D01*
Y261260D02*
Y268740D01*
X119567Y261260D02*
Y268740D01*
X126260Y253032D02*
Y256969D01*
X124291Y255000D02*
X128228D01*
X119370Y251260D02*
X133150D01*
X119370Y258740D02*
X133150D01*
Y251260D02*
Y258740D01*
X119370Y251260D02*
Y258740D01*
X299000Y143000D02*
X401000D01*
X299000Y9000D02*
Y143000D01*
Y9000D02*
X401000D01*
Y143000D01*
X200000Y6063D02*
Y13937D01*
X196063Y10000D02*
X203937D01*
X168701Y16299D02*
X231299D01*
Y3701D02*
Y16299D01*
X168701Y3701D02*
Y16299D01*
Y3701D02*
X231299D01*
X119114Y63091D02*
X171673D01*
Y36909D02*
Y63091D01*
X119114Y36909D02*
X171673D01*
X119114D02*
Y63091D01*
X317444Y157999D02*
X319444Y159999D01*
X315944D02*
X320944D01*
X319444Y157999D02*
Y161999D01*
X317444D02*
X319444Y159999D01*
X317444Y157999D02*
Y161999D01*
X310945Y155669D02*
X327106D01*
X310945D02*
Y164331D01*
X327106D01*
Y155669D02*
Y164331D01*
Y165669D02*
Y174331D01*
X310945D02*
X327106D01*
X310945Y165669D02*
Y174331D01*
Y165669D02*
X327106D01*
X317444Y167999D02*
Y171999D01*
X319444Y169999D01*
Y167999D02*
Y171999D01*
X315944Y169999D02*
X320944D01*
X317444Y167999D02*
X319444Y169999D01*
X365753Y160001D02*
X367753Y162001D01*
X364253Y160001D02*
X369253D01*
X365753Y158001D02*
Y162001D01*
Y160001D02*
X367753Y158001D01*
Y162001D01*
X358091Y164331D02*
X374252D01*
Y155669D02*
Y164331D01*
X358091Y155669D02*
X374252D01*
X358091D02*
Y164331D01*
Y165669D02*
Y174331D01*
Y165669D02*
X374252D01*
Y174331D01*
X358091D02*
X374252D01*
X367753Y168001D02*
Y172001D01*
X365753Y170001D02*
X367753Y168001D01*
X365753D02*
Y172001D01*
X364253Y170001D02*
X369253D01*
X365753D02*
X367753Y172001D01*
X51890Y325157D02*
X84567D01*
Y394843D01*
X51890D02*
X84567D01*
X51890Y325157D02*
Y394843D01*
X70000Y356063D02*
Y363937D01*
X66063Y360000D02*
X73937D01*
X51890Y314606D02*
X84173D01*
Y265394D02*
Y314606D01*
X66063Y290000D02*
X73937D01*
X70000Y286063D02*
Y293937D01*
X51890Y265394D02*
Y314606D01*
Y265394D02*
X84173D01*
X111339Y3701D02*
Y16299D01*
X28661D02*
X111339D01*
X28661Y3701D02*
Y16299D01*
Y3701D02*
X111339D01*
X70000Y6063D02*
Y13937D01*
X66063Y10000D02*
X73937D01*
X70000Y231063D02*
Y238937D01*
X66063Y235000D02*
X73937D01*
X38701Y228701D02*
X101299D01*
X38701D02*
Y241299D01*
X101299Y228701D02*
Y241299D01*
X38701D02*
X101299D01*
D69*
X260984Y60000D02*
X260492Y60852D01*
X259508D01*
X259016Y60000D01*
X259508Y59148D01*
X260492D01*
X260984Y60000D01*
D71*
X5000Y0D02*
X515000D01*
X520000Y5000D01*
Y410000D01*
X515000Y415000D02*
X520000Y410000D01*
X5000Y415000D02*
X515000D01*
X0Y410000D02*
X5000Y415000D01*
X0Y5000D02*
Y410000D01*
Y5000D02*
X5000Y0D01*
D89*
X20787Y57146D02*
X20243Y57894D01*
X19363Y57608D01*
Y56683D01*
X20243Y56397D01*
X20787Y57146D01*
X432047Y218937D02*
X445433D01*
Y211063D02*
Y218937D01*
X432047Y211063D02*
X445433D01*
X432047D02*
Y218937D01*
Y238996D02*
X445433D01*
Y231122D02*
Y238996D01*
X432047Y231122D02*
X445433D01*
X432047D02*
Y238996D01*
Y248937D02*
X445433D01*
Y241063D02*
Y248937D01*
X432047Y241063D02*
X445433D01*
X432047D02*
Y248937D01*
Y268937D02*
X445433D01*
Y261063D02*
Y268937D01*
X432047Y261063D02*
X445433D01*
X432047D02*
Y268937D01*
X442776Y302559D02*
Y307441D01*
Y302559D02*
X452421D01*
Y307441D01*
X442776D02*
X452421D01*
X442776Y297559D02*
Y302441D01*
Y297559D02*
X452421D01*
Y302441D01*
X442776D02*
X452421D01*
X442776Y307559D02*
Y312441D01*
Y307559D02*
X452421D01*
Y312441D01*
X442776D02*
X452421D01*
X442047Y316063D02*
X455433D01*
X442047D02*
Y323937D01*
X455433D01*
Y316063D02*
Y323937D01*
X436063Y358307D02*
Y371693D01*
X443937D01*
Y358307D02*
Y371693D01*
X436063Y358307D02*
X443937D01*
X422776Y357559D02*
Y362441D01*
Y357559D02*
X432421D01*
Y362441D01*
X422776D02*
X432421D01*
X422776Y362559D02*
Y367441D01*
Y362559D02*
X432421D01*
Y367441D01*
X422776D02*
X432421D01*
X422776Y367559D02*
Y372441D01*
Y367559D02*
X432421D01*
Y372441D01*
X422776D02*
X432421D01*
X433723Y376600D02*
Y383400D01*
X420973D02*
X433723D01*
X420973Y376600D02*
Y383400D01*
Y376600D02*
X433723D01*
Y386600D02*
Y393400D01*
X420973D02*
X433723D01*
X420973Y386600D02*
Y393400D01*
Y386600D02*
X433723D01*
Y396600D02*
Y403400D01*
X420973D02*
X433723D01*
X420973Y396600D02*
Y403400D01*
Y396600D02*
X433723D01*
X404663D02*
Y403400D01*
Y396600D02*
X417413D01*
Y403400D01*
X404663D02*
X417413D01*
X392579Y397559D02*
Y402441D01*
Y397559D02*
X402224D01*
Y402441D01*
X392579D02*
X402224D01*
X377047Y403937D02*
X390433D01*
Y396063D02*
Y403937D01*
X377047Y396063D02*
X390433D01*
X377047D02*
Y403937D01*
X359466Y396600D02*
Y403400D01*
Y396600D02*
X372216D01*
Y403400D01*
X359466D02*
X372216D01*
X360689Y387559D02*
Y392441D01*
Y387559D02*
X370335D01*
Y392441D01*
X360689D02*
X370335D01*
X377224Y372559D02*
Y377441D01*
X367579D02*
X377224D01*
X367579Y372559D02*
Y377441D01*
Y372559D02*
X377224D01*
Y367559D02*
Y372441D01*
X367579D02*
X377224D01*
X367579Y367559D02*
Y372441D01*
Y367559D02*
X377224D01*
Y362559D02*
Y367441D01*
X367579D02*
X377224D01*
X367579Y362559D02*
Y367441D01*
Y362559D02*
X377224D01*
X356063Y363307D02*
Y376693D01*
X363937D01*
Y363307D02*
Y376693D01*
X356063Y363307D02*
X363937D01*
X365177Y347559D02*
Y352441D01*
Y347559D02*
X374823D01*
Y352441D01*
X365177D02*
X374823D01*
Y337559D02*
Y342441D01*
X365177D02*
X374823D01*
X365177Y337559D02*
Y342441D01*
Y337559D02*
X374823D01*
X379567Y336063D02*
X392953D01*
X379567D02*
Y343937D01*
X392953D01*
Y336063D02*
Y343937D01*
X399567Y336063D02*
X412953D01*
X399567D02*
Y343937D01*
X412953D01*
Y336063D02*
Y343937D01*
X313723Y376600D02*
Y383400D01*
X300973D02*
X313723D01*
X300973Y376600D02*
Y383400D01*
Y376600D02*
X313723D01*
Y387000D02*
Y393800D01*
X300973D02*
X313723D01*
X300973Y387000D02*
Y393800D01*
Y387000D02*
X313723D01*
Y396600D02*
Y403400D01*
X300973D02*
X313723D01*
X300973Y396600D02*
Y403400D01*
Y396600D02*
X313723D01*
X284663D02*
Y403400D01*
Y396600D02*
X297413D01*
Y403400D01*
X284663D02*
X297413D01*
X272776Y397559D02*
Y402441D01*
Y397559D02*
X282421D01*
Y402441D01*
X272776D02*
X282421D01*
X256850Y403937D02*
X270236D01*
Y396063D02*
Y403937D01*
X256850Y396063D02*
X270236D01*
X256850D02*
Y403937D01*
X239466Y396600D02*
Y403400D01*
Y396600D02*
X252216D01*
Y403400D01*
X239466D02*
X252216D01*
X240689Y387559D02*
Y392441D01*
Y387559D02*
X250335D01*
Y392441D01*
X240689D02*
X250335D01*
X316063Y358307D02*
Y371693D01*
X323937D01*
Y358307D02*
Y371693D01*
X316063Y358307D02*
X323937D01*
X302776Y367559D02*
Y372441D01*
Y367559D02*
X312421D01*
Y372441D01*
X302776D02*
X312421D01*
X302776Y362559D02*
Y367441D01*
Y362559D02*
X312421D01*
Y367441D01*
X302776D02*
X312421D01*
X302776Y357559D02*
Y362441D01*
Y357559D02*
X312421D01*
Y362441D01*
X302776D02*
X312421D01*
X257224Y372559D02*
Y377441D01*
X247579D02*
X257224D01*
X247579Y372559D02*
Y377441D01*
Y372559D02*
X257224D01*
Y367559D02*
Y372441D01*
X247579D02*
X257224D01*
X247579Y367559D02*
Y372441D01*
Y367559D02*
X257224D01*
Y362559D02*
Y367441D01*
X247579D02*
X257224D01*
X247579Y362559D02*
Y367441D01*
Y362559D02*
X257224D01*
X236063Y363307D02*
Y376693D01*
X243937D01*
Y363307D02*
Y376693D01*
X236063Y363307D02*
X243937D01*
X266012Y388209D02*
X295343D01*
Y351791D02*
Y388209D01*
X266012Y351791D02*
X295343D01*
X266012D02*
Y388209D01*
X279370Y336063D02*
X292756D01*
X279370D02*
Y343937D01*
X292756D01*
Y336063D02*
Y343937D01*
X259567Y336063D02*
X272953D01*
X259567D02*
Y343937D01*
X272953D01*
Y336063D02*
Y343937D01*
X254823Y337559D02*
Y342441D01*
X245177D02*
X254823D01*
X245177Y337559D02*
Y342441D01*
Y337559D02*
X254823D01*
X245374Y347559D02*
Y352441D01*
Y347559D02*
X255020D01*
Y352441D01*
X245374D02*
X255020D01*
X396161Y284016D02*
Y325984D01*
Y284016D02*
X435098D01*
Y325984D01*
X396161D02*
X435098D01*
X374567Y323937D02*
X387953D01*
Y316063D02*
Y323937D01*
X374567Y316063D02*
X387953D01*
X374567D02*
Y323937D01*
X359567D02*
X372953D01*
Y316063D02*
Y323937D01*
X359567Y316063D02*
X372953D01*
X359567D02*
Y323937D01*
X351600Y322463D02*
X358400D01*
X351600Y309713D02*
Y322463D01*
Y309713D02*
X358400D01*
Y322463D01*
X351600Y305337D02*
X358400D01*
X351600Y292587D02*
Y305337D01*
Y292587D02*
X358400D01*
Y305337D01*
X372224Y307559D02*
Y312441D01*
X362579D02*
X372224D01*
X362579Y307559D02*
Y312441D01*
Y307559D02*
X372224D01*
X362579Y302559D02*
Y307441D01*
Y302559D02*
X372224D01*
Y307441D01*
X362579D02*
X372224D01*
X387224Y304996D02*
Y309878D01*
X377579D02*
X387224D01*
X377579Y304996D02*
Y309878D01*
Y304996D02*
X387224D01*
X374567Y298937D02*
X387953D01*
Y291063D02*
Y298937D01*
X374567Y291063D02*
X387953D01*
X374567D02*
Y298937D01*
X359567D02*
X372953D01*
Y291063D02*
Y298937D01*
X359567Y291063D02*
X372953D01*
X359567D02*
Y298937D01*
X322776Y297559D02*
Y302441D01*
Y297559D02*
X332421D01*
Y302441D01*
X322776D02*
X332421D01*
X322776Y302559D02*
Y307441D01*
Y302559D02*
X332421D01*
Y307441D01*
X322776D02*
X332421D01*
X322776Y307559D02*
Y312441D01*
Y307559D02*
X332421D01*
Y312441D01*
X322776D02*
X332421D01*
X322047Y316063D02*
X335433D01*
X322047D02*
Y323937D01*
X335433D01*
Y316063D02*
Y323937D01*
X276161Y284016D02*
Y325984D01*
Y284016D02*
X315098D01*
Y325984D01*
X276161D02*
X315098D01*
X254567Y323937D02*
X267953D01*
Y316063D02*
Y323937D01*
X254567Y316063D02*
X267953D01*
X254567D02*
Y323937D01*
X239567D02*
X252953D01*
Y316063D02*
Y323937D01*
X239567Y316063D02*
X252953D01*
X239567D02*
Y323937D01*
X252224Y307559D02*
Y312441D01*
X242579D02*
X252224D01*
X242579Y307559D02*
Y312441D01*
Y307559D02*
X252224D01*
X242579Y302559D02*
Y307441D01*
Y302559D02*
X252224D01*
Y307441D01*
X242579D02*
X252224D01*
X267224Y304996D02*
Y309878D01*
X257579D02*
X267224D01*
X257579Y304996D02*
Y309878D01*
Y304996D02*
X267224D01*
X254567Y298937D02*
X267953D01*
Y291063D02*
Y298937D01*
X254567Y291063D02*
X267953D01*
X254567D02*
Y298937D01*
X239567D02*
X252953D01*
Y291063D02*
Y298937D01*
X239567Y291063D02*
X252953D01*
X239567D02*
Y298937D01*
X231600Y305337D02*
X238400D01*
X231600Y292587D02*
Y305337D01*
Y292587D02*
X238400D01*
Y305337D01*
X231600Y322463D02*
X238400D01*
X231600Y309713D02*
Y322463D01*
Y309713D02*
X238400D01*
Y322463D01*
X401063Y265709D02*
Y279094D01*
X408937D01*
Y265709D02*
Y279094D01*
X401063Y265709D02*
X408937D01*
X392756Y277224D02*
X397638D01*
X392756Y267579D02*
Y277224D01*
Y267579D02*
X397638D01*
Y277224D01*
X387756D02*
X392638D01*
X387756Y267579D02*
Y277224D01*
Y267579D02*
X392638D01*
Y277224D01*
X382756D02*
X387638D01*
X382756Y267579D02*
Y277224D01*
Y267579D02*
X387638D01*
Y277224D01*
X417224Y252559D02*
Y257441D01*
X407579D02*
X417224D01*
X407579Y252559D02*
Y257441D01*
Y252559D02*
X417224D01*
X387776D02*
Y257441D01*
Y252559D02*
X397421D01*
Y257441D01*
X387776D02*
X397421D01*
X386114Y208091D02*
Y248642D01*
Y208091D02*
X417020D01*
Y248642D01*
X386114D02*
X417020D01*
X359567Y198937D02*
X372953D01*
Y191063D02*
Y198937D01*
X359567Y191063D02*
X372953D01*
X359567D02*
Y198937D01*
Y208937D02*
X372953D01*
Y201063D02*
Y208937D01*
X359567Y201063D02*
X372953D01*
X359567D02*
Y208937D01*
Y218937D02*
X372953D01*
Y211063D02*
Y218937D01*
X359567Y211063D02*
X372953D01*
X359567D02*
Y218937D01*
Y228937D02*
X372953D01*
Y221063D02*
Y228937D01*
X359567Y221063D02*
X372953D01*
X359567D02*
Y228937D01*
Y238996D02*
X372953D01*
Y231122D02*
Y238996D01*
X359567Y231122D02*
X372953D01*
X359567D02*
Y238996D01*
Y248937D02*
X372953D01*
Y241063D02*
Y248937D01*
X359567Y241063D02*
X372953D01*
X359567D02*
Y248937D01*
X312047Y268937D02*
X325433D01*
Y261063D02*
Y268937D01*
X312047Y261063D02*
X325433D01*
X312047D02*
Y268937D01*
Y248937D02*
X325433D01*
Y241063D02*
Y248937D01*
X312047Y241063D02*
X325433D01*
X312047D02*
Y248937D01*
Y238937D02*
X325433D01*
Y231063D02*
Y238937D01*
X312047Y231063D02*
X325433D01*
X312047D02*
Y238937D01*
Y218937D02*
X325433D01*
Y211063D02*
Y218937D01*
X312047Y211063D02*
X325433D01*
X312047D02*
Y218937D01*
X281063Y265709D02*
Y279094D01*
X288937D01*
Y265709D02*
Y279094D01*
X281063Y265709D02*
X288937D01*
X272559Y277224D02*
X277441D01*
X272559Y267579D02*
Y277224D01*
Y267579D02*
X277441D01*
Y277224D01*
X262559D02*
X267441D01*
X262559Y267579D02*
Y277224D01*
Y267579D02*
X267441D01*
Y277224D01*
X267559D02*
X272441D01*
X267559Y267579D02*
Y277224D01*
Y267579D02*
X272441D01*
Y277224D01*
X297224Y252559D02*
Y257441D01*
X287579D02*
X297224D01*
X287579Y252559D02*
Y257441D01*
Y252559D02*
X297224D01*
X267776D02*
Y257441D01*
Y252559D02*
X277421D01*
Y257441D01*
X267776D02*
X277421D01*
X266114Y208091D02*
Y248642D01*
Y208091D02*
X297020D01*
Y248642D01*
X266114D02*
X297020D01*
X239567Y198937D02*
X252953D01*
Y191063D02*
Y198937D01*
X239567Y191063D02*
X252953D01*
X239567D02*
Y198937D01*
Y208937D02*
X252953D01*
Y201063D02*
Y208937D01*
X239567Y201063D02*
X252953D01*
X239567D02*
Y208937D01*
Y218937D02*
X252953D01*
Y211063D02*
Y218937D01*
X239567Y211063D02*
X252953D01*
X239567D02*
Y218937D01*
Y228937D02*
X252953D01*
Y221063D02*
Y228937D01*
X239567Y221063D02*
X252953D01*
X239567D02*
Y228937D01*
Y238701D02*
X252953D01*
Y230827D02*
Y238701D01*
X239567Y230827D02*
X252953D01*
X239567D02*
Y238701D01*
Y248937D02*
X252953D01*
Y241063D02*
Y248937D01*
X239567Y241063D02*
X252953D01*
X239567D02*
Y248937D01*
X463780Y28032D02*
Y231969D01*
X486220D01*
Y28032D02*
Y231969D01*
X463780Y28032D02*
X486220D01*
X487047Y228937D02*
X500433D01*
Y221063D02*
Y228937D01*
X487047Y221063D02*
X500433D01*
X487047D02*
Y228937D01*
Y218937D02*
X500433D01*
Y211063D02*
Y218937D01*
X487047Y211063D02*
X500433D01*
X487047D02*
Y218937D01*
X514409Y181654D02*
Y196614D01*
X500630Y181654D02*
X514409D01*
X500630D02*
Y196614D01*
X514409D01*
X490183Y195337D02*
X496983D01*
X490183Y182587D02*
Y195337D01*
Y182587D02*
X496983D01*
Y195337D01*
X513920Y201600D02*
Y208400D01*
X501170D02*
X513920D01*
X501170Y201600D02*
Y208400D01*
Y201600D02*
X513920D01*
X508017Y165411D02*
X514817D01*
Y178161D01*
X508017D02*
X514817D01*
X508017Y165411D02*
Y178161D01*
X490591Y164094D02*
Y179055D01*
X504370D01*
Y164094D02*
Y179055D01*
X490591Y164094D02*
X504370D01*
X491080Y152309D02*
Y159109D01*
Y152309D02*
X503830D01*
Y159109D01*
X491080D02*
X503830D01*
X490787Y148898D02*
X504173D01*
Y141024D02*
Y148898D01*
X490787Y141024D02*
X504173D01*
X490787D02*
Y148898D01*
X490591Y124256D02*
Y139217D01*
X504370D01*
Y124256D02*
Y139217D01*
X490591Y124256D02*
X504370D01*
X508057Y125572D02*
X514857D01*
Y138322D01*
X508057D02*
X514857D01*
X508057Y125572D02*
Y138322D01*
X491080Y112470D02*
Y119270D01*
Y112470D02*
X503830D01*
Y119270D01*
X491080D02*
X503830D01*
X490787Y101319D02*
X504173D01*
X490787D02*
Y109193D01*
X504173D01*
Y101319D02*
Y109193D01*
X430691Y181600D02*
Y188400D01*
X417941D02*
X430691D01*
X417941Y181600D02*
Y188400D01*
Y181600D02*
X430691D01*
X436954Y164663D02*
X443754D01*
Y177413D01*
X436954D02*
X443754D01*
X436954Y164663D02*
Y177413D01*
X417008Y164173D02*
X431969D01*
X417008D02*
Y177953D01*
X431969D01*
Y164173D02*
Y177953D01*
X430337Y152308D02*
Y159108D01*
X417587D02*
X430337D01*
X417587Y152308D02*
Y159108D01*
Y152308D02*
X430337D01*
X416654Y133819D02*
X431614D01*
X416654D02*
Y147598D01*
X431614D01*
Y133819D02*
Y147598D01*
X436600Y134663D02*
X443400D01*
Y147413D01*
X436600D02*
X443400D01*
X436600Y134663D02*
Y147413D01*
X449567Y138937D02*
X462953D01*
Y131063D02*
Y138937D01*
X449567Y131063D02*
X462953D01*
X449567D02*
Y138937D01*
Y148937D02*
X462953D01*
Y141063D02*
Y148937D01*
X449567Y141063D02*
X462953D01*
X449567D02*
Y148937D01*
X430337Y122663D02*
Y129463D01*
X417587D02*
X430337D01*
X417587Y122663D02*
Y129463D01*
Y122663D02*
X430337D01*
X436600Y104663D02*
X443400D01*
Y117413D01*
X436600D02*
X443400D01*
X436600Y104663D02*
Y117413D01*
X416654Y104173D02*
X431614D01*
X416654D02*
Y117953D01*
X431614D01*
Y104173D02*
Y117953D01*
X430691Y92624D02*
Y99424D01*
X417941D02*
X430691D01*
X417941Y92624D02*
Y99424D01*
Y92624D02*
X430691D01*
X417008Y74843D02*
X431969D01*
X417008D02*
Y88622D01*
X431969D01*
Y74843D02*
Y88622D01*
X436954Y75332D02*
X443754D01*
Y88082D01*
X436954D02*
X443754D01*
X436954Y75332D02*
Y88082D01*
X449567Y88937D02*
X462953D01*
Y81063D02*
Y88937D01*
X449567Y81063D02*
X462953D01*
X449567D02*
Y88937D01*
X487776Y42559D02*
Y47441D01*
Y42559D02*
X497421D01*
Y47441D01*
X487776D02*
X497421D01*
X487776Y48031D02*
Y52913D01*
Y48031D02*
X497421D01*
Y52913D01*
X487776D02*
X497421D01*
X462224Y32559D02*
Y37441D01*
X452579D02*
X462224D01*
X452579Y32559D02*
Y37441D01*
Y32559D02*
X462224D01*
Y27559D02*
Y32441D01*
X452579D02*
X462224D01*
X452579Y27559D02*
Y32441D01*
Y27559D02*
X462224D01*
X406600Y36400D02*
X413400D01*
X406600Y23650D02*
Y36400D01*
Y23650D02*
X413400D01*
Y36400D01*
X202776Y307441D02*
X212421D01*
Y302559D02*
Y307441D01*
X202776Y302559D02*
X212421D01*
X202776D02*
Y307441D01*
Y307559D02*
Y312441D01*
Y307559D02*
X212421D01*
Y312441D01*
X202776D02*
X212421D01*
X202047Y316063D02*
X215433D01*
X202047D02*
Y323937D01*
X215433D01*
Y316063D02*
Y323937D01*
X192047Y218937D02*
X205433D01*
Y211063D02*
Y218937D01*
X192047Y211063D02*
X205433D01*
X192047D02*
Y218937D01*
Y238937D02*
X205433D01*
Y231063D02*
Y238937D01*
X192047Y231063D02*
X205433D01*
X192047D02*
Y238937D01*
Y248937D02*
X205433D01*
Y241063D02*
Y248937D01*
X192047Y241063D02*
X205433D01*
X192047D02*
Y248937D01*
Y268937D02*
X205433D01*
Y261063D02*
Y268937D01*
X192047Y261063D02*
X205433D01*
X192047D02*
Y268937D01*
X177421Y252559D02*
Y257441D01*
X167776D02*
X177421D01*
X167776Y252559D02*
Y257441D01*
Y252559D02*
X177421D01*
X147579D02*
Y257441D01*
Y252559D02*
X157224D01*
Y257441D01*
X147579D02*
X157224D01*
X146114Y208091D02*
Y248642D01*
Y208091D02*
X177020D01*
Y248642D01*
X146114D02*
X177020D01*
X161063Y265709D02*
Y279094D01*
X168937D01*
Y265709D02*
Y279094D01*
X161063Y265709D02*
X168937D01*
X152559Y277224D02*
X157441D01*
X152559Y267579D02*
Y277224D01*
Y267579D02*
X157441D01*
Y277224D01*
X147559D02*
X152441D01*
X147559Y267579D02*
Y277224D01*
Y267579D02*
X152441D01*
Y277224D01*
X142559D02*
X147441D01*
X142559Y267579D02*
Y277224D01*
Y267579D02*
X147441D01*
Y277224D01*
X119567Y248937D02*
X132953D01*
Y241063D02*
Y248937D01*
X119567Y241063D02*
X132953D01*
X119567D02*
Y248937D01*
Y238937D02*
X132953D01*
Y231063D02*
Y238937D01*
X119567Y231063D02*
X132953D01*
X119567D02*
Y238937D01*
Y228937D02*
X132953D01*
Y221063D02*
Y228937D01*
X119567Y221063D02*
X132953D01*
X119567D02*
Y228937D01*
Y218937D02*
X132953D01*
Y211063D02*
Y218937D01*
X119567Y211063D02*
X132953D01*
X119567D02*
Y218937D01*
Y208937D02*
X132953D01*
Y201063D02*
Y208937D01*
X119567Y201063D02*
X132953D01*
X119567D02*
Y208937D01*
Y198937D02*
X132953D01*
Y191063D02*
Y198937D01*
X119567Y191063D02*
X132953D01*
X119567D02*
Y198937D01*
X335537Y107325D02*
X342337D01*
X335537Y94575D02*
Y107325D01*
Y94575D02*
X342337D01*
Y107325D01*
X360827Y93642D02*
Y108602D01*
X347047Y93642D02*
X360827D01*
X347047D02*
Y108602D01*
X360827D01*
X360337Y111403D02*
Y118203D01*
X347587D02*
X360337D01*
X347587Y111403D02*
Y118203D01*
Y111403D02*
X360337D01*
X305537Y85337D02*
X312337D01*
X305537Y72587D02*
Y85337D01*
Y72587D02*
X312337D01*
Y85337D01*
X330827Y71654D02*
Y86614D01*
X317047Y71654D02*
X330827D01*
X317047D02*
Y86614D01*
X330827D01*
X330337Y91600D02*
Y98400D01*
X317587D02*
X330337D01*
X317587Y91600D02*
Y98400D01*
Y91600D02*
X330337D01*
X322559Y122224D02*
X327441D01*
X322559Y112579D02*
Y122224D01*
Y112579D02*
X327441D01*
Y122224D01*
X317559D02*
X322441D01*
X317559Y112579D02*
Y122224D01*
Y112579D02*
X322441D01*
Y122224D01*
X312362D02*
X317244D01*
X312362Y112579D02*
Y122224D01*
Y112579D02*
X317244D01*
Y122224D01*
X171600Y164663D02*
X178400D01*
Y177413D01*
X171600D02*
X178400D01*
X171600Y164663D02*
Y177413D01*
X141600Y164663D02*
X148400D01*
Y177413D01*
X141600D02*
X148400D01*
X141600Y164663D02*
Y177413D01*
X153307Y163386D02*
Y178346D01*
X167087D01*
Y163386D02*
Y178346D01*
X153307Y163386D02*
X167087D01*
X123110D02*
Y178346D01*
X136890D01*
Y163386D02*
Y178346D01*
X123110Y163386D02*
X136890D01*
X153797Y151600D02*
Y158400D01*
Y151600D02*
X166547D01*
Y158400D01*
X153797D02*
X166547D01*
X123600Y151600D02*
Y158400D01*
Y151600D02*
X136350D01*
Y158400D01*
X123600D02*
X136350D01*
X97559Y137776D02*
X102441D01*
Y147421D01*
X97559D02*
X102441D01*
X97559Y137776D02*
Y147421D01*
X102559Y137776D02*
X107441D01*
Y147421D01*
X102559D02*
X107441D01*
X102559Y137776D02*
Y147421D01*
X92559Y137776D02*
X97441D01*
Y147421D01*
X92559D02*
X97441D01*
X92559Y137776D02*
Y147421D01*
X246403Y162537D02*
X253203D01*
Y175287D01*
X246403D02*
X253203D01*
X246403Y162537D02*
Y175287D01*
X236600Y162537D02*
X243400D01*
Y175287D01*
X236600D02*
X243400D01*
X236600Y162537D02*
Y175287D01*
X240846Y110768D02*
X284154D01*
Y157421D01*
X240846D02*
X284154D01*
X240846Y110768D02*
Y157421D01*
X231600Y127537D02*
X238400D01*
Y140287D01*
X231600D02*
X238400D01*
X231600Y127537D02*
Y140287D01*
X242559Y108134D02*
X247441D01*
X242559Y98488D02*
Y108134D01*
Y98488D02*
X247441D01*
Y108134D01*
X247559D02*
X252441D01*
X247559Y98488D02*
Y108134D01*
Y98488D02*
X252441D01*
Y108134D01*
X237362D02*
X242244D01*
X237362Y98488D02*
Y108134D01*
Y98488D02*
X242244D01*
Y108134D01*
X145772Y33500D02*
X157772D01*
Y26500D02*
Y33500D01*
X145772Y26500D02*
X157772D01*
X145772D02*
Y33500D01*
X132228Y26500D02*
X144228D01*
X132228D02*
Y33500D01*
X144228D01*
Y26500D02*
Y33500D01*
X83600Y26600D02*
Y33400D01*
Y26600D02*
X96350D01*
Y33400D01*
X83600D02*
X96350D01*
X101600Y39663D02*
X108400D01*
Y52413D01*
X101600D02*
X108400D01*
X101600Y39663D02*
Y52413D01*
X83110Y38386D02*
Y53346D01*
X96890D01*
Y38386D02*
Y53346D01*
X83110Y38386D02*
X96890D01*
X53600Y26600D02*
Y33400D01*
Y26600D02*
X66350D01*
Y33400D01*
X53600D02*
X66350D01*
X71600Y39663D02*
X78400D01*
Y52413D01*
X71600D02*
X78400D01*
X71600Y39663D02*
Y52413D01*
X53110Y38386D02*
Y53346D01*
X66890D01*
Y38386D02*
Y53346D01*
X53110Y38386D02*
X66890D01*
X36063Y49567D02*
Y62953D01*
X43937D01*
Y49567D02*
Y62953D01*
X36063Y49567D02*
X43937D01*
X17343Y51634D02*
Y62657D01*
X20000D01*
X22657D01*
Y51634D02*
Y62657D01*
X17343Y51634D02*
X22657D01*
X19016Y57146D02*
X20984D01*
X20000Y56161D02*
Y58130D01*
X15669Y48346D02*
X24331D01*
X15669Y27087D02*
Y48346D01*
Y27087D02*
X24331D01*
Y48346D01*
X17559Y137776D02*
X22441D01*
Y147421D01*
X17559D02*
X22441D01*
X17559Y137776D02*
Y147421D01*
X22559Y137776D02*
X27441D01*
Y147421D01*
X22559D02*
X27441D01*
X22559Y137776D02*
Y147421D01*
X12559Y137776D02*
X17441D01*
Y147421D01*
X12559D02*
X17441D01*
X12559Y137776D02*
Y147421D01*
X13307Y158937D02*
X26693D01*
Y151063D02*
Y158937D01*
X13307Y151063D02*
X26693D01*
X13307D02*
Y158937D01*
X9268Y65807D02*
X220732D01*
Y134941D01*
X9268D02*
X220732D01*
X9268Y65807D02*
Y134941D01*
X37598Y193012D02*
Y206988D01*
Y193012D02*
X62402D01*
Y206988D01*
X37598D02*
X62402D01*
X122579Y302559D02*
Y307441D01*
Y302559D02*
X132224D01*
Y307441D01*
X122579D02*
X132224D01*
Y307559D02*
Y312441D01*
X122579D02*
X132224D01*
X122579Y307559D02*
Y312441D01*
Y307559D02*
X132224D01*
X147224Y304996D02*
Y309878D01*
X137579D02*
X147224D01*
X137579Y304996D02*
Y309878D01*
Y304996D02*
X147224D01*
X134567Y298937D02*
X147953D01*
Y291063D02*
Y298937D01*
X134567Y291063D02*
X147953D01*
X134567D02*
Y298937D01*
X119567D02*
X132953D01*
Y291063D02*
Y298937D01*
X119567Y291063D02*
X132953D01*
X119567D02*
Y298937D01*
X134567Y323937D02*
X147953D01*
Y316063D02*
Y323937D01*
X134567Y316063D02*
X147953D01*
X134567D02*
Y323937D01*
X119567D02*
X132953D01*
Y316063D02*
Y323937D01*
X119567Y316063D02*
X132953D01*
X119567D02*
Y323937D01*
X111600Y305337D02*
X118400D01*
X111600Y292587D02*
Y305337D01*
Y292587D02*
X118400D01*
Y305337D01*
X111600Y322463D02*
X118400D01*
X111600Y309713D02*
Y322463D01*
Y309713D02*
X118400D01*
Y322463D01*
X156161Y284016D02*
Y325984D01*
Y284016D02*
X195098D01*
Y325984D01*
X156161D02*
X195098D01*
X159567Y336063D02*
X172953D01*
X159567D02*
Y343937D01*
X172953D01*
Y336063D02*
Y343937D01*
X139567Y336063D02*
X152953D01*
X139567D02*
Y343937D01*
X152953D01*
Y336063D02*
Y343937D01*
X134626Y337559D02*
Y342441D01*
X124980D02*
X134626D01*
X124980Y337559D02*
Y342441D01*
Y337559D02*
X134626D01*
X125177Y347559D02*
Y352441D01*
Y347559D02*
X134823D01*
Y352441D01*
X125177D02*
X134823D01*
X137224Y367559D02*
Y372441D01*
X127579D02*
X137224D01*
X127579Y367559D02*
Y372441D01*
Y367559D02*
X137224D01*
Y362559D02*
Y367441D01*
X127579D02*
X137224D01*
X127579Y362559D02*
Y367441D01*
Y362559D02*
X137224D01*
Y372559D02*
Y377441D01*
X127579D02*
X137224D01*
X127579Y372559D02*
Y377441D01*
Y372559D02*
X137224D01*
X116063Y363386D02*
Y376772D01*
X123937D01*
Y363386D02*
Y376772D01*
X116063Y363386D02*
X123937D01*
X145335Y388209D02*
X174665D01*
Y351791D02*
Y388209D01*
X145335Y351791D02*
X174665D01*
X145335D02*
Y388209D01*
X182776Y362559D02*
Y367441D01*
Y362559D02*
X192421D01*
Y367441D01*
X182776D02*
X192421D01*
X182776Y367559D02*
Y372441D01*
Y367559D02*
X192421D01*
Y372441D01*
X182776D02*
X192421D01*
X182776Y357559D02*
Y362441D01*
Y357559D02*
X192421D01*
Y362441D01*
X182776D02*
X192421D01*
X196063Y358386D02*
Y371772D01*
X203937D01*
Y358386D02*
Y371772D01*
X196063Y358386D02*
X203937D01*
X193998Y376600D02*
Y383400D01*
X181248D02*
X193998D01*
X181248Y376600D02*
Y383400D01*
Y376600D02*
X193998D01*
Y386600D02*
Y393400D01*
X181248D02*
X193998D01*
X181248Y386600D02*
Y393400D01*
Y386600D02*
X193998D01*
Y396600D02*
Y403400D01*
X181248D02*
X193998D01*
X181248Y396600D02*
Y403400D01*
Y396600D02*
X193998D01*
X164663D02*
Y403400D01*
Y396600D02*
X177413D01*
Y403400D01*
X164663D02*
X177413D01*
X153202Y397559D02*
Y402441D01*
Y397559D02*
X162847D01*
Y402441D01*
X153202D02*
X162847D01*
X137337Y403937D02*
X150723D01*
Y396063D02*
Y403937D01*
X137337Y396063D02*
X150723D01*
X137337D02*
Y403937D01*
X120689Y387959D02*
Y392841D01*
Y387959D02*
X130335D01*
Y392841D01*
X120689D02*
X130335D01*
X119466Y396600D02*
Y403400D01*
Y396600D02*
X132216D01*
Y403400D01*
X119466D02*
X132216D01*
X292537Y156600D02*
Y163400D01*
Y156600D02*
X305287D01*
Y163400D01*
X292537D02*
X305287D01*
X292537Y166600D02*
Y173400D01*
Y166600D02*
X305287D01*
Y173400D01*
X292537D02*
X305287D01*
X392660Y156600D02*
Y163400D01*
X379910D02*
X392660D01*
X379910Y156600D02*
Y163400D01*
Y156600D02*
X392660D01*
X392463Y166600D02*
Y173400D01*
X379713D02*
X392463D01*
X379713Y166600D02*
Y173400D01*
Y166600D02*
X392463D01*
X37421Y262559D02*
Y267441D01*
X27776D02*
X37421D01*
X27776Y262559D02*
Y267441D01*
Y262559D02*
X37421D01*
X17579D02*
Y267441D01*
Y262559D02*
X27224D01*
Y267441D01*
X17579D02*
X27224D01*
X14016Y382244D02*
X35984D01*
Y277756D02*
Y382244D01*
X14016Y277756D02*
X35984D01*
X14016D02*
Y382244D01*
X202776Y297559D02*
Y302441D01*
Y297559D02*
X212421D01*
Y302441D01*
X202776D02*
X212421D01*
X17776Y187559D02*
Y192441D01*
Y187559D02*
X27421D01*
Y192441D01*
X17776D02*
X27421D01*
X17776Y192559D02*
Y197441D01*
Y192559D02*
X27421D01*
Y197441D01*
X17776D02*
X27421D01*
X17776Y197559D02*
Y202441D01*
Y197559D02*
X27421D01*
Y202441D01*
X17776D02*
X27421D01*
X15709Y213937D02*
X29094D01*
Y206063D02*
Y213937D01*
X15709Y206063D02*
X29094D01*
X15709D02*
Y213937D01*
X82224Y197559D02*
Y202441D01*
X72579D02*
X82224D01*
X72579Y197559D02*
Y202441D01*
Y197559D02*
X82224D01*
Y202559D02*
Y207441D01*
X72579D02*
X82224D01*
X72579Y202559D02*
Y207441D01*
Y202559D02*
X82224D01*
Y207559D02*
Y212441D01*
X72579D02*
X82224D01*
X72579Y207559D02*
Y212441D01*
Y207559D02*
X82224D01*
X70709Y193937D02*
X84094D01*
Y186063D02*
Y193937D01*
X70709Y186063D02*
X84094D01*
X70709D02*
Y193937D01*
X386012Y351791D02*
Y388209D01*
Y351791D02*
X415343D01*
Y388209D01*
X386012D02*
X415343D01*
D90*
X260748Y30472D02*
X260231Y31183D01*
X259395Y30912D01*
Y30032D01*
X260231Y29761D01*
X260748Y30472D01*
M02*
